ISO-10303-21;
HEADER;
/* Generated by software containing ST-Developer
 * from STEP Tools, Inc. (www.steptools.com) 
 */
/* OPTION: using custom schema-name function */

FILE_DESCRIPTION(
/* description */ (''),
/* implementation_level */ '2;1');

FILE_NAME(
/* name */ 'EL Mitered Vertical Mullions x72',
/* time_stamp */ '2024-03-03T17:20:33-06:00',
/* author */ (''),
/* organization */ (''),
/* preprocessor_version */ 'ST-DEVELOPER v19.2',
/* originating_system */ 'Rhino 8.4',
/* authorisation */ '');

FILE_SCHEMA (('CONFIG_CONTROL_DESIGN'));
ENDSEC;

DATA;
#10=SHAPE_REPRESENTATION_RELATIONSHIP('','',#405,#12);
#11=MANIFOLD_SOLID_BREP('brep_1',#13);
#12=ADVANCED_BREP_SHAPE_REPRESENTATION('brep_rep_0',(#11,#436),#404);
#13=CLOSED_SHELL('',(#14,#15,#16,#17,#18,#19,#20,#21,#22,#23,#24,#25,#26,
#27,#28,#29,#30));
#14=ADVANCED_FACE('',(#37,#31,#32,#33),#308,.T.);
#15=ADVANCED_FACE('',(#38),#299,.T.);
#16=ADVANCED_FACE('',(#39,#34,#35,#36),#309,.T.);
#17=ADVANCED_FACE('',(#40),#300,.F.);
#18=ADVANCED_FACE('',(#41),#310,.T.);
#19=ADVANCED_FACE('',(#42),#301,.T.);
#20=ADVANCED_FACE('',(#43),#311,.T.);
#21=ADVANCED_FACE('',(#44),#312,.T.);
#22=ADVANCED_FACE('',(#45),#313,.T.);
#23=ADVANCED_FACE('',(#46),#302,.F.);
#24=ADVANCED_FACE('',(#47),#303,.F.);
#25=ADVANCED_FACE('',(#48),#304,.F.);
#26=ADVANCED_FACE('',(#49),#314,.T.);
#27=ADVANCED_FACE('',(#50),#315,.T.);
#28=ADVANCED_FACE('',(#51),#305,.F.);
#29=ADVANCED_FACE('',(#52),#306,.F.);
#30=ADVANCED_FACE('',(#53),#307,.F.);
#31=FACE_BOUND('',#55,.T.);
#32=FACE_BOUND('',#56,.T.);
#33=FACE_BOUND('',#57,.T.);
#34=FACE_BOUND('',#60,.T.);
#35=FACE_BOUND('',#61,.T.);
#36=FACE_BOUND('',#62,.T.);
#37=FACE_OUTER_BOUND('',#54,.T.);
#38=FACE_OUTER_BOUND('',#58,.T.);
#39=FACE_OUTER_BOUND('',#59,.T.);
#40=FACE_OUTER_BOUND('',#63,.T.);
#41=FACE_OUTER_BOUND('',#64,.T.);
#42=FACE_OUTER_BOUND('',#65,.T.);
#43=FACE_OUTER_BOUND('',#66,.T.);
#44=FACE_OUTER_BOUND('',#67,.T.);
#45=FACE_OUTER_BOUND('',#68,.T.);
#46=FACE_OUTER_BOUND('',#69,.T.);
#47=FACE_OUTER_BOUND('',#70,.T.);
#48=FACE_OUTER_BOUND('',#71,.T.);
#49=FACE_OUTER_BOUND('',#72,.T.);
#50=FACE_OUTER_BOUND('',#73,.T.);
#51=FACE_OUTER_BOUND('',#74,.T.);
#52=FACE_OUTER_BOUND('',#75,.T.);
#53=FACE_OUTER_BOUND('',#76,.T.);
#54=EDGE_LOOP('',(#77,#78,#79,#80));
#55=EDGE_LOOP('',(#81,#82));
#56=EDGE_LOOP('',(#83,#84));
#57=EDGE_LOOP('',(#85,#86));
#58=EDGE_LOOP('',(#87,#88,#89,#90));
#59=EDGE_LOOP('',(#91,#92,#93,#94));
#60=EDGE_LOOP('',(#95,#96));
#61=EDGE_LOOP('',(#97,#98));
#62=EDGE_LOOP('',(#99,#100));
#63=EDGE_LOOP('',(#101,#102,#103,#104));
#64=EDGE_LOOP('',(#105,#106,#107,#108));
#65=EDGE_LOOP('',(#109,#110,#111,#112));
#66=EDGE_LOOP('',(#113,#114,#115,#116));
#67=EDGE_LOOP('',(#117,#118,#119,#120));
#68=EDGE_LOOP('',(#121,#122,#123,#124));
#69=EDGE_LOOP('',(#125,#126,#127,#128));
#70=EDGE_LOOP('',(#129,#130,#131,#132));
#71=EDGE_LOOP('',(#133,#134,#135,#136));
#72=EDGE_LOOP('',(#137,#138,#139,#140,#141,#142,#143,#144,#145));
#73=EDGE_LOOP('',(#146,#147,#148,#149,#150,#151,#152,#153,#154));
#74=EDGE_LOOP('',(#155,#156,#157,#158));
#75=EDGE_LOOP('',(#159,#160,#161,#162));
#76=EDGE_LOOP('',(#163,#164,#165,#166));
#77=ORIENTED_EDGE('',*,*,#167,.T.);
#78=ORIENTED_EDGE('',*,*,#179,.T.);
#79=ORIENTED_EDGE('',*,*,#182,.T.);
#80=ORIENTED_EDGE('',*,*,#181,.F.);
#81=ORIENTED_EDGE('',*,*,#204,.F.);
#82=ORIENTED_EDGE('',*,*,#184,.F.);
#83=ORIENTED_EDGE('',*,*,#207,.F.);
#84=ORIENTED_EDGE('',*,*,#187,.F.);
#85=ORIENTED_EDGE('',*,*,#210,.F.);
#86=ORIENTED_EDGE('',*,*,#190,.F.);
#87=ORIENTED_EDGE('',*,*,#202,.T.);
#88=ORIENTED_EDGE('',*,*,#170,.T.);
#89=ORIENTED_EDGE('',*,*,#194,.T.);
#90=ORIENTED_EDGE('',*,*,#168,.F.);
#91=ORIENTED_EDGE('',*,*,#180,.T.);
#92=ORIENTED_EDGE('',*,*,#168,.T.);
#93=ORIENTED_EDGE('',*,*,#169,.T.);
#94=ORIENTED_EDGE('',*,*,#172,.F.);
#95=ORIENTED_EDGE('',*,*,#205,.F.);
#96=ORIENTED_EDGE('',*,*,#185,.F.);
#97=ORIENTED_EDGE('',*,*,#208,.F.);
#98=ORIENTED_EDGE('',*,*,#188,.F.);
#99=ORIENTED_EDGE('',*,*,#211,.F.);
#100=ORIENTED_EDGE('',*,*,#191,.F.);
#101=ORIENTED_EDGE('',*,*,#201,.T.);
#102=ORIENTED_EDGE('',*,*,#172,.T.);
#103=ORIENTED_EDGE('',*,*,#195,.T.);
#104=ORIENTED_EDGE('',*,*,#174,.F.);
#105=ORIENTED_EDGE('',*,*,#200,.T.);
#106=ORIENTED_EDGE('',*,*,#174,.T.);
#107=ORIENTED_EDGE('',*,*,#196,.T.);
#108=ORIENTED_EDGE('',*,*,#175,.F.);
#109=ORIENTED_EDGE('',*,*,#199,.T.);
#110=ORIENTED_EDGE('',*,*,#175,.T.);
#111=ORIENTED_EDGE('',*,*,#197,.T.);
#112=ORIENTED_EDGE('',*,*,#177,.F.);
#113=ORIENTED_EDGE('',*,*,#171,.T.);
#114=ORIENTED_EDGE('',*,*,#177,.T.);
#115=ORIENTED_EDGE('',*,*,#176,.T.);
#116=ORIENTED_EDGE('',*,*,#178,.F.);
#117=ORIENTED_EDGE('',*,*,#198,.T.);
#118=ORIENTED_EDGE('',*,*,#178,.T.);
#119=ORIENTED_EDGE('',*,*,#193,.T.);
#120=ORIENTED_EDGE('',*,*,#179,.F.);
#121=ORIENTED_EDGE('',*,*,#173,.T.);
#122=ORIENTED_EDGE('',*,*,#181,.T.);
#123=ORIENTED_EDGE('',*,*,#183,.T.);
#124=ORIENTED_EDGE('',*,*,#170,.F.);
#125=ORIENTED_EDGE('',*,*,#204,.T.);
#126=ORIENTED_EDGE('',*,*,#186,.T.);
#127=ORIENTED_EDGE('',*,*,#185,.T.);
#128=ORIENTED_EDGE('',*,*,#203,.F.);
#129=ORIENTED_EDGE('',*,*,#207,.T.);
#130=ORIENTED_EDGE('',*,*,#189,.T.);
#131=ORIENTED_EDGE('',*,*,#188,.T.);
#132=ORIENTED_EDGE('',*,*,#206,.F.);
#133=ORIENTED_EDGE('',*,*,#210,.T.);
#134=ORIENTED_EDGE('',*,*,#192,.T.);
#135=ORIENTED_EDGE('',*,*,#191,.T.);
#136=ORIENTED_EDGE('',*,*,#209,.F.);
#137=ORIENTED_EDGE('',*,*,#193,.F.);
#138=ORIENTED_EDGE('',*,*,#176,.F.);
#139=ORIENTED_EDGE('',*,*,#197,.F.);
#140=ORIENTED_EDGE('',*,*,#196,.F.);
#141=ORIENTED_EDGE('',*,*,#195,.F.);
#142=ORIENTED_EDGE('',*,*,#169,.F.);
#143=ORIENTED_EDGE('',*,*,#194,.F.);
#144=ORIENTED_EDGE('',*,*,#183,.F.);
#145=ORIENTED_EDGE('',*,*,#182,.F.);
#146=ORIENTED_EDGE('',*,*,#173,.F.);
#147=ORIENTED_EDGE('',*,*,#202,.F.);
#148=ORIENTED_EDGE('',*,*,#180,.F.);
#149=ORIENTED_EDGE('',*,*,#201,.F.);
#150=ORIENTED_EDGE('',*,*,#200,.F.);
#151=ORIENTED_EDGE('',*,*,#199,.F.);
#152=ORIENTED_EDGE('',*,*,#171,.F.);
#153=ORIENTED_EDGE('',*,*,#198,.F.);
#154=ORIENTED_EDGE('',*,*,#167,.F.);
#155=ORIENTED_EDGE('',*,*,#203,.T.);
#156=ORIENTED_EDGE('',*,*,#205,.T.);
#157=ORIENTED_EDGE('',*,*,#186,.F.);
#158=ORIENTED_EDGE('',*,*,#184,.T.);
#159=ORIENTED_EDGE('',*,*,#206,.T.);
#160=ORIENTED_EDGE('',*,*,#208,.T.);
#161=ORIENTED_EDGE('',*,*,#189,.F.);
#162=ORIENTED_EDGE('',*,*,#187,.T.);
#163=ORIENTED_EDGE('',*,*,#209,.T.);
#164=ORIENTED_EDGE('',*,*,#211,.T.);
#165=ORIENTED_EDGE('',*,*,#192,.F.);
#166=ORIENTED_EDGE('',*,*,#190,.T.);
#167=EDGE_CURVE('',#278,#279,#246,.T.);
#168=EDGE_CURVE('',#280,#272,#236,.T.);
#169=EDGE_CURVE('',#272,#273,#247,.T.);
#170=EDGE_CURVE('',#281,#271,#237,.T.);
#171=EDGE_CURVE('',#286,#285,#248,.T.);
#172=EDGE_CURVE('',#282,#273,#249,.T.);
#173=EDGE_CURVE('',#281,#278,#250,.T.);
#174=EDGE_CURVE('',#283,#274,#238,.T.);
#175=EDGE_CURVE('',#284,#275,#251,.T.);
#176=EDGE_CURVE('',#276,#277,#252,.T.);
#177=EDGE_CURVE('',#285,#276,#239,.T.);
#178=EDGE_CURVE('',#286,#277,#253,.T.);
#179=EDGE_CURVE('',#279,#269,#254,.T.);
#180=EDGE_CURVE('',#282,#280,#255,.T.);
#181=EDGE_CURVE('',#278,#270,#256,.T.);
#182=EDGE_CURVE('',#269,#270,#257,.T.);
#183=EDGE_CURVE('',#270,#271,#258,.T.);
#184=EDGE_CURVE('',#287,#293,#212,.T.);
#185=EDGE_CURVE('',#288,#294,#213,.T.);
#186=EDGE_CURVE('',#287,#288,#240,.T.);
#187=EDGE_CURVE('',#289,#295,#214,.T.);
#188=EDGE_CURVE('',#290,#296,#215,.T.);
#189=EDGE_CURVE('',#289,#290,#241,.T.);
#190=EDGE_CURVE('',#291,#297,#216,.T.);
#191=EDGE_CURVE('',#292,#298,#217,.T.);
#192=EDGE_CURVE('',#291,#292,#242,.T.);
#193=EDGE_CURVE('',#277,#269,#259,.T.);
#194=EDGE_CURVE('',#271,#272,#260,.T.);
#195=EDGE_CURVE('',#273,#274,#261,.T.);
#196=EDGE_CURVE('',#274,#275,#262,.T.);
#197=EDGE_CURVE('',#275,#276,#263,.T.);
#198=EDGE_CURVE('',#279,#286,#264,.T.);
#199=EDGE_CURVE('',#285,#284,#265,.T.);
#200=EDGE_CURVE('',#284,#283,#266,.T.);
#201=EDGE_CURVE('',#283,#282,#267,.T.);
#202=EDGE_CURVE('',#280,#281,#268,.T.);
#203=EDGE_CURVE('',#293,#294,#243,.T.);
#204=EDGE_CURVE('',#293,#287,#218,.T.);
#205=EDGE_CURVE('',#294,#288,#219,.T.);
#206=EDGE_CURVE('',#295,#296,#244,.T.);
#207=EDGE_CURVE('',#295,#289,#220,.T.);
#208=EDGE_CURVE('',#296,#290,#221,.T.);
#209=EDGE_CURVE('',#297,#298,#245,.T.);
#210=EDGE_CURVE('',#297,#291,#222,.T.);
#211=EDGE_CURVE('',#298,#292,#223,.T.);
#212=TRIMMED_CURVE($,#224,(#569),(#570),.T.,.CARTESIAN.);
#213=TRIMMED_CURVE($,#225,(#572),(#573),.T.,.CARTESIAN.);
#214=TRIMMED_CURVE($,#226,(#577),(#578),.T.,.CARTESIAN.);
#215=TRIMMED_CURVE($,#227,(#580),(#581),.T.,.CARTESIAN.);
#216=TRIMMED_CURVE($,#228,(#585),(#586),.T.,.CARTESIAN.);
#217=TRIMMED_CURVE($,#229,(#588),(#589),.T.,.CARTESIAN.);
#218=TRIMMED_CURVE($,#230,(#661),(#662),.T.,.CARTESIAN.);
#219=TRIMMED_CURVE($,#231,(#664),(#665),.T.,.CARTESIAN.);
#220=TRIMMED_CURVE($,#232,(#669),(#670),.T.,.CARTESIAN.);
#221=TRIMMED_CURVE($,#233,(#672),(#673),.T.,.CARTESIAN.);
#222=TRIMMED_CURVE($,#234,(#677),(#678),.T.,.CARTESIAN.);
#223=TRIMMED_CURVE($,#235,(#680),(#681),.T.,.CARTESIAN.);
#224=CIRCLE('',#424,0.03125);
#225=CIRCLE('',#425,0.03125);
#226=CIRCLE('',#426,0.03125);
#227=CIRCLE('',#427,0.03125);
#228=CIRCLE('',#428,0.0312500000001137);
#229=CIRCLE('',#429,0.0312500000002274);
#230=CIRCLE('',#430,0.0312499999998863);
#231=CIRCLE('',#431,0.03125);
#232=CIRCLE('',#432,0.03125);
#233=CIRCLE('',#433,0.03125);
#234=CIRCLE('',#434,0.0312499999996589);
#235=CIRCLE('',#435,0.03125);
#236=(
BOUNDED_CURVE()
B_SPLINE_CURVE(1,(#532,#533),.UNSPECIFIED.,.F.,.F.)
B_SPLINE_CURVE_WITH_KNOTS((2,2),(24.2930591259655,35.9537275064539),
 .UNSPECIFIED.)
CURVE()
GEOMETRIC_REPRESENTATION_ITEM()
RATIONAL_B_SPLINE_CURVE((1.,1.))
REPRESENTATION_ITEM('')
);
#237=(
BOUNDED_CURVE()
B_SPLINE_CURVE(1,(#536,#537),.UNSPECIFIED.,.F.,.F.)
B_SPLINE_CURVE_WITH_KNOTS((2,2),(24.2516638887668,35.9951227436527),
 .UNSPECIFIED.)
CURVE()
GEOMETRIC_REPRESENTATION_ITEM()
RATIONAL_B_SPLINE_CURVE((1.,1.))
REPRESENTATION_ITEM('')
);
#238=(
BOUNDED_CURVE()
B_SPLINE_CURVE(1,(#546,#547),.UNSPECIFIED.,.F.,.F.)
B_SPLINE_CURVE_WITH_KNOTS((2,2),(24.3337789203102,35.9130077121095),
 .UNSPECIFIED.)
CURVE()
GEOMETRIC_REPRESENTATION_ITEM()
RATIONAL_B_SPLINE_CURVE((1.,1.))
REPRESENTATION_ITEM('')
);
#239=(
BOUNDED_CURVE()
B_SPLINE_CURVE(1,(#552,#553),.UNSPECIFIED.,.F.,.F.)
B_SPLINE_CURVE_WITH_KNOTS((2,2),(24.5244215938318,35.7223650385876),
 .UNSPECIFIED.)
CURVE()
GEOMETRIC_REPRESENTATION_ITEM()
RATIONAL_B_SPLINE_CURVE((1.,1.))
REPRESENTATION_ITEM('')
);
#240=(
BOUNDED_CURVE()
B_SPLINE_CURVE(1,(#574,#575),.UNSPECIFIED.,.F.,.F.)
B_SPLINE_CURVE_WITH_KNOTS((2,2),(0.170959847405392,0.182226870978753),
 .UNSPECIFIED.)
CURVE()
GEOMETRIC_REPRESENTATION_ITEM()
RATIONAL_B_SPLINE_CURVE((1.,1.))
REPRESENTATION_ITEM('')
);
#241=(
BOUNDED_CURVE()
B_SPLINE_CURVE(1,(#582,#583),.UNSPECIFIED.,.F.,.F.)
B_SPLINE_CURVE_WITH_KNOTS((2,2),(0.170959847405387,0.182226870978753),
 .UNSPECIFIED.)
CURVE()
GEOMETRIC_REPRESENTATION_ITEM()
RATIONAL_B_SPLINE_CURVE((1.,1.))
REPRESENTATION_ITEM('')
);
#242=(
BOUNDED_CURVE()
B_SPLINE_CURVE(1,(#590,#591),.UNSPECIFIED.,.F.,.F.)
B_SPLINE_CURVE_WITH_KNOTS((2,2),(0.170959847405382,0.182226870978753),
 .UNSPECIFIED.)
CURVE()
GEOMETRIC_REPRESENTATION_ITEM()
RATIONAL_B_SPLINE_CURVE((1.,1.))
REPRESENTATION_ITEM('')
);
#243=(
BOUNDED_CURVE()
B_SPLINE_CURVE(1,(#658,#659),.UNSPECIFIED.,.F.,.F.)
B_SPLINE_CURVE_WITH_KNOTS((2,2),(0.170959847405393,0.182226870978753),
 .UNSPECIFIED.)
CURVE()
GEOMETRIC_REPRESENTATION_ITEM()
RATIONAL_B_SPLINE_CURVE((1.,1.))
REPRESENTATION_ITEM('')
);
#244=(
BOUNDED_CURVE()
B_SPLINE_CURVE(1,(#666,#667),.UNSPECIFIED.,.F.,.F.)
B_SPLINE_CURVE_WITH_KNOTS((2,2),(0.170959847405393,0.182226870978753),
 .UNSPECIFIED.)
CURVE()
GEOMETRIC_REPRESENTATION_ITEM()
RATIONAL_B_SPLINE_CURVE((1.,1.))
REPRESENTATION_ITEM('')
);
#245=(
BOUNDED_CURVE()
B_SPLINE_CURVE(1,(#674,#675),.UNSPECIFIED.,.F.,.F.)
B_SPLINE_CURVE_WITH_KNOTS((2,2),(0.170959847405393,0.182226870978753),
 .UNSPECIFIED.)
CURVE()
GEOMETRIC_REPRESENTATION_ITEM()
RATIONAL_B_SPLINE_CURVE((1.,1.))
REPRESENTATION_ITEM('')
);
#246=B_SPLINE_CURVE_WITH_KNOTS('',1,(#530,#531),.UNSPECIFIED.,.F.,.F.,(2,
2),(8.80676277988604,10.936029935186),.UNSPECIFIED.);
#247=B_SPLINE_CURVE_WITH_KNOTS('',1,(#534,#535),.UNSPECIFIED.,.F.,.F.,(2,
2),(9.11839178317082,10.2688595598583),.UNSPECIFIED.);
#248=B_SPLINE_CURVE_WITH_KNOTS('',1,(#538,#539),.UNSPECIFIED.,.F.,.F.,(2,
2),(-10.9360299351858,-10.89344459208),.UNSPECIFIED.);
#249=B_SPLINE_CURVE_WITH_KNOTS('',1,(#540,#541),.UNSPECIFIED.,.F.,.F.,(2,
2),(24.2930591259656,35.9537275064539),.UNSPECIFIED.);
#250=B_SPLINE_CURVE_WITH_KNOTS('',3,(#542,#543,#544,#545),.UNSPECIFIED.,
 .F.,.F.,(4,4),(0.,0.0186340635395199),.UNSPECIFIED.);
#251=B_SPLINE_CURVE_WITH_KNOTS('',1,(#548,#549),.UNSPECIFIED.,.F.,.F.,(2,
2),(24.4837017994873,35.763084832932),.UNSPECIFIED.);
#252=B_SPLINE_CURVE_WITH_KNOTS('',1,(#550,#551),.UNSPECIFIED.,.F.,.F.,(2,
2),(10.8934445920798,10.9360299351868),.UNSPECIFIED.);
#253=B_SPLINE_CURVE_WITH_KNOTS('',1,(#554,#555),.UNSPECIFIED.,.F.,.F.,(2,
2),(24.5244215938319,35.7223650385876),.UNSPECIFIED.);
#254=B_SPLINE_CURVE_WITH_KNOTS('',1,(#556,#557),.UNSPECIFIED.,.F.,.F.,(2,
2),(24.2467866323922,36.),.UNSPECIFIED.);
#255=B_SPLINE_CURVE_WITH_KNOTS('',1,(#558,#559),.UNSPECIFIED.,.F.,.F.,(2,
2),(-10.2688595598583,-9.11839178317167),.UNSPECIFIED.);
#256=B_SPLINE_CURVE_WITH_KNOTS('',1,(#560,#561),.UNSPECIFIED.,.F.,.F.,(2,
2),(24.2467866323923,36.),.UNSPECIFIED.);
#257=B_SPLINE_CURVE_WITH_KNOTS('',1,(#562,#563),.UNSPECIFIED.,.F.,.F.,(2,
2),(2.56099456672836,3.31099456672836),.UNSPECIFIED.);
#258=B_SPLINE_CURVE_WITH_KNOTS('',3,(#564,#565,#566,#567),.UNSPECIFIED.,
 .F.,.F.,(4,4),(0.,0.0186340634875267),.UNSPECIFIED.);
#259=B_SPLINE_CURVE_WITH_KNOTS('',3,(#592,#593,#594,#595),.UNSPECIFIED.,
 .F.,.F.,(4,4),(-11.2999967916013,-10.2393366198734),.UNSPECIFIED.);
#260=B_SPLINE_CURVE_WITH_KNOTS('',3,(#596,#597,#598,#599,#600,#601,#602,
#603,#604,#605,#606),.UNSPECIFIED.,.F.,.F.,(4,3,2,2,4),(-13.7062396706375,
-13.7036591747716,-13.599564858194,-13.5458290625521,-13.491041584567),
 .UNSPECIFIED.);
#261=B_SPLINE_CURVE_WITH_KNOTS('',3,(#607,#608,#609,#610,#611,#612,#613,
#614),.UNSPECIFIED.,.F.,.F.,(4,2,2,4),(-12.3405738078795,-12.2857863298941,
-12.2320505342543,-12.1279562176744),.UNSPECIFIED.);
#262=B_SPLINE_CURVE_WITH_KNOTS('',3,(#615,#616,#617,#618),.UNSPECIFIED.,
 .F.,.F.,(4,4),(-12.1279562176744,-11.5551997249131),.UNSPECIFIED.);
#263=B_SPLINE_CURVE_WITH_KNOTS('',3,(#619,#620,#621,#622,#623,#624,#625,
#626),.UNSPECIFIED.,.F.,.F.,(4,2,2,4),(-11.5551997249131,-11.4511054083376,
-11.3973696126957,-11.3425821347082),.UNSPECIFIED.);
#264=B_SPLINE_CURVE_WITH_KNOTS('',1,(#627,#628),.UNSPECIFIED.,.F.,.F.,(2,
2),(-6.38188583731158,-5.32122566553159),.UNSPECIFIED.);
#265=B_SPLINE_CURVE_WITH_KNOTS('',3,(#629,#630,#631,#632,#633,#634,#635,
#636),.UNSPECIFIED.,.F.,.F.,(4,2,2,4),(-5.27864032242576,-5.22385284443901,
-5.1701170488004,-5.06602273222083),.UNSPECIFIED.);
#266=B_SPLINE_CURVE_WITH_KNOTS('',1,(#637,#638),.UNSPECIFIED.,.F.,.F.,(2,
2),(-5.06602273222083,-4.49326623945966),.UNSPECIFIED.);
#267=B_SPLINE_CURVE_WITH_KNOTS('',3,(#639,#640,#641,#642,#643,#644,#645,
#646),.UNSPECIFIED.,.F.,.F.,(4,2,2,4),(-4.49326623945966,-4.38917192288081,
-4.33543612724059,-4.28064864925464),.UNSPECIFIED.);
#268=B_SPLINE_CURVE_WITH_KNOTS('',3,(#647,#648,#649,#650,#651,#652,#653,
#654,#655,#656,#657),.UNSPECIFIED.,.F.,.F.,(4,2,2,3,4),(-3.13018087256796,
-3.07539339457849,-3.02165759893102,-2.91756328236263,-2.91498278649687),
 .UNSPECIFIED.);
#269=VERTEX_POINT('',#500);
#270=VERTEX_POINT('',#501);
#271=VERTEX_POINT('',#502);
#272=VERTEX_POINT('',#503);
#273=VERTEX_POINT('',#504);
#274=VERTEX_POINT('',#505);
#275=VERTEX_POINT('',#506);
#276=VERTEX_POINT('',#507);
#277=VERTEX_POINT('',#508);
#278=VERTEX_POINT('',#509);
#279=VERTEX_POINT('',#510);
#280=VERTEX_POINT('',#511);
#281=VERTEX_POINT('',#512);
#282=VERTEX_POINT('',#513);
#283=VERTEX_POINT('',#514);
#284=VERTEX_POINT('',#515);
#285=VERTEX_POINT('',#516);
#286=VERTEX_POINT('',#517);
#287=VERTEX_POINT('',#518);
#288=VERTEX_POINT('',#519);
#289=VERTEX_POINT('',#520);
#290=VERTEX_POINT('',#521);
#291=VERTEX_POINT('',#522);
#292=VERTEX_POINT('',#523);
#293=VERTEX_POINT('',#524);
#294=VERTEX_POINT('',#525);
#295=VERTEX_POINT('',#526);
#296=VERTEX_POINT('',#527);
#297=VERTEX_POINT('',#528);
#298=VERTEX_POINT('',#529);
#299=CYLINDRICAL_SURFACE('',#408,0.110000000000744);
#300=CYLINDRICAL_SURFACE('',#410,0.1099999999999);
#301=CYLINDRICAL_SURFACE('',#412,0.110000000000421);
#302=CYLINDRICAL_SURFACE('',#416,0.03125);
#303=CYLINDRICAL_SURFACE('',#417,0.03125);
#304=CYLINDRICAL_SURFACE('',#418,0.03125);
#305=CYLINDRICAL_SURFACE('',#421,0.03125);
#306=CYLINDRICAL_SURFACE('',#422,0.03125);
#307=CYLINDRICAL_SURFACE('',#423,0.03125);
#308=PLANE('',#407);
#309=PLANE('',#409);
#310=PLANE('',#411);
#311=PLANE('',#413);
#312=PLANE('',#414);
#313=PLANE('',#415);
#314=PLANE('',#419);
#315=PLANE('',#420);
#316=SHAPE_DEFINITION_REPRESENTATION(#317,#405);
#317=PRODUCT_DEFINITION_SHAPE($,$,#319);
#318=PRODUCT_DEFINITION_CONTEXT('3D Mechanical Parts',#391,'design');
#319=PRODUCT_DEFINITION('A','First version',#361,#318);
#320=DATE_TIME_ROLE('classification_date');
#321=DATE_TIME_ROLE('creation_date');
#322=APPLIED_DATE_AND_TIME_ASSIGNMENT(#346,#320,(#325));
#323=APPLIED_DATE_AND_TIME_ASSIGNMENT(#348,#321,(#319));
#324=SECURITY_CLASSIFICATION_LEVEL('unclassified');
#325=SECURITY_CLASSIFICATION('A','Security for version',#324);
#326=APPLIED_SECURITY_CLASSIFICATION_ASSIGNMENT(#325,(#361));
#327=APPROVAL_ROLE('Version approval');
#328=APPROVAL_ROLE('Version Security approval');
#329=APPROVAL_ROLE('Definition approval');
#330=APPROVAL_PERSON_ORGANIZATION(#379,#355,#327);
#331=APPROVAL_PERSON_ORGANIZATION(#380,#356,#328);
#332=APPROVAL_PERSON_ORGANIZATION(#383,#357,#329);
#333=COORDINATED_UNIVERSAL_TIME_OFFSET(5,0,.BEHIND.);
#334=LOCAL_TIME(0,0,0.,#333);
#335=LOCAL_TIME(0,0,0.,#333);
#336=LOCAL_TIME(0,0,0.,#333);
#337=LOCAL_TIME(0,0,0.,#333);
#338=LOCAL_TIME(0,0,0.,#333);
#339=CALENDAR_DATE(1999,1,1);
#340=CALENDAR_DATE(1999,1,1);
#341=CALENDAR_DATE(1999,1,1);
#342=CALENDAR_DATE(1999,1,1);
#343=CALENDAR_DATE(1999,1,1);
#344=DATE_AND_TIME(#339,#334);
#345=DATE_AND_TIME(#340,#335);
#346=DATE_AND_TIME(#341,#336);
#347=DATE_AND_TIME(#342,#337);
#348=DATE_AND_TIME(#343,#338);
#349=APPROVAL_DATE_TIME(#344,#355);
#350=APPROVAL_DATE_TIME(#345,#356);
#351=APPROVAL_DATE_TIME(#347,#357);
#352=APPROVAL_STATUS('not_yet_approved');
#353=APPROVAL_STATUS('not_yet_approved');
#354=APPROVAL_STATUS('approved');
#355=APPROVAL(#352,'Version approval');
#356=APPROVAL(#353,'Version Security approval');
#357=APPROVAL(#354,'Definition approval');
#358=APPLIED_APPROVAL_ASSIGNMENT(#355,(#361));
#359=APPLIED_APPROVAL_ASSIGNMENT(#356,(#325));
#360=APPLIED_APPROVAL_ASSIGNMENT(#357,(#319));
#361=PRODUCT_DEFINITION_FORMATION_WITH_SPECIFIED_SOURCE('A',
'First version',#393,.MADE.);
#362=PERSON_AND_ORGANIZATION_ROLE('design_owner');
#363=PERSON_AND_ORGANIZATION_ROLE('creator');
#364=PERSON_AND_ORGANIZATION_ROLE('design_supplier');
#365=PERSON_AND_ORGANIZATION_ROLE('classification_officer');
#366=PERSON_AND_ORGANIZATION_ROLE('creator');
#367=ORGANIZATION('STI','lab','lab');
#368=ORGANIZATION('STI','unknown','unknown');
#369=ORGANIZATION('STI','unknown','unknown');
#370=ORGANIZATION('STI','unknown','unknown');
#371=ORGANIZATION('STI','unknown','unknown');
#372=ORGANIZATION('STI','unknown','unknown');
#373=ORGANIZATION('STI','unknown','unknown');
#374=PERSON('1','Box','vc60',$,$,$);
#375=PERSON('2','last','first',$,$,$);
#376=PERSON('3','President','Mr.',$,$,$);
#377=PERSON_AND_ORGANIZATION(#374,#367);
#378=PERSON_AND_ORGANIZATION(#375,#368);
#379=PERSON_AND_ORGANIZATION(#376,#369);
#380=PERSON_AND_ORGANIZATION(#376,#370);
#381=PERSON_AND_ORGANIZATION(#376,#371);
#382=PERSON_AND_ORGANIZATION(#375,#372);
#383=PERSON_AND_ORGANIZATION(#376,#373);
#384=APPLIED_PERSON_AND_ORGANIZATION_ASSIGNMENT(#377,#362,(#393));
#385=APPLIED_PERSON_AND_ORGANIZATION_ASSIGNMENT(#378,#363,(#361));
#386=APPLIED_PERSON_AND_ORGANIZATION_ASSIGNMENT(#378,#364,(#361));
#387=APPLIED_PERSON_AND_ORGANIZATION_ASSIGNMENT(#381,#365,(#325));
#388=APPLIED_PERSON_AND_ORGANIZATION_ASSIGNMENT(#382,#366,(#319));
#389=PRODUCT_RELATED_PRODUCT_CATEGORY('detail','detail',(#393));
#390=APPLICATION_PROTOCOL_DEFINITION('International Standard',
'config_control_design',1994,#391);
#391=APPLICATION_CONTEXT(
'configuration controlled 3d designs of mechanical parts and assemblie
s');
#392=PRODUCT_CONTEXT('3D Mechanical Parts',#391,'mechanical');
#393=PRODUCT('Document','Document','',(#392));
#394=(
LENGTH_UNIT()
NAMED_UNIT(*)
SI_UNIT(.CENTI.,.METRE.)
);
#395=LENGTH_MEASURE_WITH_UNIT(LENGTH_MEASURE(2.54),#394);
#396=(
CONVERSION_BASED_UNIT('INCH',#395)
LENGTH_UNIT()
NAMED_UNIT(#399)
);
#397=(
NAMED_UNIT(*)
PLANE_ANGLE_UNIT()
SI_UNIT($,.RADIAN.)
);
#398=DIMENSIONAL_EXPONENTS(0.,0.,0.,0.,0.,0.,0.);
#399=DIMENSIONAL_EXPONENTS(1.,0.,0.,0.,0.,0.,0.);
#400=PLANE_ANGLE_MEASURE_WITH_UNIT(PLANE_ANGLE_MEASURE(0.01745329252),#397);
#401=(
CONVERSION_BASED_UNIT('DEGREES',#400)
NAMED_UNIT(#398)
PLANE_ANGLE_UNIT()
);
#402=(
NAMED_UNIT(*)
SI_UNIT($,.STERADIAN.)
SOLID_ANGLE_UNIT()
);
#403=UNCERTAINTY_MEASURE_WITH_UNIT(LENGTH_MEASURE(0.000393700787401575),
#396,'DISTANCE_ACCURACY_VALUE',
'Maximum model space distance between geometric entities at asserted c
onnectivities');
#404=(
GEOMETRIC_REPRESENTATION_CONTEXT(3)
GLOBAL_UNCERTAINTY_ASSIGNED_CONTEXT((#403))
GLOBAL_UNIT_ASSIGNED_CONTEXT((#402,#401,#396))
REPRESENTATION_CONTEXT('ID1','3D')
);
#405=SHAPE_REPRESENTATION('Document',(#406,#436),#404);
#406=AXIS2_PLACEMENT_3D($,#482,#437,#438);
#407=AXIS2_PLACEMENT_3D('',#483,#439,$);
#408=AXIS2_PLACEMENT_3D('',#484,#440,$);
#409=AXIS2_PLACEMENT_3D('',#485,#441,$);
#410=AXIS2_PLACEMENT_3D('',#486,#442,$);
#411=AXIS2_PLACEMENT_3D('',#487,#443,$);
#412=AXIS2_PLACEMENT_3D('',#488,#444,$);
#413=AXIS2_PLACEMENT_3D('',#489,#445,$);
#414=AXIS2_PLACEMENT_3D('',#490,#446,$);
#415=AXIS2_PLACEMENT_3D('',#491,#447,$);
#416=AXIS2_PLACEMENT_3D('',#492,#448,$);
#417=AXIS2_PLACEMENT_3D('',#493,#449,$);
#418=AXIS2_PLACEMENT_3D('',#494,#450,$);
#419=AXIS2_PLACEMENT_3D('',#495,#451,$);
#420=AXIS2_PLACEMENT_3D('',#496,#452,$);
#421=AXIS2_PLACEMENT_3D('',#497,#453,$);
#422=AXIS2_PLACEMENT_3D('',#498,#454,$);
#423=AXIS2_PLACEMENT_3D('',#499,#455,$);
#424=AXIS2_PLACEMENT_3D($,#568,#456,#457);
#425=AXIS2_PLACEMENT_3D($,#571,#458,#459);
#426=AXIS2_PLACEMENT_3D($,#576,#460,#461);
#427=AXIS2_PLACEMENT_3D($,#579,#462,#463);
#428=AXIS2_PLACEMENT_3D($,#584,#464,#465);
#429=AXIS2_PLACEMENT_3D($,#587,#466,#467);
#430=AXIS2_PLACEMENT_3D($,#660,#468,#469);
#431=AXIS2_PLACEMENT_3D($,#663,#470,#471);
#432=AXIS2_PLACEMENT_3D($,#668,#472,#473);
#433=AXIS2_PLACEMENT_3D($,#671,#474,#475);
#434=AXIS2_PLACEMENT_3D($,#676,#476,#477);
#435=AXIS2_PLACEMENT_3D($,#679,#478,#479);
#436=AXIS2_PLACEMENT_3D($,#682,#480,#481);
#437=DIRECTION('',(0.,0.,1.));
#438=DIRECTION('',(1.,0.,0.));
#439=DIRECTION('',(0.,-1.,0.));
#440=DIRECTION('',(-1.,3.45027250389171E-12,1.44066897472605E-12));
#441=DIRECTION('',(0.,1.,0.));
#442=DIRECTION('',(1.,-2.49513004992226E-12,-2.49513004991711E-12));
#443=DIRECTION('',(0.,0.,1.));
#444=DIRECTION('',(-1.,-2.49513004993515E-12,-2.49513004993515E-12));
#445=DIRECTION('',(0.,1.,0.));
#446=DIRECTION('',(0.,0.,-1.));
#447=DIRECTION('',(-1.25927924089401E-17,-0.0165875802055506,0.99986241662687));
#448=DIRECTION('',(0.,1.,0.));
#449=DIRECTION('',(0.,1.,0.));
#450=DIRECTION('',(0.,1.,0.));
#451=DIRECTION('',(0.707106781221125,0.70710678115197,-1.14973254878381E-13));
#452=DIRECTION('',(-0.707106781186604,0.707106781186491,1.62387320443492E-13));
#453=DIRECTION('',(0.,1.,0.));
#454=DIRECTION('',(0.,1.,0.));
#455=DIRECTION('',(0.,1.,0.));
#456=DIRECTION('',(3.63797880709833E-12,-1.,1.09139364212818E-11));
#457=DIRECTION('',(1.,7.27595761418343E-12,1.50990331349021E-12));
#458=DIRECTION('',(0.,1.,0.));
#459=DIRECTION('',(1.,0.,1.27897692436818E-13));
#460=DIRECTION('',(-7.27595761415694E-12,-1.,-7.27595761415694E-12));
#461=DIRECTION('',(1.,-7.27595761418343E-12,1.91846538655227E-13));
#462=DIRECTION('',(0.,1.,0.));
#463=DIRECTION('',(1.,0.,1.93622895494627E-13));
#464=DIRECTION('',(3.63797880710495E-12,-1.,1.09139364212884E-11));
#465=DIRECTION('',(1.,7.27595761415696E-12,-7.89412979426599E-12));
#466=DIRECTION('',(7.27595761415697E-12,1.,-7.27595761415697E-12));
#467=DIRECTION('',(1.,-7.27595761413049E-12,-4.52438086991952E-12));
#468=DIRECTION('',(3.63797880709833E-12,-1.,-1.09139364212818E-11));
#469=DIRECTION('',(-1.,0.,-1.50990331349571E-12));
#470=DIRECTION('',(0.,1.,0.));
#471=DIRECTION('',(-1.,0.,1.27897692436818E-13));
#472=DIRECTION('',(-3.63797880709171E-12,-1.,3.63797880709171E-12));
#473=DIRECTION('',(-1.,0.,1.63424829224823E-13));
#474=DIRECTION('',(0.,1.,0.));
#475=DIRECTION('',(-1.,0.,1.93622895494627E-13));
#476=DIRECTION('',(3.63797880710495E-12,-1.,-1.09139364212884E-11));
#477=DIRECTION('',(-1.,0.,7.89412979438087E-12));
#478=DIRECTION('',(3.63797880709171E-12,1.,3.63797880709171E-12));
#479=DIRECTION('',(-1.,0.,-2.44426701101474E-12));
#480=DIRECTION('',(0.,0.,1.));
#481=DIRECTION('',(1.,0.,0.));
#482=CARTESIAN_POINT('',(0.,0.,0.));
#483=CARTESIAN_POINT('',(802.955777525343,-1466.1665729094,-0.000128376189650226));
#484=CARTESIAN_POINT('',(851.58077752533,-1466.1515729094,0.640105335496778));
#485=CARTESIAN_POINT('',(802.955777525343,-1466.0415729094,0.64010533549731));
#486=CARTESIAN_POINT('',(851.580777525331,-1465.9315729094,0.23487162381031));
#487=CARTESIAN_POINT('',(802.955777525343,-1465.9315729094,0.12487162381035));
#488=CARTESIAN_POINT('',(851.580777525331,-1465.5265729094,0.0148716238099289));
#489=CARTESIAN_POINT('',(802.955777525343,-1465.4165729094,0.0148716238104498));
#490=CARTESIAN_POINT('',(802.955777525343,-1465.4165729094,-0.000128376189650226));
#491=CARTESIAN_POINT('',(802.955777525343,-1466.1665729094,0.74987162381035));
#492=CARTESIAN_POINT('',(871.580777525344,-1466.67646630655,0.437722191335644));
#493=CARTESIAN_POINT('',(884.330777525339,-1466.67646630655,0.437722191335655));
#494=CARTESIAN_POINT('',(897.080777525335,-1466.67646630655,0.437722191335667));
#495=CARTESIAN_POINT('',(900.213277525318,-1466.1740729094,0.760105335497207));
#496=CARTESIAN_POINT('',(868.44827752533,-1466.1740729094,-0.0101283761896438));
#497=CARTESIAN_POINT('',(871.580777525344,-1466.67646630655,0.437722191335838));
#498=CARTESIAN_POINT('',(884.330777525339,-1466.67646630655,0.437722191335793));
#499=CARTESIAN_POINT('',(897.080777525335,-1466.67646630655,0.437722191335804));
#500=CARTESIAN_POINT('',(900.205777525318,-1466.1665729094,-0.000128376189650226));
#501=CARTESIAN_POINT('',(900.205777525318,-1466.1665729094,0.74987162381035));
#502=CARTESIAN_POINT('',(900.192602159213,-1466.15339754322,0.750090201325975));
#503=CARTESIAN_POINT('',(900.080777525392,-1466.0415729094,0.64010533549731));
#504=CARTESIAN_POINT('',(900.080777525392,-1466.0415729094,0.234871623810477));
#505=CARTESIAN_POINT('',(899.970777525391,-1465.9315729094,0.12487162381035));
#506=CARTESIAN_POINT('',(899.565777525392,-1465.5265729094,0.124871623810122));
#507=CARTESIAN_POINT('',(899.455777525392,-1465.4165729094,0.0148716238102224));
#508=CARTESIAN_POINT('',(899.455777525392,-1465.4165729094,-0.000128376189650226));
#509=CARTESIAN_POINT('',(868.455777525331,-1466.1665729094,0.74987162381035));
#510=CARTESIAN_POINT('',(868.455777525331,-1466.1665729094,-0.000128376189650226));
#511=CARTESIAN_POINT('',(868.580777525331,-1466.0415729094,0.64010533549731));
#512=CARTESIAN_POINT('',(868.468952891509,-1466.15339754322,0.750090201325975));
#513=CARTESIAN_POINT('',(868.580777525331,-1466.0415729094,0.234871623810477));
#514=CARTESIAN_POINT('',(868.690777525331,-1465.9315729094,0.12487162381035));
#515=CARTESIAN_POINT('',(869.09577752533,-1465.5265729094,0.12487162381035));
#516=CARTESIAN_POINT('',(869.205777525331,-1465.4165729094,0.0148716238099951));
#517=CARTESIAN_POINT('',(869.205777525331,-1465.4165729094,-0.000128376189650226));
#518=CARTESIAN_POINT('',(871.612027525343,-1466.1665729094,0.437722191335752));
#519=CARTESIAN_POINT('',(871.612027525343,-1466.0415729094,0.437722191335752));
#520=CARTESIAN_POINT('',(884.36202752534,-1466.1665729094,0.437722191335979));
#521=CARTESIAN_POINT('',(884.36202752534,-1466.0415729094,0.437722191335752));
#522=CARTESIAN_POINT('',(897.112027525335,-1466.1665729094,0.437722191335752));
#523=CARTESIAN_POINT('',(897.112027525335,-1466.0415729094,0.437722191335752));
#524=CARTESIAN_POINT('',(871.549527525343,-1466.1665729094,0.437722191335752));
#525=CARTESIAN_POINT('',(871.549527525343,-1466.0415729094,0.437722191335752));
#526=CARTESIAN_POINT('',(884.29952752534,-1466.1665729094,0.437722191335752));
#527=CARTESIAN_POINT('',(884.29952752534,-1466.0415729094,0.437722191335752));
#528=CARTESIAN_POINT('',(897.049527525335,-1466.1665729094,0.437722191335752));
#529=CARTESIAN_POINT('',(897.049527525335,-1466.0415729094,0.437722191335752));
#530=CARTESIAN_POINT('',(868.455777525331,-1466.1665729094,0.74987162381035));
#531=CARTESIAN_POINT('',(868.455777525331,-1466.1665729094,-0.000128376189650226));
#532=CARTESIAN_POINT('',(868.580777525331,-1466.0415729094,0.64010533549731));
#533=CARTESIAN_POINT('',(900.080777525392,-1466.0415729094,0.64010533549731));
#534=CARTESIAN_POINT('',(900.080777525392,-1466.0415729094,0.64010533549731));
#535=CARTESIAN_POINT('',(900.080777525392,-1466.0415729094,0.234871623810477));
#536=CARTESIAN_POINT('',(868.468952891508,-1466.15339754322,0.750090201326507));
#537=CARTESIAN_POINT('',(900.192602159213,-1466.15339754322,0.750090201326507));
#538=CARTESIAN_POINT('',(869.205777525331,-1465.4165729094,-0.000128376189650226));
#539=CARTESIAN_POINT('',(869.205777525331,-1465.4165729094,0.0148716238102224));
#540=CARTESIAN_POINT('',(868.580777525331,-1466.0415729094,0.234871623810477));
#541=CARTESIAN_POINT('',(900.080777525392,-1466.0415729094,0.234871623810477));
#542=CARTESIAN_POINT('',(868.468952891509,-1466.15339754322,0.750090201325975));
#543=CARTESIAN_POINT('',(868.464561102783,-1466.15778933194,0.750017342154479));
#544=CARTESIAN_POINT('',(868.460169314057,-1466.16218112067,0.749944482982301));
#545=CARTESIAN_POINT('',(868.455777525331,-1466.1665729094,0.74987162381035));
#546=CARTESIAN_POINT('',(868.690777525331,-1465.9315729094,0.12487162381035));
#547=CARTESIAN_POINT('',(899.970777525391,-1465.9315729094,0.12487162381035));
#548=CARTESIAN_POINT('',(869.09577752533,-1465.5265729094,0.12487162381035));
#549=CARTESIAN_POINT('',(899.565777525392,-1465.5265729094,0.124871623810122));
#550=CARTESIAN_POINT('',(899.455777525392,-1465.4165729094,0.0148716238102224));
#551=CARTESIAN_POINT('',(899.455777525392,-1465.4165729094,-0.000128376189650226));
#552=CARTESIAN_POINT('',(869.205777525331,-1465.4165729094,0.0148716238102224));
#553=CARTESIAN_POINT('',(899.455777525392,-1465.4165729094,0.0148716238102224));
#554=CARTESIAN_POINT('',(869.205777525331,-1465.4165729094,-0.000128376189650226));
#555=CARTESIAN_POINT('',(899.455777525392,-1465.4165729094,-0.000128376189650226));
#556=CARTESIAN_POINT('',(868.455777525331,-1466.1665729094,-0.000128376189650226));
#557=CARTESIAN_POINT('',(900.205777525318,-1466.1665729094,-0.000128376189650226));
#558=CARTESIAN_POINT('',(868.580777525331,-1466.0415729094,0.234871623810477));
#559=CARTESIAN_POINT('',(868.580777525331,-1466.0415729094,0.64010533549731));
#560=CARTESIAN_POINT('',(868.455777525331,-1466.1665729094,0.74987162381035));
#561=CARTESIAN_POINT('',(900.205777525318,-1466.1665729094,0.74987162381035));
#562=CARTESIAN_POINT('',(900.205777525318,-1466.1665729094,-0.000128376189650226));
#563=CARTESIAN_POINT('',(900.205777525318,-1466.1665729094,0.74987162381035));
#564=CARTESIAN_POINT('',(900.205777525318,-1466.1665729094,0.74987162381035));
#565=CARTESIAN_POINT('',(900.201385736611,-1466.16218112068,0.749944482982073));
#566=CARTESIAN_POINT('',(900.196993947921,-1466.15778933194,0.750017342154251));
#567=CARTESIAN_POINT('',(900.192602159213,-1466.15339754322,0.750090201325975));
#568=CARTESIAN_POINT('',(871.580777525343,-1466.1665729094,0.437722191335704));
#569=CARTESIAN_POINT('',(871.612027525343,-1466.1665729094,0.437722191335752));
#570=CARTESIAN_POINT('',(871.549527525343,-1466.1665729094,0.437722191335752));
#571=CARTESIAN_POINT('',(871.580777525343,-1466.0415729094,0.437722191335748));
#572=CARTESIAN_POINT('',(871.612027525343,-1466.0415729094,0.437722191335752));
#573=CARTESIAN_POINT('',(871.549527525343,-1466.0415729094,0.437722191335752));
#574=CARTESIAN_POINT('',(871.612027525343,-1466.1665729094,0.437722191335752));
#575=CARTESIAN_POINT('',(871.612027525343,-1466.0415729094,0.437722191335752));
#576=CARTESIAN_POINT('',(884.33077752534,-1466.1665729094,0.437722191335746));
#577=CARTESIAN_POINT('',(884.36202752534,-1466.1665729094,0.437722191335752));
#578=CARTESIAN_POINT('',(884.29952752534,-1466.1665729094,0.437722191335752));
#579=CARTESIAN_POINT('',(884.33077752534,-1466.0415729094,0.437722191335746));
#580=CARTESIAN_POINT('',(884.36202752534,-1466.0415729094,0.437722191335752));
#581=CARTESIAN_POINT('',(884.29952752534,-1466.0415729094,0.437722191335752));
#582=CARTESIAN_POINT('',(884.36202752534,-1466.1665729094,0.437722191335979));
#583=CARTESIAN_POINT('',(884.36202752534,-1466.0415729094,0.437722191335752));
#584=CARTESIAN_POINT('',(897.080777525335,-1466.1665729094,0.437722191335998));
#585=CARTESIAN_POINT('',(897.112027525335,-1466.1665729094,0.437722191335752));
#586=CARTESIAN_POINT('',(897.049527525335,-1466.1665729094,0.437722191335752));
#587=CARTESIAN_POINT('',(897.080777525335,-1466.0415729094,0.437722191335893));
#588=CARTESIAN_POINT('',(897.112027525335,-1466.0415729094,0.437722191335752));
#589=CARTESIAN_POINT('',(897.049527525335,-1466.0415729094,0.437722191335752));
#590=CARTESIAN_POINT('',(897.112027525335,-1466.1665729094,0.437722191335752));
#591=CARTESIAN_POINT('',(897.112027525335,-1466.0415729094,0.437722191335752));
#592=CARTESIAN_POINT('',(899.455777525392,-1465.4165729094,-0.000128376189650226));
#593=CARTESIAN_POINT('',(899.705777525367,-1465.6665729094,-0.000128376189650226));
#594=CARTESIAN_POINT('',(899.955777525343,-1465.9165729094,-0.000128376189650226));
#595=CARTESIAN_POINT('',(900.205777525318,-1466.1665729094,-0.000128376189650226));
#596=CARTESIAN_POINT('',(900.192602159213,-1466.15339754322,0.750090201325975));
#597=CARTESIAN_POINT('',(900.191993981939,-1466.15278936594,0.750100290903447));
#598=CARTESIAN_POINT('',(900.191385728818,-1466.15218111282,0.75010533549721));
#599=CARTESIAN_POINT('',(900.190777525392,-1466.1515729094,0.75010533549721));
#600=CARTESIAN_POINT('',(900.166819535108,-1466.12761491911,0.75010533549721));
#601=CARTESIAN_POINT('',(900.141701635663,-1466.10249701967,0.742198107059266));
#602=CARTESIAN_POINT('',(900.110055048246,-1466.07085043225,0.716123642006323));
#603=CARTESIAN_POINT('',(900.100142035342,-1466.06093741935,0.704496358657934));
#604=CARTESIAN_POINT('',(900.085311279002,-1466.04610666301,0.675434966853345));
#605=CARTESIAN_POINT('',(900.080777525392,-1466.0415729094,0.658376926057372));
#606=CARTESIAN_POINT('',(900.080777525392,-1466.0415729094,0.64010533549731));
#607=CARTESIAN_POINT('',(900.080777525392,-1466.0415729094,0.234871623810477));
#608=CARTESIAN_POINT('',(900.080777525392,-1466.0415729094,0.216600033249506));
#609=CARTESIAN_POINT('',(900.076243771781,-1466.03703915579,0.19954199245467));
#610=CARTESIAN_POINT('',(900.061413015441,-1466.02220839945,0.170480600649853));
#611=CARTESIAN_POINT('',(900.051500002538,-1466.01229538654,0.158853317301009));
#612=CARTESIAN_POINT('',(900.01985341512,-1465.98064879912,0.132778852247156));
#613=CARTESIAN_POINT('',(899.994735515677,-1465.95553089968,0.12487162381035));
#614=CARTESIAN_POINT('',(899.970777525391,-1465.9315729094,0.12487162381035));
#615=CARTESIAN_POINT('',(899.970777525391,-1465.9315729094,0.12487162381035));
#616=CARTESIAN_POINT('',(899.835777525392,-1465.7965729094,0.12487162381035));
#617=CARTESIAN_POINT('',(899.700777525391,-1465.6615729094,0.12487162381035));
#618=CARTESIAN_POINT('',(899.565777525392,-1465.5265729094,0.124871623810122));
#619=CARTESIAN_POINT('',(899.565777525392,-1465.5265729094,0.124871623810122));
#620=CARTESIAN_POINT('',(899.541819535108,-1465.50261491911,0.12487162381035));
#621=CARTESIAN_POINT('',(899.516701635663,-1465.47749701967,0.116964395372861));
#622=CARTESIAN_POINT('',(899.485055048245,-1465.44585043225,0.0908899303192356));
#623=CARTESIAN_POINT('',(899.475142035342,-1465.43593741935,0.0792626469715287));
#624=CARTESIAN_POINT('',(899.460311279002,-1465.42110666301,0.0502012551653479));
#625=CARTESIAN_POINT('',(899.455777525392,-1465.4165729094,0.0331432143716484));
#626=CARTESIAN_POINT('',(899.455777525392,-1465.4165729094,0.0148716238102224));
#627=CARTESIAN_POINT('',(868.455777525331,-1466.1665729094,-0.000128376189650226));
#628=CARTESIAN_POINT('',(869.205777525331,-1465.4165729094,-0.000128376189650226));
#629=CARTESIAN_POINT('',(869.205777525331,-1465.4165729094,0.0148716238102224));
#630=CARTESIAN_POINT('',(869.205777525331,-1465.4165729094,0.0331432143718757));
#631=CARTESIAN_POINT('',(869.20124377172,-1465.42110666301,0.0502012551653479));
#632=CARTESIAN_POINT('',(869.18641301538,-1465.43593741935,0.0792626469708466));
#633=CARTESIAN_POINT('',(869.176500002476,-1465.44585043225,0.0908899303196904));
#634=CARTESIAN_POINT('',(869.144853415058,-1465.47749701967,0.116964395373998));
#635=CARTESIAN_POINT('',(869.119735515616,-1465.50261491911,0.12487162381035));
#636=CARTESIAN_POINT('',(869.09577752533,-1465.5265729094,0.12487162381035));
#637=CARTESIAN_POINT('',(869.09577752533,-1465.5265729094,0.12487162381035));
#638=CARTESIAN_POINT('',(868.690777525331,-1465.9315729094,0.12487162381035));
#639=CARTESIAN_POINT('',(868.690777525331,-1465.9315729094,0.12487162381035));
#640=CARTESIAN_POINT('',(868.666819535046,-1465.95553089968,0.12487162381035));
#641=CARTESIAN_POINT('',(868.641701635602,-1465.98064879912,0.132778852247384));
#642=CARTESIAN_POINT('',(868.610055048185,-1466.01229538654,0.158853317301009));
#643=CARTESIAN_POINT('',(868.600142035281,-1466.02220839944,0.170480600649626));
#644=CARTESIAN_POINT('',(868.58531127894,-1466.03703915579,0.199541992454897));
#645=CARTESIAN_POINT('',(868.580777525331,-1466.0415729094,0.216600033249279));
#646=CARTESIAN_POINT('',(868.580777525331,-1466.0415729094,0.234871623810477));
#647=CARTESIAN_POINT('',(868.580777525331,-1466.0415729094,0.64010533549731));
#648=CARTESIAN_POINT('',(868.580777525331,-1466.0415729094,0.65837692606101));
#649=CARTESIAN_POINT('',(868.576243771721,-1466.04610666301,0.675434966851299));
#650=CARTESIAN_POINT('',(868.561413015378,-1466.06093741935,0.704496358660663));
#651=CARTESIAN_POINT('',(868.551500002478,-1466.07085043225,0.716123642005186));
#652=CARTESIAN_POINT('',(868.51985341506,-1466.10249701967,0.742198107059494));
#653=CARTESIAN_POINT('',(868.494735515614,-1466.12761491911,0.75010533549721));
#654=CARTESIAN_POINT('',(868.47077752533,-1466.1515729094,0.75010533549721));
#655=CARTESIAN_POINT('',(868.470169306211,-1466.15218112852,0.75010533549721));
#656=CARTESIAN_POINT('',(868.469561053093,-1466.15278938163,0.750100290643559));
#657=CARTESIAN_POINT('',(868.468952891509,-1466.15339754322,0.750090201325975));
#658=CARTESIAN_POINT('',(871.549527525344,-1466.1665729094,0.437722191335752));
#659=CARTESIAN_POINT('',(871.549527525343,-1466.0415729094,0.437722191335752));
#660=CARTESIAN_POINT('',(871.580777525343,-1466.1665729094,0.437722191335799));
#661=CARTESIAN_POINT('',(871.549527525343,-1466.1665729094,0.437722191335752));
#662=CARTESIAN_POINT('',(871.612027525343,-1466.1665729094,0.437722191335752));
#663=CARTESIAN_POINT('',(871.580777525343,-1466.0415729094,0.437722191335748));
#664=CARTESIAN_POINT('',(871.549527525343,-1466.0415729094,0.437722191335752));
#665=CARTESIAN_POINT('',(871.612027525343,-1466.0415729094,0.437722191335752));
#666=CARTESIAN_POINT('',(884.299527525339,-1466.1665729094,0.437722191335752));
#667=CARTESIAN_POINT('',(884.299527525339,-1466.0415729094,0.437722191335752));
#668=CARTESIAN_POINT('',(884.33077752534,-1466.1665729094,0.437722191335747));
#669=CARTESIAN_POINT('',(884.29952752534,-1466.1665729094,0.437722191335752));
#670=CARTESIAN_POINT('',(884.36202752534,-1466.1665729094,0.437722191335752));
#671=CARTESIAN_POINT('',(884.33077752534,-1466.0415729094,0.437722191335746));
#672=CARTESIAN_POINT('',(884.29952752534,-1466.0415729094,0.437722191335752));
#673=CARTESIAN_POINT('',(884.36202752534,-1466.0415729094,0.437722191335752));
#674=CARTESIAN_POINT('',(897.049527525335,-1466.1665729094,0.437722191335752));
#675=CARTESIAN_POINT('',(897.049527525335,-1466.0415729094,0.437722191335752));
#676=CARTESIAN_POINT('',(897.080777525335,-1466.1665729094,0.437722191335505));
#677=CARTESIAN_POINT('',(897.049527525335,-1466.1665729094,0.437722191335752));
#678=CARTESIAN_POINT('',(897.112027525335,-1466.1665729094,0.437722191335752));
#679=CARTESIAN_POINT('',(897.080777525335,-1466.0415729094,0.437722191335828));
#680=CARTESIAN_POINT('',(897.049527525335,-1466.0415729094,0.437722191335752));
#681=CARTESIAN_POINT('',(897.112027525335,-1466.0415729094,0.437722191335752));
#682=CARTESIAN_POINT('',(0.,0.,0.));
ENDSEC;
END-ISO-10303-21;
