ISO-10303-21;
HEADER;
/* Generated by software containing ST-Developer
 * from STEP Tools, Inc. (www.steptools.com) 
 */
/* OPTION: using custom schema-name function */

FILE_DESCRIPTION(
/* description */ (''),
/* implementation_level */ '2;1');

FILE_NAME(
/* name */ 'EL Mitered Horizontal Mullions x72',
/* time_stamp */ '2024-03-03T17:21:02-06:00',
/* author */ (''),
/* organization */ (''),
/* preprocessor_version */ 'ST-DEVELOPER v19.2',
/* originating_system */ 'Rhino 8.4',
/* authorisation */ '');

FILE_SCHEMA (('CONFIG_CONTROL_DESIGN'));
ENDSEC;

DATA;
#10=SHAPE_REPRESENTATION_RELATIONSHIP('','',#405,#12);
#11=MANIFOLD_SOLID_BREP('brep_1',#13);
#12=ADVANCED_BREP_SHAPE_REPRESENTATION('brep_rep_0',(#11,#436),#404);
#13=CLOSED_SHELL('',(#14,#15,#16,#17,#18,#19,#20,#21,#22,#23,#24,#25,#26,
#27,#28,#29,#30));
#14=ADVANCED_FACE('',(#37,#31,#32,#33),#308,.T.);
#15=ADVANCED_FACE('',(#38),#299,.T.);
#16=ADVANCED_FACE('',(#39,#34,#35,#36),#309,.T.);
#17=ADVANCED_FACE('',(#40),#300,.F.);
#18=ADVANCED_FACE('',(#41),#310,.T.);
#19=ADVANCED_FACE('',(#42),#301,.T.);
#20=ADVANCED_FACE('',(#43),#311,.T.);
#21=ADVANCED_FACE('',(#44),#312,.T.);
#22=ADVANCED_FACE('',(#45),#313,.T.);
#23=ADVANCED_FACE('',(#46),#302,.F.);
#24=ADVANCED_FACE('',(#47),#303,.F.);
#25=ADVANCED_FACE('',(#48),#304,.F.);
#26=ADVANCED_FACE('',(#49),#314,.T.);
#27=ADVANCED_FACE('',(#50),#315,.T.);
#28=ADVANCED_FACE('',(#51),#305,.F.);
#29=ADVANCED_FACE('',(#52),#306,.F.);
#30=ADVANCED_FACE('',(#53),#307,.F.);
#31=FACE_BOUND('',#55,.T.);
#32=FACE_BOUND('',#56,.T.);
#33=FACE_BOUND('',#57,.T.);
#34=FACE_BOUND('',#60,.T.);
#35=FACE_BOUND('',#61,.T.);
#36=FACE_BOUND('',#62,.T.);
#37=FACE_OUTER_BOUND('',#54,.T.);
#38=FACE_OUTER_BOUND('',#58,.T.);
#39=FACE_OUTER_BOUND('',#59,.T.);
#40=FACE_OUTER_BOUND('',#63,.T.);
#41=FACE_OUTER_BOUND('',#64,.T.);
#42=FACE_OUTER_BOUND('',#65,.T.);
#43=FACE_OUTER_BOUND('',#66,.T.);
#44=FACE_OUTER_BOUND('',#67,.T.);
#45=FACE_OUTER_BOUND('',#68,.T.);
#46=FACE_OUTER_BOUND('',#69,.T.);
#47=FACE_OUTER_BOUND('',#70,.T.);
#48=FACE_OUTER_BOUND('',#71,.T.);
#49=FACE_OUTER_BOUND('',#72,.T.);
#50=FACE_OUTER_BOUND('',#73,.T.);
#51=FACE_OUTER_BOUND('',#74,.T.);
#52=FACE_OUTER_BOUND('',#75,.T.);
#53=FACE_OUTER_BOUND('',#76,.T.);
#54=EDGE_LOOP('',(#77,#78,#79,#80));
#55=EDGE_LOOP('',(#81,#82));
#56=EDGE_LOOP('',(#83,#84));
#57=EDGE_LOOP('',(#85,#86));
#58=EDGE_LOOP('',(#87,#88,#89,#90));
#59=EDGE_LOOP('',(#91,#92,#93,#94));
#60=EDGE_LOOP('',(#95,#96));
#61=EDGE_LOOP('',(#97,#98));
#62=EDGE_LOOP('',(#99,#100));
#63=EDGE_LOOP('',(#101,#102,#103,#104));
#64=EDGE_LOOP('',(#105,#106,#107,#108));
#65=EDGE_LOOP('',(#109,#110,#111,#112));
#66=EDGE_LOOP('',(#113,#114,#115,#116));
#67=EDGE_LOOP('',(#117,#118,#119,#120));
#68=EDGE_LOOP('',(#121,#122,#123,#124));
#69=EDGE_LOOP('',(#125,#126,#127,#128));
#70=EDGE_LOOP('',(#129,#130,#131,#132));
#71=EDGE_LOOP('',(#133,#134,#135,#136));
#72=EDGE_LOOP('',(#137,#138,#139,#140,#141,#142,#143,#144,#145));
#73=EDGE_LOOP('',(#146,#147,#148,#149,#150,#151,#152,#153,#154));
#74=EDGE_LOOP('',(#155,#156,#157,#158));
#75=EDGE_LOOP('',(#159,#160,#161,#162));
#76=EDGE_LOOP('',(#163,#164,#165,#166));
#77=ORIENTED_EDGE('',*,*,#180,.T.);
#78=ORIENTED_EDGE('',*,*,#181,.T.);
#79=ORIENTED_EDGE('',*,*,#182,.F.);
#80=ORIENTED_EDGE('',*,*,#179,.F.);
#81=ORIENTED_EDGE('',*,*,#184,.T.);
#82=ORIENTED_EDGE('',*,*,#204,.T.);
#83=ORIENTED_EDGE('',*,*,#187,.T.);
#84=ORIENTED_EDGE('',*,*,#207,.T.);
#85=ORIENTED_EDGE('',*,*,#190,.T.);
#86=ORIENTED_EDGE('',*,*,#210,.T.);
#87=ORIENTED_EDGE('',*,*,#168,.F.);
#88=ORIENTED_EDGE('',*,*,#193,.T.);
#89=ORIENTED_EDGE('',*,*,#167,.T.);
#90=ORIENTED_EDGE('',*,*,#198,.F.);
#91=ORIENTED_EDGE('',*,*,#171,.T.);
#92=ORIENTED_EDGE('',*,*,#169,.T.);
#93=ORIENTED_EDGE('',*,*,#170,.F.);
#94=ORIENTED_EDGE('',*,*,#167,.F.);
#95=ORIENTED_EDGE('',*,*,#185,.T.);
#96=ORIENTED_EDGE('',*,*,#205,.T.);
#97=ORIENTED_EDGE('',*,*,#188,.T.);
#98=ORIENTED_EDGE('',*,*,#208,.T.);
#99=ORIENTED_EDGE('',*,*,#191,.T.);
#100=ORIENTED_EDGE('',*,*,#211,.T.);
#101=ORIENTED_EDGE('',*,*,#169,.F.);
#102=ORIENTED_EDGE('',*,*,#194,.T.);
#103=ORIENTED_EDGE('',*,*,#172,.T.);
#104=ORIENTED_EDGE('',*,*,#199,.F.);
#105=ORIENTED_EDGE('',*,*,#195,.T.);
#106=ORIENTED_EDGE('',*,*,#173,.T.);
#107=ORIENTED_EDGE('',*,*,#200,.F.);
#108=ORIENTED_EDGE('',*,*,#172,.F.);
#109=ORIENTED_EDGE('',*,*,#173,.F.);
#110=ORIENTED_EDGE('',*,*,#196,.T.);
#111=ORIENTED_EDGE('',*,*,#174,.T.);
#112=ORIENTED_EDGE('',*,*,#201,.F.);
#113=ORIENTED_EDGE('',*,*,#174,.F.);
#114=ORIENTED_EDGE('',*,*,#175,.T.);
#115=ORIENTED_EDGE('',*,*,#176,.T.);
#116=ORIENTED_EDGE('',*,*,#183,.F.);
#117=ORIENTED_EDGE('',*,*,#176,.F.);
#118=ORIENTED_EDGE('',*,*,#197,.T.);
#119=ORIENTED_EDGE('',*,*,#179,.T.);
#120=ORIENTED_EDGE('',*,*,#202,.F.);
#121=ORIENTED_EDGE('',*,*,#178,.T.);
#122=ORIENTED_EDGE('',*,*,#168,.T.);
#123=ORIENTED_EDGE('',*,*,#177,.F.);
#124=ORIENTED_EDGE('',*,*,#181,.F.);
#125=ORIENTED_EDGE('',*,*,#184,.F.);
#126=ORIENTED_EDGE('',*,*,#186,.T.);
#127=ORIENTED_EDGE('',*,*,#205,.F.);
#128=ORIENTED_EDGE('',*,*,#203,.F.);
#129=ORIENTED_EDGE('',*,*,#187,.F.);
#130=ORIENTED_EDGE('',*,*,#189,.T.);
#131=ORIENTED_EDGE('',*,*,#208,.F.);
#132=ORIENTED_EDGE('',*,*,#206,.F.);
#133=ORIENTED_EDGE('',*,*,#190,.F.);
#134=ORIENTED_EDGE('',*,*,#192,.T.);
#135=ORIENTED_EDGE('',*,*,#211,.F.);
#136=ORIENTED_EDGE('',*,*,#209,.F.);
#137=ORIENTED_EDGE('',*,*,#197,.F.);
#138=ORIENTED_EDGE('',*,*,#175,.F.);
#139=ORIENTED_EDGE('',*,*,#196,.F.);
#140=ORIENTED_EDGE('',*,*,#195,.F.);
#141=ORIENTED_EDGE('',*,*,#194,.F.);
#142=ORIENTED_EDGE('',*,*,#171,.F.);
#143=ORIENTED_EDGE('',*,*,#193,.F.);
#144=ORIENTED_EDGE('',*,*,#178,.F.);
#145=ORIENTED_EDGE('',*,*,#180,.F.);
#146=ORIENTED_EDGE('',*,*,#182,.T.);
#147=ORIENTED_EDGE('',*,*,#177,.T.);
#148=ORIENTED_EDGE('',*,*,#198,.T.);
#149=ORIENTED_EDGE('',*,*,#170,.T.);
#150=ORIENTED_EDGE('',*,*,#199,.T.);
#151=ORIENTED_EDGE('',*,*,#200,.T.);
#152=ORIENTED_EDGE('',*,*,#201,.T.);
#153=ORIENTED_EDGE('',*,*,#183,.T.);
#154=ORIENTED_EDGE('',*,*,#202,.T.);
#155=ORIENTED_EDGE('',*,*,#203,.T.);
#156=ORIENTED_EDGE('',*,*,#185,.F.);
#157=ORIENTED_EDGE('',*,*,#186,.F.);
#158=ORIENTED_EDGE('',*,*,#204,.F.);
#159=ORIENTED_EDGE('',*,*,#206,.T.);
#160=ORIENTED_EDGE('',*,*,#188,.F.);
#161=ORIENTED_EDGE('',*,*,#189,.F.);
#162=ORIENTED_EDGE('',*,*,#207,.F.);
#163=ORIENTED_EDGE('',*,*,#209,.T.);
#164=ORIENTED_EDGE('',*,*,#191,.F.);
#165=ORIENTED_EDGE('',*,*,#192,.F.);
#166=ORIENTED_EDGE('',*,*,#210,.F.);
#167=EDGE_CURVE('',#276,#274,#259,.T.);
#168=EDGE_CURVE('',#275,#273,#260,.T.);
#169=EDGE_CURVE('',#278,#277,#236,.T.);
#170=EDGE_CURVE('',#274,#277,#237,.T.);
#171=EDGE_CURVE('',#276,#278,#238,.T.);
#172=EDGE_CURVE('',#280,#279,#261,.T.);
#173=EDGE_CURVE('',#282,#281,#239,.T.);
#174=EDGE_CURVE('',#284,#283,#262,.T.);
#175=EDGE_CURVE('',#284,#286,#240,.T.);
#176=EDGE_CURVE('',#286,#285,#241,.T.);
#177=EDGE_CURVE('',#272,#273,#242,.T.);
#178=EDGE_CURVE('',#271,#275,#243,.T.);
#179=EDGE_CURVE('',#269,#270,#244,.T.);
#180=EDGE_CURVE('',#269,#271,#245,.T.);
#181=EDGE_CURVE('',#271,#272,#246,.T.);
#182=EDGE_CURVE('',#270,#272,#247,.T.);
#183=EDGE_CURVE('',#283,#285,#248,.T.);
#184=EDGE_CURVE('',#287,#293,#212,.T.);
#185=EDGE_CURVE('',#288,#294,#213,.T.);
#186=EDGE_CURVE('',#287,#288,#263,.T.);
#187=EDGE_CURVE('',#289,#295,#214,.T.);
#188=EDGE_CURVE('',#290,#296,#215,.T.);
#189=EDGE_CURVE('',#289,#290,#264,.T.);
#190=EDGE_CURVE('',#291,#297,#216,.T.);
#191=EDGE_CURVE('',#292,#298,#217,.T.);
#192=EDGE_CURVE('',#291,#292,#265,.T.);
#193=EDGE_CURVE('',#275,#276,#249,.T.);
#194=EDGE_CURVE('',#278,#280,#250,.T.);
#195=EDGE_CURVE('',#280,#282,#251,.T.);
#196=EDGE_CURVE('',#282,#284,#252,.T.);
#197=EDGE_CURVE('',#286,#269,#253,.T.);
#198=EDGE_CURVE('',#273,#274,#254,.T.);
#199=EDGE_CURVE('',#277,#279,#255,.T.);
#200=EDGE_CURVE('',#279,#281,#256,.T.);
#201=EDGE_CURVE('',#281,#283,#257,.T.);
#202=EDGE_CURVE('',#285,#270,#258,.T.);
#203=EDGE_CURVE('',#293,#294,#266,.T.);
#204=EDGE_CURVE('',#293,#287,#218,.T.);
#205=EDGE_CURVE('',#294,#288,#219,.T.);
#206=EDGE_CURVE('',#295,#296,#267,.T.);
#207=EDGE_CURVE('',#295,#289,#220,.T.);
#208=EDGE_CURVE('',#296,#290,#221,.T.);
#209=EDGE_CURVE('',#297,#298,#268,.T.);
#210=EDGE_CURVE('',#297,#291,#222,.T.);
#211=EDGE_CURVE('',#298,#292,#223,.T.);
#212=TRIMMED_CURVE($,#224,(#569),(#570),.T.,.CARTESIAN.);
#213=TRIMMED_CURVE($,#225,(#572),(#573),.T.,.CARTESIAN.);
#214=TRIMMED_CURVE($,#226,(#577),(#578),.T.,.CARTESIAN.);
#215=TRIMMED_CURVE($,#227,(#580),(#581),.T.,.CARTESIAN.);
#216=TRIMMED_CURVE($,#228,(#585),(#586),.T.,.CARTESIAN.);
#217=TRIMMED_CURVE($,#229,(#588),(#589),.T.,.CARTESIAN.);
#218=TRIMMED_CURVE($,#230,(#657),(#658),.T.,.CARTESIAN.);
#219=TRIMMED_CURVE($,#231,(#660),(#661),.T.,.CARTESIAN.);
#220=TRIMMED_CURVE($,#232,(#665),(#666),.T.,.CARTESIAN.);
#221=TRIMMED_CURVE($,#233,(#668),(#669),.T.,.CARTESIAN.);
#222=TRIMMED_CURVE($,#234,(#673),(#674),.T.,.CARTESIAN.);
#223=TRIMMED_CURVE($,#235,(#676),(#677),.T.,.CARTESIAN.);
#224=CIRCLE('',#424,0.03125);
#225=CIRCLE('',#425,0.03125);
#226=CIRCLE('',#426,0.0312499999998863);
#227=CIRCLE('',#427,0.03125);
#228=CIRCLE('',#428,0.03125);
#229=CIRCLE('',#429,0.03125);
#230=CIRCLE('',#430,0.03125);
#231=CIRCLE('',#431,0.03125);
#232=CIRCLE('',#432,0.03125);
#233=CIRCLE('',#433,0.0312500000001137);
#234=CIRCLE('',#434,0.03125);
#235=CIRCLE('',#435,0.03125);
#236=B_SPLINE_CURVE_WITH_KNOTS('',1,(#534,#535),.UNSPECIFIED.,.F.,.F.,(2,
2),(0.170149751666259,35.8298502482841),.UNSPECIFIED.);
#237=B_SPLINE_CURVE_WITH_KNOTS('',1,(#536,#537),.UNSPECIFIED.,.F.,.F.,(2,
2),(-14.6537298065522,-13.5032620298651),.UNSPECIFIED.);
#238=B_SPLINE_CURVE_WITH_KNOTS('',1,(#538,#539),.UNSPECIFIED.,.F.,.F.,(2,
2),(0.280567368572425,0.853654379570687),.UNSPECIFIED.);
#239=B_SPLINE_CURVE_WITH_KNOTS('',1,(#542,#543),.UNSPECIFIED.,.F.,.F.,(2,
2),(0.87116672870876,35.1288332712417),.UNSPECIFIED.);
#240=B_SPLINE_CURVE_WITH_KNOTS('',1,(#546,#547),.UNSPECIFIED.,.F.,.F.,(2,
2),(1.78978136329276,1.81099456672836),.UNSPECIFIED.);
#241=B_SPLINE_CURVE_WITH_KNOTS('',1,(#548,#549),.UNSPECIFIED.,.F.,.F.,(2,
2),(1.02089851021267,34.9791014897374),.UNSPECIFIED.);
#242=B_SPLINE_CURVE_WITH_KNOTS('',3,(#550,#551,#552,#553),.UNSPECIFIED.,
 .F.,.F.,(4,4),(0.,0.0186340635429911),.UNSPECIFIED.);
#243=B_SPLINE_CURVE_WITH_KNOTS('',3,(#554,#555,#556,#557),.UNSPECIFIED.,
 .F.,.F.,(4,4),(0.,0.0186340635175411),.UNSPECIFIED.);
#244=B_SPLINE_CURVE_WITH_KNOTS('',1,(#558,#559),.UNSPECIFIED.,.F.,.F.,(2,
2),(0.,36.),.UNSPECIFIED.);
#245=B_SPLINE_CURVE_WITH_KNOTS('',1,(#560,#561),.UNSPECIFIED.,.F.,.F.,(2,
2),(2.56099456672836,3.31099456672836),.UNSPECIFIED.);
#246=B_SPLINE_CURVE_WITH_KNOTS('',1,(#562,#563),.UNSPECIFIED.,.F.,.F.,(2,
2),(0.,36.),.UNSPECIFIED.);
#247=B_SPLINE_CURVE_WITH_KNOTS('',1,(#564,#565),.UNSPECIFIED.,.F.,.F.,(2,
2),(2.56099456672836,3.31099456672836),.UNSPECIFIED.);
#248=B_SPLINE_CURVE_WITH_KNOTS('',1,(#566,#567),.UNSPECIFIED.,.F.,.F.,(2,
2),(-12.8786769976438,-12.8360916545378),.UNSPECIFIED.);
#249=B_SPLINE_CURVE_WITH_KNOTS('',3,(#592,#593,#594,#595,#596,#597,#598,
#599,#600,#601,#602),.UNSPECIFIED.,.F.,.F.,(4,3,2,2,4),(12.7686340635389,
12.7712145594051,12.8753088759862,12.9290446716223,12.9838321496098),
 .UNSPECIFIED.);
#250=B_SPLINE_CURVE_WITH_KNOTS('',3,(#603,#604,#605,#606,#607,#608,#609,
#610),.UNSPECIFIED.,.F.,.F.,(4,2,2,4),(13.5569191606081,13.6117066385973,
13.6654424342333,13.769536750813),.UNSPECIFIED.);
#251=B_SPLINE_CURVE_WITH_KNOTS('',1,(#611,#612),.UNSPECIFIED.,.F.,.F.,(2,
2),(13.769536750813,14.3422932435742),.UNSPECIFIED.);
#252=B_SPLINE_CURVE_WITH_KNOTS('',3,(#613,#614,#615,#616,#617,#618,#619,
#620),.UNSPECIFIED.,.F.,.F.,(4,2,2,4),(14.3422932435742,14.4463875601545,
14.5001233557901,14.554910833779),.UNSPECIFIED.);
#253=B_SPLINE_CURVE_WITH_KNOTS('',1,(#621,#622),.UNSPECIFIED.,.F.,.F.,(2,
2),(14.5761240372146,15.636784208972),.UNSPECIFIED.);
#254=B_SPLINE_CURVE_WITH_KNOTS('',3,(#623,#624,#625,#626,#627,#628,#629,
#630,#631,#632,#633),.UNSPECIFIED.,.F.,.F.,(4,3,2,2,4),(12.7686340635909,
12.7712145594569,12.8753088760338,12.9290446716756,12.9838321496618),
 .UNSPECIFIED.);
#255=B_SPLINE_CURVE_WITH_KNOTS('',3,(#634,#635,#636,#637,#638,#639,#640,
#641),.UNSPECIFIED.,.F.,.F.,(4,2,2,4),(14.1342999263488,14.1890874043367,
14.2428231999742,14.3469175165538),.UNSPECIFIED.);
#256=B_SPLINE_CURVE_WITH_KNOTS('',1,(#642,#643),.UNSPECIFIED.,.F.,.F.,(2,
2),(14.3469175165538,14.9196740093156),.UNSPECIFIED.);
#257=B_SPLINE_CURVE_WITH_KNOTS('',3,(#644,#645,#646,#647,#648,#649,#650,
#651),.UNSPECIFIED.,.F.,.F.,(4,2,2,4),(14.9196740093156,15.0237683258938,
15.0775041215326,15.1322915995203),.UNSPECIFIED.);
#258=B_SPLINE_CURVE_WITH_KNOTS('',1,(#652,#653),.UNSPECIFIED.,.F.,.F.,(2,
2),(15.1748769426264,16.2355371144096),.UNSPECIFIED.);
#259=(
BOUNDED_CURVE()
B_SPLINE_CURVE(1,(#530,#531),.UNSPECIFIED.,.F.,.F.)
B_SPLINE_CURVE_WITH_KNOTS((2,2),(0.170149751666143,35.8298502482841),
 .UNSPECIFIED.)
CURVE()
GEOMETRIC_REPRESENTATION_ITEM()
RATIONAL_B_SPLINE_CURVE((1.,1.))
REPRESENTATION_ITEM('')
);
#260=(
BOUNDED_CURVE()
B_SPLINE_CURVE(1,(#532,#533),.UNSPECIFIED.,.F.,.F.)
B_SPLINE_CURVE_WITH_KNOTS((2,2),(0.0179342822285281,35.9820657177218),
 .UNSPECIFIED.)
CURVE()
GEOMETRIC_REPRESENTATION_ITEM()
RATIONAL_B_SPLINE_CURVE((1.,1.))
REPRESENTATION_ITEM('')
);
#261=(
BOUNDED_CURVE()
B_SPLINE_CURVE(1,(#540,#541),.UNSPECIFIED.,.F.,.F.)
B_SPLINE_CURVE_WITH_KNOTS((2,2),(0.319881533170301,35.6801184667799),
 .UNSPECIFIED.)
CURVE()
GEOMETRIC_REPRESENTATION_ITEM()
RATIONAL_B_SPLINE_CURVE((1.,1.))
REPRESENTATION_ITEM('')
);
#262=(
BOUNDED_CURVE()
B_SPLINE_CURVE(1,(#544,#545),.UNSPECIFIED.,.F.,.F.)
B_SPLINE_CURVE_WITH_KNOTS((2,2),(1.02089851021299,34.9791014897374),
 .UNSPECIFIED.)
CURVE()
GEOMETRIC_REPRESENTATION_ITEM()
RATIONAL_B_SPLINE_CURVE((1.,1.))
REPRESENTATION_ITEM('')
);
#263=(
BOUNDED_CURVE()
B_SPLINE_CURVE(1,(#574,#575),.UNSPECIFIED.,.F.,.F.)
B_SPLINE_CURVE_WITH_KNOTS((2,2),(0.120803391631391,0.13207041520475),
 .UNSPECIFIED.)
CURVE()
GEOMETRIC_REPRESENTATION_ITEM()
RATIONAL_B_SPLINE_CURVE((1.,1.))
REPRESENTATION_ITEM('')
);
#264=(
BOUNDED_CURVE()
B_SPLINE_CURVE(1,(#582,#583),.UNSPECIFIED.,.F.,.F.)
B_SPLINE_CURVE_WITH_KNOTS((2,2),(0.120803391631409,0.132070415204769),
 .UNSPECIFIED.)
CURVE()
GEOMETRIC_REPRESENTATION_ITEM()
RATIONAL_B_SPLINE_CURVE((1.,1.))
REPRESENTATION_ITEM('')
);
#265=(
BOUNDED_CURVE()
B_SPLINE_CURVE(1,(#590,#591),.UNSPECIFIED.,.F.,.F.)
B_SPLINE_CURVE_WITH_KNOTS((2,2),(0.124834323741094,0.136101347314455),
 .UNSPECIFIED.)
CURVE()
GEOMETRIC_REPRESENTATION_ITEM()
RATIONAL_B_SPLINE_CURVE((1.,1.))
REPRESENTATION_ITEM('')
);
#266=(
BOUNDED_CURVE()
B_SPLINE_CURVE(1,(#654,#655),.UNSPECIFIED.,.F.,.F.)
B_SPLINE_CURVE_WITH_KNOTS((2,2),(0.12080339163137,0.13207041520475),
 .UNSPECIFIED.)
CURVE()
GEOMETRIC_REPRESENTATION_ITEM()
RATIONAL_B_SPLINE_CURVE((1.,1.))
REPRESENTATION_ITEM('')
);
#267=(
BOUNDED_CURVE()
B_SPLINE_CURVE(1,(#662,#663),.UNSPECIFIED.,.F.,.F.)
B_SPLINE_CURVE_WITH_KNOTS((2,2),(0.12080339163142,0.132070415204768),
 .UNSPECIFIED.)
CURVE()
GEOMETRIC_REPRESENTATION_ITEM()
RATIONAL_B_SPLINE_CURVE((1.,1.))
REPRESENTATION_ITEM('')
);
#268=(
BOUNDED_CURVE()
B_SPLINE_CURVE(1,(#670,#671),.UNSPECIFIED.,.F.,.F.)
B_SPLINE_CURVE_WITH_KNOTS((2,2),(0.124834323741073,0.136101347314456),
 .UNSPECIFIED.)
CURVE()
GEOMETRIC_REPRESENTATION_ITEM()
RATIONAL_B_SPLINE_CURVE((1.,1.))
REPRESENTATION_ITEM('')
);
#269=VERTEX_POINT('',#500);
#270=VERTEX_POINT('',#501);
#271=VERTEX_POINT('',#502);
#272=VERTEX_POINT('',#503);
#273=VERTEX_POINT('',#504);
#274=VERTEX_POINT('',#505);
#275=VERTEX_POINT('',#506);
#276=VERTEX_POINT('',#507);
#277=VERTEX_POINT('',#508);
#278=VERTEX_POINT('',#509);
#279=VERTEX_POINT('',#510);
#280=VERTEX_POINT('',#511);
#281=VERTEX_POINT('',#512);
#282=VERTEX_POINT('',#513);
#283=VERTEX_POINT('',#514);
#284=VERTEX_POINT('',#515);
#285=VERTEX_POINT('',#516);
#286=VERTEX_POINT('',#517);
#287=VERTEX_POINT('',#518);
#288=VERTEX_POINT('',#519);
#289=VERTEX_POINT('',#520);
#290=VERTEX_POINT('',#521);
#291=VERTEX_POINT('',#522);
#292=VERTEX_POINT('',#523);
#293=VERTEX_POINT('',#524);
#294=VERTEX_POINT('',#525);
#295=VERTEX_POINT('',#526);
#296=VERTEX_POINT('',#527);
#297=VERTEX_POINT('',#528);
#298=VERTEX_POINT('',#529);
#299=CYLINDRICAL_SURFACE('',#408,0.109999999999615);
#300=CYLINDRICAL_SURFACE('',#410,0.110000000000127);
#301=CYLINDRICAL_SURFACE('',#412,0.110000000000069);
#302=CYLINDRICAL_SURFACE('',#416,0.0312499999998863);
#303=CYLINDRICAL_SURFACE('',#417,0.03125);
#304=CYLINDRICAL_SURFACE('',#418,0.03125);
#305=CYLINDRICAL_SURFACE('',#421,0.0312500000001137);
#306=CYLINDRICAL_SURFACE('',#422,0.03125);
#307=CYLINDRICAL_SURFACE('',#423,0.03125);
#308=PLANE('',#407);
#309=PLANE('',#409);
#310=PLANE('',#411);
#311=PLANE('',#413);
#312=PLANE('',#414);
#313=PLANE('',#415);
#314=PLANE('',#419);
#315=PLANE('',#420);
#316=SHAPE_DEFINITION_REPRESENTATION(#317,#405);
#317=PRODUCT_DEFINITION_SHAPE($,$,#319);
#318=PRODUCT_DEFINITION_CONTEXT('3D Mechanical Parts',#391,'design');
#319=PRODUCT_DEFINITION('A','First version',#361,#318);
#320=DATE_TIME_ROLE('classification_date');
#321=DATE_TIME_ROLE('creation_date');
#322=APPLIED_DATE_AND_TIME_ASSIGNMENT(#346,#320,(#325));
#323=APPLIED_DATE_AND_TIME_ASSIGNMENT(#348,#321,(#319));
#324=SECURITY_CLASSIFICATION_LEVEL('unclassified');
#325=SECURITY_CLASSIFICATION('A','Security for version',#324);
#326=APPLIED_SECURITY_CLASSIFICATION_ASSIGNMENT(#325,(#361));
#327=APPROVAL_ROLE('Version approval');
#328=APPROVAL_ROLE('Version Security approval');
#329=APPROVAL_ROLE('Definition approval');
#330=APPROVAL_PERSON_ORGANIZATION(#379,#355,#327);
#331=APPROVAL_PERSON_ORGANIZATION(#380,#356,#328);
#332=APPROVAL_PERSON_ORGANIZATION(#383,#357,#329);
#333=COORDINATED_UNIVERSAL_TIME_OFFSET(5,0,.BEHIND.);
#334=LOCAL_TIME(0,0,0.,#333);
#335=LOCAL_TIME(0,0,0.,#333);
#336=LOCAL_TIME(0,0,0.,#333);
#337=LOCAL_TIME(0,0,0.,#333);
#338=LOCAL_TIME(0,0,0.,#333);
#339=CALENDAR_DATE(1999,1,1);
#340=CALENDAR_DATE(1999,1,1);
#341=CALENDAR_DATE(1999,1,1);
#342=CALENDAR_DATE(1999,1,1);
#343=CALENDAR_DATE(1999,1,1);
#344=DATE_AND_TIME(#339,#334);
#345=DATE_AND_TIME(#340,#335);
#346=DATE_AND_TIME(#341,#336);
#347=DATE_AND_TIME(#342,#337);
#348=DATE_AND_TIME(#343,#338);
#349=APPROVAL_DATE_TIME(#344,#355);
#350=APPROVAL_DATE_TIME(#345,#356);
#351=APPROVAL_DATE_TIME(#347,#357);
#352=APPROVAL_STATUS('not_yet_approved');
#353=APPROVAL_STATUS('not_yet_approved');
#354=APPROVAL_STATUS('approved');
#355=APPROVAL(#352,'Version approval');
#356=APPROVAL(#353,'Version Security approval');
#357=APPROVAL(#354,'Definition approval');
#358=APPLIED_APPROVAL_ASSIGNMENT(#355,(#361));
#359=APPLIED_APPROVAL_ASSIGNMENT(#356,(#325));
#360=APPLIED_APPROVAL_ASSIGNMENT(#357,(#319));
#361=PRODUCT_DEFINITION_FORMATION_WITH_SPECIFIED_SOURCE('A',
'First version',#393,.MADE.);
#362=PERSON_AND_ORGANIZATION_ROLE('design_owner');
#363=PERSON_AND_ORGANIZATION_ROLE('creator');
#364=PERSON_AND_ORGANIZATION_ROLE('design_supplier');
#365=PERSON_AND_ORGANIZATION_ROLE('classification_officer');
#366=PERSON_AND_ORGANIZATION_ROLE('creator');
#367=ORGANIZATION('STI','lab','lab');
#368=ORGANIZATION('STI','unknown','unknown');
#369=ORGANIZATION('STI','unknown','unknown');
#370=ORGANIZATION('STI','unknown','unknown');
#371=ORGANIZATION('STI','unknown','unknown');
#372=ORGANIZATION('STI','unknown','unknown');
#373=ORGANIZATION('STI','unknown','unknown');
#374=PERSON('1','Box','vc60',$,$,$);
#375=PERSON('2','last','first',$,$,$);
#376=PERSON('3','President','Mr.',$,$,$);
#377=PERSON_AND_ORGANIZATION(#374,#367);
#378=PERSON_AND_ORGANIZATION(#375,#368);
#379=PERSON_AND_ORGANIZATION(#376,#369);
#380=PERSON_AND_ORGANIZATION(#376,#370);
#381=PERSON_AND_ORGANIZATION(#376,#371);
#382=PERSON_AND_ORGANIZATION(#375,#372);
#383=PERSON_AND_ORGANIZATION(#376,#373);
#384=APPLIED_PERSON_AND_ORGANIZATION_ASSIGNMENT(#377,#362,(#393));
#385=APPLIED_PERSON_AND_ORGANIZATION_ASSIGNMENT(#378,#363,(#361));
#386=APPLIED_PERSON_AND_ORGANIZATION_ASSIGNMENT(#378,#364,(#361));
#387=APPLIED_PERSON_AND_ORGANIZATION_ASSIGNMENT(#381,#365,(#325));
#388=APPLIED_PERSON_AND_ORGANIZATION_ASSIGNMENT(#382,#366,(#319));
#389=PRODUCT_RELATED_PRODUCT_CATEGORY('detail','detail',(#393));
#390=APPLICATION_PROTOCOL_DEFINITION('International Standard',
'config_control_design',1994,#391);
#391=APPLICATION_CONTEXT(
'configuration controlled 3d designs of mechanical parts and assemblie
s');
#392=PRODUCT_CONTEXT('3D Mechanical Parts',#391,'mechanical');
#393=PRODUCT('Document','Document','',(#392));
#394=(
LENGTH_UNIT()
NAMED_UNIT(*)
SI_UNIT(.CENTI.,.METRE.)
);
#395=LENGTH_MEASURE_WITH_UNIT(LENGTH_MEASURE(2.54),#394);
#396=(
CONVERSION_BASED_UNIT('INCH',#395)
LENGTH_UNIT()
NAMED_UNIT(#399)
);
#397=(
NAMED_UNIT(*)
PLANE_ANGLE_UNIT()
SI_UNIT($,.RADIAN.)
);
#398=DIMENSIONAL_EXPONENTS(0.,0.,0.,0.,0.,0.,0.);
#399=DIMENSIONAL_EXPONENTS(1.,0.,0.,0.,0.,0.,0.);
#400=PLANE_ANGLE_MEASURE_WITH_UNIT(PLANE_ANGLE_MEASURE(0.01745329252),#397);
#401=(
CONVERSION_BASED_UNIT('DEGREES',#400)
NAMED_UNIT(#398)
PLANE_ANGLE_UNIT()
);
#402=(
NAMED_UNIT(*)
SI_UNIT($,.STERADIAN.)
SOLID_ANGLE_UNIT()
);
#403=UNCERTAINTY_MEASURE_WITH_UNIT(LENGTH_MEASURE(0.000393700787401575),
#396,'DISTANCE_ACCURACY_VALUE',
'Maximum model space distance between geometric entities at asserted c
onnectivities');
#404=(
GEOMETRIC_REPRESENTATION_CONTEXT(3)
GLOBAL_UNCERTAINTY_ASSIGNED_CONTEXT((#403))
GLOBAL_UNIT_ASSIGNED_CONTEXT((#402,#401,#396))
REPRESENTATION_CONTEXT('ID1','3D')
);
#405=SHAPE_REPRESENTATION('Document',(#406,#436),#404);
#406=AXIS2_PLACEMENT_3D($,#482,#437,#438);
#407=AXIS2_PLACEMENT_3D('',#483,#439,$);
#408=AXIS2_PLACEMENT_3D('',#484,#440,$);
#409=AXIS2_PLACEMENT_3D('',#485,#441,$);
#410=AXIS2_PLACEMENT_3D('',#486,#442,$);
#411=AXIS2_PLACEMENT_3D('',#487,#443,$);
#412=AXIS2_PLACEMENT_3D('',#488,#444,$);
#413=AXIS2_PLACEMENT_3D('',#489,#445,$);
#414=AXIS2_PLACEMENT_3D('',#490,#446,$);
#415=AXIS2_PLACEMENT_3D('',#491,#447,$);
#416=AXIS2_PLACEMENT_3D('',#492,#448,$);
#417=AXIS2_PLACEMENT_3D('',#493,#449,$);
#418=AXIS2_PLACEMENT_3D('',#494,#450,$);
#419=AXIS2_PLACEMENT_3D('',#495,#451,$);
#420=AXIS2_PLACEMENT_3D('',#496,#452,$);
#421=AXIS2_PLACEMENT_3D('',#497,#453,$);
#422=AXIS2_PLACEMENT_3D('',#498,#454,$);
#423=AXIS2_PLACEMENT_3D('',#499,#455,$);
#424=AXIS2_PLACEMENT_3D($,#568,#456,#457);
#425=AXIS2_PLACEMENT_3D($,#571,#458,#459);
#426=AXIS2_PLACEMENT_3D($,#576,#460,#461);
#427=AXIS2_PLACEMENT_3D($,#579,#462,#463);
#428=AXIS2_PLACEMENT_3D($,#584,#464,#465);
#429=AXIS2_PLACEMENT_3D($,#587,#466,#467);
#430=AXIS2_PLACEMENT_3D($,#656,#468,#469);
#431=AXIS2_PLACEMENT_3D($,#659,#470,#471);
#432=AXIS2_PLACEMENT_3D($,#664,#472,#473);
#433=AXIS2_PLACEMENT_3D($,#667,#474,#475);
#434=AXIS2_PLACEMENT_3D($,#672,#476,#477);
#435=AXIS2_PLACEMENT_3D($,#675,#478,#479);
#436=AXIS2_PLACEMENT_3D($,#678,#480,#481);
#437=DIRECTION('',(0.,0.,1.));
#438=DIRECTION('',(1.,0.,0.));
#439=DIRECTION('',(0.,-1.,0.));
#440=DIRECTION('',(-1.,-1.72513625193062E-12,-7.20334487351129E-13));
#441=DIRECTION('',(0.,1.,0.));
#442=DIRECTION('',(1.,0.,0.));
#443=DIRECTION('',(0.,0.,1.));
#444=DIRECTION('',(-1.,-8.51890685629903E-12,-6.45187344318113E-12));
#445=DIRECTION('',(0.,1.,0.));
#446=DIRECTION('',(0.,0.,-1.));
#447=DIRECTION('',(3.12478326161082E-16,-0.0165875802053849,0.999862416626873));
#448=DIRECTION('',(0.,1.,0.));
#449=DIRECTION('',(0.,1.,0.));
#450=DIRECTION('',(0.,1.,0.));
#451=DIRECTION('',(0.707106781201508,0.707106781171587,-2.95465298268142E-11));
#452=DIRECTION('',(-0.70710678118427,0.707106781188826,-2.02123672826205E-13));
#453=DIRECTION('',(0.,1.,0.));
#454=DIRECTION('',(0.,1.,0.));
#455=DIRECTION('',(0.,1.,0.));
#456=DIRECTION('',(-7.27595761420988E-12,1.,7.27595761420988E-12));
#457=DIRECTION('',(-1.,-7.27595761418343E-12,-4.01456645704457E-12));
#458=DIRECTION('',(3.63797880709171E-12,-1.,3.63797880709171E-12));
#459=DIRECTION('',(-1.,-7.27595761418343E-12,6.44817532702291E-13));
#460=DIRECTION('',(-7.27595761420988E-12,1.,7.27595761420988E-12));
#461=DIRECTION('',(-1.,-7.2759576142099E-12,-1.69109171111519E-12));
#462=DIRECTION('',(-3.63797880708508E-12,-1.,-1.09139364212685E-11));
#463=DIRECTION('',(-1.,0.,-1.97175609173428E-13));
#464=DIRECTION('',(0.,1.,0.));
#465=DIRECTION('',(1.,0.,-3.30224736444507E-12));
#466=DIRECTION('',(0.,-1.,0.));
#467=DIRECTION('',(1.,0.,7.60280727263307E-13));
#468=DIRECTION('',(-3.63797880709171E-12,1.,-3.63797880709171E-12));
#469=DIRECTION('',(1.,0.,-2.30215846386272E-12));
#470=DIRECTION('',(3.63797880709171E-12,-1.,-3.63797880709171E-12));
#471=DIRECTION('',(1.,0.,6.44817532702291E-13));
#472=DIRECTION('',(-3.63797880709171E-12,1.,-3.63797880709171E-12));
#473=DIRECTION('',(1.,7.27595761418343E-12,-1.93622895494627E-13));
#474=DIRECTION('',(-3.63797880708511E-12,-1.,1.09139364212685E-11));
#475=DIRECTION('',(1.,-7.27595761415696E-12,2.12452277991497E-12));
#476=DIRECTION('',(0.,1.,0.));
#477=DIRECTION('',(-1.,0.,2.90789614609821E-12));
#478=DIRECTION('',(0.,-1.,0.));
#479=DIRECTION('',(-1.,0.,-3.63087337973411E-12));
#480=DIRECTION('',(0.,0.,1.));
#481=DIRECTION('',(1.,0.,0.));
#482=CARTESIAN_POINT('',(0.,0.,0.));
#483=CARTESIAN_POINT('',(894.903068542758,-1475.72920337953,-0.000119976372843666));
#484=CARTESIAN_POINT('',(881.679423034044,-1475.71420337953,0.640113735313957));
#485=CARTESIAN_POINT('',(894.903068542758,-1475.60420337953,0.640113735313889));
#486=CARTESIAN_POINT('',(881.679423034044,-1475.49420337953,0.234880023627263));
#487=CARTESIAN_POINT('',(894.903068542758,-1475.49420337953,0.124880023627156));
#488=CARTESIAN_POINT('',(881.679423034045,-1475.08920337953,0.01488002362686));
#489=CARTESIAN_POINT('',(894.903068542758,-1474.97920337953,0.014880023627029));
#490=CARTESIAN_POINT('',(894.903068542758,-1474.97920337953,-0.00011997637307104));
#491=CARTESIAN_POINT('',(894.903068542758,-1475.72920337953,0.749880023627156));
#492=CARTESIAN_POINT('',(881.679423852805,-1475.68264485032,0.437964302818913));
#493=CARTESIAN_POINT('',(891.77806854279,-1475.68264485032,0.437964302818961));
#494=CARTESIAN_POINT('',(871.580777525336,-1475.72736531358,0.437964302819513));
#495=CARTESIAN_POINT('',(894.910568542757,-1475.73670337953,-0.0101199763728417));
#496=CARTESIAN_POINT('',(869.213277525336,-1474.97170337953,-0.0101199763730375));
#497=CARTESIAN_POINT('',(881.679423852805,-1475.68264485032,0.437964302818913));
#498=CARTESIAN_POINT('',(891.77806854279,-1475.68264485032,0.437964302818961));
#499=CARTESIAN_POINT('',(871.580777525336,-1475.72736531358,0.437964302819319));
#500=CARTESIAN_POINT('',(894.903068542758,-1475.72920337953,-0.00011997637307104));
#501=CARTESIAN_POINT('',(868.455777525331,-1475.72920337953,-0.00011997637307104));
#502=CARTESIAN_POINT('',(894.903068542758,-1475.72920337953,0.749880023626929));
#503=CARTESIAN_POINT('',(868.455777525331,-1475.72920337953,0.749880023626929));
#504=CARTESIAN_POINT('',(868.468952891514,-1475.71602801335,0.750098601143009));
#505=CARTESIAN_POINT('',(868.580777525336,-1475.60420337953,0.640113735313889));
#506=CARTESIAN_POINT('',(894.889893176611,-1475.71602801335,0.750098601142554));
#507=CARTESIAN_POINT('',(894.77806854279,-1475.60420337953,0.640113735313889));
#508=CARTESIAN_POINT('',(868.580777525336,-1475.60420337953,0.234880023627284));
#509=CARTESIAN_POINT('',(894.77806854279,-1475.60420337953,0.234880023626829));
#510=CARTESIAN_POINT('',(868.690777525336,-1475.49420337953,0.124880023626929));
#511=CARTESIAN_POINT('',(894.66806854279,-1475.49420337953,0.124880023626929));
#512=CARTESIAN_POINT('',(869.095777525336,-1475.08920337953,0.124880023626702));
#513=CARTESIAN_POINT('',(894.263068542789,-1475.08920337953,0.124880023626702));
#514=CARTESIAN_POINT('',(869.205777525336,-1474.97920337953,0.014880023627029));
#515=CARTESIAN_POINT('',(894.153068542789,-1474.97920337953,0.014880023627029));
#516=CARTESIAN_POINT('',(869.205777525336,-1474.97920337953,-0.000119976373298414));
#517=CARTESIAN_POINT('',(894.15306854279,-1474.97920337953,-0.000119976373298414));
#518=CARTESIAN_POINT('',(881.648173852805,-1475.72920337953,0.437964302818955));
#519=CARTESIAN_POINT('',(881.648173852805,-1475.60420337953,0.437964302818955));
#520=CARTESIAN_POINT('',(891.74681854279,-1475.72920337953,0.437964302818955));
#521=CARTESIAN_POINT('',(891.74681854279,-1475.60420337953,0.437964302818955));
#522=CARTESIAN_POINT('',(871.612027525336,-1475.72920337953,0.43796430281941));
#523=CARTESIAN_POINT('',(871.612027525336,-1475.60420337953,0.43796430281941));
#524=CARTESIAN_POINT('',(881.710673852805,-1475.72920337953,0.437964302818955));
#525=CARTESIAN_POINT('',(881.710673852805,-1475.60420337953,0.437964302818955));
#526=CARTESIAN_POINT('',(891.80931854279,-1475.72920337952,0.437964302818955));
#527=CARTESIAN_POINT('',(891.80931854279,-1475.60420337953,0.437964302818955));
#528=CARTESIAN_POINT('',(871.549527525336,-1475.72920337953,0.43796430281941));
#529=CARTESIAN_POINT('',(871.549527525336,-1475.60420337953,0.43796430281941));
#530=CARTESIAN_POINT('',(894.77806854279,-1475.60420337953,0.640113735313889));
#531=CARTESIAN_POINT('',(868.580777525336,-1475.60420337953,0.640113735314117));
#532=CARTESIAN_POINT('',(894.889893176611,-1475.71602801335,0.750098601142537));
#533=CARTESIAN_POINT('',(868.468952891514,-1475.71602801335,0.750098601142766));
#534=CARTESIAN_POINT('',(894.77806854279,-1475.60420337953,0.234880023627056));
#535=CARTESIAN_POINT('',(868.580777525336,-1475.60420337953,0.234880023627284));
#536=CARTESIAN_POINT('',(868.580777525336,-1475.60420337953,0.640113735314117));
#537=CARTESIAN_POINT('',(868.580777525336,-1475.60420337953,0.234880023627284));
#538=CARTESIAN_POINT('',(894.77806854279,-1475.60420337953,0.640113735313889));
#539=CARTESIAN_POINT('',(894.77806854279,-1475.60420337953,0.234880023627056));
#540=CARTESIAN_POINT('',(894.66806854279,-1475.49420337953,0.124880023627156));
#541=CARTESIAN_POINT('',(868.690777525336,-1475.49420337953,0.124880023627156));
#542=CARTESIAN_POINT('',(894.263068542789,-1475.08920337953,0.124880023626929));
#543=CARTESIAN_POINT('',(869.095777525336,-1475.08920337953,0.124880023626929));
#544=CARTESIAN_POINT('',(894.153068542789,-1474.97920337953,0.014880023627029));
#545=CARTESIAN_POINT('',(869.205777525336,-1474.97920337953,0.014880023627029));
#546=CARTESIAN_POINT('',(894.153068542789,-1474.97920337953,0.014880023627029));
#547=CARTESIAN_POINT('',(894.15306854279,-1474.97920337953,-0.00011997637307104));
#548=CARTESIAN_POINT('',(894.15306854279,-1474.97920337953,-0.00011997637307104));
#549=CARTESIAN_POINT('',(869.205777525336,-1474.97920337953,-0.00011997637307104));
#550=CARTESIAN_POINT('',(868.455777525331,-1475.72920337953,0.749880023627156));
#551=CARTESIAN_POINT('',(868.460169314058,-1475.7248115908,0.749952882799107));
#552=CARTESIAN_POINT('',(868.464561102786,-1475.72041980207,0.75002574197083));
#553=CARTESIAN_POINT('',(868.468952891514,-1475.71602801335,0.750098601143009));
#554=CARTESIAN_POINT('',(894.903068542758,-1475.72920337953,0.749880023627156));
#555=CARTESIAN_POINT('',(894.898676754039,-1475.7248115908,0.749952882799107));
#556=CARTESIAN_POINT('',(894.894284965329,-1475.72041980207,0.750025741971058));
#557=CARTESIAN_POINT('',(894.889893176611,-1475.71602801335,0.750098601142781));
#558=CARTESIAN_POINT('',(894.903068542758,-1475.72920337953,-0.000119976372843666));
#559=CARTESIAN_POINT('',(868.455777525331,-1475.72920337953,-0.000119976372843666));
#560=CARTESIAN_POINT('',(894.903068542758,-1475.72920337953,-0.000119976372843666));
#561=CARTESIAN_POINT('',(894.903068542758,-1475.72920337953,0.749880023627156));
#562=CARTESIAN_POINT('',(894.903068542758,-1475.72920337953,0.749880023627156));
#563=CARTESIAN_POINT('',(868.455777525331,-1475.72920337953,0.749880023627156));
#564=CARTESIAN_POINT('',(868.455777525331,-1475.72920337953,-0.000119976372843666));
#565=CARTESIAN_POINT('',(868.455777525331,-1475.72920337953,0.749880023627156));
#566=CARTESIAN_POINT('',(869.205777525336,-1474.97920337953,0.014880023627029));
#567=CARTESIAN_POINT('',(869.205777525336,-1474.97920337953,-0.00011997637307104));
#568=CARTESIAN_POINT('',(881.679423852805,-1475.72920337953,0.43796430281908));
#569=CARTESIAN_POINT('',(881.648173852805,-1475.72920337953,0.437964302818955));
#570=CARTESIAN_POINT('',(881.710673852805,-1475.72920337952,0.437964302818955));
#571=CARTESIAN_POINT('',(881.679423852805,-1475.60420337953,0.437964302818935));
#572=CARTESIAN_POINT('',(881.648173852805,-1475.60420337953,0.437964302818955));
#573=CARTESIAN_POINT('',(881.710673852805,-1475.60420337952,0.437964302818955));
#574=CARTESIAN_POINT('',(881.648173852805,-1475.72920337953,0.437964302818955));
#575=CARTESIAN_POINT('',(881.648173852805,-1475.60420337953,0.437964302818955));
#576=CARTESIAN_POINT('',(891.77806854279,-1475.72920337952,0.437964302819008));
#577=CARTESIAN_POINT('',(891.74681854279,-1475.72920337953,0.437964302818955));
#578=CARTESIAN_POINT('',(891.809318542789,-1475.72920337952,0.437964302818955));
#579=CARTESIAN_POINT('',(891.77806854279,-1475.60420337953,0.437964302818961));
#580=CARTESIAN_POINT('',(891.74681854279,-1475.60420337953,0.437964302818955));
#581=CARTESIAN_POINT('',(891.80931854279,-1475.60420337953,0.437964302818955));
#582=CARTESIAN_POINT('',(891.74681854279,-1475.72920337953,0.437964302818955));
#583=CARTESIAN_POINT('',(891.74681854279,-1475.60420337953,0.437964302818955));
#584=CARTESIAN_POINT('',(871.580777525336,-1475.72920337953,0.437964302819513));
#585=CARTESIAN_POINT('',(871.612027525336,-1475.72920337953,0.43796430281941));
#586=CARTESIAN_POINT('',(871.549527525336,-1475.72920337953,0.43796430281941));
#587=CARTESIAN_POINT('',(871.580777525336,-1475.60420337953,0.437964302819386));
#588=CARTESIAN_POINT('',(871.612027525336,-1475.60420337953,0.43796430281941));
#589=CARTESIAN_POINT('',(871.549527525336,-1475.60420337953,0.43796430281941));
#590=CARTESIAN_POINT('',(871.612027525336,-1475.72920337953,0.43796430281941));
#591=CARTESIAN_POINT('',(871.612027525336,-1475.60420337953,0.43796430281941));
#592=CARTESIAN_POINT('',(894.889893176611,-1475.71602801335,0.750098601142781));
#593=CARTESIAN_POINT('',(894.889284999337,-1475.71541983607,0.750108690720481));
#594=CARTESIAN_POINT('',(894.888676746215,-1475.71481158295,0.750113735314017));
#595=CARTESIAN_POINT('',(894.888068542789,-1475.71420337953,0.750113735314017));
#596=CARTESIAN_POINT('',(894.864110552505,-1475.69024538924,0.750113735314017));
#597=CARTESIAN_POINT('',(894.838992653061,-1475.6651274898,0.742206506876528));
#598=CARTESIAN_POINT('',(894.807346065645,-1475.63348090238,0.716132041824267));
#599=CARTESIAN_POINT('',(894.79743305274,-1475.62356788948,0.704504758473377));
#600=CARTESIAN_POINT('',(894.7826022964,-1475.60873713314,0.675443366669697));
#601=CARTESIAN_POINT('',(894.77806854279,-1475.60420337953,0.658385325875088));
#602=CARTESIAN_POINT('',(894.77806854279,-1475.60420337953,0.640113735313889));
#603=CARTESIAN_POINT('',(894.77806854279,-1475.60420337953,0.234880023627056));
#604=CARTESIAN_POINT('',(894.77806854279,-1475.60420337953,0.21660843306563));
#605=CARTESIAN_POINT('',(894.773534789179,-1475.59966962592,0.199550392271931));
#606=CARTESIAN_POINT('',(894.75870403284,-1475.58483886958,0.170489000467796));
#607=CARTESIAN_POINT('',(894.748791019934,-1475.57492585667,0.158861717116906));
#608=CARTESIAN_POINT('',(894.717144432518,-1475.54327926925,0.132787252064418));
#609=CARTESIAN_POINT('',(894.692026533074,-1475.51816136981,0.124880023627156));
#610=CARTESIAN_POINT('',(894.66806854279,-1475.49420337953,0.124880023627156));
#611=CARTESIAN_POINT('',(894.66806854279,-1475.49420337953,0.124880023627156));
#612=CARTESIAN_POINT('',(894.263068542789,-1475.08920337953,0.124880023626929));
#613=CARTESIAN_POINT('',(894.263068542789,-1475.08920337953,0.124880023626929));
#614=CARTESIAN_POINT('',(894.239110552505,-1475.06524538924,0.124880023626929));
#615=CARTESIAN_POINT('',(894.213992653061,-1475.0401274898,0.11697279518944));
#616=CARTESIAN_POINT('',(894.182346065645,-1475.00848090238,0.0908983301374064));
#617=CARTESIAN_POINT('',(894.17243305274,-1474.99856788948,0.0792710467860616));
#618=CARTESIAN_POINT('',(894.1576022964,-1474.98373713314,0.0502096549821545));
#619=CARTESIAN_POINT('',(894.15306854279,-1474.97920337953,0.0331516141884549));
#620=CARTESIAN_POINT('',(894.153068542789,-1474.97920337953,0.014880023627029));
#621=CARTESIAN_POINT('',(894.15306854279,-1474.97920337953,-0.00011997637307104));
#622=CARTESIAN_POINT('',(894.903068542758,-1475.72920337953,-0.000119976372843666));
#623=CARTESIAN_POINT('',(868.468952891514,-1475.71602801335,0.750098601143009));
#624=CARTESIAN_POINT('',(868.469561068788,-1475.71541983607,0.750108690720253));
#625=CARTESIAN_POINT('',(868.470169321909,-1475.71481158295,0.750113735314017));
#626=CARTESIAN_POINT('',(868.470777525336,-1475.71420337953,0.750113735314017));
#627=CARTESIAN_POINT('',(868.49473551562,-1475.69024538924,0.750113735314017));
#628=CARTESIAN_POINT('',(868.519853415064,-1475.6651274898,0.742206506876528));
#629=CARTESIAN_POINT('',(868.551500002482,-1475.63348090238,0.716132041822902));
#630=CARTESIAN_POINT('',(868.561413015385,-1475.62356788948,0.704504758474968));
#631=CARTESIAN_POINT('',(868.576243771725,-1475.60873713314,0.675443366669469));
#632=CARTESIAN_POINT('',(868.580777525336,-1475.60420337953,0.65838532587486));
#633=CARTESIAN_POINT('',(868.580777525336,-1475.60420337953,0.640113735314117));
#634=CARTESIAN_POINT('',(868.580777525336,-1475.60420337953,0.234880023627284));
#635=CARTESIAN_POINT('',(868.580777525336,-1475.60420337953,0.216608433066085));
#636=CARTESIAN_POINT('',(868.585311278945,-1475.59966962592,0.199550392271703));
#637=CARTESIAN_POINT('',(868.600142035285,-1475.58483886958,0.170489000467342));
#638=CARTESIAN_POINT('',(868.610055048191,-1475.57492585667,0.158861717117134));
#639=CARTESIAN_POINT('',(868.641701635607,-1475.54327926925,0.13278725206419));
#640=CARTESIAN_POINT('',(868.666819535051,-1475.51816136981,0.124880023627156));
#641=CARTESIAN_POINT('',(868.690777525336,-1475.49420337953,0.124880023627156));
#642=CARTESIAN_POINT('',(868.690777525336,-1475.49420337953,0.124880023627156));
#643=CARTESIAN_POINT('',(869.095777525336,-1475.08920337953,0.124880023626929));
#644=CARTESIAN_POINT('',(869.095777525336,-1475.08920337953,0.124880023626929));
#645=CARTESIAN_POINT('',(869.11973551562,-1475.06524538924,0.124880023626929));
#646=CARTESIAN_POINT('',(869.144853415065,-1475.0401274898,0.116972795189213));
#647=CARTESIAN_POINT('',(869.176500002481,-1475.00848090238,0.0908983301367243));
#648=CARTESIAN_POINT('',(869.186413015385,-1474.99856788948,0.0792710467867437));
#649=CARTESIAN_POINT('',(869.201243771725,-1474.98373713314,0.0502096549823818));
#650=CARTESIAN_POINT('',(869.205777525336,-1474.97920337953,0.0331516141877728));
#651=CARTESIAN_POINT('',(869.205777525336,-1474.97920337953,0.014880023627029));
#652=CARTESIAN_POINT('',(869.205777525336,-1474.97920337953,-0.00011997637307104));
#653=CARTESIAN_POINT('',(868.455777525331,-1475.72920337953,-0.000119976372843666));
#654=CARTESIAN_POINT('',(881.710673852805,-1475.72920337953,0.43796430281897));
#655=CARTESIAN_POINT('',(881.710673852805,-1475.60420337953,0.437964302818929));
#656=CARTESIAN_POINT('',(881.679423852805,-1475.72920337953,0.437964302819027));
#657=CARTESIAN_POINT('',(881.710673852805,-1475.72920337953,0.437964302818955));
#658=CARTESIAN_POINT('',(881.648173852805,-1475.72920337953,0.437964302818955));
#659=CARTESIAN_POINT('',(881.679423852805,-1475.60420337953,0.437964302818935));
#660=CARTESIAN_POINT('',(881.710673852805,-1475.60420337953,0.437964302818955));
#661=CARTESIAN_POINT('',(881.648173852805,-1475.60420337953,0.437964302818955));
#662=CARTESIAN_POINT('',(891.80931854279,-1475.72920337953,0.43796430281897));
#663=CARTESIAN_POINT('',(891.80931854279,-1475.60420337953,0.437964302818929));
#664=CARTESIAN_POINT('',(891.77806854279,-1475.72920337953,0.437964302818961));
#665=CARTESIAN_POINT('',(891.80931854279,-1475.72920337952,0.437964302818955));
#666=CARTESIAN_POINT('',(891.74681854279,-1475.72920337953,0.437964302818955));
#667=CARTESIAN_POINT('',(891.77806854279,-1475.60420337953,0.437964302818889));
#668=CARTESIAN_POINT('',(891.80931854279,-1475.60420337953,0.437964302818955));
#669=CARTESIAN_POINT('',(891.74681854279,-1475.60420337952,0.437964302818955));
#670=CARTESIAN_POINT('',(871.549527525336,-1475.72920337953,0.43796430281941));
#671=CARTESIAN_POINT('',(871.549527525336,-1475.60420337953,0.437964302819369));
#672=CARTESIAN_POINT('',(871.580777525336,-1475.72920337953,0.437964302819319));
#673=CARTESIAN_POINT('',(871.549527525336,-1475.72920337953,0.43796430281941));
#674=CARTESIAN_POINT('',(871.612027525336,-1475.72920337953,0.43796430281941));
#675=CARTESIAN_POINT('',(871.580777525336,-1475.60420337953,0.437964302819523));
#676=CARTESIAN_POINT('',(871.549527525336,-1475.60420337953,0.43796430281941));
#677=CARTESIAN_POINT('',(871.612027525336,-1475.60420337953,0.43796430281941));
#678=CARTESIAN_POINT('',(0.,0.,0.));
ENDSEC;
END-ISO-10303-21;
