ISO-10303-21;
HEADER;
/* Generated by software containing ST-Developer
 * from STEP Tools, Inc. (www.steptools.com) 
 */
/* OPTION: using custom schema-name function */

FILE_DESCRIPTION(
/* description */ (''),
/* implementation_level */ '2;1');

FILE_NAME(
/* name */ 'F & T Clip Tabs x32',
/* time_stamp */ '2024-03-26T10:04:34-05:00',
/* author */ (''),
/* organization */ (''),
/* preprocessor_version */ 'ST-DEVELOPER v16.5',
/* originating_system */ 'Rhino 7.36',
/* authorisation */ '');

FILE_SCHEMA (('CONFIG_CONTROL_DESIGN'));
ENDSEC;

DATA;
#10=SHAPE_REPRESENTATION_RELATIONSHIP('','',#363,#12);
#11=MANIFOLD_SOLID_BREP('brep_1',#13);
#12=ADVANCED_BREP_SHAPE_REPRESENTATION('brep_rep_0',(#11,#379),#362);
#13=CLOSED_SHELL('',(#14,#15,#16,#17,#18,#19,#20,#21,#22,#23,#24,#25,#26,
#27,#28,#29));
#14=ADVANCED_FACE('',(#30),#260,.T.);
#15=ADVANCED_FACE('',(#31),#261,.T.);
#16=ADVANCED_FACE('',(#32),#262,.T.);
#17=ADVANCED_FACE('',(#33),#263,.T.);
#18=ADVANCED_FACE('',(#34),#258,.T.);
#19=ADVANCED_FACE('',(#35),#264,.T.);
#20=ADVANCED_FACE('',(#36),#259,.T.);
#21=ADVANCED_FACE('',(#37),#265,.T.);
#22=ADVANCED_FACE('',(#38),#266,.T.);
#23=ADVANCED_FACE('',(#39),#267,.T.);
#24=ADVANCED_FACE('',(#40),#268,.T.);
#25=ADVANCED_FACE('',(#41),#269,.T.);
#26=ADVANCED_FACE('',(#42),#270,.T.);
#27=ADVANCED_FACE('',(#43),#271,.T.);
#28=ADVANCED_FACE('',(#44),#272,.T.);
#29=ADVANCED_FACE('',(#45),#273,.T.);
#30=FACE_OUTER_BOUND('',#46,.T.);
#31=FACE_OUTER_BOUND('',#47,.T.);
#32=FACE_OUTER_BOUND('',#48,.T.);
#33=FACE_OUTER_BOUND('',#49,.T.);
#34=FACE_OUTER_BOUND('',#50,.T.);
#35=FACE_OUTER_BOUND('',#51,.T.);
#36=FACE_OUTER_BOUND('',#52,.T.);
#37=FACE_OUTER_BOUND('',#53,.T.);
#38=FACE_OUTER_BOUND('',#54,.T.);
#39=FACE_OUTER_BOUND('',#55,.T.);
#40=FACE_OUTER_BOUND('',#56,.T.);
#41=FACE_OUTER_BOUND('',#57,.T.);
#42=FACE_OUTER_BOUND('',#58,.T.);
#43=FACE_OUTER_BOUND('',#59,.T.);
#44=FACE_OUTER_BOUND('',#60,.T.);
#45=FACE_OUTER_BOUND('',#61,.T.);
#46=EDGE_LOOP('',(#62,#63,#64,#65));
#47=EDGE_LOOP('',(#66,#67,#68,#69));
#48=EDGE_LOOP('',(#70,#71,#72,#73));
#49=EDGE_LOOP('',(#74,#75,#76,#77));
#50=EDGE_LOOP('',(#78,#79,#80,#81));
#51=EDGE_LOOP('',(#82,#83,#84,#85));
#52=EDGE_LOOP('',(#86,#87,#88,#89));
#53=EDGE_LOOP('',(#90,#91,#92,#93));
#54=EDGE_LOOP('',(#94,#95,#96,#97));
#55=EDGE_LOOP('',(#98,#99,#100,#101));
#56=EDGE_LOOP('',(#102,#103,#104,#105));
#57=EDGE_LOOP('',(#106,#107,#108,#109));
#58=EDGE_LOOP('',(#110,#111,#112,#113));
#59=EDGE_LOOP('',(#114,#115,#116,#117));
#60=EDGE_LOOP('',(#118,#119,#120,#121,#122,#123,#124,#125,#126,#127,#128,
#129,#130,#131));
#61=EDGE_LOOP('',(#132,#133,#134,#135,#136,#137,#138,#139,#140,#141,#142,
#143,#144,#145));
#62=ORIENTED_EDGE('',*,*,#146,.T.);
#63=ORIENTED_EDGE('',*,*,#147,.T.);
#64=ORIENTED_EDGE('',*,*,#148,.F.);
#65=ORIENTED_EDGE('',*,*,#149,.F.);
#66=ORIENTED_EDGE('',*,*,#150,.T.);
#67=ORIENTED_EDGE('',*,*,#151,.T.);
#68=ORIENTED_EDGE('',*,*,#152,.F.);
#69=ORIENTED_EDGE('',*,*,#147,.F.);
#70=ORIENTED_EDGE('',*,*,#153,.T.);
#71=ORIENTED_EDGE('',*,*,#154,.T.);
#72=ORIENTED_EDGE('',*,*,#155,.F.);
#73=ORIENTED_EDGE('',*,*,#151,.F.);
#74=ORIENTED_EDGE('',*,*,#156,.T.);
#75=ORIENTED_EDGE('',*,*,#157,.T.);
#76=ORIENTED_EDGE('',*,*,#158,.F.);
#77=ORIENTED_EDGE('',*,*,#154,.F.);
#78=ORIENTED_EDGE('',*,*,#159,.T.);
#79=ORIENTED_EDGE('',*,*,#160,.T.);
#80=ORIENTED_EDGE('',*,*,#161,.F.);
#81=ORIENTED_EDGE('',*,*,#157,.F.);
#82=ORIENTED_EDGE('',*,*,#162,.T.);
#83=ORIENTED_EDGE('',*,*,#163,.T.);
#84=ORIENTED_EDGE('',*,*,#164,.F.);
#85=ORIENTED_EDGE('',*,*,#160,.F.);
#86=ORIENTED_EDGE('',*,*,#165,.T.);
#87=ORIENTED_EDGE('',*,*,#166,.T.);
#88=ORIENTED_EDGE('',*,*,#167,.F.);
#89=ORIENTED_EDGE('',*,*,#163,.F.);
#90=ORIENTED_EDGE('',*,*,#168,.T.);
#91=ORIENTED_EDGE('',*,*,#169,.T.);
#92=ORIENTED_EDGE('',*,*,#170,.F.);
#93=ORIENTED_EDGE('',*,*,#166,.F.);
#94=ORIENTED_EDGE('',*,*,#171,.T.);
#95=ORIENTED_EDGE('',*,*,#172,.T.);
#96=ORIENTED_EDGE('',*,*,#173,.F.);
#97=ORIENTED_EDGE('',*,*,#169,.F.);
#98=ORIENTED_EDGE('',*,*,#174,.T.);
#99=ORIENTED_EDGE('',*,*,#175,.T.);
#100=ORIENTED_EDGE('',*,*,#176,.F.);
#101=ORIENTED_EDGE('',*,*,#172,.F.);
#102=ORIENTED_EDGE('',*,*,#177,.T.);
#103=ORIENTED_EDGE('',*,*,#178,.T.);
#104=ORIENTED_EDGE('',*,*,#179,.F.);
#105=ORIENTED_EDGE('',*,*,#175,.F.);
#106=ORIENTED_EDGE('',*,*,#180,.T.);
#107=ORIENTED_EDGE('',*,*,#181,.T.);
#108=ORIENTED_EDGE('',*,*,#182,.F.);
#109=ORIENTED_EDGE('',*,*,#178,.F.);
#110=ORIENTED_EDGE('',*,*,#183,.T.);
#111=ORIENTED_EDGE('',*,*,#184,.T.);
#112=ORIENTED_EDGE('',*,*,#185,.F.);
#113=ORIENTED_EDGE('',*,*,#181,.F.);
#114=ORIENTED_EDGE('',*,*,#186,.T.);
#115=ORIENTED_EDGE('',*,*,#149,.T.);
#116=ORIENTED_EDGE('',*,*,#187,.F.);
#117=ORIENTED_EDGE('',*,*,#184,.F.);
#118=ORIENTED_EDGE('',*,*,#186,.F.);
#119=ORIENTED_EDGE('',*,*,#183,.F.);
#120=ORIENTED_EDGE('',*,*,#180,.F.);
#121=ORIENTED_EDGE('',*,*,#177,.F.);
#122=ORIENTED_EDGE('',*,*,#174,.F.);
#123=ORIENTED_EDGE('',*,*,#171,.F.);
#124=ORIENTED_EDGE('',*,*,#168,.F.);
#125=ORIENTED_EDGE('',*,*,#165,.F.);
#126=ORIENTED_EDGE('',*,*,#162,.F.);
#127=ORIENTED_EDGE('',*,*,#159,.F.);
#128=ORIENTED_EDGE('',*,*,#156,.F.);
#129=ORIENTED_EDGE('',*,*,#153,.F.);
#130=ORIENTED_EDGE('',*,*,#150,.F.);
#131=ORIENTED_EDGE('',*,*,#146,.F.);
#132=ORIENTED_EDGE('',*,*,#148,.T.);
#133=ORIENTED_EDGE('',*,*,#152,.T.);
#134=ORIENTED_EDGE('',*,*,#155,.T.);
#135=ORIENTED_EDGE('',*,*,#158,.T.);
#136=ORIENTED_EDGE('',*,*,#161,.T.);
#137=ORIENTED_EDGE('',*,*,#164,.T.);
#138=ORIENTED_EDGE('',*,*,#167,.T.);
#139=ORIENTED_EDGE('',*,*,#170,.T.);
#140=ORIENTED_EDGE('',*,*,#173,.T.);
#141=ORIENTED_EDGE('',*,*,#176,.T.);
#142=ORIENTED_EDGE('',*,*,#179,.T.);
#143=ORIENTED_EDGE('',*,*,#182,.T.);
#144=ORIENTED_EDGE('',*,*,#185,.T.);
#145=ORIENTED_EDGE('',*,*,#187,.T.);
#146=EDGE_CURVE('',#230,#231,#188,.T.);
#147=EDGE_CURVE('',#231,#232,#189,.T.);
#148=EDGE_CURVE('',#233,#232,#190,.T.);
#149=EDGE_CURVE('',#230,#233,#191,.T.);
#150=EDGE_CURVE('',#231,#234,#192,.T.);
#151=EDGE_CURVE('',#234,#235,#193,.T.);
#152=EDGE_CURVE('',#232,#235,#194,.T.);
#153=EDGE_CURVE('',#234,#236,#195,.T.);
#154=EDGE_CURVE('',#236,#237,#196,.T.);
#155=EDGE_CURVE('',#235,#237,#197,.T.);
#156=EDGE_CURVE('',#236,#238,#198,.T.);
#157=EDGE_CURVE('',#238,#239,#199,.T.);
#158=EDGE_CURVE('',#237,#239,#200,.T.);
#159=EDGE_CURVE('',#238,#240,#201,.T.);
#160=EDGE_CURVE('',#240,#241,#202,.T.);
#161=EDGE_CURVE('',#239,#241,#203,.T.);
#162=EDGE_CURVE('',#240,#242,#204,.T.);
#163=EDGE_CURVE('',#242,#243,#205,.T.);
#164=EDGE_CURVE('',#241,#243,#206,.T.);
#165=EDGE_CURVE('',#242,#244,#207,.T.);
#166=EDGE_CURVE('',#244,#245,#208,.T.);
#167=EDGE_CURVE('',#243,#245,#209,.T.);
#168=EDGE_CURVE('',#244,#246,#210,.T.);
#169=EDGE_CURVE('',#246,#247,#211,.T.);
#170=EDGE_CURVE('',#245,#247,#212,.T.);
#171=EDGE_CURVE('',#246,#248,#213,.T.);
#172=EDGE_CURVE('',#248,#249,#214,.T.);
#173=EDGE_CURVE('',#247,#249,#215,.T.);
#174=EDGE_CURVE('',#248,#250,#216,.T.);
#175=EDGE_CURVE('',#250,#251,#217,.T.);
#176=EDGE_CURVE('',#249,#251,#218,.T.);
#177=EDGE_CURVE('',#250,#252,#219,.T.);
#178=EDGE_CURVE('',#252,#253,#220,.T.);
#179=EDGE_CURVE('',#251,#253,#221,.T.);
#180=EDGE_CURVE('',#252,#254,#222,.T.);
#181=EDGE_CURVE('',#254,#255,#223,.T.);
#182=EDGE_CURVE('',#253,#255,#224,.T.);
#183=EDGE_CURVE('',#254,#256,#225,.T.);
#184=EDGE_CURVE('',#256,#257,#226,.T.);
#185=EDGE_CURVE('',#255,#257,#227,.T.);
#186=EDGE_CURVE('',#256,#230,#228,.T.);
#187=EDGE_CURVE('',#257,#233,#229,.T.);
#188=(
BOUNDED_CURVE()
B_SPLINE_CURVE(2,(#453,#454,#455),.UNSPECIFIED.,.F.,.F.)
B_SPLINE_CURVE_WITH_KNOTS((3,3),(-21.7446123966224,-21.4946123966224),
 .UNSPECIFIED.)
CURVE()
GEOMETRIC_REPRESENTATION_ITEM()
RATIONAL_B_SPLINE_CURVE((1.,1.,1.))
REPRESENTATION_ITEM('')
);
#189=(
BOUNDED_CURVE()
B_SPLINE_CURVE(1,(#456,#457),.UNSPECIFIED.,.F.,.F.)
B_SPLINE_CURVE_WITH_KNOTS((2,2),(0.,0.25),.UNSPECIFIED.)
CURVE()
GEOMETRIC_REPRESENTATION_ITEM()
RATIONAL_B_SPLINE_CURVE((1.,1.))
REPRESENTATION_ITEM('')
);
#190=(
BOUNDED_CURVE()
B_SPLINE_CURVE(2,(#458,#459,#460),.UNSPECIFIED.,.F.,.F.)
B_SPLINE_CURVE_WITH_KNOTS((3,3),(-21.7446123966224,-21.4946123966224),
 .UNSPECIFIED.)
CURVE()
GEOMETRIC_REPRESENTATION_ITEM()
RATIONAL_B_SPLINE_CURVE((1.,1.,1.))
REPRESENTATION_ITEM('')
);
#191=(
BOUNDED_CURVE()
B_SPLINE_CURVE(1,(#461,#462),.UNSPECIFIED.,.F.,.F.)
B_SPLINE_CURVE_WITH_KNOTS((2,2),(0.,0.25),.UNSPECIFIED.)
CURVE()
GEOMETRIC_REPRESENTATION_ITEM()
RATIONAL_B_SPLINE_CURVE((1.,1.))
REPRESENTATION_ITEM('')
);
#192=(
BOUNDED_CURVE()
B_SPLINE_CURVE(2,(#463,#464,#465),.UNSPECIFIED.,.F.,.F.)
B_SPLINE_CURVE_WITH_KNOTS((3,3),(-21.4946123966224,-20.9946123966224),
 .UNSPECIFIED.)
CURVE()
GEOMETRIC_REPRESENTATION_ITEM()
RATIONAL_B_SPLINE_CURVE((1.,1.,1.))
REPRESENTATION_ITEM('')
);
#193=(
BOUNDED_CURVE()
B_SPLINE_CURVE(1,(#466,#467),.UNSPECIFIED.,.F.,.F.)
B_SPLINE_CURVE_WITH_KNOTS((2,2),(0.,0.25),.UNSPECIFIED.)
CURVE()
GEOMETRIC_REPRESENTATION_ITEM()
RATIONAL_B_SPLINE_CURVE((1.,1.))
REPRESENTATION_ITEM('')
);
#194=(
BOUNDED_CURVE()
B_SPLINE_CURVE(2,(#468,#469,#470),.UNSPECIFIED.,.F.,.F.)
B_SPLINE_CURVE_WITH_KNOTS((3,3),(-21.4946123966224,-20.9946123966224),
 .UNSPECIFIED.)
CURVE()
GEOMETRIC_REPRESENTATION_ITEM()
RATIONAL_B_SPLINE_CURVE((1.,1.,1.))
REPRESENTATION_ITEM('')
);
#195=(
BOUNDED_CURVE()
B_SPLINE_CURVE(2,(#471,#472,#473),.UNSPECIFIED.,.F.,.F.)
B_SPLINE_CURVE_WITH_KNOTS((3,3),(-20.9946123966224,-20.3029457299502),
 .UNSPECIFIED.)
CURVE()
GEOMETRIC_REPRESENTATION_ITEM()
RATIONAL_B_SPLINE_CURVE((1.,1.,1.))
REPRESENTATION_ITEM('')
);
#196=(
BOUNDED_CURVE()
B_SPLINE_CURVE(1,(#474,#475),.UNSPECIFIED.,.F.,.F.)
B_SPLINE_CURVE_WITH_KNOTS((2,2),(0.,0.25),.UNSPECIFIED.)
CURVE()
GEOMETRIC_REPRESENTATION_ITEM()
RATIONAL_B_SPLINE_CURVE((1.,1.))
REPRESENTATION_ITEM('')
);
#197=(
BOUNDED_CURVE()
B_SPLINE_CURVE(2,(#476,#477,#478),.UNSPECIFIED.,.F.,.F.)
B_SPLINE_CURVE_WITH_KNOTS((3,3),(-20.9946123966224,-20.3029457299502),
 .UNSPECIFIED.)
CURVE()
GEOMETRIC_REPRESENTATION_ITEM()
RATIONAL_B_SPLINE_CURVE((1.,1.,1.))
REPRESENTATION_ITEM('')
);
#198=(
BOUNDED_CURVE()
B_SPLINE_CURVE(2,(#479,#480,#481),.UNSPECIFIED.,.F.,.F.)
B_SPLINE_CURVE_WITH_KNOTS((3,3),(-20.3029457299502,-18.2937790632903),
 .UNSPECIFIED.)
CURVE()
GEOMETRIC_REPRESENTATION_ITEM()
RATIONAL_B_SPLINE_CURVE((1.,1.,1.))
REPRESENTATION_ITEM('')
);
#199=(
BOUNDED_CURVE()
B_SPLINE_CURVE(1,(#482,#483),.UNSPECIFIED.,.F.,.F.)
B_SPLINE_CURVE_WITH_KNOTS((2,2),(0.,0.25),.UNSPECIFIED.)
CURVE()
GEOMETRIC_REPRESENTATION_ITEM()
RATIONAL_B_SPLINE_CURVE((1.,1.))
REPRESENTATION_ITEM('')
);
#200=(
BOUNDED_CURVE()
B_SPLINE_CURVE(2,(#484,#485,#486),.UNSPECIFIED.,.F.,.F.)
B_SPLINE_CURVE_WITH_KNOTS((3,3),(-20.3029457299502,-18.2937790632903),
 .UNSPECIFIED.)
CURVE()
GEOMETRIC_REPRESENTATION_ITEM()
RATIONAL_B_SPLINE_CURVE((1.,1.,1.))
REPRESENTATION_ITEM('')
);
#201=(
BOUNDED_CURVE()
B_SPLINE_CURVE(2,(#487,#488,#489),.UNSPECIFIED.,.F.,.F.)
B_SPLINE_CURVE_WITH_KNOTS((3,3),(-18.2937790632903,-17.9992547520069),
 .UNSPECIFIED.)
CURVE()
GEOMETRIC_REPRESENTATION_ITEM()
RATIONAL_B_SPLINE_CURVE((1.,0.707106781186562,1.))
REPRESENTATION_ITEM('')
);
#202=(
BOUNDED_CURVE()
B_SPLINE_CURVE(1,(#490,#491),.UNSPECIFIED.,.F.,.F.)
B_SPLINE_CURVE_WITH_KNOTS((2,2),(0.,0.25),.UNSPECIFIED.)
CURVE()
GEOMETRIC_REPRESENTATION_ITEM()
RATIONAL_B_SPLINE_CURVE((1.,1.))
REPRESENTATION_ITEM('')
);
#203=(
BOUNDED_CURVE()
B_SPLINE_CURVE(2,(#492,#493,#494),.UNSPECIFIED.,.F.,.F.)
B_SPLINE_CURVE_WITH_KNOTS((3,3),(-18.2937790632903,-17.9992547520069),
 .UNSPECIFIED.)
CURVE()
GEOMETRIC_REPRESENTATION_ITEM()
RATIONAL_B_SPLINE_CURVE((1.,0.707106781186562,1.))
REPRESENTATION_ITEM('')
);
#204=(
BOUNDED_CURVE()
B_SPLINE_CURVE(2,(#495,#496,#497),.UNSPECIFIED.,.F.,.F.)
B_SPLINE_CURVE_WITH_KNOTS((3,3),(-17.9992547520069,-15.5551638429168),
 .UNSPECIFIED.)
CURVE()
GEOMETRIC_REPRESENTATION_ITEM()
RATIONAL_B_SPLINE_CURVE((1.,1.,1.))
REPRESENTATION_ITEM('')
);
#205=(
BOUNDED_CURVE()
B_SPLINE_CURVE(1,(#498,#499),.UNSPECIFIED.,.F.,.F.)
B_SPLINE_CURVE_WITH_KNOTS((2,2),(0.,0.25),.UNSPECIFIED.)
CURVE()
GEOMETRIC_REPRESENTATION_ITEM()
RATIONAL_B_SPLINE_CURVE((1.,1.))
REPRESENTATION_ITEM('')
);
#206=(
BOUNDED_CURVE()
B_SPLINE_CURVE(2,(#500,#501,#502),.UNSPECIFIED.,.F.,.F.)
B_SPLINE_CURVE_WITH_KNOTS((3,3),(-17.9992547520069,-15.5551638429168),
 .UNSPECIFIED.)
CURVE()
GEOMETRIC_REPRESENTATION_ITEM()
RATIONAL_B_SPLINE_CURVE((1.,1.,1.))
REPRESENTATION_ITEM('')
);
#207=(
BOUNDED_CURVE()
B_SPLINE_CURVE(2,(#503,#504,#505),.UNSPECIFIED.,.F.,.F.)
B_SPLINE_CURVE_WITH_KNOTS((3,3),(-15.5551638429168,-15.2606395316332),
 .UNSPECIFIED.)
CURVE()
GEOMETRIC_REPRESENTATION_ITEM()
RATIONAL_B_SPLINE_CURVE((1.,0.707106781189519,1.))
REPRESENTATION_ITEM('')
);
#208=(
BOUNDED_CURVE()
B_SPLINE_CURVE(1,(#506,#507),.UNSPECIFIED.,.F.,.F.)
B_SPLINE_CURVE_WITH_KNOTS((2,2),(0.,0.25),.UNSPECIFIED.)
CURVE()
GEOMETRIC_REPRESENTATION_ITEM()
RATIONAL_B_SPLINE_CURVE((1.,1.))
REPRESENTATION_ITEM('')
);
#209=(
BOUNDED_CURVE()
B_SPLINE_CURVE(2,(#508,#509,#510),.UNSPECIFIED.,.F.,.F.)
B_SPLINE_CURVE_WITH_KNOTS((3,3),(-15.5551638429168,-15.2606395316332),
 .UNSPECIFIED.)
CURVE()
GEOMETRIC_REPRESENTATION_ITEM()
RATIONAL_B_SPLINE_CURVE((1.,0.707106781189519,1.))
REPRESENTATION_ITEM('')
);
#210=(
BOUNDED_CURVE()
B_SPLINE_CURVE(2,(#511,#512,#513),.UNSPECIFIED.,.F.,.F.)
B_SPLINE_CURVE_WITH_KNOTS((3,3),(-15.2606395316332,-13.2514728649733),
 .UNSPECIFIED.)
CURVE()
GEOMETRIC_REPRESENTATION_ITEM()
RATIONAL_B_SPLINE_CURVE((1.,1.,1.))
REPRESENTATION_ITEM('')
);
#211=(
BOUNDED_CURVE()
B_SPLINE_CURVE(1,(#514,#515),.UNSPECIFIED.,.F.,.F.)
B_SPLINE_CURVE_WITH_KNOTS((2,2),(0.,0.25),.UNSPECIFIED.)
CURVE()
GEOMETRIC_REPRESENTATION_ITEM()
RATIONAL_B_SPLINE_CURVE((1.,1.))
REPRESENTATION_ITEM('')
);
#212=(
BOUNDED_CURVE()
B_SPLINE_CURVE(2,(#516,#517,#518),.UNSPECIFIED.,.F.,.F.)
B_SPLINE_CURVE_WITH_KNOTS((3,3),(-15.2606395316332,-13.2514728649733),
 .UNSPECIFIED.)
CURVE()
GEOMETRIC_REPRESENTATION_ITEM()
RATIONAL_B_SPLINE_CURVE((1.,1.,1.))
REPRESENTATION_ITEM('')
);
#213=(
BOUNDED_CURVE()
B_SPLINE_CURVE(2,(#519,#520,#521),.UNSPECIFIED.,.F.,.F.)
B_SPLINE_CURVE_WITH_KNOTS((3,3),(-13.2514728649733,-12.5598061983012),
 .UNSPECIFIED.)
CURVE()
GEOMETRIC_REPRESENTATION_ITEM()
RATIONAL_B_SPLINE_CURVE((1.,1.,1.))
REPRESENTATION_ITEM('')
);
#214=(
BOUNDED_CURVE()
B_SPLINE_CURVE(1,(#522,#523),.UNSPECIFIED.,.F.,.F.)
B_SPLINE_CURVE_WITH_KNOTS((2,2),(0.,0.25),.UNSPECIFIED.)
CURVE()
GEOMETRIC_REPRESENTATION_ITEM()
RATIONAL_B_SPLINE_CURVE((1.,1.))
REPRESENTATION_ITEM('')
);
#215=(
BOUNDED_CURVE()
B_SPLINE_CURVE(2,(#524,#525,#526),.UNSPECIFIED.,.F.,.F.)
B_SPLINE_CURVE_WITH_KNOTS((3,3),(-13.2514728649733,-12.5598061983012),
 .UNSPECIFIED.)
CURVE()
GEOMETRIC_REPRESENTATION_ITEM()
RATIONAL_B_SPLINE_CURVE((1.,1.,1.))
REPRESENTATION_ITEM('')
);
#216=(
BOUNDED_CURVE()
B_SPLINE_CURVE(2,(#527,#528,#529),.UNSPECIFIED.,.F.,.F.)
B_SPLINE_CURVE_WITH_KNOTS((3,3),(-12.5598061983012,-12.0598061983012),
 .UNSPECIFIED.)
CURVE()
GEOMETRIC_REPRESENTATION_ITEM()
RATIONAL_B_SPLINE_CURVE((1.,1.,1.))
REPRESENTATION_ITEM('')
);
#217=(
BOUNDED_CURVE()
B_SPLINE_CURVE(1,(#530,#531),.UNSPECIFIED.,.F.,.F.)
B_SPLINE_CURVE_WITH_KNOTS((2,2),(0.,0.25),.UNSPECIFIED.)
CURVE()
GEOMETRIC_REPRESENTATION_ITEM()
RATIONAL_B_SPLINE_CURVE((1.,1.))
REPRESENTATION_ITEM('')
);
#218=(
BOUNDED_CURVE()
B_SPLINE_CURVE(2,(#532,#533,#534),.UNSPECIFIED.,.F.,.F.)
B_SPLINE_CURVE_WITH_KNOTS((3,3),(-12.5598061983012,-12.0598061983012),
 .UNSPECIFIED.)
CURVE()
GEOMETRIC_REPRESENTATION_ITEM()
RATIONAL_B_SPLINE_CURVE((1.,1.,1.))
REPRESENTATION_ITEM('')
);
#219=(
BOUNDED_CURVE()
B_SPLINE_CURVE(2,(#535,#536,#537),.UNSPECIFIED.,.F.,.F.)
B_SPLINE_CURVE_WITH_KNOTS((3,3),(-12.0598061983012,-11.8098061983012),
 .UNSPECIFIED.)
CURVE()
GEOMETRIC_REPRESENTATION_ITEM()
RATIONAL_B_SPLINE_CURVE((1.,1.,1.))
REPRESENTATION_ITEM('')
);
#220=(
BOUNDED_CURVE()
B_SPLINE_CURVE(1,(#538,#539),.UNSPECIFIED.,.F.,.F.)
B_SPLINE_CURVE_WITH_KNOTS((2,2),(0.,0.25),.UNSPECIFIED.)
CURVE()
GEOMETRIC_REPRESENTATION_ITEM()
RATIONAL_B_SPLINE_CURVE((1.,1.))
REPRESENTATION_ITEM('')
);
#221=(
BOUNDED_CURVE()
B_SPLINE_CURVE(2,(#540,#541,#542),.UNSPECIFIED.,.F.,.F.)
B_SPLINE_CURVE_WITH_KNOTS((3,3),(-12.0598061983012,-11.8098061983012),
 .UNSPECIFIED.)
CURVE()
GEOMETRIC_REPRESENTATION_ITEM()
RATIONAL_B_SPLINE_CURVE((1.,1.,1.))
REPRESENTATION_ITEM('')
);
#222=(
BOUNDED_CURVE()
B_SPLINE_CURVE(2,(#543,#544,#545),.UNSPECIFIED.,.F.,.F.)
B_SPLINE_CURVE_WITH_KNOTS((3,3),(-11.8098061983012,-11.6848061983112),
 .UNSPECIFIED.)
CURVE()
GEOMETRIC_REPRESENTATION_ITEM()
RATIONAL_B_SPLINE_CURVE((1.,1.,1.))
REPRESENTATION_ITEM('')
);
#223=(
BOUNDED_CURVE()
B_SPLINE_CURVE(1,(#546,#547),.UNSPECIFIED.,.F.,.F.)
B_SPLINE_CURVE_WITH_KNOTS((2,2),(0.,0.25),.UNSPECIFIED.)
CURVE()
GEOMETRIC_REPRESENTATION_ITEM()
RATIONAL_B_SPLINE_CURVE((1.,1.))
REPRESENTATION_ITEM('')
);
#224=(
BOUNDED_CURVE()
B_SPLINE_CURVE(2,(#548,#549,#550),.UNSPECIFIED.,.F.,.F.)
B_SPLINE_CURVE_WITH_KNOTS((3,3),(-11.8098061983012,-11.6848061983112),
 .UNSPECIFIED.)
CURVE()
GEOMETRIC_REPRESENTATION_ITEM()
RATIONAL_B_SPLINE_CURVE((1.,1.,1.))
REPRESENTATION_ITEM('')
);
#225=(
BOUNDED_CURVE()
B_SPLINE_CURVE(2,(#551,#552,#553),.UNSPECIFIED.,.F.,.F.)
B_SPLINE_CURVE_WITH_KNOTS((3,3),(-11.6848061983112,-10.1848061983112),
 .UNSPECIFIED.)
CURVE()
GEOMETRIC_REPRESENTATION_ITEM()
RATIONAL_B_SPLINE_CURVE((1.,1.,1.))
REPRESENTATION_ITEM('')
);
#226=(
BOUNDED_CURVE()
B_SPLINE_CURVE(1,(#554,#555),.UNSPECIFIED.,.F.,.F.)
B_SPLINE_CURVE_WITH_KNOTS((2,2),(0.,0.25),.UNSPECIFIED.)
CURVE()
GEOMETRIC_REPRESENTATION_ITEM()
RATIONAL_B_SPLINE_CURVE((1.,1.))
REPRESENTATION_ITEM('')
);
#227=(
BOUNDED_CURVE()
B_SPLINE_CURVE(2,(#556,#557,#558),.UNSPECIFIED.,.F.,.F.)
B_SPLINE_CURVE_WITH_KNOTS((3,3),(-11.6848061983112,-10.1848061983112),
 .UNSPECIFIED.)
CURVE()
GEOMETRIC_REPRESENTATION_ITEM()
RATIONAL_B_SPLINE_CURVE((1.,1.,1.))
REPRESENTATION_ITEM('')
);
#228=(
BOUNDED_CURVE()
B_SPLINE_CURVE(2,(#559,#560,#561),.UNSPECIFIED.,.F.,.F.)
B_SPLINE_CURVE_WITH_KNOTS((3,3),(-10.1848061983112,-10.0598061983112),
 .UNSPECIFIED.)
CURVE()
GEOMETRIC_REPRESENTATION_ITEM()
RATIONAL_B_SPLINE_CURVE((1.,1.,1.))
REPRESENTATION_ITEM('')
);
#229=(
BOUNDED_CURVE()
B_SPLINE_CURVE(2,(#562,#563,#564),.UNSPECIFIED.,.F.,.F.)
B_SPLINE_CURVE_WITH_KNOTS((3,3),(-10.1848061983112,-10.0598061983112),
 .UNSPECIFIED.)
CURVE()
GEOMETRIC_REPRESENTATION_ITEM()
RATIONAL_B_SPLINE_CURVE((1.,1.,1.))
REPRESENTATION_ITEM('')
);
#230=VERTEX_POINT('',#425);
#231=VERTEX_POINT('',#426);
#232=VERTEX_POINT('',#427);
#233=VERTEX_POINT('',#428);
#234=VERTEX_POINT('',#429);
#235=VERTEX_POINT('',#430);
#236=VERTEX_POINT('',#431);
#237=VERTEX_POINT('',#432);
#238=VERTEX_POINT('',#433);
#239=VERTEX_POINT('',#434);
#240=VERTEX_POINT('',#435);
#241=VERTEX_POINT('',#436);
#242=VERTEX_POINT('',#437);
#243=VERTEX_POINT('',#438);
#244=VERTEX_POINT('',#439);
#245=VERTEX_POINT('',#440);
#246=VERTEX_POINT('',#441);
#247=VERTEX_POINT('',#442);
#248=VERTEX_POINT('',#443);
#249=VERTEX_POINT('',#444);
#250=VERTEX_POINT('',#445);
#251=VERTEX_POINT('',#446);
#252=VERTEX_POINT('',#447);
#253=VERTEX_POINT('',#448);
#254=VERTEX_POINT('',#449);
#255=VERTEX_POINT('',#450);
#256=VERTEX_POINT('',#451);
#257=VERTEX_POINT('',#452);
#258=(
BOUNDED_SURFACE()
B_SPLINE_SURFACE(2,1,((#403,#404),(#405,#406),(#407,#408)),
 .UNSPECIFIED.,.F.,.F.,.F.)
B_SPLINE_SURFACE_WITH_KNOTS((3,3),(2,2),(-18.2937790632903,-17.9992547520069),
(0.,0.25),.UNSPECIFIED.)
GEOMETRIC_REPRESENTATION_ITEM()
RATIONAL_B_SPLINE_SURFACE(((1.,1.),(0.707106781186562,0.707106781186562),
(1.,1.)))
REPRESENTATION_ITEM('')
SURFACE()
);
#259=(
BOUNDED_SURFACE()
B_SPLINE_SURFACE(2,1,((#410,#411),(#412,#413),(#414,#415)),
 .UNSPECIFIED.,.F.,.F.,.F.)
B_SPLINE_SURFACE_WITH_KNOTS((3,3),(2,2),(-15.5551638429168,-15.2606395316332),
(0.,0.25),.UNSPECIFIED.)
GEOMETRIC_REPRESENTATION_ITEM()
RATIONAL_B_SPLINE_SURFACE(((1.,1.),(0.707106781189519,0.707106781189519),
(1.,1.)))
REPRESENTATION_ITEM('')
SURFACE()
);
#260=PLANE('',#365);
#261=PLANE('',#366);
#262=PLANE('',#367);
#263=PLANE('',#368);
#264=PLANE('',#369);
#265=PLANE('',#370);
#266=PLANE('',#371);
#267=PLANE('',#372);
#268=PLANE('',#373);
#269=PLANE('',#374);
#270=PLANE('',#375);
#271=PLANE('',#376);
#272=PLANE('',#377);
#273=PLANE('',#378);
#274=SHAPE_DEFINITION_REPRESENTATION(#275,#363);
#275=PRODUCT_DEFINITION_SHAPE('Document','',#277);
#276=PRODUCT_DEFINITION_CONTEXT('3D Mechanical Parts',#349,'design');
#277=PRODUCT_DEFINITION('A','First version',#319,#276);
#278=DATE_TIME_ROLE('classification_date');
#279=DATE_TIME_ROLE('creation_date');
#280=APPLIED_DATE_AND_TIME_ASSIGNMENT(#304,#278,(#283));
#281=APPLIED_DATE_AND_TIME_ASSIGNMENT(#306,#279,(#277));
#282=SECURITY_CLASSIFICATION_LEVEL('unclassified');
#283=SECURITY_CLASSIFICATION('A','Security for version',#282);
#284=APPLIED_SECURITY_CLASSIFICATION_ASSIGNMENT(#283,(#319));
#285=APPROVAL_ROLE('Version approval');
#286=APPROVAL_ROLE('Version Security approval');
#287=APPROVAL_ROLE('Definition approval');
#288=APPROVAL_PERSON_ORGANIZATION(#337,#313,#285);
#289=APPROVAL_PERSON_ORGANIZATION(#338,#314,#286);
#290=APPROVAL_PERSON_ORGANIZATION(#341,#315,#287);
#291=COORDINATED_UNIVERSAL_TIME_OFFSET(5,0,.BEHIND.);
#292=LOCAL_TIME(0,0,0.,#291);
#293=LOCAL_TIME(0,0,0.,#291);
#294=LOCAL_TIME(0,0,0.,#291);
#295=LOCAL_TIME(0,0,0.,#291);
#296=LOCAL_TIME(0,0,0.,#291);
#297=CALENDAR_DATE(1999,1,1);
#298=CALENDAR_DATE(1999,1,1);
#299=CALENDAR_DATE(1999,1,1);
#300=CALENDAR_DATE(1999,1,1);
#301=CALENDAR_DATE(1999,1,1);
#302=DATE_AND_TIME(#297,#292);
#303=DATE_AND_TIME(#298,#293);
#304=DATE_AND_TIME(#299,#294);
#305=DATE_AND_TIME(#300,#295);
#306=DATE_AND_TIME(#301,#296);
#307=APPROVAL_DATE_TIME(#302,#313);
#308=APPROVAL_DATE_TIME(#303,#314);
#309=APPROVAL_DATE_TIME(#305,#315);
#310=APPROVAL_STATUS('not_yet_approved');
#311=APPROVAL_STATUS('not_yet_approved');
#312=APPROVAL_STATUS('approved');
#313=APPROVAL(#310,'Version approval');
#314=APPROVAL(#311,'Version Security approval');
#315=APPROVAL(#312,'Definition approval');
#316=APPLIED_APPROVAL_ASSIGNMENT(#313,(#319));
#317=APPLIED_APPROVAL_ASSIGNMENT(#314,(#283));
#318=APPLIED_APPROVAL_ASSIGNMENT(#315,(#277));
#319=PRODUCT_DEFINITION_FORMATION_WITH_SPECIFIED_SOURCE('A',
'First version',#351,.MADE.);
#320=PERSON_AND_ORGANIZATION_ROLE('design_owner');
#321=PERSON_AND_ORGANIZATION_ROLE('creator');
#322=PERSON_AND_ORGANIZATION_ROLE('design_supplier');
#323=PERSON_AND_ORGANIZATION_ROLE('classification_officer');
#324=PERSON_AND_ORGANIZATION_ROLE('creator');
#325=ORGANIZATION('STI','lab','lab');
#326=ORGANIZATION('STI','unknown','unknown');
#327=ORGANIZATION('STI','unknown','unknown');
#328=ORGANIZATION('STI','unknown','unknown');
#329=ORGANIZATION('STI','unknown','unknown');
#330=ORGANIZATION('STI','unknown','unknown');
#331=ORGANIZATION('STI','unknown','unknown');
#332=PERSON('1','Box','vc60',$,$,$);
#333=PERSON('2','last','first',$,$,$);
#334=PERSON('3','President','Mr.',$,$,$);
#335=PERSON_AND_ORGANIZATION(#332,#325);
#336=PERSON_AND_ORGANIZATION(#333,#326);
#337=PERSON_AND_ORGANIZATION(#334,#327);
#338=PERSON_AND_ORGANIZATION(#334,#328);
#339=PERSON_AND_ORGANIZATION(#334,#329);
#340=PERSON_AND_ORGANIZATION(#333,#330);
#341=PERSON_AND_ORGANIZATION(#334,#331);
#342=APPLIED_PERSON_AND_ORGANIZATION_ASSIGNMENT(#335,#320,(#351));
#343=APPLIED_PERSON_AND_ORGANIZATION_ASSIGNMENT(#336,#321,(#319));
#344=APPLIED_PERSON_AND_ORGANIZATION_ASSIGNMENT(#336,#322,(#319));
#345=APPLIED_PERSON_AND_ORGANIZATION_ASSIGNMENT(#339,#323,(#283));
#346=APPLIED_PERSON_AND_ORGANIZATION_ASSIGNMENT(#340,#324,(#277));
#347=PRODUCT_RELATED_PRODUCT_CATEGORY('detail','detail',(#351));
#348=APPLICATION_PROTOCOL_DEFINITION('International Standard',
'config_control_design',1994,#349);
#349=APPLICATION_CONTEXT(
'configuration controlled 3d designs of mechanical parts and assemblie
s');
#350=PRODUCT_CONTEXT('3D Mechanical Parts',#349,'mechanical');
#351=PRODUCT('Document','Document','',(#350));
#352=(
LENGTH_UNIT()
NAMED_UNIT(*)
SI_UNIT(.CENTI.,.METRE.)
);
#353=LENGTH_MEASURE_WITH_UNIT(LENGTH_MEASURE(2.54),#352);
#354=(
CONVERSION_BASED_UNIT('INCH',#353)
LENGTH_UNIT()
NAMED_UNIT(#357)
);
#355=(
NAMED_UNIT(*)
PLANE_ANGLE_UNIT()
SI_UNIT($,.RADIAN.)
);
#356=DIMENSIONAL_EXPONENTS(0.,0.,0.,0.,0.,0.,0.);
#357=DIMENSIONAL_EXPONENTS(1.,0.,0.,0.,0.,0.,0.);
#358=PLANE_ANGLE_MEASURE_WITH_UNIT(PLANE_ANGLE_MEASURE(0.01745329252),#355);
#359=(
CONVERSION_BASED_UNIT('DEGREES',#358)
NAMED_UNIT(#356)
PLANE_ANGLE_UNIT()
);
#360=(
NAMED_UNIT(*)
SI_UNIT($,.STERADIAN.)
SOLID_ANGLE_UNIT()
);
#361=UNCERTAINTY_MEASURE_WITH_UNIT(LENGTH_MEASURE(0.000393700787401575),
#354,'DISTANCE_ACCURACY_VALUE',
'Maximum model space distance between geometric entities at asserted c
onnectivities');
#362=(
GEOMETRIC_REPRESENTATION_CONTEXT(3)
GLOBAL_UNCERTAINTY_ASSIGNED_CONTEXT((#361))
GLOBAL_UNIT_ASSIGNED_CONTEXT((#360,#359,#354))
REPRESENTATION_CONTEXT('ID1','3D')
);
#363=SHAPE_REPRESENTATION('Document',(#364,#379),#362);
#364=AXIS2_PLACEMENT_3D('',#398,#380,#381);
#365=AXIS2_PLACEMENT_3D('',#399,#382,$);
#366=AXIS2_PLACEMENT_3D('',#400,#383,$);
#367=AXIS2_PLACEMENT_3D('',#401,#384,$);
#368=AXIS2_PLACEMENT_3D('',#402,#385,$);
#369=AXIS2_PLACEMENT_3D('',#409,#386,$);
#370=AXIS2_PLACEMENT_3D('',#416,#387,$);
#371=AXIS2_PLACEMENT_3D('',#417,#388,$);
#372=AXIS2_PLACEMENT_3D('',#418,#389,$);
#373=AXIS2_PLACEMENT_3D('',#419,#390,$);
#374=AXIS2_PLACEMENT_3D('',#420,#391,$);
#375=AXIS2_PLACEMENT_3D('',#421,#392,$);
#376=AXIS2_PLACEMENT_3D('',#422,#393,$);
#377=AXIS2_PLACEMENT_3D('',#423,#394,$);
#378=AXIS2_PLACEMENT_3D('',#424,#395,$);
#379=AXIS2_PLACEMENT_3D('',#565,#396,#397);
#380=DIRECTION('',(0.,0.,1.));
#381=DIRECTION('',(1.,0.,0.));
#382=DIRECTION('',(1.,0.,0.));
#383=DIRECTION('',(0.,1.,0.));
#384=DIRECTION('',(0.599999999995398,0.800000000003452,-3.46972228735112E-11));
#385=DIRECTION('',(0.,1.,0.));
#386=DIRECTION('',(-1.,0.,0.));
#387=DIRECTION('',(0.,-1.,0.));
#388=DIRECTION('',(0.599999999994407,-0.800000000004195,1.56205715029435E-10));
#389=DIRECTION('',(0.,-1.,0.));
#390=DIRECTION('',(1.,0.,0.));
#391=DIRECTION('',(0.,-1.,0.));
#392=DIRECTION('',(1.,0.,0.));
#393=DIRECTION('',(0.,1.,0.));
#394=DIRECTION('',(0.,0.,-1.));
#395=DIRECTION('',(0.,0.,1.));
#396=DIRECTION('',(0.,0.,1.));
#397=DIRECTION('',(1.,0.,0.));
#398=CARTESIAN_POINT('',(0.,0.,0.));
#399=CARTESIAN_POINT('',(1154.26796230893,-1498.93028503932,0.187500000868842));
#400=CARTESIAN_POINT('',(1154.26796230893,-1498.68028503932,0.187500000868842));
#401=CARTESIAN_POINT('',(1153.76796230893,-1498.68028503932,0.187500000818365));
#402=CARTESIAN_POINT('',(1153.21462897559,-1498.26528503932,0.187500000762504));
#403=CARTESIAN_POINT('',(1151.20546230893,-1498.26528503933,0.187500000559671));
#404=CARTESIAN_POINT('',(1151.2054623089,-1498.2652850393,0.437500000559671));
#405=CARTESIAN_POINT('',(1151.01796230893,-1498.26528503933,0.187500000540742));
#406=CARTESIAN_POINT('',(1151.0179623089,-1498.2652850393,0.437500000540742));
#407=CARTESIAN_POINT('',(1151.01796230893,-1498.45823958478,0.187500000540742));
#408=CARTESIAN_POINT('',(1151.0179623089,-1498.45823958475,0.437500000540742));
#409=CARTESIAN_POINT('',(1151.01796230893,-1498.45823958478,0.187500000540742));
#410=CARTESIAN_POINT('',(1151.01796230894,-1500.90233049387,0.187500000540742));
#411=CARTESIAN_POINT('',(1151.01796230891,-1500.90233049384,0.437500000540742));
#412=CARTESIAN_POINT('',(1151.01796230894,-1501.09528503932,0.187500000540742));
#413=CARTESIAN_POINT('',(1151.01796230891,-1501.09528503929,0.437500000540742));
#414=CARTESIAN_POINT('',(1151.20546230894,-1501.09528503932,0.187500000559671));
#415=CARTESIAN_POINT('',(1151.20546230891,-1501.09528503929,0.437500000559671));
#416=CARTESIAN_POINT('',(1151.20546230894,-1501.09528503932,0.187500000559671));
#417=CARTESIAN_POINT('',(1153.2146289756,-1501.09528503932,0.187500000762504));
#418=CARTESIAN_POINT('',(1153.76796230894,-1500.68028503932,0.187500000818365));
#419=CARTESIAN_POINT('',(1154.26796230894,-1500.68028503932,0.187500000868842));
#420=CARTESIAN_POINT('',(1154.26796230894,-1500.43028503932,0.187500000868842));
#421=CARTESIAN_POINT('',(1154.39296230893,-1500.43028503932,0.187500000881461));
#422=CARTESIAN_POINT('',(1154.39296230893,-1498.93028503932,0.187500000881461));
#423=CARTESIAN_POINT('',(1154.81483730893,-1497.91153503932,0.187500000924051));
#424=CARTESIAN_POINT('',(1154.8148373089,-1497.91153503929,0.437500000924051));
#425=CARTESIAN_POINT('',(1154.26796230893,-1498.93028503932,0.187500000868842));
#426=CARTESIAN_POINT('',(1154.26796230893,-1498.68028503932,0.187500000868842));
#427=CARTESIAN_POINT('',(1154.2679623089,-1498.68028503929,0.437500000868842));
#428=CARTESIAN_POINT('',(1154.2679623089,-1498.93028503929,0.437500000868842));
#429=CARTESIAN_POINT('',(1153.76796230893,-1498.68028503932,0.187500000818365));
#430=CARTESIAN_POINT('',(1153.7679623089,-1498.68028503929,0.437500000818365));
#431=CARTESIAN_POINT('',(1153.21462897559,-1498.26528503932,0.187500000762504));
#432=CARTESIAN_POINT('',(1153.21462897556,-1498.26528503929,0.437500000762504));
#433=CARTESIAN_POINT('',(1151.20546230893,-1498.26528503933,0.187500000559671));
#434=CARTESIAN_POINT('',(1151.2054623089,-1498.2652850393,0.437500000559671));
#435=CARTESIAN_POINT('',(1151.01796230893,-1498.45823958478,0.187500000540742));
#436=CARTESIAN_POINT('',(1151.0179623089,-1498.45823958475,0.437500000540742));
#437=CARTESIAN_POINT('',(1151.01796230894,-1500.90233049387,0.187500000540742));
#438=CARTESIAN_POINT('',(1151.01796230891,-1500.90233049384,0.437500000540742));
#439=CARTESIAN_POINT('',(1151.20546230894,-1501.09528503932,0.187500000559671));
#440=CARTESIAN_POINT('',(1151.20546230891,-1501.09528503929,0.437500000559671));
#441=CARTESIAN_POINT('',(1153.2146289756,-1501.09528503932,0.187500000762504));
#442=CARTESIAN_POINT('',(1153.21462897557,-1501.09528503929,0.437500000762504));
#443=CARTESIAN_POINT('',(1153.76796230894,-1500.68028503932,0.187500000818365));
#444=CARTESIAN_POINT('',(1153.76796230891,-1500.68028503929,0.437500000818365));
#445=CARTESIAN_POINT('',(1154.26796230894,-1500.68028503932,0.187500000868842));
#446=CARTESIAN_POINT('',(1154.26796230891,-1500.68028503929,0.437500000868842));
#447=CARTESIAN_POINT('',(1154.26796230894,-1500.43028503932,0.187500000868842));
#448=CARTESIAN_POINT('',(1154.26796230891,-1500.43028503929,0.437500000868842));
#449=CARTESIAN_POINT('',(1154.39296230893,-1500.43028503932,0.187500000881461));
#450=CARTESIAN_POINT('',(1154.3929623089,-1500.43028503929,0.437500000881461));
#451=CARTESIAN_POINT('',(1154.39296230893,-1498.93028503932,0.187500000881461));
#452=CARTESIAN_POINT('',(1154.3929623089,-1498.93028503929,0.437500000881461));
#453=CARTESIAN_POINT('',(1154.26796230893,-1498.93028503932,0.187500000868842));
#454=CARTESIAN_POINT('',(1154.26796230893,-1498.80528503932,0.187500000868842));
#455=CARTESIAN_POINT('',(1154.26796230893,-1498.68028503932,0.187500000868842));
#456=CARTESIAN_POINT('',(1154.26796230893,-1498.68028503932,0.187500000868842));
#457=CARTESIAN_POINT('',(1154.2679623089,-1498.68028503929,0.437500000868842));
#458=CARTESIAN_POINT('',(1154.2679623089,-1498.93028503929,0.437500000868842));
#459=CARTESIAN_POINT('',(1154.2679623089,-1498.80528503929,0.437500000868842));
#460=CARTESIAN_POINT('',(1154.2679623089,-1498.68028503929,0.437500000868842));
#461=CARTESIAN_POINT('',(1154.26796230893,-1498.93028503932,0.187500000868842));
#462=CARTESIAN_POINT('',(1154.2679623089,-1498.93028503929,0.437500000868842));
#463=CARTESIAN_POINT('',(1154.26796230893,-1498.68028503932,0.187500000868842));
#464=CARTESIAN_POINT('',(1154.01796230893,-1498.68028503932,0.187500000843604));
#465=CARTESIAN_POINT('',(1153.76796230893,-1498.68028503932,0.187500000818365));
#466=CARTESIAN_POINT('',(1153.76796230893,-1498.68028503932,0.187500000818365));
#467=CARTESIAN_POINT('',(1153.7679623089,-1498.68028503929,0.437500000818365));
#468=CARTESIAN_POINT('',(1154.2679623089,-1498.68028503929,0.437500000868842));
#469=CARTESIAN_POINT('',(1154.0179623089,-1498.68028503929,0.437500000843604));
#470=CARTESIAN_POINT('',(1153.7679623089,-1498.68028503929,0.437500000818365));
#471=CARTESIAN_POINT('',(1153.76796230893,-1498.68028503932,0.187500000818365));
#472=CARTESIAN_POINT('',(1153.49129564226,-1498.47278503932,0.187500000790434));
#473=CARTESIAN_POINT('',(1153.21462897559,-1498.26528503932,0.187500000762504));
#474=CARTESIAN_POINT('',(1153.21462897559,-1498.26528503932,0.187500000762504));
#475=CARTESIAN_POINT('',(1153.21462897556,-1498.26528503929,0.437500000762504));
#476=CARTESIAN_POINT('',(1153.7679623089,-1498.68028503929,0.437500000818365));
#477=CARTESIAN_POINT('',(1153.49129564223,-1498.47278503929,0.437500000790434));
#478=CARTESIAN_POINT('',(1153.21462897556,-1498.26528503929,0.437500000762504));
#479=CARTESIAN_POINT('',(1153.21462897559,-1498.26528503932,0.187500000762504));
#480=CARTESIAN_POINT('',(1152.21004564226,-1498.26528503932,0.187500000661087));
#481=CARTESIAN_POINT('',(1151.20546230893,-1498.26528503933,0.187500000559671));
#482=CARTESIAN_POINT('',(1151.20546230893,-1498.26528503933,0.187500000559671));
#483=CARTESIAN_POINT('',(1151.2054623089,-1498.2652850393,0.437500000559671));
#484=CARTESIAN_POINT('',(1153.21462897556,-1498.26528503929,0.437500000762504));
#485=CARTESIAN_POINT('',(1152.21004564223,-1498.26528503929,0.437500000661087));
#486=CARTESIAN_POINT('',(1151.2054623089,-1498.2652850393,0.437500000559671));
#487=CARTESIAN_POINT('',(1151.20546230893,-1498.26528503933,0.187500000559671));
#488=CARTESIAN_POINT('',(1151.01796230893,-1498.26528503933,0.187500000540742));
#489=CARTESIAN_POINT('',(1151.01796230893,-1498.45823958478,0.187500000540742));
#490=CARTESIAN_POINT('',(1151.01796230893,-1498.45823958478,0.187500000540742));
#491=CARTESIAN_POINT('',(1151.0179623089,-1498.45823958475,0.437500000540742));
#492=CARTESIAN_POINT('',(1151.2054623089,-1498.2652850393,0.437500000559671));
#493=CARTESIAN_POINT('',(1151.0179623089,-1498.2652850393,0.437500000540742));
#494=CARTESIAN_POINT('',(1151.0179623089,-1498.45823958475,0.437500000540742));
#495=CARTESIAN_POINT('',(1151.01796230893,-1498.45823958478,0.187500000540742));
#496=CARTESIAN_POINT('',(1151.01796230893,-1499.68028503933,0.187500000540742));
#497=CARTESIAN_POINT('',(1151.01796230894,-1500.90233049387,0.187500000540742));
#498=CARTESIAN_POINT('',(1151.01796230894,-1500.90233049387,0.187500000540742));
#499=CARTESIAN_POINT('',(1151.01796230891,-1500.90233049384,0.437500000540742));
#500=CARTESIAN_POINT('',(1151.0179623089,-1498.45823958475,0.437500000540742));
#501=CARTESIAN_POINT('',(1151.0179623089,-1499.6802850393,0.437500000540742));
#502=CARTESIAN_POINT('',(1151.01796230891,-1500.90233049384,0.437500000540742));
#503=CARTESIAN_POINT('',(1151.01796230894,-1500.90233049387,0.187500000540742));
#504=CARTESIAN_POINT('',(1151.01796230894,-1501.09528503932,0.187500000540742));
#505=CARTESIAN_POINT('',(1151.20546230894,-1501.09528503932,0.187500000559671));
#506=CARTESIAN_POINT('',(1151.20546230894,-1501.09528503932,0.187500000559671));
#507=CARTESIAN_POINT('',(1151.20546230891,-1501.09528503929,0.437500000559671));
#508=CARTESIAN_POINT('',(1151.01796230891,-1500.90233049384,0.437500000540742));
#509=CARTESIAN_POINT('',(1151.01796230891,-1501.09528503929,0.437500000540742));
#510=CARTESIAN_POINT('',(1151.20546230891,-1501.09528503929,0.437500000559671));
#511=CARTESIAN_POINT('',(1151.20546230894,-1501.09528503932,0.187500000559671));
#512=CARTESIAN_POINT('',(1152.21004564227,-1501.09528503932,0.187500000661087));
#513=CARTESIAN_POINT('',(1153.2146289756,-1501.09528503932,0.187500000762504));
#514=CARTESIAN_POINT('',(1153.2146289756,-1501.09528503932,0.187500000762504));
#515=CARTESIAN_POINT('',(1153.21462897557,-1501.09528503929,0.437500000762504));
#516=CARTESIAN_POINT('',(1151.20546230891,-1501.09528503929,0.437500000559671));
#517=CARTESIAN_POINT('',(1152.21004564224,-1501.09528503929,0.437500000661087));
#518=CARTESIAN_POINT('',(1153.21462897557,-1501.09528503929,0.437500000762504));
#519=CARTESIAN_POINT('',(1153.2146289756,-1501.09528503932,0.187500000762504));
#520=CARTESIAN_POINT('',(1153.49129564227,-1500.88778503932,0.187500000790434));
#521=CARTESIAN_POINT('',(1153.76796230894,-1500.68028503932,0.187500000818365));
#522=CARTESIAN_POINT('',(1153.76796230894,-1500.68028503932,0.187500000818365));
#523=CARTESIAN_POINT('',(1153.76796230891,-1500.68028503929,0.437500000818365));
#524=CARTESIAN_POINT('',(1153.21462897557,-1501.09528503929,0.437500000762504));
#525=CARTESIAN_POINT('',(1153.49129564224,-1500.88778503929,0.437500000790434));
#526=CARTESIAN_POINT('',(1153.76796230891,-1500.68028503929,0.437500000818365));
#527=CARTESIAN_POINT('',(1153.76796230894,-1500.68028503932,0.187500000818365));
#528=CARTESIAN_POINT('',(1154.01796230894,-1500.68028503932,0.187500000843604));
#529=CARTESIAN_POINT('',(1154.26796230894,-1500.68028503932,0.187500000868842));
#530=CARTESIAN_POINT('',(1154.26796230894,-1500.68028503932,0.187500000868842));
#531=CARTESIAN_POINT('',(1154.26796230891,-1500.68028503929,0.437500000868842));
#532=CARTESIAN_POINT('',(1153.76796230891,-1500.68028503929,0.437500000818365));
#533=CARTESIAN_POINT('',(1154.01796230891,-1500.68028503929,0.437500000843604));
#534=CARTESIAN_POINT('',(1154.26796230891,-1500.68028503929,0.437500000868842));
#535=CARTESIAN_POINT('',(1154.26796230894,-1500.68028503932,0.187500000868842));
#536=CARTESIAN_POINT('',(1154.26796230894,-1500.55528503932,0.187500000868842));
#537=CARTESIAN_POINT('',(1154.26796230894,-1500.43028503932,0.187500000868842));
#538=CARTESIAN_POINT('',(1154.26796230894,-1500.43028503932,0.187500000868842));
#539=CARTESIAN_POINT('',(1154.26796230891,-1500.43028503929,0.437500000868842));
#540=CARTESIAN_POINT('',(1154.26796230891,-1500.68028503929,0.437500000868842));
#541=CARTESIAN_POINT('',(1154.26796230891,-1500.55528503929,0.437500000868842));
#542=CARTESIAN_POINT('',(1154.26796230891,-1500.43028503929,0.437500000868842));
#543=CARTESIAN_POINT('',(1154.26796230894,-1500.43028503932,0.187500000868842));
#544=CARTESIAN_POINT('',(1154.33046230893,-1500.43028503932,0.187500000875152));
#545=CARTESIAN_POINT('',(1154.39296230893,-1500.43028503932,0.187500000881461));
#546=CARTESIAN_POINT('',(1154.39296230893,-1500.43028503932,0.187500000881461));
#547=CARTESIAN_POINT('',(1154.3929623089,-1500.43028503929,0.437500000881461));
#548=CARTESIAN_POINT('',(1154.26796230891,-1500.43028503929,0.437500000868842));
#549=CARTESIAN_POINT('',(1154.3304623089,-1500.43028503929,0.437500000875152));
#550=CARTESIAN_POINT('',(1154.3929623089,-1500.43028503929,0.437500000881461));
#551=CARTESIAN_POINT('',(1154.39296230893,-1500.43028503932,0.187500000881461));
#552=CARTESIAN_POINT('',(1154.39296230893,-1499.68028503932,0.187500000881461));
#553=CARTESIAN_POINT('',(1154.39296230893,-1498.93028503932,0.187500000881461));
#554=CARTESIAN_POINT('',(1154.39296230893,-1498.93028503932,0.187500000881461));
#555=CARTESIAN_POINT('',(1154.3929623089,-1498.93028503929,0.437500000881461));
#556=CARTESIAN_POINT('',(1154.3929623089,-1500.43028503929,0.437500000881461));
#557=CARTESIAN_POINT('',(1154.3929623089,-1499.68028503929,0.437500000881461));
#558=CARTESIAN_POINT('',(1154.3929623089,-1498.93028503929,0.437500000881461));
#559=CARTESIAN_POINT('',(1154.39296230893,-1498.93028503932,0.187500000881461));
#560=CARTESIAN_POINT('',(1154.33046230893,-1498.93028503932,0.187500000875152));
#561=CARTESIAN_POINT('',(1154.26796230893,-1498.93028503932,0.187500000868842));
#562=CARTESIAN_POINT('',(1154.3929623089,-1498.93028503929,0.437500000881461));
#563=CARTESIAN_POINT('',(1154.3304623089,-1498.93028503929,0.437500000875152));
#564=CARTESIAN_POINT('',(1154.2679623089,-1498.93028503929,0.437500000868842));
#565=CARTESIAN_POINT('',(0.,0.,0.));
ENDSEC;
END-ISO-10303-21;
