ISO-10303-21;
HEADER;
/* Generated by software containing ST-Developer
 * from STEP Tools, Inc. (www.steptools.com) 
 */
/* OPTION: using custom schema-name function */

FILE_DESCRIPTION(
/* description */ (''),
/* implementation_level */ '2;1');

FILE_NAME(
/* name */ 'F Clip Base x8',
/* time_stamp */ '2024-03-06T20:47:08-06:00',
/* author */ (''),
/* organization */ (''),
/* preprocessor_version */ 'ST-DEVELOPER v16.5',
/* originating_system */ 'Rhino 7.36',
/* authorisation */ '');

FILE_SCHEMA (('CONFIG_CONTROL_DESIGN'));
ENDSEC;

DATA;
#10=SHAPE_REPRESENTATION_RELATIONSHIP('','',#447,#12);
#11=MANIFOLD_SOLID_BREP('brep_1',#13);
#12=ADVANCED_BREP_SHAPE_REPRESENTATION('brep_rep_0',(#11,#469),#446);
#13=CLOSED_SHELL('',(#20,#21,#22,#23,#24,#25,#26,#27,#28,#29,#30,#31,#32,
#33,#34,#35,#36,#37,#38,#39));
#14=FACE_BOUND('',#70,.T.);
#15=FACE_BOUND('',#71,.T.);
#16=FACE_BOUND('',#72,.T.);
#17=FACE_BOUND('',#74,.T.);
#18=FACE_BOUND('',#75,.T.);
#19=FACE_BOUND('',#76,.T.);
#20=ADVANCED_FACE('',(#40),#344,.T.);
#21=ADVANCED_FACE('',(#41),#345,.T.);
#22=ADVANCED_FACE('',(#42),#338,.T.);
#23=ADVANCED_FACE('',(#43),#346,.T.);
#24=ADVANCED_FACE('',(#44),#339,.T.);
#25=ADVANCED_FACE('',(#45),#347,.T.);
#26=ADVANCED_FACE('',(#46),#348,.T.);
#27=ADVANCED_FACE('',(#47),#340,.F.);
#28=ADVANCED_FACE('',(#48),#341,.F.);
#29=ADVANCED_FACE('',(#49,#14,#15,#16),#349,.T.);
#30=ADVANCED_FACE('',(#50,#17,#18,#19),#350,.T.);
#31=ADVANCED_FACE('',(#51),#351,.T.);
#32=ADVANCED_FACE('',(#52),#352,.T.);
#33=ADVANCED_FACE('',(#53),#353,.T.);
#34=ADVANCED_FACE('',(#54),#354,.T.);
#35=ADVANCED_FACE('',(#55),#355,.T.);
#36=ADVANCED_FACE('',(#56),#356,.T.);
#37=ADVANCED_FACE('',(#57),#357,.T.);
#38=ADVANCED_FACE('',(#58),#342,.F.);
#39=ADVANCED_FACE('',(#59),#343,.F.);
#40=FACE_OUTER_BOUND('',#60,.T.);
#41=FACE_OUTER_BOUND('',#61,.T.);
#42=FACE_OUTER_BOUND('',#62,.T.);
#43=FACE_OUTER_BOUND('',#63,.T.);
#44=FACE_OUTER_BOUND('',#64,.T.);
#45=FACE_OUTER_BOUND('',#65,.T.);
#46=FACE_OUTER_BOUND('',#66,.T.);
#47=FACE_OUTER_BOUND('',#67,.T.);
#48=FACE_OUTER_BOUND('',#68,.T.);
#49=FACE_OUTER_BOUND('',#69,.T.);
#50=FACE_OUTER_BOUND('',#73,.T.);
#51=FACE_OUTER_BOUND('',#77,.T.);
#52=FACE_OUTER_BOUND('',#78,.T.);
#53=FACE_OUTER_BOUND('',#79,.T.);
#54=FACE_OUTER_BOUND('',#80,.T.);
#55=FACE_OUTER_BOUND('',#81,.T.);
#56=FACE_OUTER_BOUND('',#82,.T.);
#57=FACE_OUTER_BOUND('',#83,.T.);
#58=FACE_OUTER_BOUND('',#84,.T.);
#59=FACE_OUTER_BOUND('',#85,.T.);
#60=EDGE_LOOP('',(#86,#87,#88,#89));
#61=EDGE_LOOP('',(#90,#91,#92,#93));
#62=EDGE_LOOP('',(#94,#95,#96,#97));
#63=EDGE_LOOP('',(#98,#99,#100,#101));
#64=EDGE_LOOP('',(#102,#103,#104,#105));
#65=EDGE_LOOP('',(#106,#107,#108,#109));
#66=EDGE_LOOP('',(#110,#111,#112,#113));
#67=EDGE_LOOP('',(#114,#115,#116,#117));
#68=EDGE_LOOP('',(#118,#119,#120,#121));
#69=EDGE_LOOP('',(#122,#123,#124,#125,#126,#127,#128,#129,#130,#131));
#70=EDGE_LOOP('',(#132,#133,#134,#135));
#71=EDGE_LOOP('',(#136,#137));
#72=EDGE_LOOP('',(#138,#139));
#73=EDGE_LOOP('',(#140,#141,#142,#143,#144,#145,#146,#147,#148,#149));
#74=EDGE_LOOP('',(#150,#151,#152,#153));
#75=EDGE_LOOP('',(#154,#155));
#76=EDGE_LOOP('',(#156,#157));
#77=EDGE_LOOP('',(#158,#159,#160,#161));
#78=EDGE_LOOP('',(#162,#163,#164,#165));
#79=EDGE_LOOP('',(#166,#167,#168,#169));
#80=EDGE_LOOP('',(#170,#171,#172,#173));
#81=EDGE_LOOP('',(#174,#175,#176,#177));
#82=EDGE_LOOP('',(#178,#179,#180,#181));
#83=EDGE_LOOP('',(#182,#183,#184,#185));
#84=EDGE_LOOP('',(#186,#187,#188,#189));
#85=EDGE_LOOP('',(#190,#191,#192,#193));
#86=ORIENTED_EDGE('',*,*,#195,.T.);
#87=ORIENTED_EDGE('',*,*,#196,.T.);
#88=ORIENTED_EDGE('',*,*,#197,.F.);
#89=ORIENTED_EDGE('',*,*,#194,.F.);
#90=ORIENTED_EDGE('',*,*,#198,.T.);
#91=ORIENTED_EDGE('',*,*,#199,.T.);
#92=ORIENTED_EDGE('',*,*,#200,.F.);
#93=ORIENTED_EDGE('',*,*,#196,.F.);
#94=ORIENTED_EDGE('',*,*,#201,.T.);
#95=ORIENTED_EDGE('',*,*,#202,.T.);
#96=ORIENTED_EDGE('',*,*,#203,.F.);
#97=ORIENTED_EDGE('',*,*,#199,.F.);
#98=ORIENTED_EDGE('',*,*,#204,.T.);
#99=ORIENTED_EDGE('',*,*,#205,.T.);
#100=ORIENTED_EDGE('',*,*,#206,.F.);
#101=ORIENTED_EDGE('',*,*,#202,.F.);
#102=ORIENTED_EDGE('',*,*,#207,.T.);
#103=ORIENTED_EDGE('',*,*,#208,.T.);
#104=ORIENTED_EDGE('',*,*,#209,.F.);
#105=ORIENTED_EDGE('',*,*,#205,.F.);
#106=ORIENTED_EDGE('',*,*,#210,.T.);
#107=ORIENTED_EDGE('',*,*,#211,.T.);
#108=ORIENTED_EDGE('',*,*,#212,.F.);
#109=ORIENTED_EDGE('',*,*,#208,.F.);
#110=ORIENTED_EDGE('',*,*,#213,.T.);
#111=ORIENTED_EDGE('',*,*,#214,.T.);
#112=ORIENTED_EDGE('',*,*,#215,.F.);
#113=ORIENTED_EDGE('',*,*,#211,.F.);
#114=ORIENTED_EDGE('',*,*,#242,.T.);
#115=ORIENTED_EDGE('',*,*,#222,.F.);
#116=ORIENTED_EDGE('',*,*,#221,.F.);
#117=ORIENTED_EDGE('',*,*,#220,.T.);
#118=ORIENTED_EDGE('',*,*,#245,.T.);
#119=ORIENTED_EDGE('',*,*,#225,.F.);
#120=ORIENTED_EDGE('',*,*,#224,.F.);
#121=ORIENTED_EDGE('',*,*,#223,.T.);
#122=ORIENTED_EDGE('',*,*,#232,.F.);
#123=ORIENTED_EDGE('',*,*,#213,.F.);
#124=ORIENTED_EDGE('',*,*,#210,.F.);
#125=ORIENTED_EDGE('',*,*,#207,.F.);
#126=ORIENTED_EDGE('',*,*,#204,.F.);
#127=ORIENTED_EDGE('',*,*,#201,.F.);
#128=ORIENTED_EDGE('',*,*,#198,.F.);
#129=ORIENTED_EDGE('',*,*,#195,.F.);
#130=ORIENTED_EDGE('',*,*,#230,.F.);
#131=ORIENTED_EDGE('',*,*,#226,.F.);
#132=ORIENTED_EDGE('',*,*,#240,.F.);
#133=ORIENTED_EDGE('',*,*,#217,.F.);
#134=ORIENTED_EDGE('',*,*,#238,.F.);
#135=ORIENTED_EDGE('',*,*,#234,.F.);
#136=ORIENTED_EDGE('',*,*,#243,.F.);
#137=ORIENTED_EDGE('',*,*,#220,.F.);
#138=ORIENTED_EDGE('',*,*,#246,.F.);
#139=ORIENTED_EDGE('',*,*,#223,.F.);
#140=ORIENTED_EDGE('',*,*,#231,.T.);
#141=ORIENTED_EDGE('',*,*,#197,.T.);
#142=ORIENTED_EDGE('',*,*,#200,.T.);
#143=ORIENTED_EDGE('',*,*,#203,.T.);
#144=ORIENTED_EDGE('',*,*,#206,.T.);
#145=ORIENTED_EDGE('',*,*,#209,.T.);
#146=ORIENTED_EDGE('',*,*,#212,.T.);
#147=ORIENTED_EDGE('',*,*,#215,.T.);
#148=ORIENTED_EDGE('',*,*,#233,.T.);
#149=ORIENTED_EDGE('',*,*,#227,.T.);
#150=ORIENTED_EDGE('',*,*,#235,.T.);
#151=ORIENTED_EDGE('',*,*,#239,.T.);
#152=ORIENTED_EDGE('',*,*,#219,.T.);
#153=ORIENTED_EDGE('',*,*,#241,.T.);
#154=ORIENTED_EDGE('',*,*,#222,.T.);
#155=ORIENTED_EDGE('',*,*,#244,.T.);
#156=ORIENTED_EDGE('',*,*,#225,.T.);
#157=ORIENTED_EDGE('',*,*,#247,.T.);
#158=ORIENTED_EDGE('',*,*,#228,.F.);
#159=ORIENTED_EDGE('',*,*,#230,.T.);
#160=ORIENTED_EDGE('',*,*,#194,.T.);
#161=ORIENTED_EDGE('',*,*,#231,.F.);
#162=ORIENTED_EDGE('',*,*,#226,.T.);
#163=ORIENTED_EDGE('',*,*,#228,.T.);
#164=ORIENTED_EDGE('',*,*,#227,.F.);
#165=ORIENTED_EDGE('',*,*,#229,.F.);
#166=ORIENTED_EDGE('',*,*,#233,.F.);
#167=ORIENTED_EDGE('',*,*,#214,.F.);
#168=ORIENTED_EDGE('',*,*,#232,.T.);
#169=ORIENTED_EDGE('',*,*,#229,.T.);
#170=ORIENTED_EDGE('',*,*,#236,.F.);
#171=ORIENTED_EDGE('',*,*,#234,.T.);
#172=ORIENTED_EDGE('',*,*,#237,.T.);
#173=ORIENTED_EDGE('',*,*,#235,.F.);
#174=ORIENTED_EDGE('',*,*,#236,.T.);
#175=ORIENTED_EDGE('',*,*,#241,.F.);
#176=ORIENTED_EDGE('',*,*,#218,.F.);
#177=ORIENTED_EDGE('',*,*,#240,.T.);
#178=ORIENTED_EDGE('',*,*,#217,.T.);
#179=ORIENTED_EDGE('',*,*,#218,.T.);
#180=ORIENTED_EDGE('',*,*,#219,.F.);
#181=ORIENTED_EDGE('',*,*,#216,.F.);
#182=ORIENTED_EDGE('',*,*,#237,.F.);
#183=ORIENTED_EDGE('',*,*,#238,.T.);
#184=ORIENTED_EDGE('',*,*,#216,.T.);
#185=ORIENTED_EDGE('',*,*,#239,.F.);
#186=ORIENTED_EDGE('',*,*,#243,.T.);
#187=ORIENTED_EDGE('',*,*,#221,.T.);
#188=ORIENTED_EDGE('',*,*,#244,.F.);
#189=ORIENTED_EDGE('',*,*,#242,.F.);
#190=ORIENTED_EDGE('',*,*,#246,.T.);
#191=ORIENTED_EDGE('',*,*,#224,.T.);
#192=ORIENTED_EDGE('',*,*,#247,.F.);
#193=ORIENTED_EDGE('',*,*,#245,.F.);
#194=EDGE_CURVE('',#302,#303,#264,.T.);
#195=EDGE_CURVE('',#302,#304,#265,.T.);
#196=EDGE_CURVE('',#304,#305,#266,.T.);
#197=EDGE_CURVE('',#303,#305,#267,.T.);
#198=EDGE_CURVE('',#304,#306,#268,.T.);
#199=EDGE_CURVE('',#306,#307,#269,.T.);
#200=EDGE_CURVE('',#305,#307,#270,.T.);
#201=EDGE_CURVE('',#306,#308,#271,.T.);
#202=EDGE_CURVE('',#308,#309,#272,.T.);
#203=EDGE_CURVE('',#307,#309,#273,.T.);
#204=EDGE_CURVE('',#308,#310,#274,.T.);
#205=EDGE_CURVE('',#310,#311,#275,.T.);
#206=EDGE_CURVE('',#309,#311,#276,.T.);
#207=EDGE_CURVE('',#310,#312,#277,.T.);
#208=EDGE_CURVE('',#312,#313,#278,.T.);
#209=EDGE_CURVE('',#311,#313,#279,.T.);
#210=EDGE_CURVE('',#312,#314,#280,.T.);
#211=EDGE_CURVE('',#314,#315,#281,.T.);
#212=EDGE_CURVE('',#313,#315,#282,.T.);
#213=EDGE_CURVE('',#314,#316,#283,.T.);
#214=EDGE_CURVE('',#316,#317,#284,.T.);
#215=EDGE_CURVE('',#315,#317,#285,.T.);
#216=EDGE_CURVE('',#318,#319,#248,.T.);
#217=EDGE_CURVE('',#318,#320,#249,.T.);
#218=EDGE_CURVE('',#320,#321,#250,.T.);
#219=EDGE_CURVE('',#319,#321,#251,.T.);
#220=EDGE_CURVE('',#322,#334,#286,.T.);
#221=EDGE_CURVE('',#322,#323,#287,.T.);
#222=EDGE_CURVE('',#323,#335,#288,.T.);
#223=EDGE_CURVE('',#324,#336,#289,.T.);
#224=EDGE_CURVE('',#324,#325,#290,.T.);
#225=EDGE_CURVE('',#325,#337,#291,.T.);
#226=EDGE_CURVE('',#327,#326,#252,.T.);
#227=EDGE_CURVE('',#329,#328,#253,.T.);
#228=EDGE_CURVE('',#326,#328,#254,.T.);
#229=EDGE_CURVE('',#327,#329,#255,.T.);
#230=EDGE_CURVE('',#326,#302,#292,.T.);
#231=EDGE_CURVE('',#328,#303,#293,.T.);
#232=EDGE_CURVE('',#316,#327,#294,.T.);
#233=EDGE_CURVE('',#317,#329,#295,.T.);
#234=EDGE_CURVE('',#330,#331,#256,.T.);
#235=EDGE_CURVE('',#332,#333,#257,.T.);
#236=EDGE_CURVE('',#330,#332,#258,.T.);
#237=EDGE_CURVE('',#331,#333,#259,.T.);
#238=EDGE_CURVE('',#331,#318,#260,.T.);
#239=EDGE_CURVE('',#333,#319,#261,.T.);
#240=EDGE_CURVE('',#320,#330,#262,.T.);
#241=EDGE_CURVE('',#321,#332,#263,.T.);
#242=EDGE_CURVE('',#334,#335,#296,.T.);
#243=EDGE_CURVE('',#334,#322,#297,.T.);
#244=EDGE_CURVE('',#335,#323,#298,.T.);
#245=EDGE_CURVE('',#336,#337,#299,.T.);
#246=EDGE_CURVE('',#336,#324,#300,.T.);
#247=EDGE_CURVE('',#337,#325,#301,.T.);
#248=B_SPLINE_CURVE_WITH_KNOTS('',1,(#609,#610),.UNSPECIFIED.,.F.,.F.,(2,
2),(0.,0.1875),.UNSPECIFIED.);
#249=B_SPLINE_CURVE_WITH_KNOTS('',1,(#611,#612),.UNSPECIFIED.,.F.,.F.,(2,
2),(15.8986640080774,17.3986640080778),.UNSPECIFIED.);
#250=B_SPLINE_CURVE_WITH_KNOTS('',1,(#613,#614),.UNSPECIFIED.,.F.,.F.,(2,
2),(0.,0.1875),.UNSPECIFIED.);
#251=B_SPLINE_CURVE_WITH_KNOTS('',1,(#615,#616),.UNSPECIFIED.,.F.,.F.,(2,
2),(15.8986640080774,17.3986640080778),.UNSPECIFIED.);
#252=B_SPLINE_CURVE_WITH_KNOTS('',1,(#641,#642),.UNSPECIFIED.,.F.,.F.,(2,
2),(-1.14028786413201E-11,1.5000000000114),.UNSPECIFIED.);
#253=B_SPLINE_CURVE_WITH_KNOTS('',1,(#643,#644),.UNSPECIFIED.,.F.,.F.,(2,
2),(-1.14028786413201E-11,1.5000000000114),.UNSPECIFIED.);
#254=B_SPLINE_CURVE_WITH_KNOTS('',1,(#645,#646),.UNSPECIFIED.,.F.,.F.,(2,
2),(11.8125,12.),.UNSPECIFIED.);
#255=B_SPLINE_CURVE_WITH_KNOTS('',1,(#647,#648),.UNSPECIFIED.,.F.,.F.,(2,
2),(11.8125,12.),.UNSPECIFIED.);
#256=B_SPLINE_CURVE_WITH_KNOTS('',1,(#669,#670),.UNSPECIFIED.,.F.,.F.,(2,
2),(-1.49999999998912,1.14028786413201E-11),.UNSPECIFIED.);
#257=B_SPLINE_CURVE_WITH_KNOTS('',1,(#671,#672),.UNSPECIFIED.,.F.,.F.,(2,
2),(-1.49999999998912,1.14028786413201E-11),.UNSPECIFIED.);
#258=B_SPLINE_CURVE_WITH_KNOTS('',1,(#673,#674),.UNSPECIFIED.,.F.,.F.,(2,
2),(11.8125,12.),.UNSPECIFIED.);
#259=B_SPLINE_CURVE_WITH_KNOTS('',1,(#675,#676),.UNSPECIFIED.,.F.,.F.,(2,
2),(11.8125,12.),.UNSPECIFIED.);
#260=B_SPLINE_CURVE_WITH_KNOTS('',1,(#677,#678,#679),.UNSPECIFIED.,.F.,
 .F.,(2,1,2),(0.271500000092896,0.333999999198633,0.521500000093121),
 .UNSPECIFIED.);
#261=B_SPLINE_CURVE_WITH_KNOTS('',1,(#680,#681,#682),.UNSPECIFIED.,.F.,
 .F.,(2,1,2),(0.271500000092896,0.333999999198633,0.521500000093121),
 .UNSPECIFIED.);
#262=B_SPLINE_CURVE_WITH_KNOTS('',1,(#683,#684,#685),.UNSPECIFIED.,.F.,
 .F.,(2,1,2),(17.3986640080778,17.5861640089723,17.6486640082561),
 .UNSPECIFIED.);
#263=B_SPLINE_CURVE_WITH_KNOTS('',1,(#686,#687,#688),.UNSPECIFIED.,.F.,
 .F.,(2,1,2),(17.3986640080778,17.5861640089723,17.6486640082561),
 .UNSPECIFIED.);
#264=(
BOUNDED_CURVE()
B_SPLINE_CURVE(1,(#551,#552),.UNSPECIFIED.,.F.,.F.)
B_SPLINE_CURVE_WITH_KNOTS((2,2),(0.,0.1875),.UNSPECIFIED.)
CURVE()
GEOMETRIC_REPRESENTATION_ITEM()
RATIONAL_B_SPLINE_CURVE((1.,1.))
REPRESENTATION_ITEM('')
);
#265=(
BOUNDED_CURVE()
B_SPLINE_CURVE(2,(#553,#554,#555),.UNSPECIFIED.,.F.,.F.)
B_SPLINE_CURVE_WITH_KNOTS((3,3),(4.29696492557722,4.54696492556562),
 .UNSPECIFIED.)
CURVE()
GEOMETRIC_REPRESENTATION_ITEM()
RATIONAL_B_SPLINE_CURVE((1.,1.,1.))
REPRESENTATION_ITEM('')
);
#266=(
BOUNDED_CURVE()
B_SPLINE_CURVE(1,(#556,#557),.UNSPECIFIED.,.F.,.F.)
B_SPLINE_CURVE_WITH_KNOTS((2,2),(0.,0.1875),.UNSPECIFIED.)
CURVE()
GEOMETRIC_REPRESENTATION_ITEM()
RATIONAL_B_SPLINE_CURVE((1.,1.))
REPRESENTATION_ITEM('')
);
#267=(
BOUNDED_CURVE()
B_SPLINE_CURVE(2,(#558,#559,#560),.UNSPECIFIED.,.F.,.F.)
B_SPLINE_CURVE_WITH_KNOTS((3,3),(4.29696492557722,4.54696492556562),
 .UNSPECIFIED.)
CURVE()
GEOMETRIC_REPRESENTATION_ITEM()
RATIONAL_B_SPLINE_CURVE((1.,1.,1.))
REPRESENTATION_ITEM('')
);
#268=(
BOUNDED_CURVE()
B_SPLINE_CURVE(2,(#561,#562,#563),.UNSPECIFIED.,.F.,.F.)
B_SPLINE_CURVE_WITH_KNOTS((3,3),(4.54696492556562,8.0889649255655),
 .UNSPECIFIED.)
CURVE()
GEOMETRIC_REPRESENTATION_ITEM()
RATIONAL_B_SPLINE_CURVE((1.,1.,1.))
REPRESENTATION_ITEM('')
);
#269=(
BOUNDED_CURVE()
B_SPLINE_CURVE(1,(#564,#565),.UNSPECIFIED.,.F.,.F.)
B_SPLINE_CURVE_WITH_KNOTS((2,2),(0.,0.1875),.UNSPECIFIED.)
CURVE()
GEOMETRIC_REPRESENTATION_ITEM()
RATIONAL_B_SPLINE_CURVE((1.,1.))
REPRESENTATION_ITEM('')
);
#270=(
BOUNDED_CURVE()
B_SPLINE_CURVE(2,(#566,#567,#568),.UNSPECIFIED.,.F.,.F.)
B_SPLINE_CURVE_WITH_KNOTS((3,3),(4.54696492556562,8.0889649255655),
 .UNSPECIFIED.)
CURVE()
GEOMETRIC_REPRESENTATION_ITEM()
RATIONAL_B_SPLINE_CURVE((1.,1.,1.))
REPRESENTATION_ITEM('')
);
#271=(
BOUNDED_CURVE()
B_SPLINE_CURVE(2,(#569,#570,#571),.UNSPECIFIED.,.F.,.F.)
B_SPLINE_CURVE_WITH_KNOTS((3,3),(8.0889649255655,8.28531446641486),
 .UNSPECIFIED.)
CURVE()
GEOMETRIC_REPRESENTATION_ITEM()
RATIONAL_B_SPLINE_CURVE((1.,0.707106781186548,1.))
REPRESENTATION_ITEM('')
);
#272=(
BOUNDED_CURVE()
B_SPLINE_CURVE(1,(#572,#573),.UNSPECIFIED.,.F.,.F.)
B_SPLINE_CURVE_WITH_KNOTS((2,2),(0.,0.1875),.UNSPECIFIED.)
CURVE()
GEOMETRIC_REPRESENTATION_ITEM()
RATIONAL_B_SPLINE_CURVE((1.,1.))
REPRESENTATION_ITEM('')
);
#273=(
BOUNDED_CURVE()
B_SPLINE_CURVE(2,(#574,#575,#576),.UNSPECIFIED.,.F.,.F.)
B_SPLINE_CURVE_WITH_KNOTS((3,3),(8.0889649255655,8.28531446641486),
 .UNSPECIFIED.)
CURVE()
GEOMETRIC_REPRESENTATION_ITEM()
RATIONAL_B_SPLINE_CURVE((1.,0.707106781186548,1.))
REPRESENTATION_ITEM('')
);
#274=(
BOUNDED_CURVE()
B_SPLINE_CURVE(2,(#577,#578,#579),.UNSPECIFIED.,.F.,.F.)
B_SPLINE_CURVE_WITH_KNOTS((3,3),(8.28531446641486,10.0353144664149),
 .UNSPECIFIED.)
CURVE()
GEOMETRIC_REPRESENTATION_ITEM()
RATIONAL_B_SPLINE_CURVE((1.,1.,1.))
REPRESENTATION_ITEM('')
);
#275=(
BOUNDED_CURVE()
B_SPLINE_CURVE(1,(#580,#581),.UNSPECIFIED.,.F.,.F.)
B_SPLINE_CURVE_WITH_KNOTS((2,2),(0.,0.1875),.UNSPECIFIED.)
CURVE()
GEOMETRIC_REPRESENTATION_ITEM()
RATIONAL_B_SPLINE_CURVE((1.,1.))
REPRESENTATION_ITEM('')
);
#276=(
BOUNDED_CURVE()
B_SPLINE_CURVE(2,(#582,#583,#584),.UNSPECIFIED.,.F.,.F.)
B_SPLINE_CURVE_WITH_KNOTS((3,3),(8.28531446641486,10.0353144664149),
 .UNSPECIFIED.)
CURVE()
GEOMETRIC_REPRESENTATION_ITEM()
RATIONAL_B_SPLINE_CURVE((1.,1.,1.))
REPRESENTATION_ITEM('')
);
#277=(
BOUNDED_CURVE()
B_SPLINE_CURVE(2,(#585,#586,#587),.UNSPECIFIED.,.F.,.F.)
B_SPLINE_CURVE_WITH_KNOTS((3,3),(10.0353144664149,10.2316640072642),
 .UNSPECIFIED.)
CURVE()
GEOMETRIC_REPRESENTATION_ITEM()
RATIONAL_B_SPLINE_CURVE((1.,0.707106781187191,1.))
REPRESENTATION_ITEM('')
);
#278=(
BOUNDED_CURVE()
B_SPLINE_CURVE(1,(#588,#589),.UNSPECIFIED.,.F.,.F.)
B_SPLINE_CURVE_WITH_KNOTS((2,2),(0.,0.1875),.UNSPECIFIED.)
CURVE()
GEOMETRIC_REPRESENTATION_ITEM()
RATIONAL_B_SPLINE_CURVE((1.,1.))
REPRESENTATION_ITEM('')
);
#279=(
BOUNDED_CURVE()
B_SPLINE_CURVE(2,(#590,#591,#592),.UNSPECIFIED.,.F.,.F.)
B_SPLINE_CURVE_WITH_KNOTS((3,3),(10.0353144664149,10.2316640072642),
 .UNSPECIFIED.)
CURVE()
GEOMETRIC_REPRESENTATION_ITEM()
RATIONAL_B_SPLINE_CURVE((1.,0.707106781187191,1.))
REPRESENTATION_ITEM('')
);
#280=(
BOUNDED_CURVE()
B_SPLINE_CURVE(2,(#593,#594,#595),.UNSPECIFIED.,.F.,.F.)
B_SPLINE_CURVE_WITH_KNOTS((3,3),(10.2316640072642,13.7736640072641),
 .UNSPECIFIED.)
CURVE()
GEOMETRIC_REPRESENTATION_ITEM()
RATIONAL_B_SPLINE_CURVE((1.,1.,1.))
REPRESENTATION_ITEM('')
);
#281=(
BOUNDED_CURVE()
B_SPLINE_CURVE(1,(#596,#597),.UNSPECIFIED.,.F.,.F.)
B_SPLINE_CURVE_WITH_KNOTS((2,2),(0.,0.1875),.UNSPECIFIED.)
CURVE()
GEOMETRIC_REPRESENTATION_ITEM()
RATIONAL_B_SPLINE_CURVE((1.,1.))
REPRESENTATION_ITEM('')
);
#282=(
BOUNDED_CURVE()
B_SPLINE_CURVE(2,(#598,#599,#600),.UNSPECIFIED.,.F.,.F.)
B_SPLINE_CURVE_WITH_KNOTS((3,3),(10.2316640072642,13.7736640072641),
 .UNSPECIFIED.)
CURVE()
GEOMETRIC_REPRESENTATION_ITEM()
RATIONAL_B_SPLINE_CURVE((1.,1.,1.))
REPRESENTATION_ITEM('')
);
#283=(
BOUNDED_CURVE()
B_SPLINE_CURVE(2,(#601,#602,#603),.UNSPECIFIED.,.F.,.F.)
B_SPLINE_CURVE_WITH_KNOTS((3,3),(13.7736640072641,14.0236640072752),
 .UNSPECIFIED.)
CURVE()
GEOMETRIC_REPRESENTATION_ITEM()
RATIONAL_B_SPLINE_CURVE((1.,1.,1.))
REPRESENTATION_ITEM('')
);
#284=(
BOUNDED_CURVE()
B_SPLINE_CURVE(1,(#604,#605),.UNSPECIFIED.,.F.,.F.)
B_SPLINE_CURVE_WITH_KNOTS((2,2),(0.,0.1875),.UNSPECIFIED.)
CURVE()
GEOMETRIC_REPRESENTATION_ITEM()
RATIONAL_B_SPLINE_CURVE((1.,1.))
REPRESENTATION_ITEM('')
);
#285=(
BOUNDED_CURVE()
B_SPLINE_CURVE(2,(#606,#607,#608),.UNSPECIFIED.,.F.,.F.)
B_SPLINE_CURVE_WITH_KNOTS((3,3),(13.7736640072641,14.0236640072752),
 .UNSPECIFIED.)
CURVE()
GEOMETRIC_REPRESENTATION_ITEM()
RATIONAL_B_SPLINE_CURVE((1.,1.,1.))
REPRESENTATION_ITEM('')
);
#286=(
BOUNDED_CURVE()
B_SPLINE_CURVE(2,(#617,#618,#619,#620,#621),.UNSPECIFIED.,.F.,.F.)
B_SPLINE_CURVE_WITH_KNOTS((3,2,3),(17.5861640089723,17.831600935034,18.0770378610957),
 .UNSPECIFIED.)
CURVE()
GEOMETRIC_REPRESENTATION_ITEM()
RATIONAL_B_SPLINE_CURVE((1.,0.707106781186548,1.,0.707106781186548,1.))
REPRESENTATION_ITEM('')
);
#287=(
BOUNDED_CURVE()
B_SPLINE_CURVE(1,(#622,#623),.UNSPECIFIED.,.F.,.F.)
B_SPLINE_CURVE_WITH_KNOTS((2,2),(0.,0.1875),.UNSPECIFIED.)
CURVE()
GEOMETRIC_REPRESENTATION_ITEM()
RATIONAL_B_SPLINE_CURVE((1.,1.))
REPRESENTATION_ITEM('')
);
#288=(
BOUNDED_CURVE()
B_SPLINE_CURVE(2,(#624,#625,#626,#627,#628),.UNSPECIFIED.,.F.,.F.)
B_SPLINE_CURVE_WITH_KNOTS((3,2,3),(17.5861640089723,17.831600935034,18.0770378610957),
 .UNSPECIFIED.)
CURVE()
GEOMETRIC_REPRESENTATION_ITEM()
RATIONAL_B_SPLINE_CURVE((1.,0.707106781186548,1.,0.707106781186548,1.))
REPRESENTATION_ITEM('')
);
#289=(
BOUNDED_CURVE()
B_SPLINE_CURVE(2,(#629,#630,#631,#632,#633),.UNSPECIFIED.,.F.,.F.)
B_SPLINE_CURVE_WITH_KNOTS((3,2,3),(18.5679117132191,18.8133486392808,19.0587855653425),
 .UNSPECIFIED.)
CURVE()
GEOMETRIC_REPRESENTATION_ITEM()
RATIONAL_B_SPLINE_CURVE((1.,0.707106781186548,1.,0.707106781186548,1.))
REPRESENTATION_ITEM('')
);
#290=(
BOUNDED_CURVE()
B_SPLINE_CURVE(1,(#634,#635),.UNSPECIFIED.,.F.,.F.)
B_SPLINE_CURVE_WITH_KNOTS((2,2),(0.,0.1875),.UNSPECIFIED.)
CURVE()
GEOMETRIC_REPRESENTATION_ITEM()
RATIONAL_B_SPLINE_CURVE((1.,1.))
REPRESENTATION_ITEM('')
);
#291=(
BOUNDED_CURVE()
B_SPLINE_CURVE(2,(#636,#637,#638,#639,#640),.UNSPECIFIED.,.F.,.F.)
B_SPLINE_CURVE_WITH_KNOTS((3,2,3),(18.5679117132191,18.8133486392808,19.0587855653425),
 .UNSPECIFIED.)
CURVE()
GEOMETRIC_REPRESENTATION_ITEM()
RATIONAL_B_SPLINE_CURVE((1.,0.707106781186548,1.,0.707106781186548,1.))
REPRESENTATION_ITEM('')
);
#292=(
BOUNDED_CURVE()
B_SPLINE_CURVE(2,(#649,#650,#651,#652,#653),.UNSPECIFIED.,.F.,.F.)
B_SPLINE_CURVE_WITH_KNOTS((3,2,3),(-0.062500000104898,-1.7834271559547E-10,
0.187499999821657),.UNSPECIFIED.)
CURVE()
GEOMETRIC_REPRESENTATION_ITEM()
RATIONAL_B_SPLINE_CURVE((1.,1.,1.,1.,1.))
REPRESENTATION_ITEM('')
);
#293=(
BOUNDED_CURVE()
B_SPLINE_CURVE(2,(#654,#655,#656,#657,#658),.UNSPECIFIED.,.F.,.F.)
B_SPLINE_CURVE_WITH_KNOTS((3,2,3),(-0.062500000104898,-1.7834271559547E-10,
0.187499999821657),.UNSPECIFIED.)
CURVE()
GEOMETRIC_REPRESENTATION_ITEM()
RATIONAL_B_SPLINE_CURVE((1.,1.,1.,1.,1.))
REPRESENTATION_ITEM('')
);
#294=(
BOUNDED_CURVE()
B_SPLINE_CURVE(2,(#659,#660,#661,#662,#663),.UNSPECIFIED.,.F.,.F.)
B_SPLINE_CURVE_WITH_KNOTS((3,2,3),(14.0236640072752,14.2111640071825,14.2736640072873),
 .UNSPECIFIED.)
CURVE()
GEOMETRIC_REPRESENTATION_ITEM()
RATIONAL_B_SPLINE_CURVE((1.,1.,1.,1.,1.))
REPRESENTATION_ITEM('')
);
#295=(
BOUNDED_CURVE()
B_SPLINE_CURVE(2,(#664,#665,#666,#667,#668),.UNSPECIFIED.,.F.,.F.)
B_SPLINE_CURVE_WITH_KNOTS((3,2,3),(14.0236640072752,14.2111640071825,14.2736640072873),
 .UNSPECIFIED.)
CURVE()
GEOMETRIC_REPRESENTATION_ITEM()
RATIONAL_B_SPLINE_CURVE((1.,1.,1.,1.,1.))
REPRESENTATION_ITEM('')
);
#296=(
BOUNDED_CURVE()
B_SPLINE_CURVE(1,(#689,#690),.UNSPECIFIED.,.F.,.F.)
B_SPLINE_CURVE_WITH_KNOTS((2,2),(0.,0.1875),.UNSPECIFIED.)
CURVE()
GEOMETRIC_REPRESENTATION_ITEM()
RATIONAL_B_SPLINE_CURVE((1.,1.))
REPRESENTATION_ITEM('')
);
#297=(
BOUNDED_CURVE()
B_SPLINE_CURVE(2,(#691,#692,#693,#694,#695),.UNSPECIFIED.,.F.,.F.)
B_SPLINE_CURVE_WITH_KNOTS((3,2,3),(18.0770378610957,18.3224747871574,18.5679117132191),
 .UNSPECIFIED.)
CURVE()
GEOMETRIC_REPRESENTATION_ITEM()
RATIONAL_B_SPLINE_CURVE((1.,0.707106781186548,1.,0.707106781186548,1.))
REPRESENTATION_ITEM('')
);
#298=(
BOUNDED_CURVE()
B_SPLINE_CURVE(2,(#696,#697,#698,#699,#700),.UNSPECIFIED.,.F.,.F.)
B_SPLINE_CURVE_WITH_KNOTS((3,2,3),(18.0770378610957,18.3224747871574,18.5679117132191),
 .UNSPECIFIED.)
CURVE()
GEOMETRIC_REPRESENTATION_ITEM()
RATIONAL_B_SPLINE_CURVE((1.,0.707106781186548,1.,0.707106781186548,1.))
REPRESENTATION_ITEM('')
);
#299=(
BOUNDED_CURVE()
B_SPLINE_CURVE(1,(#701,#702),.UNSPECIFIED.,.F.,.F.)
B_SPLINE_CURVE_WITH_KNOTS((2,2),(0.,0.1875),.UNSPECIFIED.)
CURVE()
GEOMETRIC_REPRESENTATION_ITEM()
RATIONAL_B_SPLINE_CURVE((1.,1.))
REPRESENTATION_ITEM('')
);
#300=(
BOUNDED_CURVE()
B_SPLINE_CURVE(2,(#703,#704,#705,#706,#707),.UNSPECIFIED.,.F.,.F.)
B_SPLINE_CURVE_WITH_KNOTS((3,2,3),(19.0587855653425,19.3042224914043,19.549659417466),
 .UNSPECIFIED.)
CURVE()
GEOMETRIC_REPRESENTATION_ITEM()
RATIONAL_B_SPLINE_CURVE((1.,0.707106781186548,1.,0.707106781186548,1.))
REPRESENTATION_ITEM('')
);
#301=(
BOUNDED_CURVE()
B_SPLINE_CURVE(2,(#708,#709,#710,#711,#712),.UNSPECIFIED.,.F.,.F.)
B_SPLINE_CURVE_WITH_KNOTS((3,2,3),(19.0587855653425,19.3042224914043,19.549659417466),
 .UNSPECIFIED.)
CURVE()
GEOMETRIC_REPRESENTATION_ITEM()
RATIONAL_B_SPLINE_CURVE((1.,0.707106781186548,1.,0.707106781186548,1.))
REPRESENTATION_ITEM('')
);
#302=VERTEX_POINT('',#515);
#303=VERTEX_POINT('',#516);
#304=VERTEX_POINT('',#517);
#305=VERTEX_POINT('',#518);
#306=VERTEX_POINT('',#519);
#307=VERTEX_POINT('',#520);
#308=VERTEX_POINT('',#521);
#309=VERTEX_POINT('',#522);
#310=VERTEX_POINT('',#523);
#311=VERTEX_POINT('',#524);
#312=VERTEX_POINT('',#525);
#313=VERTEX_POINT('',#526);
#314=VERTEX_POINT('',#527);
#315=VERTEX_POINT('',#528);
#316=VERTEX_POINT('',#529);
#317=VERTEX_POINT('',#530);
#318=VERTEX_POINT('',#531);
#319=VERTEX_POINT('',#532);
#320=VERTEX_POINT('',#533);
#321=VERTEX_POINT('',#534);
#322=VERTEX_POINT('',#535);
#323=VERTEX_POINT('',#536);
#324=VERTEX_POINT('',#537);
#325=VERTEX_POINT('',#538);
#326=VERTEX_POINT('',#539);
#327=VERTEX_POINT('',#540);
#328=VERTEX_POINT('',#541);
#329=VERTEX_POINT('',#542);
#330=VERTEX_POINT('',#543);
#331=VERTEX_POINT('',#544);
#332=VERTEX_POINT('',#545);
#333=VERTEX_POINT('',#546);
#334=VERTEX_POINT('',#547);
#335=VERTEX_POINT('',#548);
#336=VERTEX_POINT('',#549);
#337=VERTEX_POINT('',#550);
#338=CYLINDRICAL_SURFACE('',#451,0.125000000000227);
#339=CYLINDRICAL_SURFACE('',#453,0.125000000000227);
#340=CYLINDRICAL_SURFACE('',#456,0.15625);
#341=CYLINDRICAL_SURFACE('',#457,0.15625);
#342=CYLINDRICAL_SURFACE('',#467,0.156250000000227);
#343=CYLINDRICAL_SURFACE('',#468,0.15625);
#344=PLANE('',#449);
#345=PLANE('',#450);
#346=PLANE('',#452);
#347=PLANE('',#454);
#348=PLANE('',#455);
#349=PLANE('',#458);
#350=PLANE('',#459);
#351=PLANE('',#460);
#352=PLANE('',#461);
#353=PLANE('',#462);
#354=PLANE('',#463);
#355=PLANE('',#464);
#356=PLANE('',#465);
#357=PLANE('',#466);
#358=SHAPE_DEFINITION_REPRESENTATION(#359,#447);
#359=PRODUCT_DEFINITION_SHAPE('Document','',#361);
#360=PRODUCT_DEFINITION_CONTEXT('3D Mechanical Parts',#433,'design');
#361=PRODUCT_DEFINITION('A','First version',#403,#360);
#362=DATE_TIME_ROLE('classification_date');
#363=DATE_TIME_ROLE('creation_date');
#364=APPLIED_DATE_AND_TIME_ASSIGNMENT(#388,#362,(#367));
#365=APPLIED_DATE_AND_TIME_ASSIGNMENT(#390,#363,(#361));
#366=SECURITY_CLASSIFICATION_LEVEL('unclassified');
#367=SECURITY_CLASSIFICATION('A','Security for version',#366);
#368=APPLIED_SECURITY_CLASSIFICATION_ASSIGNMENT(#367,(#403));
#369=APPROVAL_ROLE('Version approval');
#370=APPROVAL_ROLE('Version Security approval');
#371=APPROVAL_ROLE('Definition approval');
#372=APPROVAL_PERSON_ORGANIZATION(#421,#397,#369);
#373=APPROVAL_PERSON_ORGANIZATION(#422,#398,#370);
#374=APPROVAL_PERSON_ORGANIZATION(#425,#399,#371);
#375=COORDINATED_UNIVERSAL_TIME_OFFSET(5,0,.BEHIND.);
#376=LOCAL_TIME(0,0,0.,#375);
#377=LOCAL_TIME(0,0,0.,#375);
#378=LOCAL_TIME(0,0,0.,#375);
#379=LOCAL_TIME(0,0,0.,#375);
#380=LOCAL_TIME(0,0,0.,#375);
#381=CALENDAR_DATE(1999,1,1);
#382=CALENDAR_DATE(1999,1,1);
#383=CALENDAR_DATE(1999,1,1);
#384=CALENDAR_DATE(1999,1,1);
#385=CALENDAR_DATE(1999,1,1);
#386=DATE_AND_TIME(#381,#376);
#387=DATE_AND_TIME(#382,#377);
#388=DATE_AND_TIME(#383,#378);
#389=DATE_AND_TIME(#384,#379);
#390=DATE_AND_TIME(#385,#380);
#391=APPROVAL_DATE_TIME(#386,#397);
#392=APPROVAL_DATE_TIME(#387,#398);
#393=APPROVAL_DATE_TIME(#389,#399);
#394=APPROVAL_STATUS('not_yet_approved');
#395=APPROVAL_STATUS('not_yet_approved');
#396=APPROVAL_STATUS('approved');
#397=APPROVAL(#394,'Version approval');
#398=APPROVAL(#395,'Version Security approval');
#399=APPROVAL(#396,'Definition approval');
#400=APPLIED_APPROVAL_ASSIGNMENT(#397,(#403));
#401=APPLIED_APPROVAL_ASSIGNMENT(#398,(#367));
#402=APPLIED_APPROVAL_ASSIGNMENT(#399,(#361));
#403=PRODUCT_DEFINITION_FORMATION_WITH_SPECIFIED_SOURCE('A',
'First version',#435,.MADE.);
#404=PERSON_AND_ORGANIZATION_ROLE('design_owner');
#405=PERSON_AND_ORGANIZATION_ROLE('creator');
#406=PERSON_AND_ORGANIZATION_ROLE('design_supplier');
#407=PERSON_AND_ORGANIZATION_ROLE('classification_officer');
#408=PERSON_AND_ORGANIZATION_ROLE('creator');
#409=ORGANIZATION('STI','lab','lab');
#410=ORGANIZATION('STI','unknown','unknown');
#411=ORGANIZATION('STI','unknown','unknown');
#412=ORGANIZATION('STI','unknown','unknown');
#413=ORGANIZATION('STI','unknown','unknown');
#414=ORGANIZATION('STI','unknown','unknown');
#415=ORGANIZATION('STI','unknown','unknown');
#416=PERSON('1','Box','vc60',$,$,$);
#417=PERSON('2','last','first',$,$,$);
#418=PERSON('3','President','Mr.',$,$,$);
#419=PERSON_AND_ORGANIZATION(#416,#409);
#420=PERSON_AND_ORGANIZATION(#417,#410);
#421=PERSON_AND_ORGANIZATION(#418,#411);
#422=PERSON_AND_ORGANIZATION(#418,#412);
#423=PERSON_AND_ORGANIZATION(#418,#413);
#424=PERSON_AND_ORGANIZATION(#417,#414);
#425=PERSON_AND_ORGANIZATION(#418,#415);
#426=APPLIED_PERSON_AND_ORGANIZATION_ASSIGNMENT(#419,#404,(#435));
#427=APPLIED_PERSON_AND_ORGANIZATION_ASSIGNMENT(#420,#405,(#403));
#428=APPLIED_PERSON_AND_ORGANIZATION_ASSIGNMENT(#420,#406,(#403));
#429=APPLIED_PERSON_AND_ORGANIZATION_ASSIGNMENT(#423,#407,(#367));
#430=APPLIED_PERSON_AND_ORGANIZATION_ASSIGNMENT(#424,#408,(#361));
#431=PRODUCT_RELATED_PRODUCT_CATEGORY('detail','detail',(#435));
#432=APPLICATION_PROTOCOL_DEFINITION('International Standard',
'config_control_design',1994,#433);
#433=APPLICATION_CONTEXT(
'configuration controlled 3d designs of mechanical parts and assemblie
s');
#434=PRODUCT_CONTEXT('3D Mechanical Parts',#433,'mechanical');
#435=PRODUCT('Document','Document','',(#434));
#436=(
LENGTH_UNIT()
NAMED_UNIT(*)
SI_UNIT(.CENTI.,.METRE.)
);
#437=LENGTH_MEASURE_WITH_UNIT(LENGTH_MEASURE(2.54),#436);
#438=(
CONVERSION_BASED_UNIT('INCH',#437)
LENGTH_UNIT()
NAMED_UNIT(#441)
);
#439=(
NAMED_UNIT(*)
PLANE_ANGLE_UNIT()
SI_UNIT($,.RADIAN.)
);
#440=DIMENSIONAL_EXPONENTS(0.,0.,0.,0.,0.,0.,0.);
#441=DIMENSIONAL_EXPONENTS(1.,0.,0.,0.,0.,0.,0.);
#442=PLANE_ANGLE_MEASURE_WITH_UNIT(PLANE_ANGLE_MEASURE(0.01745329252),#439);
#443=(
CONVERSION_BASED_UNIT('DEGREES',#442)
NAMED_UNIT(#440)
PLANE_ANGLE_UNIT()
);
#444=(
NAMED_UNIT(*)
SI_UNIT($,.STERADIAN.)
SOLID_ANGLE_UNIT()
);
#445=UNCERTAINTY_MEASURE_WITH_UNIT(LENGTH_MEASURE(0.000393700787401575),
#438,'DISTANCE_ACCURACY_VALUE',
'Maximum model space distance between geometric entities at asserted c
onnectivities');
#446=(
GEOMETRIC_REPRESENTATION_CONTEXT(3)
GLOBAL_UNCERTAINTY_ASSIGNED_CONTEXT((#445))
GLOBAL_UNIT_ASSIGNED_CONTEXT((#444,#443,#438))
REPRESENTATION_CONTEXT('ID1','3D')
);
#447=SHAPE_REPRESENTATION('Document',(#448,#469),#446);
#448=AXIS2_PLACEMENT_3D('',#494,#470,#471);
#449=AXIS2_PLACEMENT_3D('',#495,#472,$);
#450=AXIS2_PLACEMENT_3D('',#496,#473,$);
#451=AXIS2_PLACEMENT_3D('',#497,#474,$);
#452=AXIS2_PLACEMENT_3D('',#498,#475,$);
#453=AXIS2_PLACEMENT_3D('',#499,#476,$);
#454=AXIS2_PLACEMENT_3D('',#500,#477,$);
#455=AXIS2_PLACEMENT_3D('',#501,#478,$);
#456=AXIS2_PLACEMENT_3D('',#502,#479,$);
#457=AXIS2_PLACEMENT_3D('',#503,#480,$);
#458=AXIS2_PLACEMENT_3D('',#504,#481,$);
#459=AXIS2_PLACEMENT_3D('',#505,#482,$);
#460=AXIS2_PLACEMENT_3D('',#506,#483,$);
#461=AXIS2_PLACEMENT_3D('',#507,#484,$);
#462=AXIS2_PLACEMENT_3D('',#508,#485,$);
#463=AXIS2_PLACEMENT_3D('',#509,#486,$);
#464=AXIS2_PLACEMENT_3D('',#510,#487,$);
#465=AXIS2_PLACEMENT_3D('',#511,#488,$);
#466=AXIS2_PLACEMENT_3D('',#512,#489,$);
#467=AXIS2_PLACEMENT_3D('',#513,#490,$);
#468=AXIS2_PLACEMENT_3D('',#514,#491,$);
#469=AXIS2_PLACEMENT_3D('',#713,#492,#493);
#470=DIRECTION('',(0.,0.,1.));
#471=DIRECTION('',(1.,0.,0.));
#472=DIRECTION('',(-1.,3.41060513164848E-10,0.));
#473=DIRECTION('',(0.,-1.,0.));
#474=DIRECTION('',(5.36063096663831E-16,-5.36063096663831E-16,1.));
#475=DIRECTION('',(1.,0.,0.));
#476=DIRECTION('',(0.,0.,1.));
#477=DIRECTION('',(0.,1.,0.));
#478=DIRECTION('',(-1.,0.,0.));
#479=DIRECTION('',(0.,0.,-1.));
#480=DIRECTION('',(0.,1.77635683939767E-16,-1.));
#481=DIRECTION('',(0.,0.,-1.));
#482=DIRECTION('',(0.,0.,1.));
#483=DIRECTION('',(0.,1.,0.));
#484=DIRECTION('',(-1.,0.,0.));
#485=DIRECTION('',(0.,-1.,0.));
#486=DIRECTION('',(1.,0.,0.));
#487=DIRECTION('',(0.,1.,0.));
#488=DIRECTION('',(-1.,0.,0.));
#489=DIRECTION('',(0.,-1.,0.));
#490=DIRECTION('',(0.,-1.77635683940284E-16,-1.));
#491=DIRECTION('',(0.,0.,-1.));
#492=DIRECTION('',(0.,0.,1.));
#493=DIRECTION('',(1.,0.,0.));
#494=CARTESIAN_POINT('',(0.,0.,0.));
#495=CARTESIAN_POINT('',(1151.01796230906,-1495.05528503937,0.0625000008944454));
#496=CARTESIAN_POINT('',(1151.01796230897,-1495.30528503936,0.0625000008944454));
#497=CARTESIAN_POINT('',(1154.55996230897,-1495.18028503936,0.156250000894445));
#498=CARTESIAN_POINT('',(1154.68496230897,-1495.18028503936,0.0625000008944454));
#499=CARTESIAN_POINT('',(1154.55996230897,-1493.43028503936,0.156250000894445));
#500=CARTESIAN_POINT('',(1154.55996230897,-1493.30528503936,0.0625000008944454));
#501=CARTESIAN_POINT('',(1151.01796230897,-1493.30528503936,0.0625000008944454));
#502=CARTESIAN_POINT('',(1153.93496230897,-1494.30528503936,0.156250000894445));
#503=CARTESIAN_POINT('',(1152.93496230897,-1494.30528503936,0.156250000894445));
#504=CARTESIAN_POINT('',(1155.14333730897,-1493.05528503936,0.0625000008944454));
#505=CARTESIAN_POINT('',(1155.14333730897,-1493.05528503936,0.250000000894445));
#506=CARTESIAN_POINT('',(1151.0179623088,-1495.05528503933,-11.7499999991056));
#507=CARTESIAN_POINT('',(1151.26796230898,-1495.05528503936,-11.7499999991056));
#508=CARTESIAN_POINT('',(1151.26796230898,-1493.55528503933,-11.7499999991056));
#509=CARTESIAN_POINT('',(1151.47696230897,-1493.55528503933,-11.7499999991056));
#510=CARTESIAN_POINT('',(1151.47696230879,-1495.05528503933,-11.7499999991056));
#511=CARTESIAN_POINT('',(1151.72696230897,-1495.05528503936,-11.7499999991056));
#512=CARTESIAN_POINT('',(1151.72696230897,-1493.55528503933,-11.7499999991056));
#513=CARTESIAN_POINT('',(1153.93496230897,-1494.30528503936,0.156250000894445));
#514=CARTESIAN_POINT('',(1152.93496230897,-1494.30528503936,0.156250000894445));
#515=CARTESIAN_POINT('',(1151.01796230906,-1495.05528503937,0.0625000008944454));
#516=CARTESIAN_POINT('',(1151.01796230906,-1495.05528503937,0.250000000894445));
#517=CARTESIAN_POINT('',(1151.01796230897,-1495.30528503936,0.0625000008944454));
#518=CARTESIAN_POINT('',(1151.01796230897,-1495.30528503936,0.250000000894445));
#519=CARTESIAN_POINT('',(1154.55996230897,-1495.30528503936,0.0625000008944454));
#520=CARTESIAN_POINT('',(1154.55996230897,-1495.30528503936,0.250000000894445));
#521=CARTESIAN_POINT('',(1154.68496230897,-1495.18028503936,0.0625000008944454));
#522=CARTESIAN_POINT('',(1154.68496230897,-1495.18028503936,0.250000000894445));
#523=CARTESIAN_POINT('',(1154.68496230897,-1493.43028503936,0.0625000008944454));
#524=CARTESIAN_POINT('',(1154.68496230897,-1493.43028503936,0.250000000894445));
#525=CARTESIAN_POINT('',(1154.55996230897,-1493.30528503936,0.0625000008944454));
#526=CARTESIAN_POINT('',(1154.55996230897,-1493.30528503936,0.250000000894445));
#527=CARTESIAN_POINT('',(1151.01796230897,-1493.30528503936,0.0625000008944454));
#528=CARTESIAN_POINT('',(1151.01796230897,-1493.30528503936,0.250000000894445));
#529=CARTESIAN_POINT('',(1151.01796230897,-1493.55528503937,0.0625000008944454));
#530=CARTESIAN_POINT('',(1151.01796230897,-1493.55528503937,0.250000000894445));
#531=CARTESIAN_POINT('',(1151.72696230897,-1493.55528503936,0.0625000008944454));
#532=CARTESIAN_POINT('',(1151.72696230897,-1493.55528503936,0.250000000894445));
#533=CARTESIAN_POINT('',(1151.72696230897,-1495.05528503936,0.0625000008944454));
#534=CARTESIAN_POINT('',(1151.72696230897,-1495.05528503936,0.250000000894445));
#535=CARTESIAN_POINT('',(1153.77871230897,-1494.30528503936,0.0625000008944454));
#536=CARTESIAN_POINT('',(1153.77871230897,-1494.30528503936,0.250000000894445));
#537=CARTESIAN_POINT('',(1152.77871230897,-1494.30528503936,0.0625000008944454));
#538=CARTESIAN_POINT('',(1152.77871230897,-1494.30528503936,0.250000000894445));
#539=CARTESIAN_POINT('',(1151.26796230898,-1495.05528503936,0.0625000008944454));
#540=CARTESIAN_POINT('',(1151.26796230898,-1493.55528503933,0.0625000008944454));
#541=CARTESIAN_POINT('',(1151.26796230898,-1495.05528503936,0.250000000894446));
#542=CARTESIAN_POINT('',(1151.26796230898,-1493.55528503933,0.250000000894445));
#543=CARTESIAN_POINT('',(1151.47696230879,-1495.05528503933,0.0625000008944454));
#544=CARTESIAN_POINT('',(1151.47696230897,-1493.55528503933,0.0625000008944454));
#545=CARTESIAN_POINT('',(1151.47696230879,-1495.05528503933,0.250000000894446));
#546=CARTESIAN_POINT('',(1151.47696230897,-1493.55528503933,0.250000000894445));
#547=CARTESIAN_POINT('',(1154.09121230897,-1494.30528503936,0.0625000008944454));
#548=CARTESIAN_POINT('',(1154.09121230897,-1494.30528503936,0.250000000894445));
#549=CARTESIAN_POINT('',(1153.09121230897,-1494.30528503936,0.0625000008944454));
#550=CARTESIAN_POINT('',(1153.09121230897,-1494.30528503936,0.250000000894445));
#551=CARTESIAN_POINT('',(1151.01796230906,-1495.05528503937,0.0625000008944454));
#552=CARTESIAN_POINT('',(1151.01796230906,-1495.05528503937,0.250000000894445));
#553=CARTESIAN_POINT('',(1151.01796230906,-1495.05528503937,0.0625000008944454));
#554=CARTESIAN_POINT('',(1151.01796230901,-1495.18028503936,0.0625000008944454));
#555=CARTESIAN_POINT('',(1151.01796230897,-1495.30528503936,0.0625000008944454));
#556=CARTESIAN_POINT('',(1151.01796230897,-1495.30528503936,0.0625000008944454));
#557=CARTESIAN_POINT('',(1151.01796230897,-1495.30528503936,0.250000000894445));
#558=CARTESIAN_POINT('',(1151.01796230906,-1495.05528503937,0.250000000894445));
#559=CARTESIAN_POINT('',(1151.01796230901,-1495.18028503936,0.250000000894445));
#560=CARTESIAN_POINT('',(1151.01796230897,-1495.30528503936,0.250000000894445));
#561=CARTESIAN_POINT('',(1151.01796230897,-1495.30528503936,0.0625000008944454));
#562=CARTESIAN_POINT('',(1152.78896230897,-1495.30528503936,0.0625000008944454));
#563=CARTESIAN_POINT('',(1154.55996230897,-1495.30528503936,0.0625000008944454));
#564=CARTESIAN_POINT('',(1154.55996230897,-1495.30528503936,0.0625000008944454));
#565=CARTESIAN_POINT('',(1154.55996230897,-1495.30528503936,0.250000000894445));
#566=CARTESIAN_POINT('',(1151.01796230897,-1495.30528503936,0.250000000894445));
#567=CARTESIAN_POINT('',(1152.78896230897,-1495.30528503936,0.250000000894445));
#568=CARTESIAN_POINT('',(1154.55996230897,-1495.30528503936,0.250000000894445));
#569=CARTESIAN_POINT('',(1154.55996230897,-1495.30528503936,0.0625000008944454));
#570=CARTESIAN_POINT('',(1154.68496230897,-1495.30528503936,0.0625000008944454));
#571=CARTESIAN_POINT('',(1154.68496230897,-1495.18028503936,0.0625000008944454));
#572=CARTESIAN_POINT('',(1154.68496230897,-1495.18028503936,0.0625000008944454));
#573=CARTESIAN_POINT('',(1154.68496230897,-1495.18028503936,0.250000000894445));
#574=CARTESIAN_POINT('',(1154.55996230897,-1495.30528503936,0.250000000894445));
#575=CARTESIAN_POINT('',(1154.68496230897,-1495.30528503936,0.250000000894445));
#576=CARTESIAN_POINT('',(1154.68496230897,-1495.18028503936,0.250000000894445));
#577=CARTESIAN_POINT('',(1154.68496230897,-1495.18028503936,0.0625000008944454));
#578=CARTESIAN_POINT('',(1154.68496230897,-1494.30528503936,0.0625000008944454));
#579=CARTESIAN_POINT('',(1154.68496230897,-1493.43028503936,0.0625000008944454));
#580=CARTESIAN_POINT('',(1154.68496230897,-1493.43028503936,0.0625000008944454));
#581=CARTESIAN_POINT('',(1154.68496230897,-1493.43028503936,0.250000000894445));
#582=CARTESIAN_POINT('',(1154.68496230897,-1495.18028503936,0.250000000894445));
#583=CARTESIAN_POINT('',(1154.68496230897,-1494.30528503936,0.250000000894445));
#584=CARTESIAN_POINT('',(1154.68496230897,-1493.43028503936,0.250000000894445));
#585=CARTESIAN_POINT('',(1154.68496230897,-1493.43028503936,0.0625000008944454));
#586=CARTESIAN_POINT('',(1154.68496230897,-1493.30528503936,0.0625000008944454));
#587=CARTESIAN_POINT('',(1154.55996230897,-1493.30528503936,0.0625000008944454));
#588=CARTESIAN_POINT('',(1154.55996230897,-1493.30528503936,0.0625000008944454));
#589=CARTESIAN_POINT('',(1154.55996230897,-1493.30528503936,0.250000000894445));
#590=CARTESIAN_POINT('',(1154.68496230897,-1493.43028503936,0.250000000894445));
#591=CARTESIAN_POINT('',(1154.68496230897,-1493.30528503936,0.250000000894445));
#592=CARTESIAN_POINT('',(1154.55996230897,-1493.30528503936,0.250000000894445));
#593=CARTESIAN_POINT('',(1154.55996230897,-1493.30528503936,0.0625000008944454));
#594=CARTESIAN_POINT('',(1152.78896230897,-1493.30528503936,0.0625000008944454));
#595=CARTESIAN_POINT('',(1151.01796230897,-1493.30528503936,0.0625000008944454));
#596=CARTESIAN_POINT('',(1151.01796230897,-1493.30528503936,0.0625000008944454));
#597=CARTESIAN_POINT('',(1151.01796230897,-1493.30528503936,0.250000000894445));
#598=CARTESIAN_POINT('',(1154.55996230897,-1493.30528503936,0.250000000894445));
#599=CARTESIAN_POINT('',(1152.78896230897,-1493.30528503936,0.250000000894445));
#600=CARTESIAN_POINT('',(1151.01796230897,-1493.30528503936,0.250000000894445));
#601=CARTESIAN_POINT('',(1151.01796230897,-1493.30528503936,0.0625000008944454));
#602=CARTESIAN_POINT('',(1151.01796230897,-1493.43028503936,0.0625000008944454));
#603=CARTESIAN_POINT('',(1151.01796230897,-1493.55528503937,0.0625000008944454));
#604=CARTESIAN_POINT('',(1151.01796230897,-1493.55528503937,0.0625000008944454));
#605=CARTESIAN_POINT('',(1151.01796230897,-1493.55528503937,0.250000000894445));
#606=CARTESIAN_POINT('',(1151.01796230897,-1493.30528503936,0.250000000894445));
#607=CARTESIAN_POINT('',(1151.01796230897,-1493.43028503936,0.250000000894445));
#608=CARTESIAN_POINT('',(1151.01796230897,-1493.55528503937,0.250000000894445));
#609=CARTESIAN_POINT('',(1151.72696230897,-1493.55528503936,0.0625000008944454));
#610=CARTESIAN_POINT('',(1151.72696230897,-1493.55528503936,0.250000000894445));
#611=CARTESIAN_POINT('',(1151.72696230897,-1493.55528503936,0.0625000008944454));
#612=CARTESIAN_POINT('',(1151.72696230897,-1495.05528503936,0.0625000008944454));
#613=CARTESIAN_POINT('',(1151.72696230897,-1495.05528503936,0.0625000008944454));
#614=CARTESIAN_POINT('',(1151.72696230897,-1495.05528503936,0.250000000894445));
#615=CARTESIAN_POINT('',(1151.72696230897,-1493.55528503936,0.250000000894445));
#616=CARTESIAN_POINT('',(1151.72696230897,-1495.05528503936,0.250000000894445));
#617=CARTESIAN_POINT('',(1153.77871230897,-1494.30528503936,0.0625000008944454));
#618=CARTESIAN_POINT('',(1153.77871230897,-1494.14903503936,0.0625000008944454));
#619=CARTESIAN_POINT('',(1153.93496230897,-1494.14903503936,0.0625000008944454));
#620=CARTESIAN_POINT('',(1154.09121230897,-1494.14903503936,0.0625000008944454));
#621=CARTESIAN_POINT('',(1154.09121230897,-1494.30528503936,0.0625000008944454));
#622=CARTESIAN_POINT('',(1153.77871230897,-1494.30528503936,0.0625000008944454));
#623=CARTESIAN_POINT('',(1153.77871230897,-1494.30528503936,0.250000000894445));
#624=CARTESIAN_POINT('',(1153.77871230897,-1494.30528503936,0.250000000894445));
#625=CARTESIAN_POINT('',(1153.77871230897,-1494.14903503936,0.250000000894445));
#626=CARTESIAN_POINT('',(1153.93496230897,-1494.14903503936,0.250000000894445));
#627=CARTESIAN_POINT('',(1154.09121230897,-1494.14903503936,0.250000000894445));
#628=CARTESIAN_POINT('',(1154.09121230897,-1494.30528503936,0.250000000894445));
#629=CARTESIAN_POINT('',(1152.77871230897,-1494.30528503936,0.0625000008944454));
#630=CARTESIAN_POINT('',(1152.77871230897,-1494.14903503936,0.0625000008944454));
#631=CARTESIAN_POINT('',(1152.93496230897,-1494.14903503936,0.0625000008944454));
#632=CARTESIAN_POINT('',(1153.09121230897,-1494.14903503936,0.0625000008944454));
#633=CARTESIAN_POINT('',(1153.09121230897,-1494.30528503936,0.0625000008944454));
#634=CARTESIAN_POINT('',(1152.77871230897,-1494.30528503936,0.0625000008944454));
#635=CARTESIAN_POINT('',(1152.77871230897,-1494.30528503936,0.250000000894445));
#636=CARTESIAN_POINT('',(1152.77871230897,-1494.30528503936,0.250000000894445));
#637=CARTESIAN_POINT('',(1152.77871230897,-1494.14903503936,0.250000000894445));
#638=CARTESIAN_POINT('',(1152.93496230897,-1494.14903503936,0.250000000894445));
#639=CARTESIAN_POINT('',(1153.09121230897,-1494.14903503936,0.250000000894445));
#640=CARTESIAN_POINT('',(1153.09121230897,-1494.30528503936,0.250000000894445));
#641=CARTESIAN_POINT('',(1151.26796230898,-1493.55528503933,0.0625000008944454));
#642=CARTESIAN_POINT('',(1151.26796230898,-1495.05528503936,0.0625000008944454));
#643=CARTESIAN_POINT('',(1151.26796230898,-1493.55528503933,0.250000000894445));
#644=CARTESIAN_POINT('',(1151.26796230898,-1495.05528503936,0.250000000894446));
#645=CARTESIAN_POINT('',(1151.26796230898,-1495.05528503936,0.0625000008944454));
#646=CARTESIAN_POINT('',(1151.26796230898,-1495.05528503936,0.250000000894446));
#647=CARTESIAN_POINT('',(1151.26796230898,-1493.55528503933,0.0625000008944454));
#648=CARTESIAN_POINT('',(1151.26796230898,-1493.55528503933,0.250000000894445));
#649=CARTESIAN_POINT('',(1151.26796230898,-1495.05528503936,0.0625000008944454));
#650=CARTESIAN_POINT('',(1151.23671230902,-1495.05528503935,0.0625000008944454));
#651=CARTESIAN_POINT('',(1151.20546230906,-1495.05528503935,0.0625000008944454));
#652=CARTESIAN_POINT('',(1151.11171230906,-1495.05528503936,0.0625000008944454));
#653=CARTESIAN_POINT('',(1151.01796230906,-1495.05528503937,0.0625000008944454));
#654=CARTESIAN_POINT('',(1151.26796230898,-1495.05528503936,0.250000000894446));
#655=CARTESIAN_POINT('',(1151.23671230902,-1495.05528503935,0.250000000894446));
#656=CARTESIAN_POINT('',(1151.20546230906,-1495.05528503935,0.250000000894445));
#657=CARTESIAN_POINT('',(1151.11171230906,-1495.05528503936,0.250000000894445));
#658=CARTESIAN_POINT('',(1151.01796230906,-1495.05528503937,0.250000000894445));
#659=CARTESIAN_POINT('',(1151.01796230897,-1493.55528503937,0.0625000008944454));
#660=CARTESIAN_POINT('',(1151.11171230892,-1493.55528503936,0.0625000008944454));
#661=CARTESIAN_POINT('',(1151.20546230888,-1493.55528503935,0.0625000008944454));
#662=CARTESIAN_POINT('',(1151.23671230893,-1493.55528503934,0.0625000008944454));
#663=CARTESIAN_POINT('',(1151.26796230898,-1493.55528503933,0.0625000008944454));
#664=CARTESIAN_POINT('',(1151.01796230897,-1493.55528503937,0.250000000894445));
#665=CARTESIAN_POINT('',(1151.11171230892,-1493.55528503936,0.250000000894445));
#666=CARTESIAN_POINT('',(1151.20546230888,-1493.55528503935,0.250000000894445));
#667=CARTESIAN_POINT('',(1151.23671230893,-1493.55528503934,0.250000000894445));
#668=CARTESIAN_POINT('',(1151.26796230898,-1493.55528503933,0.250000000894445));
#669=CARTESIAN_POINT('',(1151.47696230879,-1495.05528503933,0.0625000008944454));
#670=CARTESIAN_POINT('',(1151.47696230897,-1493.55528503933,0.0625000008944454));
#671=CARTESIAN_POINT('',(1151.47696230879,-1495.05528503933,0.250000000894446));
#672=CARTESIAN_POINT('',(1151.47696230897,-1493.55528503933,0.250000000894445));
#673=CARTESIAN_POINT('',(1151.47696230879,-1495.05528503933,0.0625000008944454));
#674=CARTESIAN_POINT('',(1151.47696230879,-1495.05528503933,0.250000000894446));
#675=CARTESIAN_POINT('',(1151.47696230897,-1493.55528503933,0.0625000008944454));
#676=CARTESIAN_POINT('',(1151.47696230897,-1493.55528503933,0.250000000894445));
#677=CARTESIAN_POINT('',(1151.47696230897,-1493.55528503933,0.0625000008944454));
#678=CARTESIAN_POINT('',(1151.53946230808,-1493.55528503927,0.0625000008944454));
#679=CARTESIAN_POINT('',(1151.72696230897,-1493.55528503936,0.0625000008944454));
#680=CARTESIAN_POINT('',(1151.47696230897,-1493.55528503933,0.250000000894445));
#681=CARTESIAN_POINT('',(1151.53946230808,-1493.55528503927,0.250000000894445));
#682=CARTESIAN_POINT('',(1151.72696230897,-1493.55528503936,0.250000000894445));
#683=CARTESIAN_POINT('',(1151.72696230897,-1495.05528503936,0.0625000008944454));
#684=CARTESIAN_POINT('',(1151.53946230808,-1495.05528503927,0.0625000008944454));
#685=CARTESIAN_POINT('',(1151.47696230879,-1495.05528503933,0.0625000008944454));
#686=CARTESIAN_POINT('',(1151.72696230897,-1495.05528503936,0.250000000894445));
#687=CARTESIAN_POINT('',(1151.53946230808,-1495.05528503927,0.250000000894445));
#688=CARTESIAN_POINT('',(1151.47696230879,-1495.05528503933,0.250000000894446));
#689=CARTESIAN_POINT('',(1154.09121230897,-1494.30528503936,0.0625000008944454));
#690=CARTESIAN_POINT('',(1154.09121230897,-1494.30528503936,0.250000000894445));
#691=CARTESIAN_POINT('',(1154.09121230897,-1494.30528503936,0.0625000008944454));
#692=CARTESIAN_POINT('',(1154.09121230897,-1494.46153503936,0.0625000008944454));
#693=CARTESIAN_POINT('',(1153.93496230897,-1494.46153503936,0.0625000008944454));
#694=CARTESIAN_POINT('',(1153.77871230897,-1494.46153503936,0.0625000008944454));
#695=CARTESIAN_POINT('',(1153.77871230897,-1494.30528503936,0.0625000008944454));
#696=CARTESIAN_POINT('',(1154.09121230897,-1494.30528503936,0.250000000894445));
#697=CARTESIAN_POINT('',(1154.09121230897,-1494.46153503936,0.250000000894445));
#698=CARTESIAN_POINT('',(1153.93496230897,-1494.46153503936,0.250000000894445));
#699=CARTESIAN_POINT('',(1153.77871230897,-1494.46153503936,0.250000000894445));
#700=CARTESIAN_POINT('',(1153.77871230897,-1494.30528503936,0.250000000894445));
#701=CARTESIAN_POINT('',(1153.09121230897,-1494.30528503936,0.0625000008944454));
#702=CARTESIAN_POINT('',(1153.09121230897,-1494.30528503936,0.250000000894445));
#703=CARTESIAN_POINT('',(1153.09121230897,-1494.30528503936,0.0625000008944454));
#704=CARTESIAN_POINT('',(1153.09121230897,-1494.46153503936,0.0625000008944454));
#705=CARTESIAN_POINT('',(1152.93496230897,-1494.46153503936,0.0625000008944454));
#706=CARTESIAN_POINT('',(1152.77871230897,-1494.46153503936,0.0625000008944454));
#707=CARTESIAN_POINT('',(1152.77871230897,-1494.30528503936,0.0625000008944454));
#708=CARTESIAN_POINT('',(1153.09121230897,-1494.30528503936,0.250000000894445));
#709=CARTESIAN_POINT('',(1153.09121230897,-1494.46153503936,0.250000000894445));
#710=CARTESIAN_POINT('',(1152.93496230897,-1494.46153503936,0.250000000894445));
#711=CARTESIAN_POINT('',(1152.77871230897,-1494.46153503936,0.250000000894445));
#712=CARTESIAN_POINT('',(1152.77871230897,-1494.30528503936,0.250000000894445));
#713=CARTESIAN_POINT('',(0.,0.,0.));
ENDSEC;
END-ISO-10303-21;
