ISO-10303-21;
HEADER;
/* Generated by software containing ST-Developer
 * from STEP Tools, Inc. (www.steptools.com) 
 */
/* OPTION: using custom schema-name function */

FILE_DESCRIPTION(
/* description */ (''),
/* implementation_level */ '2;1');

FILE_NAME(
/* name */ 'Shear Block Type A x16',
/* time_stamp */ '2024-03-03T17:23:14-06:00',
/* author */ (''),
/* organization */ (''),
/* preprocessor_version */ 'ST-DEVELOPER v19.2',
/* originating_system */ 'Rhino 8.4',
/* authorisation */ '');

FILE_SCHEMA (('CONFIG_CONTROL_DESIGN'));
ENDSEC;

DATA;
#10=SHAPE_REPRESENTATION_RELATIONSHIP('','',#439,#12);
#11=MANIFOLD_SOLID_BREP('brep_1',#13);
#12=ADVANCED_BREP_SHAPE_REPRESENTATION('brep_rep_0',(#11,#483),#438);
#13=CLOSED_SHELL('',(#22,#23,#24,#25,#26,#27,#28,#29,#30,#31,#32,#33,#34,
#35,#36,#37,#38,#39));
#14=FACE_BOUND('',#67,.T.);
#15=FACE_BOUND('',#68,.T.);
#16=FACE_BOUND('',#69,.T.);
#17=FACE_BOUND('',#70,.T.);
#18=FACE_BOUND('',#72,.T.);
#19=FACE_BOUND('',#73,.T.);
#20=FACE_BOUND('',#74,.T.);
#21=FACE_BOUND('',#75,.T.);
#22=ADVANCED_FACE('',(#40),#338,.T.);
#23=ADVANCED_FACE('',(#41),#332,.T.);
#24=ADVANCED_FACE('',(#42),#339,.T.);
#25=ADVANCED_FACE('',(#43),#333,.T.);
#26=ADVANCED_FACE('',(#44),#340,.T.);
#27=ADVANCED_FACE('',(#45),#334,.T.);
#28=ADVANCED_FACE('',(#46),#341,.T.);
#29=ADVANCED_FACE('',(#47),#335,.T.);
#30=ADVANCED_FACE('',(#48,#14,#15,#16,#17),#336,.T.);
#31=ADVANCED_FACE('',(#49,#18,#19,#20,#21),#337,.T.);
#32=ADVANCED_FACE('',(#50),#342,.F.);
#33=ADVANCED_FACE('',(#51),#343,.F.);
#34=ADVANCED_FACE('',(#52),#344,.F.);
#35=ADVANCED_FACE('',(#53),#345,.F.);
#36=ADVANCED_FACE('',(#54),#346,.F.);
#37=ADVANCED_FACE('',(#55),#347,.F.);
#38=ADVANCED_FACE('',(#56),#348,.F.);
#39=ADVANCED_FACE('',(#57),#349,.F.);
#40=FACE_OUTER_BOUND('',#58,.T.);
#41=FACE_OUTER_BOUND('',#59,.T.);
#42=FACE_OUTER_BOUND('',#60,.T.);
#43=FACE_OUTER_BOUND('',#61,.T.);
#44=FACE_OUTER_BOUND('',#62,.T.);
#45=FACE_OUTER_BOUND('',#63,.T.);
#46=FACE_OUTER_BOUND('',#64,.T.);
#47=FACE_OUTER_BOUND('',#65,.T.);
#48=FACE_OUTER_BOUND('',#66,.T.);
#49=FACE_OUTER_BOUND('',#71,.T.);
#50=FACE_OUTER_BOUND('',#76,.T.);
#51=FACE_OUTER_BOUND('',#77,.T.);
#52=FACE_OUTER_BOUND('',#78,.T.);
#53=FACE_OUTER_BOUND('',#79,.T.);
#54=FACE_OUTER_BOUND('',#80,.T.);
#55=FACE_OUTER_BOUND('',#81,.T.);
#56=FACE_OUTER_BOUND('',#82,.T.);
#57=FACE_OUTER_BOUND('',#83,.T.);
#58=EDGE_LOOP('',(#84,#85,#86,#87));
#59=EDGE_LOOP('',(#88,#89,#90,#91));
#60=EDGE_LOOP('',(#92,#93,#94,#95));
#61=EDGE_LOOP('',(#96,#97,#98,#99));
#62=EDGE_LOOP('',(#100,#101,#102,#103));
#63=EDGE_LOOP('',(#104,#105,#106,#107));
#64=EDGE_LOOP('',(#108,#109,#110,#111));
#65=EDGE_LOOP('',(#112,#113,#114,#115));
#66=EDGE_LOOP('',(#116,#117,#118,#119,#120,#121,#122,#123));
#67=EDGE_LOOP('',(#124,#125));
#68=EDGE_LOOP('',(#126,#127));
#69=EDGE_LOOP('',(#128,#129));
#70=EDGE_LOOP('',(#130,#131));
#71=EDGE_LOOP('',(#132,#133,#134,#135,#136,#137,#138,#139));
#72=EDGE_LOOP('',(#140,#141));
#73=EDGE_LOOP('',(#142,#143));
#74=EDGE_LOOP('',(#144,#145));
#75=EDGE_LOOP('',(#146,#147));
#76=EDGE_LOOP('',(#148,#149,#150,#151));
#77=EDGE_LOOP('',(#152,#153,#154,#155));
#78=EDGE_LOOP('',(#156,#157,#158,#159));
#79=EDGE_LOOP('',(#160,#161,#162,#163));
#80=EDGE_LOOP('',(#164,#165,#166,#167));
#81=EDGE_LOOP('',(#168,#169,#170,#171));
#82=EDGE_LOOP('',(#172,#173,#174,#175));
#83=EDGE_LOOP('',(#176,#177,#178,#179));
#84=ORIENTED_EDGE('',*,*,#180,.T.);
#85=ORIENTED_EDGE('',*,*,#181,.T.);
#86=ORIENTED_EDGE('',*,*,#182,.F.);
#87=ORIENTED_EDGE('',*,*,#183,.F.);
#88=ORIENTED_EDGE('',*,*,#184,.T.);
#89=ORIENTED_EDGE('',*,*,#185,.T.);
#90=ORIENTED_EDGE('',*,*,#186,.F.);
#91=ORIENTED_EDGE('',*,*,#181,.F.);
#92=ORIENTED_EDGE('',*,*,#187,.T.);
#93=ORIENTED_EDGE('',*,*,#188,.T.);
#94=ORIENTED_EDGE('',*,*,#189,.F.);
#95=ORIENTED_EDGE('',*,*,#185,.F.);
#96=ORIENTED_EDGE('',*,*,#190,.T.);
#97=ORIENTED_EDGE('',*,*,#191,.T.);
#98=ORIENTED_EDGE('',*,*,#192,.F.);
#99=ORIENTED_EDGE('',*,*,#188,.F.);
#100=ORIENTED_EDGE('',*,*,#193,.T.);
#101=ORIENTED_EDGE('',*,*,#194,.T.);
#102=ORIENTED_EDGE('',*,*,#195,.F.);
#103=ORIENTED_EDGE('',*,*,#191,.F.);
#104=ORIENTED_EDGE('',*,*,#196,.T.);
#105=ORIENTED_EDGE('',*,*,#197,.T.);
#106=ORIENTED_EDGE('',*,*,#198,.F.);
#107=ORIENTED_EDGE('',*,*,#194,.F.);
#108=ORIENTED_EDGE('',*,*,#199,.T.);
#109=ORIENTED_EDGE('',*,*,#200,.T.);
#110=ORIENTED_EDGE('',*,*,#201,.F.);
#111=ORIENTED_EDGE('',*,*,#197,.F.);
#112=ORIENTED_EDGE('',*,*,#202,.T.);
#113=ORIENTED_EDGE('',*,*,#183,.T.);
#114=ORIENTED_EDGE('',*,*,#203,.F.);
#115=ORIENTED_EDGE('',*,*,#200,.F.);
#116=ORIENTED_EDGE('',*,*,#202,.F.);
#117=ORIENTED_EDGE('',*,*,#199,.F.);
#118=ORIENTED_EDGE('',*,*,#196,.F.);
#119=ORIENTED_EDGE('',*,*,#193,.F.);
#120=ORIENTED_EDGE('',*,*,#190,.F.);
#121=ORIENTED_EDGE('',*,*,#187,.F.);
#122=ORIENTED_EDGE('',*,*,#184,.F.);
#123=ORIENTED_EDGE('',*,*,#180,.F.);
#124=ORIENTED_EDGE('',*,*,#217,.F.);
#125=ORIENTED_EDGE('',*,*,#204,.F.);
#126=ORIENTED_EDGE('',*,*,#220,.F.);
#127=ORIENTED_EDGE('',*,*,#207,.F.);
#128=ORIENTED_EDGE('',*,*,#223,.F.);
#129=ORIENTED_EDGE('',*,*,#210,.F.);
#130=ORIENTED_EDGE('',*,*,#226,.F.);
#131=ORIENTED_EDGE('',*,*,#213,.F.);
#132=ORIENTED_EDGE('',*,*,#182,.T.);
#133=ORIENTED_EDGE('',*,*,#186,.T.);
#134=ORIENTED_EDGE('',*,*,#189,.T.);
#135=ORIENTED_EDGE('',*,*,#192,.T.);
#136=ORIENTED_EDGE('',*,*,#195,.T.);
#137=ORIENTED_EDGE('',*,*,#198,.T.);
#138=ORIENTED_EDGE('',*,*,#201,.T.);
#139=ORIENTED_EDGE('',*,*,#203,.T.);
#140=ORIENTED_EDGE('',*,*,#205,.T.);
#141=ORIENTED_EDGE('',*,*,#218,.T.);
#142=ORIENTED_EDGE('',*,*,#208,.T.);
#143=ORIENTED_EDGE('',*,*,#221,.T.);
#144=ORIENTED_EDGE('',*,*,#211,.T.);
#145=ORIENTED_EDGE('',*,*,#224,.T.);
#146=ORIENTED_EDGE('',*,*,#214,.T.);
#147=ORIENTED_EDGE('',*,*,#227,.T.);
#148=ORIENTED_EDGE('',*,*,#217,.T.);
#149=ORIENTED_EDGE('',*,*,#206,.T.);
#150=ORIENTED_EDGE('',*,*,#218,.F.);
#151=ORIENTED_EDGE('',*,*,#216,.F.);
#152=ORIENTED_EDGE('',*,*,#220,.T.);
#153=ORIENTED_EDGE('',*,*,#209,.T.);
#154=ORIENTED_EDGE('',*,*,#221,.F.);
#155=ORIENTED_EDGE('',*,*,#219,.F.);
#156=ORIENTED_EDGE('',*,*,#223,.T.);
#157=ORIENTED_EDGE('',*,*,#212,.T.);
#158=ORIENTED_EDGE('',*,*,#224,.F.);
#159=ORIENTED_EDGE('',*,*,#222,.F.);
#160=ORIENTED_EDGE('',*,*,#226,.T.);
#161=ORIENTED_EDGE('',*,*,#215,.T.);
#162=ORIENTED_EDGE('',*,*,#227,.F.);
#163=ORIENTED_EDGE('',*,*,#225,.F.);
#164=ORIENTED_EDGE('',*,*,#216,.T.);
#165=ORIENTED_EDGE('',*,*,#205,.F.);
#166=ORIENTED_EDGE('',*,*,#206,.F.);
#167=ORIENTED_EDGE('',*,*,#204,.T.);
#168=ORIENTED_EDGE('',*,*,#219,.T.);
#169=ORIENTED_EDGE('',*,*,#208,.F.);
#170=ORIENTED_EDGE('',*,*,#209,.F.);
#171=ORIENTED_EDGE('',*,*,#207,.T.);
#172=ORIENTED_EDGE('',*,*,#222,.T.);
#173=ORIENTED_EDGE('',*,*,#211,.F.);
#174=ORIENTED_EDGE('',*,*,#212,.F.);
#175=ORIENTED_EDGE('',*,*,#210,.T.);
#176=ORIENTED_EDGE('',*,*,#225,.T.);
#177=ORIENTED_EDGE('',*,*,#214,.F.);
#178=ORIENTED_EDGE('',*,*,#215,.F.);
#179=ORIENTED_EDGE('',*,*,#213,.T.);
#180=EDGE_CURVE('',#300,#301,#252,.T.);
#181=EDGE_CURVE('',#301,#302,#228,.T.);
#182=EDGE_CURVE('',#303,#302,#253,.T.);
#183=EDGE_CURVE('',#300,#303,#229,.T.);
#184=EDGE_CURVE('',#301,#304,#230,.T.);
#185=EDGE_CURVE('',#304,#305,#231,.T.);
#186=EDGE_CURVE('',#302,#305,#232,.T.);
#187=EDGE_CURVE('',#304,#306,#254,.T.);
#188=EDGE_CURVE('',#306,#307,#233,.T.);
#189=EDGE_CURVE('',#305,#307,#255,.T.);
#190=EDGE_CURVE('',#306,#308,#234,.T.);
#191=EDGE_CURVE('',#308,#309,#235,.T.);
#192=EDGE_CURVE('',#307,#309,#236,.T.);
#193=EDGE_CURVE('',#308,#310,#256,.T.);
#194=EDGE_CURVE('',#310,#311,#237,.T.);
#195=EDGE_CURVE('',#309,#311,#257,.T.);
#196=EDGE_CURVE('',#310,#312,#238,.T.);
#197=EDGE_CURVE('',#312,#313,#239,.T.);
#198=EDGE_CURVE('',#311,#313,#240,.T.);
#199=EDGE_CURVE('',#312,#314,#258,.T.);
#200=EDGE_CURVE('',#314,#315,#241,.T.);
#201=EDGE_CURVE('',#313,#315,#259,.T.);
#202=EDGE_CURVE('',#314,#300,#242,.T.);
#203=EDGE_CURVE('',#315,#303,#243,.T.);
#204=EDGE_CURVE('',#316,#324,#260,.T.);
#205=EDGE_CURVE('',#317,#325,#261,.T.);
#206=EDGE_CURVE('',#316,#317,#244,.T.);
#207=EDGE_CURVE('',#318,#326,#262,.T.);
#208=EDGE_CURVE('',#319,#327,#263,.T.);
#209=EDGE_CURVE('',#318,#319,#245,.T.);
#210=EDGE_CURVE('',#320,#328,#264,.T.);
#211=EDGE_CURVE('',#321,#329,#265,.T.);
#212=EDGE_CURVE('',#320,#321,#246,.T.);
#213=EDGE_CURVE('',#322,#330,#266,.T.);
#214=EDGE_CURVE('',#323,#331,#267,.T.);
#215=EDGE_CURVE('',#322,#323,#247,.T.);
#216=EDGE_CURVE('',#324,#325,#248,.T.);
#217=EDGE_CURVE('',#324,#316,#268,.T.);
#218=EDGE_CURVE('',#325,#317,#269,.T.);
#219=EDGE_CURVE('',#326,#327,#249,.T.);
#220=EDGE_CURVE('',#326,#318,#270,.T.);
#221=EDGE_CURVE('',#327,#319,#271,.T.);
#222=EDGE_CURVE('',#328,#329,#250,.T.);
#223=EDGE_CURVE('',#328,#320,#272,.T.);
#224=EDGE_CURVE('',#329,#321,#273,.T.);
#225=EDGE_CURVE('',#330,#331,#251,.T.);
#226=EDGE_CURVE('',#330,#322,#274,.T.);
#227=EDGE_CURVE('',#331,#323,#275,.T.);
#228=(
BOUNDED_CURVE()
B_SPLINE_CURVE(1,(#608,#609),.UNSPECIFIED.,.F.,.F.)
B_SPLINE_CURVE_WITH_KNOTS((2,2),(0.,0.25),.UNSPECIFIED.)
CURVE()
GEOMETRIC_REPRESENTATION_ITEM()
RATIONAL_B_SPLINE_CURVE((1.,1.))
REPRESENTATION_ITEM('')
);
#229=(
BOUNDED_CURVE()
B_SPLINE_CURVE(1,(#613,#614),.UNSPECIFIED.,.F.,.F.)
B_SPLINE_CURVE_WITH_KNOTS((2,2),(0.,0.25),.UNSPECIFIED.)
CURVE()
GEOMETRIC_REPRESENTATION_ITEM()
RATIONAL_B_SPLINE_CURVE((1.,1.))
REPRESENTATION_ITEM('')
);
#230=(
BOUNDED_CURVE()
B_SPLINE_CURVE(2,(#615,#616,#617),.UNSPECIFIED.,.F.,.F.)
B_SPLINE_CURVE_WITH_KNOTS((3,3),(0.196349540849362,4.94634954084936),
 .UNSPECIFIED.)
CURVE()
GEOMETRIC_REPRESENTATION_ITEM()
RATIONAL_B_SPLINE_CURVE((1.,1.,1.))
REPRESENTATION_ITEM('')
);
#231=(
BOUNDED_CURVE()
B_SPLINE_CURVE(1,(#618,#619),.UNSPECIFIED.,.F.,.F.)
B_SPLINE_CURVE_WITH_KNOTS((2,2),(0.,0.25),.UNSPECIFIED.)
CURVE()
GEOMETRIC_REPRESENTATION_ITEM()
RATIONAL_B_SPLINE_CURVE((1.,1.))
REPRESENTATION_ITEM('')
);
#232=(
BOUNDED_CURVE()
B_SPLINE_CURVE(2,(#620,#621,#622),.UNSPECIFIED.,.F.,.F.)
B_SPLINE_CURVE_WITH_KNOTS((3,3),(0.196349540849362,4.94634954084936),
 .UNSPECIFIED.)
CURVE()
GEOMETRIC_REPRESENTATION_ITEM()
RATIONAL_B_SPLINE_CURVE((1.,1.,1.))
REPRESENTATION_ITEM('')
);
#233=(
BOUNDED_CURVE()
B_SPLINE_CURVE(1,(#626,#627),.UNSPECIFIED.,.F.,.F.)
B_SPLINE_CURVE_WITH_KNOTS((2,2),(0.,0.25),.UNSPECIFIED.)
CURVE()
GEOMETRIC_REPRESENTATION_ITEM()
RATIONAL_B_SPLINE_CURVE((1.,1.))
REPRESENTATION_ITEM('')
);
#234=(
BOUNDED_CURVE()
B_SPLINE_CURVE(2,(#631,#632,#633),.UNSPECIFIED.,.F.,.F.)
B_SPLINE_CURVE_WITH_KNOTS((3,3),(5.14269908169872,6.89269908169872),
 .UNSPECIFIED.)
CURVE()
GEOMETRIC_REPRESENTATION_ITEM()
RATIONAL_B_SPLINE_CURVE((1.,1.,1.))
REPRESENTATION_ITEM('')
);
#235=(
BOUNDED_CURVE()
B_SPLINE_CURVE(1,(#634,#635),.UNSPECIFIED.,.F.,.F.)
B_SPLINE_CURVE_WITH_KNOTS((2,2),(0.,0.25),.UNSPECIFIED.)
CURVE()
GEOMETRIC_REPRESENTATION_ITEM()
RATIONAL_B_SPLINE_CURVE((1.,1.))
REPRESENTATION_ITEM('')
);
#236=(
BOUNDED_CURVE()
B_SPLINE_CURVE(2,(#636,#637,#638),.UNSPECIFIED.,.F.,.F.)
B_SPLINE_CURVE_WITH_KNOTS((3,3),(5.14269908169872,6.89269908169872),
 .UNSPECIFIED.)
CURVE()
GEOMETRIC_REPRESENTATION_ITEM()
RATIONAL_B_SPLINE_CURVE((1.,1.,1.))
REPRESENTATION_ITEM('')
);
#237=(
BOUNDED_CURVE()
B_SPLINE_CURVE(1,(#642,#643),.UNSPECIFIED.,.F.,.F.)
B_SPLINE_CURVE_WITH_KNOTS((2,2),(0.,0.25),.UNSPECIFIED.)
CURVE()
GEOMETRIC_REPRESENTATION_ITEM()
RATIONAL_B_SPLINE_CURVE((1.,1.))
REPRESENTATION_ITEM('')
);
#238=(
BOUNDED_CURVE()
B_SPLINE_CURVE(2,(#647,#648,#649),.UNSPECIFIED.,.F.,.F.)
B_SPLINE_CURVE_WITH_KNOTS((3,3),(7.08904862254809,11.8390486225481),
 .UNSPECIFIED.)
CURVE()
GEOMETRIC_REPRESENTATION_ITEM()
RATIONAL_B_SPLINE_CURVE((1.,1.,1.))
REPRESENTATION_ITEM('')
);
#239=(
BOUNDED_CURVE()
B_SPLINE_CURVE(1,(#650,#651),.UNSPECIFIED.,.F.,.F.)
B_SPLINE_CURVE_WITH_KNOTS((2,2),(0.,0.25),.UNSPECIFIED.)
CURVE()
GEOMETRIC_REPRESENTATION_ITEM()
RATIONAL_B_SPLINE_CURVE((1.,1.))
REPRESENTATION_ITEM('')
);
#240=(
BOUNDED_CURVE()
B_SPLINE_CURVE(2,(#652,#653,#654),.UNSPECIFIED.,.F.,.F.)
B_SPLINE_CURVE_WITH_KNOTS((3,3),(7.08904862254809,11.8390486225481),
 .UNSPECIFIED.)
CURVE()
GEOMETRIC_REPRESENTATION_ITEM()
RATIONAL_B_SPLINE_CURVE((1.,1.,1.))
REPRESENTATION_ITEM('')
);
#241=(
BOUNDED_CURVE()
B_SPLINE_CURVE(1,(#658,#659),.UNSPECIFIED.,.F.,.F.)
B_SPLINE_CURVE_WITH_KNOTS((2,2),(0.,0.25),.UNSPECIFIED.)
CURVE()
GEOMETRIC_REPRESENTATION_ITEM()
RATIONAL_B_SPLINE_CURVE((1.,1.))
REPRESENTATION_ITEM('')
);
#242=(
BOUNDED_CURVE()
B_SPLINE_CURVE(2,(#663,#664,#665),.UNSPECIFIED.,.F.,.F.)
B_SPLINE_CURVE_WITH_KNOTS((3,3),(12.0353981633974,13.7853981633974),
 .UNSPECIFIED.)
CURVE()
GEOMETRIC_REPRESENTATION_ITEM()
RATIONAL_B_SPLINE_CURVE((1.,1.,1.))
REPRESENTATION_ITEM('')
);
#243=(
BOUNDED_CURVE()
B_SPLINE_CURVE(2,(#666,#667,#668),.UNSPECIFIED.,.F.,.F.)
B_SPLINE_CURVE_WITH_KNOTS((3,3),(12.0353981633974,13.7853981633974),
 .UNSPECIFIED.)
CURVE()
GEOMETRIC_REPRESENTATION_ITEM()
RATIONAL_B_SPLINE_CURVE((1.,1.,1.))
REPRESENTATION_ITEM('')
);
#244=(
BOUNDED_CURVE()
B_SPLINE_CURVE(1,(#675,#676),.UNSPECIFIED.,.F.,.F.)
B_SPLINE_CURVE_WITH_KNOTS((2,2),(4.99999999999999,5.25),.UNSPECIFIED.)
CURVE()
GEOMETRIC_REPRESENTATION_ITEM()
RATIONAL_B_SPLINE_CURVE((1.,1.))
REPRESENTATION_ITEM('')
);
#245=(
BOUNDED_CURVE()
B_SPLINE_CURVE(1,(#683,#684),.UNSPECIFIED.,.F.,.F.)
B_SPLINE_CURVE_WITH_KNOTS((2,2),(4.87499999999904,5.12499999999904),
 .UNSPECIFIED.)
CURVE()
GEOMETRIC_REPRESENTATION_ITEM()
RATIONAL_B_SPLINE_CURVE((1.,1.))
REPRESENTATION_ITEM('')
);
#246=(
BOUNDED_CURVE()
B_SPLINE_CURVE(1,(#691,#692),.UNSPECIFIED.,.F.,.F.)
B_SPLINE_CURVE_WITH_KNOTS((2,2),(4.99999999999999,5.25),.UNSPECIFIED.)
CURVE()
GEOMETRIC_REPRESENTATION_ITEM()
RATIONAL_B_SPLINE_CURVE((1.,1.))
REPRESENTATION_ITEM('')
);
#247=(
BOUNDED_CURVE()
B_SPLINE_CURVE(1,(#699,#700),.UNSPECIFIED.,.F.,.F.)
B_SPLINE_CURVE_WITH_KNOTS((2,2),(4.87499999999904,5.12499999999904),
 .UNSPECIFIED.)
CURVE()
GEOMETRIC_REPRESENTATION_ITEM()
RATIONAL_B_SPLINE_CURVE((1.,1.))
REPRESENTATION_ITEM('')
);
#248=(
BOUNDED_CURVE()
B_SPLINE_CURVE(1,(#701,#702),.UNSPECIFIED.,.F.,.F.)
B_SPLINE_CURVE_WITH_KNOTS((2,2),(4.99999999999999,5.25),.UNSPECIFIED.)
CURVE()
GEOMETRIC_REPRESENTATION_ITEM()
RATIONAL_B_SPLINE_CURVE((1.,1.))
REPRESENTATION_ITEM('')
);
#249=(
BOUNDED_CURVE()
B_SPLINE_CURVE(1,(#709,#710),.UNSPECIFIED.,.F.,.F.)
B_SPLINE_CURVE_WITH_KNOTS((2,2),(4.87499999999905,5.12499999999903),
 .UNSPECIFIED.)
CURVE()
GEOMETRIC_REPRESENTATION_ITEM()
RATIONAL_B_SPLINE_CURVE((1.,1.))
REPRESENTATION_ITEM('')
);
#250=(
BOUNDED_CURVE()
B_SPLINE_CURVE(1,(#717,#718),.UNSPECIFIED.,.F.,.F.)
B_SPLINE_CURVE_WITH_KNOTS((2,2),(4.99999999999999,5.25),.UNSPECIFIED.)
CURVE()
GEOMETRIC_REPRESENTATION_ITEM()
RATIONAL_B_SPLINE_CURVE((1.,1.))
REPRESENTATION_ITEM('')
);
#251=(
BOUNDED_CURVE()
B_SPLINE_CURVE(1,(#725,#726),.UNSPECIFIED.,.F.,.F.)
B_SPLINE_CURVE_WITH_KNOTS((2,2),(4.87499999999905,5.12499999999903),
 .UNSPECIFIED.)
CURVE()
GEOMETRIC_REPRESENTATION_ITEM()
RATIONAL_B_SPLINE_CURVE((1.,1.))
REPRESENTATION_ITEM('')
);
#252=TRIMMED_CURVE($,#276,(#606),(#607),.T.,.CARTESIAN.);
#253=TRIMMED_CURVE($,#277,(#611),(#612),.T.,.CARTESIAN.);
#254=TRIMMED_CURVE($,#278,(#624),(#625),.T.,.CARTESIAN.);
#255=TRIMMED_CURVE($,#279,(#629),(#630),.T.,.CARTESIAN.);
#256=TRIMMED_CURVE($,#280,(#640),(#641),.T.,.CARTESIAN.);
#257=TRIMMED_CURVE($,#281,(#645),(#646),.T.,.CARTESIAN.);
#258=TRIMMED_CURVE($,#282,(#656),(#657),.T.,.CARTESIAN.);
#259=TRIMMED_CURVE($,#283,(#661),(#662),.T.,.CARTESIAN.);
#260=TRIMMED_CURVE($,#284,(#670),(#671),.T.,.CARTESIAN.);
#261=TRIMMED_CURVE($,#285,(#673),(#674),.T.,.CARTESIAN.);
#262=TRIMMED_CURVE($,#286,(#678),(#679),.T.,.CARTESIAN.);
#263=TRIMMED_CURVE($,#287,(#681),(#682),.T.,.CARTESIAN.);
#264=TRIMMED_CURVE($,#288,(#686),(#687),.T.,.CARTESIAN.);
#265=TRIMMED_CURVE($,#289,(#689),(#690),.T.,.CARTESIAN.);
#266=TRIMMED_CURVE($,#290,(#694),(#695),.T.,.CARTESIAN.);
#267=TRIMMED_CURVE($,#291,(#697),(#698),.T.,.CARTESIAN.);
#268=TRIMMED_CURVE($,#292,(#704),(#705),.T.,.CARTESIAN.);
#269=TRIMMED_CURVE($,#293,(#707),(#708),.T.,.CARTESIAN.);
#270=TRIMMED_CURVE($,#294,(#712),(#713),.T.,.CARTESIAN.);
#271=TRIMMED_CURVE($,#295,(#715),(#716),.T.,.CARTESIAN.);
#272=TRIMMED_CURVE($,#296,(#720),(#721),.T.,.CARTESIAN.);
#273=TRIMMED_CURVE($,#297,(#723),(#724),.T.,.CARTESIAN.);
#274=TRIMMED_CURVE($,#298,(#728),(#729),.T.,.CARTESIAN.);
#275=TRIMMED_CURVE($,#299,(#731),(#732),.T.,.CARTESIAN.);
#276=CIRCLE('',#459,0.124999999999659);
#277=CIRCLE('',#460,0.124999999999659);
#278=CIRCLE('',#461,0.125000000000227);
#279=CIRCLE('',#462,0.125000000000227);
#280=CIRCLE('',#463,0.124999999999773);
#281=CIRCLE('',#464,0.124999999999773);
#282=CIRCLE('',#465,0.124999999999773);
#283=CIRCLE('',#466,0.124999999999773);
#284=CIRCLE('',#467,0.0685000000001992);
#285=CIRCLE('',#468,0.0685000000001992);
#286=CIRCLE('',#469,0.0684999999999718);
#287=CIRCLE('',#470,0.0684999999999718);
#288=CIRCLE('',#471,0.0685000000004266);
#289=CIRCLE('',#472,0.0685000000004266);
#290=CIRCLE('',#473,0.0685000000000855);
#291=CIRCLE('',#474,0.0685000000000855);
#292=CIRCLE('',#475,0.0685000000004266);
#293=CIRCLE('',#476,0.0685000000004266);
#294=CIRCLE('',#477,0.0685000000000855);
#295=CIRCLE('',#478,0.0685000000000855);
#296=CIRCLE('',#479,0.0685000000001992);
#297=CIRCLE('',#480,0.0685000000001992);
#298=CIRCLE('',#481,0.0685000000000855);
#299=CIRCLE('',#482,0.0685000000000855);
#300=VERTEX_POINT('',#573);
#301=VERTEX_POINT('',#574);
#302=VERTEX_POINT('',#575);
#303=VERTEX_POINT('',#576);
#304=VERTEX_POINT('',#577);
#305=VERTEX_POINT('',#578);
#306=VERTEX_POINT('',#579);
#307=VERTEX_POINT('',#580);
#308=VERTEX_POINT('',#581);
#309=VERTEX_POINT('',#582);
#310=VERTEX_POINT('',#583);
#311=VERTEX_POINT('',#584);
#312=VERTEX_POINT('',#585);
#313=VERTEX_POINT('',#586);
#314=VERTEX_POINT('',#587);
#315=VERTEX_POINT('',#588);
#316=VERTEX_POINT('',#589);
#317=VERTEX_POINT('',#590);
#318=VERTEX_POINT('',#591);
#319=VERTEX_POINT('',#592);
#320=VERTEX_POINT('',#593);
#321=VERTEX_POINT('',#594);
#322=VERTEX_POINT('',#595);
#323=VERTEX_POINT('',#596);
#324=VERTEX_POINT('',#597);
#325=VERTEX_POINT('',#598);
#326=VERTEX_POINT('',#599);
#327=VERTEX_POINT('',#600);
#328=VERTEX_POINT('',#601);
#329=VERTEX_POINT('',#602);
#330=VERTEX_POINT('',#603);
#331=VERTEX_POINT('',#604);
#332=PLANE('',#442);
#333=PLANE('',#444);
#334=PLANE('',#446);
#335=PLANE('',#448);
#336=PLANE('',#449);
#337=PLANE('',#450);
#338=CYLINDRICAL_SURFACE('',#441,0.124999999999659);
#339=CYLINDRICAL_SURFACE('',#443,0.125000000000227);
#340=CYLINDRICAL_SURFACE('',#445,0.124999999999773);
#341=CYLINDRICAL_SURFACE('',#447,0.124999999999773);
#342=CYLINDRICAL_SURFACE('',#451,0.0685000000003129);
#343=CYLINDRICAL_SURFACE('',#452,0.0685000000000855);
#344=CYLINDRICAL_SURFACE('',#453,0.0685000000000855);
#345=CYLINDRICAL_SURFACE('',#454,0.0685000000000855);
#346=CYLINDRICAL_SURFACE('',#455,0.0685000000000855);
#347=CYLINDRICAL_SURFACE('',#456,0.0685000000001992);
#348=CYLINDRICAL_SURFACE('',#457,0.0685000000003129);
#349=CYLINDRICAL_SURFACE('',#458,0.0685000000000855);
#350=SHAPE_DEFINITION_REPRESENTATION(#351,#439);
#351=PRODUCT_DEFINITION_SHAPE($,$,#353);
#352=PRODUCT_DEFINITION_CONTEXT('3D Mechanical Parts',#425,'design');
#353=PRODUCT_DEFINITION('A','First version',#395,#352);
#354=DATE_TIME_ROLE('classification_date');
#355=DATE_TIME_ROLE('creation_date');
#356=APPLIED_DATE_AND_TIME_ASSIGNMENT(#380,#354,(#359));
#357=APPLIED_DATE_AND_TIME_ASSIGNMENT(#382,#355,(#353));
#358=SECURITY_CLASSIFICATION_LEVEL('unclassified');
#359=SECURITY_CLASSIFICATION('A','Security for version',#358);
#360=APPLIED_SECURITY_CLASSIFICATION_ASSIGNMENT(#359,(#395));
#361=APPROVAL_ROLE('Version approval');
#362=APPROVAL_ROLE('Version Security approval');
#363=APPROVAL_ROLE('Definition approval');
#364=APPROVAL_PERSON_ORGANIZATION(#413,#389,#361);
#365=APPROVAL_PERSON_ORGANIZATION(#414,#390,#362);
#366=APPROVAL_PERSON_ORGANIZATION(#417,#391,#363);
#367=COORDINATED_UNIVERSAL_TIME_OFFSET(5,0,.BEHIND.);
#368=LOCAL_TIME(0,0,0.,#367);
#369=LOCAL_TIME(0,0,0.,#367);
#370=LOCAL_TIME(0,0,0.,#367);
#371=LOCAL_TIME(0,0,0.,#367);
#372=LOCAL_TIME(0,0,0.,#367);
#373=CALENDAR_DATE(1999,1,1);
#374=CALENDAR_DATE(1999,1,1);
#375=CALENDAR_DATE(1999,1,1);
#376=CALENDAR_DATE(1999,1,1);
#377=CALENDAR_DATE(1999,1,1);
#378=DATE_AND_TIME(#373,#368);
#379=DATE_AND_TIME(#374,#369);
#380=DATE_AND_TIME(#375,#370);
#381=DATE_AND_TIME(#376,#371);
#382=DATE_AND_TIME(#377,#372);
#383=APPROVAL_DATE_TIME(#378,#389);
#384=APPROVAL_DATE_TIME(#379,#390);
#385=APPROVAL_DATE_TIME(#381,#391);
#386=APPROVAL_STATUS('not_yet_approved');
#387=APPROVAL_STATUS('not_yet_approved');
#388=APPROVAL_STATUS('approved');
#389=APPROVAL(#386,'Version approval');
#390=APPROVAL(#387,'Version Security approval');
#391=APPROVAL(#388,'Definition approval');
#392=APPLIED_APPROVAL_ASSIGNMENT(#389,(#395));
#393=APPLIED_APPROVAL_ASSIGNMENT(#390,(#359));
#394=APPLIED_APPROVAL_ASSIGNMENT(#391,(#353));
#395=PRODUCT_DEFINITION_FORMATION_WITH_SPECIFIED_SOURCE('A',
'First version',#427,.MADE.);
#396=PERSON_AND_ORGANIZATION_ROLE('design_owner');
#397=PERSON_AND_ORGANIZATION_ROLE('creator');
#398=PERSON_AND_ORGANIZATION_ROLE('design_supplier');
#399=PERSON_AND_ORGANIZATION_ROLE('classification_officer');
#400=PERSON_AND_ORGANIZATION_ROLE('creator');
#401=ORGANIZATION('STI','lab','lab');
#402=ORGANIZATION('STI','unknown','unknown');
#403=ORGANIZATION('STI','unknown','unknown');
#404=ORGANIZATION('STI','unknown','unknown');
#405=ORGANIZATION('STI','unknown','unknown');
#406=ORGANIZATION('STI','unknown','unknown');
#407=ORGANIZATION('STI','unknown','unknown');
#408=PERSON('1','Box','vc60',$,$,$);
#409=PERSON('2','last','first',$,$,$);
#410=PERSON('3','President','Mr.',$,$,$);
#411=PERSON_AND_ORGANIZATION(#408,#401);
#412=PERSON_AND_ORGANIZATION(#409,#402);
#413=PERSON_AND_ORGANIZATION(#410,#403);
#414=PERSON_AND_ORGANIZATION(#410,#404);
#415=PERSON_AND_ORGANIZATION(#410,#405);
#416=PERSON_AND_ORGANIZATION(#409,#406);
#417=PERSON_AND_ORGANIZATION(#410,#407);
#418=APPLIED_PERSON_AND_ORGANIZATION_ASSIGNMENT(#411,#396,(#427));
#419=APPLIED_PERSON_AND_ORGANIZATION_ASSIGNMENT(#412,#397,(#395));
#420=APPLIED_PERSON_AND_ORGANIZATION_ASSIGNMENT(#412,#398,(#395));
#421=APPLIED_PERSON_AND_ORGANIZATION_ASSIGNMENT(#415,#399,(#359));
#422=APPLIED_PERSON_AND_ORGANIZATION_ASSIGNMENT(#416,#400,(#353));
#423=PRODUCT_RELATED_PRODUCT_CATEGORY('detail','detail',(#427));
#424=APPLICATION_PROTOCOL_DEFINITION('International Standard',
'config_control_design',1994,#425);
#425=APPLICATION_CONTEXT(
'configuration controlled 3d designs of mechanical parts and assemblie
s');
#426=PRODUCT_CONTEXT('3D Mechanical Parts',#425,'mechanical');
#427=PRODUCT('Document','Document','',(#426));
#428=(
LENGTH_UNIT()
NAMED_UNIT(*)
SI_UNIT(.CENTI.,.METRE.)
);
#429=LENGTH_MEASURE_WITH_UNIT(LENGTH_MEASURE(2.54),#428);
#430=(
CONVERSION_BASED_UNIT('INCH',#429)
LENGTH_UNIT()
NAMED_UNIT(#433)
);
#431=(
NAMED_UNIT(*)
PLANE_ANGLE_UNIT()
SI_UNIT($,.RADIAN.)
);
#432=DIMENSIONAL_EXPONENTS(0.,0.,0.,0.,0.,0.,0.);
#433=DIMENSIONAL_EXPONENTS(1.,0.,0.,0.,0.,0.,0.);
#434=PLANE_ANGLE_MEASURE_WITH_UNIT(PLANE_ANGLE_MEASURE(0.01745329252),#431);
#435=(
CONVERSION_BASED_UNIT('DEGREES',#434)
NAMED_UNIT(#432)
PLANE_ANGLE_UNIT()
);
#436=(
NAMED_UNIT(*)
SI_UNIT($,.STERADIAN.)
SOLID_ANGLE_UNIT()
);
#437=UNCERTAINTY_MEASURE_WITH_UNIT(LENGTH_MEASURE(0.000393700787401575),
#430,'DISTANCE_ACCURACY_VALUE',
'Maximum model space distance between geometric entities at asserted c
onnectivities');
#438=(
GEOMETRIC_REPRESENTATION_CONTEXT(3)
GLOBAL_UNCERTAINTY_ASSIGNED_CONTEXT((#437))
GLOBAL_UNIT_ASSIGNED_CONTEXT((#436,#435,#430))
REPRESENTATION_CONTEXT('ID1','3D')
);
#439=SHAPE_REPRESENTATION('Document',(#440,#483),#438);
#440=AXIS2_PLACEMENT_3D($,#554,#484,#485);
#441=AXIS2_PLACEMENT_3D('',#555,#486,$);
#442=AXIS2_PLACEMENT_3D('',#556,#487,$);
#443=AXIS2_PLACEMENT_3D('',#557,#488,$);
#444=AXIS2_PLACEMENT_3D('',#558,#489,$);
#445=AXIS2_PLACEMENT_3D('',#559,#490,$);
#446=AXIS2_PLACEMENT_3D('',#560,#491,$);
#447=AXIS2_PLACEMENT_3D('',#561,#492,$);
#448=AXIS2_PLACEMENT_3D('',#562,#493,$);
#449=AXIS2_PLACEMENT_3D('',#563,#494,$);
#450=AXIS2_PLACEMENT_3D('',#564,#495,$);
#451=AXIS2_PLACEMENT_3D('',#565,#496,$);
#452=AXIS2_PLACEMENT_3D('',#566,#497,$);
#453=AXIS2_PLACEMENT_3D('',#567,#498,$);
#454=AXIS2_PLACEMENT_3D('',#568,#499,$);
#455=AXIS2_PLACEMENT_3D('',#569,#500,$);
#456=AXIS2_PLACEMENT_3D('',#570,#501,$);
#457=AXIS2_PLACEMENT_3D('',#571,#502,$);
#458=AXIS2_PLACEMENT_3D('',#572,#503,$);
#459=AXIS2_PLACEMENT_3D($,#605,#504,#505);
#460=AXIS2_PLACEMENT_3D($,#610,#506,#507);
#461=AXIS2_PLACEMENT_3D($,#623,#508,#509);
#462=AXIS2_PLACEMENT_3D($,#628,#510,#511);
#463=AXIS2_PLACEMENT_3D($,#639,#512,#513);
#464=AXIS2_PLACEMENT_3D($,#644,#514,#515);
#465=AXIS2_PLACEMENT_3D($,#655,#516,#517);
#466=AXIS2_PLACEMENT_3D($,#660,#518,#519);
#467=AXIS2_PLACEMENT_3D($,#669,#520,#521);
#468=AXIS2_PLACEMENT_3D($,#672,#522,#523);
#469=AXIS2_PLACEMENT_3D($,#677,#524,#525);
#470=AXIS2_PLACEMENT_3D($,#680,#526,#527);
#471=AXIS2_PLACEMENT_3D($,#685,#528,#529);
#472=AXIS2_PLACEMENT_3D($,#688,#530,#531);
#473=AXIS2_PLACEMENT_3D($,#693,#532,#533);
#474=AXIS2_PLACEMENT_3D($,#696,#534,#535);
#475=AXIS2_PLACEMENT_3D($,#703,#536,#537);
#476=AXIS2_PLACEMENT_3D($,#706,#538,#539);
#477=AXIS2_PLACEMENT_3D($,#711,#540,#541);
#478=AXIS2_PLACEMENT_3D($,#714,#542,#543);
#479=AXIS2_PLACEMENT_3D($,#719,#544,#545);
#480=AXIS2_PLACEMENT_3D($,#722,#546,#547);
#481=AXIS2_PLACEMENT_3D($,#727,#548,#549);
#482=AXIS2_PLACEMENT_3D($,#730,#550,#551);
#483=AXIS2_PLACEMENT_3D($,#733,#552,#553);
#484=DIRECTION('',(0.,0.,1.));
#485=DIRECTION('',(1.,0.,0.));
#486=DIRECTION('',(6.9688202565839E-15,6.9688202565839E-15,1.));
#487=DIRECTION('',(0.,-1.,0.));
#488=DIRECTION('',(-6.43275715996598E-15,6.43275715996598E-15,1.));
#489=DIRECTION('',(1.,0.,0.));
#490=DIRECTION('',(-6.43275715995185E-15,-6.43275715995185E-15,1.));
#491=DIRECTION('',(0.,1.,0.));
#492=DIRECTION('',(6.43275715993773E-15,-6.43275715993773E-15,1.));
#493=DIRECTION('',(-1.,0.,0.));
#494=DIRECTION('',(0.,0.,-1.));
#495=DIRECTION('',(0.,0.,1.));
#496=DIRECTION('',(0.,0.,1.));
#497=DIRECTION('',(0.,0.,1.));
#498=DIRECTION('',(0.,0.,1.));
#499=DIRECTION('',(0.,0.,1.));
#500=DIRECTION('',(0.,0.,1.));
#501=DIRECTION('',(0.,0.,1.));
#502=DIRECTION('',(0.,0.,1.));
#503=DIRECTION('',(0.,0.,1.));
#504=DIRECTION('',(-1.27249939277561E-15,-1.27249939277561E-15,1.));
#505=DIRECTION('',(-1.,0.,-1.27249939247272E-15));
#506=DIRECTION('',(1.50097667064884E-14,1.50097667064884E-14,1.));
#507=DIRECTION('',(-1.,0.,1.50990331349433E-14));
#508=DIRECTION('',(1.27249939478099E-15,-1.27249939478099E-15,1.));
#509=DIRECTION('',(1.81898940354255E-12,-1.,-1.27249939412129E-15));
#510=DIRECTION('',(-1.39376405132596E-14,1.39376405132596E-14,1.));
#511=DIRECTION('',(1.81898940354255E-12,-1.,1.37667655053269E-14));
#512=DIRECTION('',(1.27249939477819E-15,1.27249939477819E-15,1.));
#513=DIRECTION('',(1.,-1.81898940354917E-12,-1.2724993949531E-15));
#514=DIRECTION('',(-1.50097667065543E-14,-1.50097667065543E-14,1.));
#515=DIRECTION('',(1.,-1.81898940354917E-12,1.46549439250787E-14));
#516=DIRECTION('',(-1.2724993947754E-15,1.2724993947754E-15,1.));
#517=DIRECTION('',(0.,1.,-1.2724993949531E-15));
#518=DIRECTION('',(1.50097667065214E-14,-1.50097667065214E-14,1.));
#519=DIRECTION('',(0.,1.,1.50990331349296E-14));
#520=DIRECTION('',(0.,0.,-1.));
#521=DIRECTION('',(-1.,0.,0.));
#522=DIRECTION('',(0.,0.,-1.));
#523=DIRECTION('',(-1.,0.,0.));
#524=DIRECTION('',(0.,0.,-1.));
#525=DIRECTION('',(-1.,-3.31932372909964E-12,0.));
#526=DIRECTION('',(0.,0.,-1.));
#527=DIRECTION('',(-1.,-3.31932372909964E-12,0.));
#528=DIRECTION('',(0.,0.,-1.));
#529=DIRECTION('',(1.,-3.31932372907761E-12,0.));
#530=DIRECTION('',(0.,0.,-1.));
#531=DIRECTION('',(1.,-3.31932372907761E-12,0.));
#532=DIRECTION('',(0.,0.,-1.));
#533=DIRECTION('',(1.,3.31932372909414E-12,0.));
#534=DIRECTION('',(0.,0.,-1.));
#535=DIRECTION('',(1.,3.31932372909414E-12,0.));
#536=DIRECTION('',(0.,0.,-1.));
#537=DIRECTION('',(1.,-3.31932372907761E-12,0.));
#538=DIRECTION('',(0.,0.,-1.));
#539=DIRECTION('',(1.,-3.31932372907761E-12,0.));
#540=DIRECTION('',(0.,0.,-1.));
#541=DIRECTION('',(1.,0.,0.));
#542=DIRECTION('',(0.,0.,-1.));
#543=DIRECTION('',(1.,0.,0.));
#544=DIRECTION('',(0.,0.,-1.));
#545=DIRECTION('',(-1.,0.,0.));
#546=DIRECTION('',(0.,0.,-1.));
#547=DIRECTION('',(-1.,0.,0.));
#548=DIRECTION('',(0.,0.,-1.));
#549=DIRECTION('',(-1.,0.,0.));
#550=DIRECTION('',(0.,0.,-1.));
#551=DIRECTION('',(-1.,0.,0.));
#552=DIRECTION('',(0.,0.,1.));
#553=DIRECTION('',(1.,0.,0.));
#554=CARTESIAN_POINT('',(0.,0.,0.));
#555=CARTESIAN_POINT('',(868.58077752533,-1480.61807531892,0.125000000894445));
#556=CARTESIAN_POINT('',(868.580777525331,-1480.74307531892,8.94445406629529E-10));
#557=CARTESIAN_POINT('',(873.33077752533,-1480.61807531892,0.125000000894445));
#558=CARTESIAN_POINT('',(873.455777525331,-1480.61807531892,8.94445406629529E-10));
#559=CARTESIAN_POINT('',(873.330777525331,-1478.86807531892,0.125000000894445));
#560=CARTESIAN_POINT('',(873.330777525331,-1478.74307531892,8.94445406629529E-10));
#561=CARTESIAN_POINT('',(868.580777525331,-1478.86807531892,0.125000000894445));
#562=CARTESIAN_POINT('',(868.455777525331,-1478.86807531892,8.94445406629529E-10));
#563=CARTESIAN_POINT('',(867.830777525331,-1480.99307531892,8.94445406629529E-10));
#564=CARTESIAN_POINT('',(867.830777525331,-1480.99307531892,0.250000000894445));
#565=CARTESIAN_POINT('',(871.955777525331,-1479.24307531892,8.94445406629529E-10));
#566=CARTESIAN_POINT('',(872.95577752534,-1479.24306400285,0.125000000895398));
#567=CARTESIAN_POINT('',(869.955777525331,-1479.24307531892,8.94445406629529E-10));
#568=CARTESIAN_POINT('',(868.955777525321,-1479.24306400285,0.125000000895398));
#569=CARTESIAN_POINT('',(871.955777525331,-1479.24307531892,8.94445406629529E-10));
#570=CARTESIAN_POINT('',(872.95577752534,-1479.24306400285,0.125000000895398));
#571=CARTESIAN_POINT('',(869.955777525331,-1479.24307531892,8.94445406629529E-10));
#572=CARTESIAN_POINT('',(868.955777525321,-1479.24306400285,0.125000000895398));
#573=CARTESIAN_POINT('',(868.455777525331,-1480.61807531892,8.94445406629529E-10));
#574=CARTESIAN_POINT('',(868.580777525331,-1480.74307531892,8.94445406629529E-10));
#575=CARTESIAN_POINT('',(868.580777525331,-1480.74307531892,0.250000000894445));
#576=CARTESIAN_POINT('',(868.455777525331,-1480.61807531892,0.250000000894445));
#577=CARTESIAN_POINT('',(873.330777525331,-1480.74307531892,8.94445406629529E-10));
#578=CARTESIAN_POINT('',(873.330777525331,-1480.74307531892,0.250000000894445));
#579=CARTESIAN_POINT('',(873.455777525331,-1480.61807531892,8.94445406629529E-10));
#580=CARTESIAN_POINT('',(873.455777525331,-1480.61807531892,0.250000000894445));
#581=CARTESIAN_POINT('',(873.455777525331,-1478.86807531892,8.94445406629529E-10));
#582=CARTESIAN_POINT('',(873.455777525331,-1478.86807531892,0.250000000894445));
#583=CARTESIAN_POINT('',(873.330777525331,-1478.74307531892,8.94445406629529E-10));
#584=CARTESIAN_POINT('',(873.330777525331,-1478.74307531892,0.250000000894445));
#585=CARTESIAN_POINT('',(868.580777525331,-1478.74307531892,8.94445406629529E-10));
#586=CARTESIAN_POINT('',(868.580777525331,-1478.74307531892,0.250000000894445));
#587=CARTESIAN_POINT('',(868.455777525331,-1478.86807531892,8.94445406629529E-10));
#588=CARTESIAN_POINT('',(868.455777525331,-1478.86807531892,0.250000000894445));
#589=CARTESIAN_POINT('',(871.88727752533,-1479.24307531892,8.94431195774814E-10));
#590=CARTESIAN_POINT('',(871.88727752533,-1479.24307531892,0.250000000894445));
#591=CARTESIAN_POINT('',(872.88727752534,-1479.24306400285,8.94445406629529E-10));
#592=CARTESIAN_POINT('',(872.88727752534,-1479.24306400285,0.250000000894431));
#593=CARTESIAN_POINT('',(870.024277525331,-1479.24307531892,8.94431195774814E-10));
#594=CARTESIAN_POINT('',(870.024277525331,-1479.24307531892,0.250000000894445));
#595=CARTESIAN_POINT('',(869.024277525321,-1479.24306400285,8.94445406629529E-10));
#596=CARTESIAN_POINT('',(869.024277525321,-1479.24306400285,0.250000000894431));
#597=CARTESIAN_POINT('',(872.024277525331,-1479.24307531892,8.94445406629529E-10));
#598=CARTESIAN_POINT('',(872.024277525331,-1479.24307531892,0.250000000894445));
#599=CARTESIAN_POINT('',(873.02427752534,-1479.24306400285,8.94459617484245E-10));
#600=CARTESIAN_POINT('',(873.02427752534,-1479.24306400285,0.25000000089446));
#601=CARTESIAN_POINT('',(869.88727752533,-1479.24307531892,8.94445406629529E-10));
#602=CARTESIAN_POINT('',(869.88727752533,-1479.24307531892,0.250000000894445));
#603=CARTESIAN_POINT('',(868.887277525321,-1479.24306400285,8.94459617484245E-10));
#604=CARTESIAN_POINT('',(868.887277525321,-1479.24306400285,0.25000000089446));
#605=CARTESIAN_POINT('',(868.58077752533,-1480.61807531892,8.94445565691953E-10));
#606=CARTESIAN_POINT('',(868.455777525331,-1480.61807531892,8.94445406629529E-10));
#607=CARTESIAN_POINT('',(868.580777525331,-1480.74307531892,8.94445406629529E-10));
#608=CARTESIAN_POINT('',(868.580777525331,-1480.74307531892,8.94445406629529E-10));
#609=CARTESIAN_POINT('',(868.580777525331,-1480.74307531892,0.250000000894445));
#610=CARTESIAN_POINT('',(868.58077752533,-1480.61807531892,0.250000000894444));
#611=CARTESIAN_POINT('',(868.455777525331,-1480.61807531892,0.250000000894445));
#612=CARTESIAN_POINT('',(868.580777525331,-1480.74307531892,0.250000000894445));
#613=CARTESIAN_POINT('',(868.455777525331,-1480.61807531892,8.94445406629529E-10));
#614=CARTESIAN_POINT('',(868.455777525331,-1480.61807531892,0.250000000894445));
#615=CARTESIAN_POINT('',(868.580777525331,-1480.74307531892,8.94445406629529E-10));
#616=CARTESIAN_POINT('',(870.955777525331,-1480.74307531892,8.94445406629529E-10));
#617=CARTESIAN_POINT('',(873.330777525331,-1480.74307531892,8.94445406629529E-10));
#618=CARTESIAN_POINT('',(873.330777525331,-1480.74307531892,8.94445406629529E-10));
#619=CARTESIAN_POINT('',(873.330777525331,-1480.74307531892,0.250000000894445));
#620=CARTESIAN_POINT('',(868.580777525331,-1480.74307531892,0.250000000894445));
#621=CARTESIAN_POINT('',(870.955777525331,-1480.74307531892,0.250000000894445));
#622=CARTESIAN_POINT('',(873.330777525331,-1480.74307531892,0.250000000894445));
#623=CARTESIAN_POINT('',(873.33077752533,-1480.61807531892,8.94445565691954E-10));
#624=CARTESIAN_POINT('',(873.330777525331,-1480.74307531892,8.94445406629529E-10));
#625=CARTESIAN_POINT('',(873.455777525331,-1480.61807531892,8.94445406629529E-10));
#626=CARTESIAN_POINT('',(873.455777525331,-1480.61807531892,8.94445406629529E-10));
#627=CARTESIAN_POINT('',(873.455777525331,-1480.61807531892,0.250000000894445));
#628=CARTESIAN_POINT('',(873.33077752533,-1480.61807531892,0.250000000894444));
#629=CARTESIAN_POINT('',(873.330777525331,-1480.74307531892,0.250000000894445));
#630=CARTESIAN_POINT('',(873.455777525331,-1480.61807531892,0.250000000894445));
#631=CARTESIAN_POINT('',(873.455777525331,-1480.61807531892,8.94445406629529E-10));
#632=CARTESIAN_POINT('',(873.455777525331,-1479.74307531892,8.94445406629529E-10));
#633=CARTESIAN_POINT('',(873.455777525331,-1478.86807531892,8.94445406629529E-10));
#634=CARTESIAN_POINT('',(873.455777525331,-1478.86807531892,8.94445406629529E-10));
#635=CARTESIAN_POINT('',(873.455777525331,-1478.86807531892,0.250000000894445));
#636=CARTESIAN_POINT('',(873.455777525331,-1480.61807531892,0.250000000894445));
#637=CARTESIAN_POINT('',(873.455777525331,-1479.74307531892,0.250000000894445));
#638=CARTESIAN_POINT('',(873.455777525331,-1478.86807531892,0.250000000894445));
#639=CARTESIAN_POINT('',(873.330777525331,-1478.86807531892,8.94445565691954E-10));
#640=CARTESIAN_POINT('',(873.455777525331,-1478.86807531892,8.94445406629529E-10));
#641=CARTESIAN_POINT('',(873.330777525331,-1478.74307531892,8.94445406629529E-10));
#642=CARTESIAN_POINT('',(873.330777525331,-1478.74307531892,8.94445406629529E-10));
#643=CARTESIAN_POINT('',(873.330777525331,-1478.74307531892,0.250000000894445));
#644=CARTESIAN_POINT('',(873.330777525331,-1478.86807531892,0.250000000894444));
#645=CARTESIAN_POINT('',(873.455777525331,-1478.86807531892,0.250000000894445));
#646=CARTESIAN_POINT('',(873.330777525331,-1478.74307531892,0.250000000894445));
#647=CARTESIAN_POINT('',(873.330777525331,-1478.74307531892,8.94445406629529E-10));
#648=CARTESIAN_POINT('',(870.955777525331,-1478.74307531892,8.94445406629529E-10));
#649=CARTESIAN_POINT('',(868.580777525331,-1478.74307531892,8.94445406629529E-10));
#650=CARTESIAN_POINT('',(868.580777525331,-1478.74307531892,8.94445406629529E-10));
#651=CARTESIAN_POINT('',(868.580777525331,-1478.74307531892,0.250000000894445));
#652=CARTESIAN_POINT('',(873.330777525331,-1478.74307531892,0.250000000894445));
#653=CARTESIAN_POINT('',(870.955777525331,-1478.74307531892,0.250000000894445));
#654=CARTESIAN_POINT('',(868.580777525331,-1478.74307531892,0.250000000894445));
#655=CARTESIAN_POINT('',(868.580777525331,-1478.86807531892,8.94445565691954E-10));
#656=CARTESIAN_POINT('',(868.580777525331,-1478.74307531892,8.94445406629529E-10));
#657=CARTESIAN_POINT('',(868.455777525331,-1478.86807531892,8.94445406629529E-10));
#658=CARTESIAN_POINT('',(868.455777525331,-1478.86807531892,8.94445406629529E-10));
#659=CARTESIAN_POINT('',(868.455777525331,-1478.86807531892,0.250000000894445));
#660=CARTESIAN_POINT('',(868.580777525331,-1478.86807531892,0.250000000894444));
#661=CARTESIAN_POINT('',(868.580777525331,-1478.74307531892,0.250000000894445));
#662=CARTESIAN_POINT('',(868.455777525331,-1478.86807531892,0.250000000894445));
#663=CARTESIAN_POINT('',(868.455777525331,-1478.86807531892,8.94445406629529E-10));
#664=CARTESIAN_POINT('',(868.455777525331,-1479.74307531892,8.94445406629529E-10));
#665=CARTESIAN_POINT('',(868.455777525331,-1480.61807531892,8.94445406629529E-10));
#666=CARTESIAN_POINT('',(868.455777525331,-1478.86807531892,0.250000000894445));
#667=CARTESIAN_POINT('',(868.455777525331,-1479.74307531892,0.250000000894445));
#668=CARTESIAN_POINT('',(868.455777525331,-1480.61807531892,0.250000000894445));
#669=CARTESIAN_POINT('',(871.955777525331,-1479.24307531892,8.94445406629529E-10));
#670=CARTESIAN_POINT('',(871.88727752533,-1479.24307531892,8.94445406629529E-10));
#671=CARTESIAN_POINT('',(872.024277525331,-1479.24307531892,8.94445406629529E-10));
#672=CARTESIAN_POINT('',(871.955777525331,-1479.24307531892,0.250000000894445));
#673=CARTESIAN_POINT('',(871.88727752533,-1479.24307531892,0.250000000894445));
#674=CARTESIAN_POINT('',(872.024277525331,-1479.24307531892,0.250000000894445));
#675=CARTESIAN_POINT('',(871.88727752533,-1479.24307531892,8.94431195774814E-10));
#676=CARTESIAN_POINT('',(871.88727752533,-1479.24307531892,0.250000000894445));
#677=CARTESIAN_POINT('',(872.95577752534,-1479.24306400285,8.94459617484245E-10));
#678=CARTESIAN_POINT('',(872.88727752534,-1479.24306400285,8.94459617484245E-10));
#679=CARTESIAN_POINT('',(873.02427752534,-1479.24306400285,8.94459617484245E-10));
#680=CARTESIAN_POINT('',(872.95577752534,-1479.24306400285,0.25000000089446));
#681=CARTESIAN_POINT('',(872.88727752534,-1479.24306400285,0.25000000089446));
#682=CARTESIAN_POINT('',(873.02427752534,-1479.24306400285,0.25000000089446));
#683=CARTESIAN_POINT('',(872.88727752534,-1479.24306400285,8.94445406629529E-10));
#684=CARTESIAN_POINT('',(872.88727752534,-1479.24306400285,0.250000000894431));
#685=CARTESIAN_POINT('',(869.955777525331,-1479.24307531892,8.94445406629529E-10));
#686=CARTESIAN_POINT('',(870.024277525331,-1479.24307531892,8.94445406629529E-10));
#687=CARTESIAN_POINT('',(869.88727752533,-1479.24307531892,8.94445406629529E-10));
#688=CARTESIAN_POINT('',(869.955777525331,-1479.24307531892,0.250000000894445));
#689=CARTESIAN_POINT('',(870.024277525331,-1479.24307531892,0.250000000894445));
#690=CARTESIAN_POINT('',(869.88727752533,-1479.24307531892,0.250000000894445));
#691=CARTESIAN_POINT('',(870.024277525331,-1479.24307531892,8.94431195774814E-10));
#692=CARTESIAN_POINT('',(870.024277525331,-1479.24307531892,0.250000000894445));
#693=CARTESIAN_POINT('',(868.955777525321,-1479.24306400285,8.94459617484245E-10));
#694=CARTESIAN_POINT('',(869.024277525321,-1479.24306400285,8.94459617484245E-10));
#695=CARTESIAN_POINT('',(868.887277525321,-1479.24306400285,8.94459617484245E-10));
#696=CARTESIAN_POINT('',(868.955777525321,-1479.24306400285,0.25000000089446));
#697=CARTESIAN_POINT('',(869.024277525321,-1479.24306400285,0.25000000089446));
#698=CARTESIAN_POINT('',(868.887277525321,-1479.24306400285,0.25000000089446));
#699=CARTESIAN_POINT('',(869.024277525321,-1479.24306400285,8.94445406629529E-10));
#700=CARTESIAN_POINT('',(869.024277525321,-1479.24306400285,0.250000000894431));
#701=CARTESIAN_POINT('',(872.024277525331,-1479.24307531892,8.94431084752513E-10));
#702=CARTESIAN_POINT('',(872.024277525331,-1479.24307531892,0.250000000894445));
#703=CARTESIAN_POINT('',(871.955777525331,-1479.24307531892,8.94445406629529E-10));
#704=CARTESIAN_POINT('',(872.024277525331,-1479.24307531892,8.94445406629529E-10));
#705=CARTESIAN_POINT('',(871.88727752533,-1479.24307531892,8.94445406629529E-10));
#706=CARTESIAN_POINT('',(871.955777525331,-1479.24307531892,0.250000000894445));
#707=CARTESIAN_POINT('',(872.024277525331,-1479.24307531892,0.250000000894445));
#708=CARTESIAN_POINT('',(871.88727752533,-1479.24307531892,0.250000000894445));
#709=CARTESIAN_POINT('',(873.02427752534,-1479.24306400285,8.94445495447457E-10));
#710=CARTESIAN_POINT('',(873.02427752534,-1479.24306400285,0.250000000894432));
#711=CARTESIAN_POINT('',(872.95577752534,-1479.24306400285,8.94459617484245E-10));
#712=CARTESIAN_POINT('',(873.02427752534,-1479.24306400285,8.94459617484245E-10));
#713=CARTESIAN_POINT('',(872.88727752534,-1479.24306400285,8.94459617484245E-10));
#714=CARTESIAN_POINT('',(872.95577752534,-1479.24306400285,0.25000000089446));
#715=CARTESIAN_POINT('',(873.02427752534,-1479.24306400285,0.25000000089446));
#716=CARTESIAN_POINT('',(872.88727752534,-1479.24306400285,0.25000000089446));
#717=CARTESIAN_POINT('',(869.88727752533,-1479.24307531892,8.94431084752513E-10));
#718=CARTESIAN_POINT('',(869.88727752533,-1479.24307531892,0.250000000894445));
#719=CARTESIAN_POINT('',(869.955777525331,-1479.24307531892,8.94445406629529E-10));
#720=CARTESIAN_POINT('',(869.88727752533,-1479.24307531892,8.94445406629529E-10));
#721=CARTESIAN_POINT('',(870.024277525331,-1479.24307531892,8.94445406629529E-10));
#722=CARTESIAN_POINT('',(869.955777525331,-1479.24307531892,0.250000000894445));
#723=CARTESIAN_POINT('',(869.88727752533,-1479.24307531892,0.250000000894445));
#724=CARTESIAN_POINT('',(870.024277525331,-1479.24307531892,0.250000000894445));
#725=CARTESIAN_POINT('',(868.887277525321,-1479.24306400285,8.94445495447457E-10));
#726=CARTESIAN_POINT('',(868.887277525321,-1479.24306400285,0.250000000894432));
#727=CARTESIAN_POINT('',(868.955777525321,-1479.24306400285,8.94459617484245E-10));
#728=CARTESIAN_POINT('',(868.887277525321,-1479.24306400285,8.94459617484245E-10));
#729=CARTESIAN_POINT('',(869.024277525321,-1479.24306400285,8.94459617484245E-10));
#730=CARTESIAN_POINT('',(868.955777525321,-1479.24306400285,0.25000000089446));
#731=CARTESIAN_POINT('',(868.887277525321,-1479.24306400285,0.25000000089446));
#732=CARTESIAN_POINT('',(869.024277525321,-1479.24306400285,0.25000000089446));
#733=CARTESIAN_POINT('',(0.,0.,0.));
ENDSEC;
END-ISO-10303-21;
