ISO-10303-21;
HEADER;
/* Generated by software containing ST-Developer
 * from STEP Tools, Inc. (www.steptools.com) 
 */
/* OPTION: using custom schema-name function */

FILE_DESCRIPTION(
/* description */ (''),
/* implementation_level */ '2;1');

FILE_NAME(
/* name */ 'Shear Block Type B x16',
/* time_stamp */ '2024-03-06T20:46:32-06:00',
/* author */ (''),
/* organization */ (''),
/* preprocessor_version */ 'ST-DEVELOPER v16.5',
/* originating_system */ 'Rhino 7.36',
/* authorisation */ '');

FILE_SCHEMA (('CONFIG_CONTROL_DESIGN'));
ENDSEC;

DATA;
#10=SHAPE_REPRESENTATION_RELATIONSHIP('','',#371,#12);
#11=MANIFOLD_SOLID_BREP('brep_1',#13);
#12=ADVANCED_BREP_SHAPE_REPRESENTATION('brep_rep_0',(#11,#389),#370);
#13=CLOSED_SHELL('',(#18,#19,#20,#21,#22,#23,#24,#25,#26,#27,#28,#29,#30,
#31,#32,#33));
#14=FACE_BOUND('',#57,.T.);
#15=FACE_BOUND('',#58,.T.);
#16=FACE_BOUND('',#60,.T.);
#17=FACE_BOUND('',#61,.T.);
#18=ADVANCED_FACE('',(#34),#276,.T.);
#19=ADVANCED_FACE('',(#35),#266,.T.);
#20=ADVANCED_FACE('',(#36),#277,.T.);
#21=ADVANCED_FACE('',(#37),#278,.F.);
#22=ADVANCED_FACE('',(#38),#279,.F.);
#23=ADVANCED_FACE('',(#39),#267,.T.);
#24=ADVANCED_FACE('',(#40,#14,#15),#268,.T.);
#25=ADVANCED_FACE('',(#41,#16,#17),#269,.T.);
#26=ADVANCED_FACE('',(#42),#270,.T.);
#27=ADVANCED_FACE('',(#43),#271,.T.);
#28=ADVANCED_FACE('',(#44),#272,.T.);
#29=ADVANCED_FACE('',(#45),#273,.T.);
#30=ADVANCED_FACE('',(#46),#274,.T.);
#31=ADVANCED_FACE('',(#47),#275,.T.);
#32=ADVANCED_FACE('',(#48),#280,.F.);
#33=ADVANCED_FACE('',(#49),#281,.F.);
#34=FACE_OUTER_BOUND('',#50,.T.);
#35=FACE_OUTER_BOUND('',#51,.T.);
#36=FACE_OUTER_BOUND('',#52,.T.);
#37=FACE_OUTER_BOUND('',#53,.T.);
#38=FACE_OUTER_BOUND('',#54,.T.);
#39=FACE_OUTER_BOUND('',#55,.T.);
#40=FACE_OUTER_BOUND('',#56,.T.);
#41=FACE_OUTER_BOUND('',#59,.T.);
#42=FACE_OUTER_BOUND('',#62,.T.);
#43=FACE_OUTER_BOUND('',#63,.T.);
#44=FACE_OUTER_BOUND('',#64,.T.);
#45=FACE_OUTER_BOUND('',#65,.T.);
#46=FACE_OUTER_BOUND('',#66,.T.);
#47=FACE_OUTER_BOUND('',#67,.T.);
#48=FACE_OUTER_BOUND('',#68,.T.);
#49=FACE_OUTER_BOUND('',#69,.T.);
#50=EDGE_LOOP('',(#70,#71,#72,#73));
#51=EDGE_LOOP('',(#74,#75,#76,#77));
#52=EDGE_LOOP('',(#78,#79,#80,#81));
#53=EDGE_LOOP('',(#82,#83,#84,#85));
#54=EDGE_LOOP('',(#86,#87,#88,#89));
#55=EDGE_LOOP('',(#90,#91,#92,#93));
#56=EDGE_LOOP('',(#94,#95,#96,#97,#98,#99,#100,#101,#102,#103));
#57=EDGE_LOOP('',(#104,#105));
#58=EDGE_LOOP('',(#106,#107));
#59=EDGE_LOOP('',(#108,#109,#110,#111,#112,#113,#114,#115,#116,#117));
#60=EDGE_LOOP('',(#118,#119));
#61=EDGE_LOOP('',(#120,#121));
#62=EDGE_LOOP('',(#122,#123,#124,#125));
#63=EDGE_LOOP('',(#126,#127,#128,#129));
#64=EDGE_LOOP('',(#130,#131,#132,#133));
#65=EDGE_LOOP('',(#134,#135,#136,#137));
#66=EDGE_LOOP('',(#138,#139,#140,#141));
#67=EDGE_LOOP('',(#142,#143,#144,#145));
#68=EDGE_LOOP('',(#146,#147,#148,#149));
#69=EDGE_LOOP('',(#150,#151,#152,#153));
#70=ORIENTED_EDGE('',*,*,#155,.T.);
#71=ORIENTED_EDGE('',*,*,#156,.T.);
#72=ORIENTED_EDGE('',*,*,#157,.F.);
#73=ORIENTED_EDGE('',*,*,#154,.F.);
#74=ORIENTED_EDGE('',*,*,#158,.T.);
#75=ORIENTED_EDGE('',*,*,#159,.T.);
#76=ORIENTED_EDGE('',*,*,#160,.F.);
#77=ORIENTED_EDGE('',*,*,#156,.F.);
#78=ORIENTED_EDGE('',*,*,#161,.T.);
#79=ORIENTED_EDGE('',*,*,#162,.T.);
#80=ORIENTED_EDGE('',*,*,#163,.F.);
#81=ORIENTED_EDGE('',*,*,#159,.F.);
#82=ORIENTED_EDGE('',*,*,#191,.T.);
#83=ORIENTED_EDGE('',*,*,#168,.T.);
#84=ORIENTED_EDGE('',*,*,#192,.F.);
#85=ORIENTED_EDGE('',*,*,#190,.F.);
#86=ORIENTED_EDGE('',*,*,#194,.T.);
#87=ORIENTED_EDGE('',*,*,#171,.T.);
#88=ORIENTED_EDGE('',*,*,#195,.F.);
#89=ORIENTED_EDGE('',*,*,#193,.F.);
#90=ORIENTED_EDGE('',*,*,#172,.T.);
#91=ORIENTED_EDGE('',*,*,#165,.F.);
#92=ORIENTED_EDGE('',*,*,#162,.F.);
#93=ORIENTED_EDGE('',*,*,#164,.T.);
#94=ORIENTED_EDGE('',*,*,#181,.F.);
#95=ORIENTED_EDGE('',*,*,#185,.T.);
#96=ORIENTED_EDGE('',*,*,#173,.F.);
#97=ORIENTED_EDGE('',*,*,#174,.F.);
#98=ORIENTED_EDGE('',*,*,#164,.F.);
#99=ORIENTED_EDGE('',*,*,#161,.F.);
#100=ORIENTED_EDGE('',*,*,#158,.F.);
#101=ORIENTED_EDGE('',*,*,#155,.F.);
#102=ORIENTED_EDGE('',*,*,#187,.F.);
#103=ORIENTED_EDGE('',*,*,#180,.F.);
#104=ORIENTED_EDGE('',*,*,#191,.F.);
#105=ORIENTED_EDGE('',*,*,#166,.F.);
#106=ORIENTED_EDGE('',*,*,#194,.F.);
#107=ORIENTED_EDGE('',*,*,#169,.F.);
#108=ORIENTED_EDGE('',*,*,#182,.T.);
#109=ORIENTED_EDGE('',*,*,#188,.T.);
#110=ORIENTED_EDGE('',*,*,#157,.T.);
#111=ORIENTED_EDGE('',*,*,#160,.T.);
#112=ORIENTED_EDGE('',*,*,#163,.T.);
#113=ORIENTED_EDGE('',*,*,#165,.T.);
#114=ORIENTED_EDGE('',*,*,#176,.T.);
#115=ORIENTED_EDGE('',*,*,#175,.T.);
#116=ORIENTED_EDGE('',*,*,#186,.F.);
#117=ORIENTED_EDGE('',*,*,#183,.T.);
#118=ORIENTED_EDGE('',*,*,#167,.T.);
#119=ORIENTED_EDGE('',*,*,#192,.T.);
#120=ORIENTED_EDGE('',*,*,#170,.T.);
#121=ORIENTED_EDGE('',*,*,#195,.T.);
#122=ORIENTED_EDGE('',*,*,#184,.T.);
#123=ORIENTED_EDGE('',*,*,#186,.T.);
#124=ORIENTED_EDGE('',*,*,#177,.F.);
#125=ORIENTED_EDGE('',*,*,#185,.F.);
#126=ORIENTED_EDGE('',*,*,#173,.T.);
#127=ORIENTED_EDGE('',*,*,#177,.T.);
#128=ORIENTED_EDGE('',*,*,#175,.F.);
#129=ORIENTED_EDGE('',*,*,#178,.F.);
#130=ORIENTED_EDGE('',*,*,#172,.F.);
#131=ORIENTED_EDGE('',*,*,#174,.T.);
#132=ORIENTED_EDGE('',*,*,#178,.T.);
#133=ORIENTED_EDGE('',*,*,#176,.F.);
#134=ORIENTED_EDGE('',*,*,#187,.T.);
#135=ORIENTED_EDGE('',*,*,#154,.T.);
#136=ORIENTED_EDGE('',*,*,#188,.F.);
#137=ORIENTED_EDGE('',*,*,#179,.F.);
#138=ORIENTED_EDGE('',*,*,#180,.T.);
#139=ORIENTED_EDGE('',*,*,#179,.T.);
#140=ORIENTED_EDGE('',*,*,#182,.F.);
#141=ORIENTED_EDGE('',*,*,#189,.F.);
#142=ORIENTED_EDGE('',*,*,#184,.F.);
#143=ORIENTED_EDGE('',*,*,#181,.T.);
#144=ORIENTED_EDGE('',*,*,#189,.T.);
#145=ORIENTED_EDGE('',*,*,#183,.F.);
#146=ORIENTED_EDGE('',*,*,#190,.T.);
#147=ORIENTED_EDGE('',*,*,#167,.F.);
#148=ORIENTED_EDGE('',*,*,#168,.F.);
#149=ORIENTED_EDGE('',*,*,#166,.T.);
#150=ORIENTED_EDGE('',*,*,#193,.T.);
#151=ORIENTED_EDGE('',*,*,#170,.F.);
#152=ORIENTED_EDGE('',*,*,#171,.F.);
#153=ORIENTED_EDGE('',*,*,#169,.T.);
#154=EDGE_CURVE('',#238,#239,#212,.T.);
#155=EDGE_CURVE('',#238,#240,#213,.T.);
#156=EDGE_CURVE('',#240,#241,#214,.T.);
#157=EDGE_CURVE('',#239,#241,#215,.T.);
#158=EDGE_CURVE('',#240,#242,#216,.T.);
#159=EDGE_CURVE('',#242,#243,#217,.T.);
#160=EDGE_CURVE('',#241,#243,#218,.T.);
#161=EDGE_CURVE('',#242,#244,#219,.T.);
#162=EDGE_CURVE('',#244,#245,#220,.T.);
#163=EDGE_CURVE('',#243,#245,#221,.T.);
#164=EDGE_CURVE('',#244,#250,#222,.T.);
#165=EDGE_CURVE('',#245,#251,#223,.T.);
#166=EDGE_CURVE('',#246,#262,#224,.T.);
#167=EDGE_CURVE('',#247,#263,#225,.T.);
#168=EDGE_CURVE('',#246,#247,#226,.T.);
#169=EDGE_CURVE('',#248,#264,#227,.T.);
#170=EDGE_CURVE('',#249,#265,#228,.T.);
#171=EDGE_CURVE('',#248,#249,#229,.T.);
#172=EDGE_CURVE('',#250,#251,#196,.T.);
#173=EDGE_CURVE('',#253,#252,#197,.T.);
#174=EDGE_CURVE('',#250,#253,#198,.T.);
#175=EDGE_CURVE('',#255,#254,#199,.T.);
#176=EDGE_CURVE('',#251,#255,#200,.T.);
#177=EDGE_CURVE('',#252,#254,#201,.T.);
#178=EDGE_CURVE('',#253,#255,#202,.T.);
#179=EDGE_CURVE('',#256,#257,#203,.T.);
#180=EDGE_CURVE('',#259,#256,#204,.T.);
#181=EDGE_CURVE('',#258,#259,#205,.T.);
#182=EDGE_CURVE('',#261,#257,#206,.T.);
#183=EDGE_CURVE('',#260,#261,#207,.T.);
#184=EDGE_CURVE('',#258,#260,#208,.T.);
#185=EDGE_CURVE('',#258,#252,#209,.T.);
#186=EDGE_CURVE('',#260,#254,#210,.T.);
#187=EDGE_CURVE('',#256,#238,#230,.T.);
#188=EDGE_CURVE('',#257,#239,#231,.T.);
#189=EDGE_CURVE('',#259,#261,#211,.T.);
#190=EDGE_CURVE('',#262,#263,#232,.T.);
#191=EDGE_CURVE('',#262,#246,#233,.T.);
#192=EDGE_CURVE('',#263,#247,#234,.T.);
#193=EDGE_CURVE('',#264,#265,#235,.T.);
#194=EDGE_CURVE('',#264,#248,#236,.T.);
#195=EDGE_CURVE('',#265,#249,#237,.T.);
#196=B_SPLINE_CURVE_WITH_KNOTS('',1,(#511,#512),.UNSPECIFIED.,.F.,.F.,(2,
2),(0.75,1.),.UNSPECIFIED.);
#197=B_SPLINE_CURVE_WITH_KNOTS('',1,(#513,#514),.UNSPECIFIED.,.F.,.F.,(2,
2),(0.333000000000084,0.41599999999994),.UNSPECIFIED.);
#198=B_SPLINE_CURVE_WITH_KNOTS('',1,(#515,#516),.UNSPECIFIED.,.F.,.F.,(2,
2),(0.0830000000000837,0.333000000000084),.UNSPECIFIED.);
#199=B_SPLINE_CURVE_WITH_KNOTS('',1,(#517,#518),.UNSPECIFIED.,.F.,.F.,(2,
2),(0.333000000000084,0.41599999999994),.UNSPECIFIED.);
#200=B_SPLINE_CURVE_WITH_KNOTS('',1,(#519,#520),.UNSPECIFIED.,.F.,.F.,(2,
2),(0.0830000000000837,0.333000000000084),.UNSPECIFIED.);
#201=B_SPLINE_CURVE_WITH_KNOTS('',1,(#521,#522),.UNSPECIFIED.,.F.,.F.,(2,
2),(0.75,1.),.UNSPECIFIED.);
#202=B_SPLINE_CURVE_WITH_KNOTS('',1,(#523,#524),.UNSPECIFIED.,.F.,.F.,(2,
2),(0.75,1.),.UNSPECIFIED.);
#203=B_SPLINE_CURVE_WITH_KNOTS('',1,(#525,#526),.UNSPECIFIED.,.F.,.F.,(2,
2),(0.75,1.),.UNSPECIFIED.);
#204=B_SPLINE_CURVE_WITH_KNOTS('',1,(#527,#528),.UNSPECIFIED.,.F.,.F.,(2,
2),(0.0830000000000837,0.333000000000027),.UNSPECIFIED.);
#205=B_SPLINE_CURVE_WITH_KNOTS('',1,(#529,#530),.UNSPECIFIED.,.F.,.F.,(2,
2),(2.96100000003738,3.04400000003732),.UNSPECIFIED.);
#206=B_SPLINE_CURVE_WITH_KNOTS('',1,(#531,#532),.UNSPECIFIED.,.F.,.F.,(2,
2),(0.0830000000000837,0.333000000000084),.UNSPECIFIED.);
#207=B_SPLINE_CURVE_WITH_KNOTS('',1,(#533,#534),.UNSPECIFIED.,.F.,.F.,(2,
2),(2.96100000003724,3.04400000003732),.UNSPECIFIED.);
#208=B_SPLINE_CURVE_WITH_KNOTS('',1,(#535,#536),.UNSPECIFIED.,.F.,.F.,(2,
2),(0.75,1.),.UNSPECIFIED.);
#209=B_SPLINE_CURVE_WITH_KNOTS('',1,(#537,#538),.UNSPECIFIED.,.F.,.F.,(2,
2),(0.250000000000109,1.75000000000013),.UNSPECIFIED.);
#210=B_SPLINE_CURVE_WITH_KNOTS('',1,(#539,#540),.UNSPECIFIED.,.F.,.F.,(2,
2),(0.250000000000076,1.75000000000013),.UNSPECIFIED.);
#211=B_SPLINE_CURVE_WITH_KNOTS('',1,(#547,#548),.UNSPECIFIED.,.F.,.F.,(2,
2),(0.75,1.),.UNSPECIFIED.);
#212=(
BOUNDED_CURVE()
B_SPLINE_CURVE(1,(#455,#456),.UNSPECIFIED.,.F.,.F.)
B_SPLINE_CURVE_WITH_KNOTS((2,2),(0.,0.25),.UNSPECIFIED.)
CURVE()
GEOMETRIC_REPRESENTATION_ITEM()
RATIONAL_B_SPLINE_CURVE((1.,1.))
REPRESENTATION_ITEM('')
);
#213=(
BOUNDED_CURVE()
B_SPLINE_CURVE(2,(#457,#458,#459),.UNSPECIFIED.,.F.,.F.)
B_SPLINE_CURVE_WITH_KNOTS((3,3),(4.94634954084936,5.14269908169872),
 .UNSPECIFIED.)
CURVE()
GEOMETRIC_REPRESENTATION_ITEM()
RATIONAL_B_SPLINE_CURVE((1.,0.707106781186548,1.))
REPRESENTATION_ITEM('')
);
#214=(
BOUNDED_CURVE()
B_SPLINE_CURVE(1,(#460,#461),.UNSPECIFIED.,.F.,.F.)
B_SPLINE_CURVE_WITH_KNOTS((2,2),(0.,0.25),.UNSPECIFIED.)
CURVE()
GEOMETRIC_REPRESENTATION_ITEM()
RATIONAL_B_SPLINE_CURVE((1.,1.))
REPRESENTATION_ITEM('')
);
#215=(
BOUNDED_CURVE()
B_SPLINE_CURVE(2,(#462,#463,#464),.UNSPECIFIED.,.F.,.F.)
B_SPLINE_CURVE_WITH_KNOTS((3,3),(4.94634954084936,5.14269908169872),
 .UNSPECIFIED.)
CURVE()
GEOMETRIC_REPRESENTATION_ITEM()
RATIONAL_B_SPLINE_CURVE((1.,0.707106781186548,1.))
REPRESENTATION_ITEM('')
);
#216=(
BOUNDED_CURVE()
B_SPLINE_CURVE(2,(#465,#466,#467),.UNSPECIFIED.,.F.,.F.)
B_SPLINE_CURVE_WITH_KNOTS((3,3),(5.14269908169872,6.89269908169872),
 .UNSPECIFIED.)
CURVE()
GEOMETRIC_REPRESENTATION_ITEM()
RATIONAL_B_SPLINE_CURVE((1.,1.,1.))
REPRESENTATION_ITEM('')
);
#217=(
BOUNDED_CURVE()
B_SPLINE_CURVE(1,(#468,#469),.UNSPECIFIED.,.F.,.F.)
B_SPLINE_CURVE_WITH_KNOTS((2,2),(0.,0.25),.UNSPECIFIED.)
CURVE()
GEOMETRIC_REPRESENTATION_ITEM()
RATIONAL_B_SPLINE_CURVE((1.,1.))
REPRESENTATION_ITEM('')
);
#218=(
BOUNDED_CURVE()
B_SPLINE_CURVE(2,(#470,#471,#472),.UNSPECIFIED.,.F.,.F.)
B_SPLINE_CURVE_WITH_KNOTS((3,3),(5.14269908169872,6.89269908169872),
 .UNSPECIFIED.)
CURVE()
GEOMETRIC_REPRESENTATION_ITEM()
RATIONAL_B_SPLINE_CURVE((1.,1.,1.))
REPRESENTATION_ITEM('')
);
#219=(
BOUNDED_CURVE()
B_SPLINE_CURVE(2,(#473,#474,#475),.UNSPECIFIED.,.F.,.F.)
B_SPLINE_CURVE_WITH_KNOTS((3,3),(6.89269908169872,7.08904862254809),
 .UNSPECIFIED.)
CURVE()
GEOMETRIC_REPRESENTATION_ITEM()
RATIONAL_B_SPLINE_CURVE((1.,0.707106781186548,1.))
REPRESENTATION_ITEM('')
);
#220=(
BOUNDED_CURVE()
B_SPLINE_CURVE(1,(#476,#477),.UNSPECIFIED.,.F.,.F.)
B_SPLINE_CURVE_WITH_KNOTS((2,2),(0.,0.25),.UNSPECIFIED.)
CURVE()
GEOMETRIC_REPRESENTATION_ITEM()
RATIONAL_B_SPLINE_CURVE((1.,1.))
REPRESENTATION_ITEM('')
);
#221=(
BOUNDED_CURVE()
B_SPLINE_CURVE(2,(#478,#479,#480),.UNSPECIFIED.,.F.,.F.)
B_SPLINE_CURVE_WITH_KNOTS((3,3),(6.89269908169872,7.08904862254809),
 .UNSPECIFIED.)
CURVE()
GEOMETRIC_REPRESENTATION_ITEM()
RATIONAL_B_SPLINE_CURVE((1.,0.707106781186548,1.))
REPRESENTATION_ITEM('')
);
#222=(
BOUNDED_CURVE()
B_SPLINE_CURVE(2,(#481,#482,#483),.UNSPECIFIED.,.F.,.F.)
B_SPLINE_CURVE_WITH_KNOTS((3,3),(7.08904862254809,8.92004862251131),
 .UNSPECIFIED.)
CURVE()
GEOMETRIC_REPRESENTATION_ITEM()
RATIONAL_B_SPLINE_CURVE((1.,1.,1.))
REPRESENTATION_ITEM('')
);
#223=(
BOUNDED_CURVE()
B_SPLINE_CURVE(2,(#484,#485,#486),.UNSPECIFIED.,.F.,.F.)
B_SPLINE_CURVE_WITH_KNOTS((3,3),(7.08904862254809,8.92004862251131),
 .UNSPECIFIED.)
CURVE()
GEOMETRIC_REPRESENTATION_ITEM()
RATIONAL_B_SPLINE_CURVE((1.,1.,1.))
REPRESENTATION_ITEM('')
);
#224=(
BOUNDED_CURVE()
B_SPLINE_CURVE(2,(#487,#488,#489,#490,#491),.UNSPECIFIED.,.F.,.F.)
B_SPLINE_CURVE_WITH_KNOTS((3,2,3),(0.,0.10759954838545,0.215199096770901),
 .UNSPECIFIED.)
CURVE()
GEOMETRIC_REPRESENTATION_ITEM()
RATIONAL_B_SPLINE_CURVE((1.,0.707106781186548,1.,0.707106781186548,1.))
REPRESENTATION_ITEM('')
);
#225=(
BOUNDED_CURVE()
B_SPLINE_CURVE(2,(#492,#493,#494,#495,#496),.UNSPECIFIED.,.F.,.F.)
B_SPLINE_CURVE_WITH_KNOTS((3,2,3),(0.,0.10759954838545,0.215199096770901),
 .UNSPECIFIED.)
CURVE()
GEOMETRIC_REPRESENTATION_ITEM()
RATIONAL_B_SPLINE_CURVE((1.,0.707106781186548,1.,0.707106781186548,1.))
REPRESENTATION_ITEM('')
);
#226=(
BOUNDED_CURVE()
B_SPLINE_CURVE(1,(#497,#498),.UNSPECIFIED.,.F.,.F.)
B_SPLINE_CURVE_WITH_KNOTS((2,2),(4.99999999999999,5.25),.UNSPECIFIED.)
CURVE()
GEOMETRIC_REPRESENTATION_ITEM()
RATIONAL_B_SPLINE_CURVE((1.,1.))
REPRESENTATION_ITEM('')
);
#227=(
BOUNDED_CURVE()
B_SPLINE_CURVE(2,(#499,#500,#501,#502,#503),.UNSPECIFIED.,.F.,.F.)
B_SPLINE_CURVE_WITH_KNOTS((3,2,3),(0.,0.10759954838545,0.215199096770901),
 .UNSPECIFIED.)
CURVE()
GEOMETRIC_REPRESENTATION_ITEM()
RATIONAL_B_SPLINE_CURVE((1.,0.707106781186548,1.,0.707106781186548,1.))
REPRESENTATION_ITEM('')
);
#228=(
BOUNDED_CURVE()
B_SPLINE_CURVE(2,(#504,#505,#506,#507,#508),.UNSPECIFIED.,.F.,.F.)
B_SPLINE_CURVE_WITH_KNOTS((3,2,3),(0.,0.10759954838545,0.215199096770901),
 .UNSPECIFIED.)
CURVE()
GEOMETRIC_REPRESENTATION_ITEM()
RATIONAL_B_SPLINE_CURVE((1.,0.707106781186548,1.,0.707106781186548,1.))
REPRESENTATION_ITEM('')
);
#229=(
BOUNDED_CURVE()
B_SPLINE_CURVE(1,(#509,#510),.UNSPECIFIED.,.F.,.F.)
B_SPLINE_CURVE_WITH_KNOTS((2,2),(4.87499999999904,5.12499999999904),
 .UNSPECIFIED.)
CURVE()
GEOMETRIC_REPRESENTATION_ITEM()
RATIONAL_B_SPLINE_CURVE((1.,1.))
REPRESENTATION_ITEM('')
);
#230=(
BOUNDED_CURVE()
B_SPLINE_CURVE(2,(#541,#542,#543),.UNSPECIFIED.,.F.,.F.)
B_SPLINE_CURVE_WITH_KNOTS((3,3),(3.11534954088638,4.94634954084936),
 .UNSPECIFIED.)
CURVE()
GEOMETRIC_REPRESENTATION_ITEM()
RATIONAL_B_SPLINE_CURVE((1.,1.,1.))
REPRESENTATION_ITEM('')
);
#231=(
BOUNDED_CURVE()
B_SPLINE_CURVE(2,(#544,#545,#546),.UNSPECIFIED.,.F.,.F.)
B_SPLINE_CURVE_WITH_KNOTS((3,3),(3.11534954088638,4.94634954084936),
 .UNSPECIFIED.)
CURVE()
GEOMETRIC_REPRESENTATION_ITEM()
RATIONAL_B_SPLINE_CURVE((1.,1.,1.))
REPRESENTATION_ITEM('')
);
#232=(
BOUNDED_CURVE()
B_SPLINE_CURVE(1,(#549,#550),.UNSPECIFIED.,.F.,.F.)
B_SPLINE_CURVE_WITH_KNOTS((2,2),(4.99999999999999,5.25),.UNSPECIFIED.)
CURVE()
GEOMETRIC_REPRESENTATION_ITEM()
RATIONAL_B_SPLINE_CURVE((1.,1.))
REPRESENTATION_ITEM('')
);
#233=(
BOUNDED_CURVE()
B_SPLINE_CURVE(2,(#551,#552,#553,#554,#555),.UNSPECIFIED.,.F.,.F.)
B_SPLINE_CURVE_WITH_KNOTS((3,2,3),(0.215199096770901,0.322798645156351,
0.430398193541802),.UNSPECIFIED.)
CURVE()
GEOMETRIC_REPRESENTATION_ITEM()
RATIONAL_B_SPLINE_CURVE((1.,0.707106781186548,1.,0.707106781186548,1.))
REPRESENTATION_ITEM('')
);
#234=(
BOUNDED_CURVE()
B_SPLINE_CURVE(2,(#556,#557,#558,#559,#560),.UNSPECIFIED.,.F.,.F.)
B_SPLINE_CURVE_WITH_KNOTS((3,2,3),(0.215199096770901,0.322798645156351,
0.430398193541802),.UNSPECIFIED.)
CURVE()
GEOMETRIC_REPRESENTATION_ITEM()
RATIONAL_B_SPLINE_CURVE((1.,0.707106781186548,1.,0.707106781186548,1.))
REPRESENTATION_ITEM('')
);
#235=(
BOUNDED_CURVE()
B_SPLINE_CURVE(1,(#561,#562),.UNSPECIFIED.,.F.,.F.)
B_SPLINE_CURVE_WITH_KNOTS((2,2),(4.87499999999905,5.12499999999903),
 .UNSPECIFIED.)
CURVE()
GEOMETRIC_REPRESENTATION_ITEM()
RATIONAL_B_SPLINE_CURVE((1.,1.))
REPRESENTATION_ITEM('')
);
#236=(
BOUNDED_CURVE()
B_SPLINE_CURVE(2,(#563,#564,#565,#566,#567),.UNSPECIFIED.,.F.,.F.)
B_SPLINE_CURVE_WITH_KNOTS((3,2,3),(0.215199096770901,0.322798645156351,
0.430398193541802),.UNSPECIFIED.)
CURVE()
GEOMETRIC_REPRESENTATION_ITEM()
RATIONAL_B_SPLINE_CURVE((1.,0.707106781186548,1.,0.707106781186548,1.))
REPRESENTATION_ITEM('')
);
#237=(
BOUNDED_CURVE()
B_SPLINE_CURVE(2,(#568,#569,#570,#571,#572),.UNSPECIFIED.,.F.,.F.)
B_SPLINE_CURVE_WITH_KNOTS((3,2,3),(0.215199096770901,0.322798645156351,
0.430398193541802),.UNSPECIFIED.)
CURVE()
GEOMETRIC_REPRESENTATION_ITEM()
RATIONAL_B_SPLINE_CURVE((1.,0.707106781186548,1.,0.707106781186548,1.))
REPRESENTATION_ITEM('')
);
#238=VERTEX_POINT('',#427);
#239=VERTEX_POINT('',#428);
#240=VERTEX_POINT('',#429);
#241=VERTEX_POINT('',#430);
#242=VERTEX_POINT('',#431);
#243=VERTEX_POINT('',#432);
#244=VERTEX_POINT('',#433);
#245=VERTEX_POINT('',#434);
#246=VERTEX_POINT('',#435);
#247=VERTEX_POINT('',#436);
#248=VERTEX_POINT('',#437);
#249=VERTEX_POINT('',#438);
#250=VERTEX_POINT('',#439);
#251=VERTEX_POINT('',#440);
#252=VERTEX_POINT('',#441);
#253=VERTEX_POINT('',#442);
#254=VERTEX_POINT('',#443);
#255=VERTEX_POINT('',#444);
#256=VERTEX_POINT('',#445);
#257=VERTEX_POINT('',#446);
#258=VERTEX_POINT('',#447);
#259=VERTEX_POINT('',#448);
#260=VERTEX_POINT('',#449);
#261=VERTEX_POINT('',#450);
#262=VERTEX_POINT('',#451);
#263=VERTEX_POINT('',#452);
#264=VERTEX_POINT('',#453);
#265=VERTEX_POINT('',#454);
#266=PLANE('',#374);
#267=PLANE('',#378);
#268=PLANE('',#379);
#269=PLANE('',#380);
#270=PLANE('',#381);
#271=PLANE('',#382);
#272=PLANE('',#383);
#273=PLANE('',#384);
#274=PLANE('',#385);
#275=PLANE('',#386);
#276=CYLINDRICAL_SURFACE('',#373,0.124999999999545);
#277=CYLINDRICAL_SURFACE('',#375,0.124999999998863);
#278=CYLINDRICAL_SURFACE('',#376,0.0685000000000855);
#279=CYLINDRICAL_SURFACE('',#377,0.0685000000005402);
#280=CYLINDRICAL_SURFACE('',#387,0.0685000000000855);
#281=CYLINDRICAL_SURFACE('',#388,0.0685000000003129);
#282=SHAPE_DEFINITION_REPRESENTATION(#283,#371);
#283=PRODUCT_DEFINITION_SHAPE('Document','',#285);
#284=PRODUCT_DEFINITION_CONTEXT('3D Mechanical Parts',#357,'design');
#285=PRODUCT_DEFINITION('A','First version',#327,#284);
#286=DATE_TIME_ROLE('classification_date');
#287=DATE_TIME_ROLE('creation_date');
#288=APPLIED_DATE_AND_TIME_ASSIGNMENT(#312,#286,(#291));
#289=APPLIED_DATE_AND_TIME_ASSIGNMENT(#314,#287,(#285));
#290=SECURITY_CLASSIFICATION_LEVEL('unclassified');
#291=SECURITY_CLASSIFICATION('A','Security for version',#290);
#292=APPLIED_SECURITY_CLASSIFICATION_ASSIGNMENT(#291,(#327));
#293=APPROVAL_ROLE('Version approval');
#294=APPROVAL_ROLE('Version Security approval');
#295=APPROVAL_ROLE('Definition approval');
#296=APPROVAL_PERSON_ORGANIZATION(#345,#321,#293);
#297=APPROVAL_PERSON_ORGANIZATION(#346,#322,#294);
#298=APPROVAL_PERSON_ORGANIZATION(#349,#323,#295);
#299=COORDINATED_UNIVERSAL_TIME_OFFSET(5,0,.BEHIND.);
#300=LOCAL_TIME(0,0,0.,#299);
#301=LOCAL_TIME(0,0,0.,#299);
#302=LOCAL_TIME(0,0,0.,#299);
#303=LOCAL_TIME(0,0,0.,#299);
#304=LOCAL_TIME(0,0,0.,#299);
#305=CALENDAR_DATE(1999,1,1);
#306=CALENDAR_DATE(1999,1,1);
#307=CALENDAR_DATE(1999,1,1);
#308=CALENDAR_DATE(1999,1,1);
#309=CALENDAR_DATE(1999,1,1);
#310=DATE_AND_TIME(#305,#300);
#311=DATE_AND_TIME(#306,#301);
#312=DATE_AND_TIME(#307,#302);
#313=DATE_AND_TIME(#308,#303);
#314=DATE_AND_TIME(#309,#304);
#315=APPROVAL_DATE_TIME(#310,#321);
#316=APPROVAL_DATE_TIME(#311,#322);
#317=APPROVAL_DATE_TIME(#313,#323);
#318=APPROVAL_STATUS('not_yet_approved');
#319=APPROVAL_STATUS('not_yet_approved');
#320=APPROVAL_STATUS('approved');
#321=APPROVAL(#318,'Version approval');
#322=APPROVAL(#319,'Version Security approval');
#323=APPROVAL(#320,'Definition approval');
#324=APPLIED_APPROVAL_ASSIGNMENT(#321,(#327));
#325=APPLIED_APPROVAL_ASSIGNMENT(#322,(#291));
#326=APPLIED_APPROVAL_ASSIGNMENT(#323,(#285));
#327=PRODUCT_DEFINITION_FORMATION_WITH_SPECIFIED_SOURCE('A',
'First version',#359,.MADE.);
#328=PERSON_AND_ORGANIZATION_ROLE('design_owner');
#329=PERSON_AND_ORGANIZATION_ROLE('creator');
#330=PERSON_AND_ORGANIZATION_ROLE('design_supplier');
#331=PERSON_AND_ORGANIZATION_ROLE('classification_officer');
#332=PERSON_AND_ORGANIZATION_ROLE('creator');
#333=ORGANIZATION('STI','lab','lab');
#334=ORGANIZATION('STI','unknown','unknown');
#335=ORGANIZATION('STI','unknown','unknown');
#336=ORGANIZATION('STI','unknown','unknown');
#337=ORGANIZATION('STI','unknown','unknown');
#338=ORGANIZATION('STI','unknown','unknown');
#339=ORGANIZATION('STI','unknown','unknown');
#340=PERSON('1','Box','vc60',$,$,$);
#341=PERSON('2','last','first',$,$,$);
#342=PERSON('3','President','Mr.',$,$,$);
#343=PERSON_AND_ORGANIZATION(#340,#333);
#344=PERSON_AND_ORGANIZATION(#341,#334);
#345=PERSON_AND_ORGANIZATION(#342,#335);
#346=PERSON_AND_ORGANIZATION(#342,#336);
#347=PERSON_AND_ORGANIZATION(#342,#337);
#348=PERSON_AND_ORGANIZATION(#341,#338);
#349=PERSON_AND_ORGANIZATION(#342,#339);
#350=APPLIED_PERSON_AND_ORGANIZATION_ASSIGNMENT(#343,#328,(#359));
#351=APPLIED_PERSON_AND_ORGANIZATION_ASSIGNMENT(#344,#329,(#327));
#352=APPLIED_PERSON_AND_ORGANIZATION_ASSIGNMENT(#344,#330,(#327));
#353=APPLIED_PERSON_AND_ORGANIZATION_ASSIGNMENT(#347,#331,(#291));
#354=APPLIED_PERSON_AND_ORGANIZATION_ASSIGNMENT(#348,#332,(#285));
#355=PRODUCT_RELATED_PRODUCT_CATEGORY('detail','detail',(#359));
#356=APPLICATION_PROTOCOL_DEFINITION('International Standard',
'config_control_design',1994,#357);
#357=APPLICATION_CONTEXT(
'configuration controlled 3d designs of mechanical parts and assemblie
s');
#358=PRODUCT_CONTEXT('3D Mechanical Parts',#357,'mechanical');
#359=PRODUCT('Document','Document','',(#358));
#360=(
LENGTH_UNIT()
NAMED_UNIT(*)
SI_UNIT(.CENTI.,.METRE.)
);
#361=LENGTH_MEASURE_WITH_UNIT(LENGTH_MEASURE(2.54),#360);
#362=(
CONVERSION_BASED_UNIT('INCH',#361)
LENGTH_UNIT()
NAMED_UNIT(#365)
);
#363=(
NAMED_UNIT(*)
PLANE_ANGLE_UNIT()
SI_UNIT($,.RADIAN.)
);
#364=DIMENSIONAL_EXPONENTS(0.,0.,0.,0.,0.,0.,0.);
#365=DIMENSIONAL_EXPONENTS(1.,0.,0.,0.,0.,0.,0.);
#366=PLANE_ANGLE_MEASURE_WITH_UNIT(PLANE_ANGLE_MEASURE(0.01745329252),#363);
#367=(
CONVERSION_BASED_UNIT('DEGREES',#366)
NAMED_UNIT(#364)
PLANE_ANGLE_UNIT()
);
#368=(
NAMED_UNIT(*)
SI_UNIT($,.STERADIAN.)
SOLID_ANGLE_UNIT()
);
#369=UNCERTAINTY_MEASURE_WITH_UNIT(LENGTH_MEASURE(0.000393700787401575),
#362,'DISTANCE_ACCURACY_VALUE',
'Maximum model space distance between geometric entities at asserted c
onnectivities');
#370=(
GEOMETRIC_REPRESENTATION_CONTEXT(3)
GLOBAL_UNCERTAINTY_ASSIGNED_CONTEXT((#369))
GLOBAL_UNIT_ASSIGNED_CONTEXT((#368,#367,#362))
REPRESENTATION_CONTEXT('ID1','3D')
);
#371=SHAPE_REPRESENTATION('Document',(#372,#389),#370);
#372=AXIS2_PLACEMENT_3D('',#410,#390,#391);
#373=AXIS2_PLACEMENT_3D('',#411,#392,$);
#374=AXIS2_PLACEMENT_3D('',#412,#393,$);
#375=AXIS2_PLACEMENT_3D('',#413,#394,$);
#376=AXIS2_PLACEMENT_3D('',#414,#395,$);
#377=AXIS2_PLACEMENT_3D('',#415,#396,$);
#378=AXIS2_PLACEMENT_3D('',#416,#397,$);
#379=AXIS2_PLACEMENT_3D('',#417,#398,$);
#380=AXIS2_PLACEMENT_3D('',#418,#399,$);
#381=AXIS2_PLACEMENT_3D('',#419,#400,$);
#382=AXIS2_PLACEMENT_3D('',#420,#401,$);
#383=AXIS2_PLACEMENT_3D('',#421,#402,$);
#384=AXIS2_PLACEMENT_3D('',#422,#403,$);
#385=AXIS2_PLACEMENT_3D('',#423,#404,$);
#386=AXIS2_PLACEMENT_3D('',#424,#405,$);
#387=AXIS2_PLACEMENT_3D('',#425,#406,$);
#388=AXIS2_PLACEMENT_3D('',#426,#407,$);
#389=AXIS2_PLACEMENT_3D('',#573,#408,#409);
#390=DIRECTION('',(0.,0.,1.));
#391=DIRECTION('',(1.,0.,0.));
#392=DIRECTION('',(-6.43275715990948E-15,6.43275715990948E-15,1.));
#393=DIRECTION('',(1.,0.,0.));
#394=DIRECTION('',(-6.43275715988123E-15,-6.43275715988123E-15,1.));
#395=DIRECTION('',(0.,0.,1.));
#396=DIRECTION('',(0.,0.,1.));
#397=DIRECTION('',(0.,1.,0.));
#398=DIRECTION('',(0.,0.,-1.));
#399=DIRECTION('',(0.,0.,1.));
#400=DIRECTION('',(-1.,0.,0.));
#401=DIRECTION('',(0.,1.,0.));
#402=DIRECTION('',(-1.,0.,0.));
#403=DIRECTION('',(0.,-1.,0.));
#404=DIRECTION('',(-1.,0.,0.));
#405=DIRECTION('',(0.,-1.,0.));
#406=DIRECTION('',(0.,0.,1.));
#407=DIRECTION('',(0.,0.,1.));
#408=DIRECTION('',(0.,0.,1.));
#409=DIRECTION('',(1.,0.,0.));
#410=CARTESIAN_POINT('',(0.,0.,0.));
#411=CARTESIAN_POINT('',(1152.93196230894,-1485.61807531892,0.125000000894445));
#412=CARTESIAN_POINT('',(1153.05696230893,-1485.61807531892,8.94445406629529E-10));
#413=CARTESIAN_POINT('',(1152.93196230894,-1483.86807531892,0.125000000894445));
#414=CARTESIAN_POINT('',(1151.55696230893,-1484.24307531892,8.94445406629529E-10));
#415=CARTESIAN_POINT('',(1152.55696230895,-1484.24306400285,0.125000000895398));
#416=CARTESIAN_POINT('',(1152.93196230893,-1483.74307531892,8.94445406629529E-10));
#417=CARTESIAN_POINT('',(1147.43196230893,-1485.99307531892,8.94445406629529E-10));
#418=CARTESIAN_POINT('',(1147.43196230893,-1485.99307531892,0.250000000894445));
#419=CARTESIAN_POINT('',(1151.01796230897,-1485.94313058677,-0.0250032217516605));
#420=CARTESIAN_POINT('',(1151.01796230897,-1483.99307531892,-0.749999999105555));
#421=CARTESIAN_POINT('',(1151.10096230897,-1483.99307531892,-0.749999999105555));
#422=CARTESIAN_POINT('',(1148.18196230893,-1485.74307531892,8.94445406629529E-10));
#423=CARTESIAN_POINT('',(1151.10096230897,-1485.74307531892,-0.749999999105555));
#424=CARTESIAN_POINT('',(1151.10096230897,-1485.49307531892,-0.749999999105555));
#425=CARTESIAN_POINT('',(1151.55696230893,-1484.24307531892,8.94445406629529E-10));
#426=CARTESIAN_POINT('',(1152.55696230894,-1484.24306400285,0.125000000895398));
#427=CARTESIAN_POINT('',(1152.93196230893,-1485.74307531892,8.94445406629529E-10));
#428=CARTESIAN_POINT('',(1152.93196230893,-1485.74307531892,0.250000000894445));
#429=CARTESIAN_POINT('',(1153.05696230893,-1485.61807531892,8.94445406629529E-10));
#430=CARTESIAN_POINT('',(1153.05696230893,-1485.61807531892,0.250000000894445));
#431=CARTESIAN_POINT('',(1153.05696230893,-1483.86807531892,8.94445406629529E-10));
#432=CARTESIAN_POINT('',(1153.05696230893,-1483.86807531892,0.250000000894445));
#433=CARTESIAN_POINT('',(1152.93196230893,-1483.74307531892,8.94445406629529E-10));
#434=CARTESIAN_POINT('',(1152.93196230893,-1483.74307531892,0.250000000894445));
#435=CARTESIAN_POINT('',(1151.48846230893,-1484.24307531892,8.94431195774814E-10));
#436=CARTESIAN_POINT('',(1151.48846230893,-1484.24307531892,0.250000000894445));
#437=CARTESIAN_POINT('',(1152.48846230894,-1484.24306400285,8.94445406629529E-10));
#438=CARTESIAN_POINT('',(1152.48846230894,-1484.24306400285,0.250000000894431));
#439=CARTESIAN_POINT('',(1151.10096230897,-1483.74307531892,8.94445406629529E-10));
#440=CARTESIAN_POINT('',(1151.10096230897,-1483.74307531892,0.250000000894445));
#441=CARTESIAN_POINT('',(1151.01796230897,-1483.99307531892,8.94445406629529E-10));
#442=CARTESIAN_POINT('',(1151.10096230897,-1483.99307531892,8.94445378873954E-10));
#443=CARTESIAN_POINT('',(1151.01796230897,-1483.99307531892,0.250000000894445));
#444=CARTESIAN_POINT('',(1151.10096230897,-1483.99307531892,0.250000000894445));
#445=CARTESIAN_POINT('',(1151.10096230897,-1485.74307531892,8.9444540662953E-10));
#446=CARTESIAN_POINT('',(1151.10096230897,-1485.74307531892,0.250000000894445));
#447=CARTESIAN_POINT('',(1151.01796230897,-1485.49307531892,8.94445406629529E-10));
#448=CARTESIAN_POINT('',(1151.10096230897,-1485.49307531892,8.94445378873954E-10));
#449=CARTESIAN_POINT('',(1151.01796230897,-1485.49307531892,0.250000000894445));
#450=CARTESIAN_POINT('',(1151.10096230897,-1485.49307531892,0.250000000894445));
#451=CARTESIAN_POINT('',(1151.62546230894,-1484.24307531892,8.94445406629529E-10));
#452=CARTESIAN_POINT('',(1151.62546230894,-1484.24307531892,0.250000000894445));
#453=CARTESIAN_POINT('',(1152.62546230895,-1484.24306400285,8.94459617484245E-10));
#454=CARTESIAN_POINT('',(1152.62546230895,-1484.24306400285,0.25000000089446));
#455=CARTESIAN_POINT('',(1152.93196230893,-1485.74307531892,8.94445406629529E-10));
#456=CARTESIAN_POINT('',(1152.93196230893,-1485.74307531892,0.250000000894445));
#457=CARTESIAN_POINT('',(1152.93196230893,-1485.74307531892,8.94445406629529E-10));
#458=CARTESIAN_POINT('',(1153.05696230894,-1485.74307531892,8.94445247567105E-10));
#459=CARTESIAN_POINT('',(1153.05696230893,-1485.61807531892,8.94445406629529E-10));
#460=CARTESIAN_POINT('',(1153.05696230893,-1485.61807531892,8.94445406629529E-10));
#461=CARTESIAN_POINT('',(1153.05696230893,-1485.61807531892,0.250000000894445));
#462=CARTESIAN_POINT('',(1152.93196230893,-1485.74307531892,0.250000000894445));
#463=CARTESIAN_POINT('',(1153.05696230894,-1485.74307531892,0.250000000894447));
#464=CARTESIAN_POINT('',(1153.05696230893,-1485.61807531892,0.250000000894445));
#465=CARTESIAN_POINT('',(1153.05696230893,-1485.61807531892,8.94445406629529E-10));
#466=CARTESIAN_POINT('',(1153.05696230893,-1484.74307531892,8.94445406629529E-10));
#467=CARTESIAN_POINT('',(1153.05696230893,-1483.86807531892,8.94445406629529E-10));
#468=CARTESIAN_POINT('',(1153.05696230893,-1483.86807531892,8.94445406629529E-10));
#469=CARTESIAN_POINT('',(1153.05696230893,-1483.86807531892,0.250000000894445));
#470=CARTESIAN_POINT('',(1153.05696230893,-1485.61807531892,0.250000000894445));
#471=CARTESIAN_POINT('',(1153.05696230893,-1484.74307531892,0.250000000894445));
#472=CARTESIAN_POINT('',(1153.05696230893,-1483.86807531892,0.250000000894445));
#473=CARTESIAN_POINT('',(1153.05696230893,-1483.86807531892,8.94445406629529E-10));
#474=CARTESIAN_POINT('',(1153.05696230894,-1483.74307531892,8.94445247567105E-10));
#475=CARTESIAN_POINT('',(1152.93196230893,-1483.74307531892,8.94445406629529E-10));
#476=CARTESIAN_POINT('',(1152.93196230893,-1483.74307531892,8.94445406629529E-10));
#477=CARTESIAN_POINT('',(1152.93196230893,-1483.74307531892,0.250000000894445));
#478=CARTESIAN_POINT('',(1153.05696230893,-1483.86807531892,0.250000000894445));
#479=CARTESIAN_POINT('',(1153.05696230894,-1483.74307531892,0.250000000894447));
#480=CARTESIAN_POINT('',(1152.93196230893,-1483.74307531892,0.250000000894445));
#481=CARTESIAN_POINT('',(1152.93196230893,-1483.74307531892,8.94445406629529E-10));
#482=CARTESIAN_POINT('',(1152.01646230895,-1483.74307531892,8.94445406629529E-10));
#483=CARTESIAN_POINT('',(1151.10096230897,-1483.74307531892,8.94445406629529E-10));
#484=CARTESIAN_POINT('',(1152.93196230893,-1483.74307531892,0.250000000894445));
#485=CARTESIAN_POINT('',(1152.01646230895,-1483.74307531892,0.250000000894445));
#486=CARTESIAN_POINT('',(1151.10096230897,-1483.74307531892,0.250000000894445));
#487=CARTESIAN_POINT('',(1151.48846230893,-1484.24307531892,8.94445406629529E-10));
#488=CARTESIAN_POINT('',(1151.48846230894,-1484.17457531892,8.94445247567105E-10));
#489=CARTESIAN_POINT('',(1151.55696230893,-1484.17457531892,8.94445406629529E-10));
#490=CARTESIAN_POINT('',(1151.62546230894,-1484.17457531892,8.94445247567105E-10));
#491=CARTESIAN_POINT('',(1151.62546230894,-1484.24307531892,8.94445406629529E-10));
#492=CARTESIAN_POINT('',(1151.48846230893,-1484.24307531892,0.250000000894445));
#493=CARTESIAN_POINT('',(1151.48846230894,-1484.17457531892,0.250000000894447));
#494=CARTESIAN_POINT('',(1151.55696230893,-1484.17457531892,0.250000000894445));
#495=CARTESIAN_POINT('',(1151.62546230894,-1484.17457531892,0.250000000894447));
#496=CARTESIAN_POINT('',(1151.62546230894,-1484.24307531892,0.250000000894445));
#497=CARTESIAN_POINT('',(1151.48846230893,-1484.24307531892,8.94431195774814E-10));
#498=CARTESIAN_POINT('',(1151.48846230893,-1484.24307531892,0.250000000894445));
#499=CARTESIAN_POINT('',(1152.48846230894,-1484.24306400285,8.94459617484245E-10));
#500=CARTESIAN_POINT('',(1152.48846230895,-1484.17456400285,8.94445247567105E-10));
#501=CARTESIAN_POINT('',(1152.55696230894,-1484.17456400285,8.94459617484245E-10));
#502=CARTESIAN_POINT('',(1152.62546230894,-1484.17456400285,8.94445247567105E-10));
#503=CARTESIAN_POINT('',(1152.62546230895,-1484.24306400285,8.94459617484245E-10));
#504=CARTESIAN_POINT('',(1152.48846230894,-1484.24306400285,0.25000000089446));
#505=CARTESIAN_POINT('',(1152.48846230895,-1484.17456400285,0.250000000894447));
#506=CARTESIAN_POINT('',(1152.55696230894,-1484.17456400285,0.25000000089446));
#507=CARTESIAN_POINT('',(1152.62546230894,-1484.17456400285,0.250000000894447));
#508=CARTESIAN_POINT('',(1152.62546230895,-1484.24306400285,0.25000000089446));
#509=CARTESIAN_POINT('',(1152.48846230894,-1484.24306400285,8.94445406629529E-10));
#510=CARTESIAN_POINT('',(1152.48846230894,-1484.24306400285,0.250000000894431));
#511=CARTESIAN_POINT('',(1151.10096230897,-1483.74307531892,8.94445406629529E-10));
#512=CARTESIAN_POINT('',(1151.10096230897,-1483.74307531892,0.250000000894445));
#513=CARTESIAN_POINT('',(1151.10096230897,-1483.99307531892,8.94445378873954E-10));
#514=CARTESIAN_POINT('',(1151.01796230897,-1483.99307531892,8.94445406629529E-10));
#515=CARTESIAN_POINT('',(1151.10096230897,-1483.74307531892,8.94445406629529E-10));
#516=CARTESIAN_POINT('',(1151.10096230897,-1483.99307531892,8.94445378873954E-10));
#517=CARTESIAN_POINT('',(1151.10096230897,-1483.99307531892,0.250000000894445));
#518=CARTESIAN_POINT('',(1151.01796230897,-1483.99307531892,0.250000000894445));
#519=CARTESIAN_POINT('',(1151.10096230897,-1483.74307531892,0.250000000894445));
#520=CARTESIAN_POINT('',(1151.10096230897,-1483.99307531892,0.250000000894445));
#521=CARTESIAN_POINT('',(1151.01796230897,-1483.99307531892,8.94445406629529E-10));
#522=CARTESIAN_POINT('',(1151.01796230897,-1483.99307531892,0.250000000894445));
#523=CARTESIAN_POINT('',(1151.10096230897,-1483.99307531892,8.94445378873954E-10));
#524=CARTESIAN_POINT('',(1151.10096230897,-1483.99307531892,0.250000000894445));
#525=CARTESIAN_POINT('',(1151.10096230897,-1485.74307531892,8.9444540662953E-10));
#526=CARTESIAN_POINT('',(1151.10096230897,-1485.74307531892,0.250000000894445));
#527=CARTESIAN_POINT('',(1151.10096230897,-1485.49307531892,8.94445378873954E-10));
#528=CARTESIAN_POINT('',(1151.10096230897,-1485.74307531892,8.9444540662953E-10));
#529=CARTESIAN_POINT('',(1151.01796230897,-1485.49307531892,8.94445406629529E-10));
#530=CARTESIAN_POINT('',(1151.10096230897,-1485.49307531892,8.94445378873954E-10));
#531=CARTESIAN_POINT('',(1151.10096230897,-1485.49307531892,0.250000000894445));
#532=CARTESIAN_POINT('',(1151.10096230897,-1485.74307531892,0.250000000894445));
#533=CARTESIAN_POINT('',(1151.01796230897,-1485.49307531892,0.250000000894445));
#534=CARTESIAN_POINT('',(1151.10096230897,-1485.49307531892,0.250000000894445));
#535=CARTESIAN_POINT('',(1151.01796230897,-1485.49307531892,8.94445406629529E-10));
#536=CARTESIAN_POINT('',(1151.01796230897,-1485.49307531892,0.250000000894445));
#537=CARTESIAN_POINT('',(1151.01796230897,-1485.49307531892,8.94445406629529E-10));
#538=CARTESIAN_POINT('',(1151.01796230897,-1483.99307531892,8.94445406629529E-10));
#539=CARTESIAN_POINT('',(1151.01796230897,-1485.49307531892,0.250000000894445));
#540=CARTESIAN_POINT('',(1151.01796230897,-1483.99307531892,0.250000000894445));
#541=CARTESIAN_POINT('',(1151.10096230897,-1485.74307531892,8.9444540662953E-10));
#542=CARTESIAN_POINT('',(1152.01646230895,-1485.74307531892,8.94445406629529E-10));
#543=CARTESIAN_POINT('',(1152.93196230893,-1485.74307531892,8.94445406629529E-10));
#544=CARTESIAN_POINT('',(1151.10096230897,-1485.74307531892,0.250000000894445));
#545=CARTESIAN_POINT('',(1152.01646230895,-1485.74307531892,0.250000000894445));
#546=CARTESIAN_POINT('',(1152.93196230893,-1485.74307531892,0.250000000894445));
#547=CARTESIAN_POINT('',(1151.10096230897,-1485.49307531892,8.94445378873954E-10));
#548=CARTESIAN_POINT('',(1151.10096230897,-1485.49307531892,0.250000000894445));
#549=CARTESIAN_POINT('',(1151.62546230894,-1484.24307531892,8.94431195774814E-10));
#550=CARTESIAN_POINT('',(1151.62546230894,-1484.24307531892,0.250000000894445));
#551=CARTESIAN_POINT('',(1151.62546230894,-1484.24307531892,8.94445406629529E-10));
#552=CARTESIAN_POINT('',(1151.62546230894,-1484.31157531892,8.94445247567105E-10));
#553=CARTESIAN_POINT('',(1151.55696230893,-1484.31157531892,8.94445406629529E-10));
#554=CARTESIAN_POINT('',(1151.48846230894,-1484.31157531892,8.94445247567105E-10));
#555=CARTESIAN_POINT('',(1151.48846230893,-1484.24307531892,8.94445406629529E-10));
#556=CARTESIAN_POINT('',(1151.62546230894,-1484.24307531892,0.250000000894445));
#557=CARTESIAN_POINT('',(1151.62546230894,-1484.31157531892,0.250000000894447));
#558=CARTESIAN_POINT('',(1151.55696230893,-1484.31157531892,0.250000000894445));
#559=CARTESIAN_POINT('',(1151.48846230894,-1484.31157531892,0.250000000894447));
#560=CARTESIAN_POINT('',(1151.48846230893,-1484.24307531892,0.250000000894445));
#561=CARTESIAN_POINT('',(1152.62546230895,-1484.24306400285,8.94445406629529E-10));
#562=CARTESIAN_POINT('',(1152.62546230895,-1484.24306400285,0.250000000894432));
#563=CARTESIAN_POINT('',(1152.62546230895,-1484.24306400285,8.94459617484245E-10));
#564=CARTESIAN_POINT('',(1152.62546230894,-1484.31156400285,8.94445247567105E-10));
#565=CARTESIAN_POINT('',(1152.55696230894,-1484.31156400285,8.94459617484245E-10));
#566=CARTESIAN_POINT('',(1152.48846230895,-1484.31156400285,8.94445247567105E-10));
#567=CARTESIAN_POINT('',(1152.48846230894,-1484.24306400285,8.94459617484245E-10));
#568=CARTESIAN_POINT('',(1152.62546230895,-1484.24306400285,0.25000000089446));
#569=CARTESIAN_POINT('',(1152.62546230894,-1484.31156400285,0.250000000894447));
#570=CARTESIAN_POINT('',(1152.55696230894,-1484.31156400285,0.25000000089446));
#571=CARTESIAN_POINT('',(1152.48846230895,-1484.31156400285,0.250000000894447));
#572=CARTESIAN_POINT('',(1152.48846230894,-1484.24306400285,0.25000000089446));
#573=CARTESIAN_POINT('',(0.,0.,0.));
ENDSEC;
END-ISO-10303-21;
