ISO-10303-21;
HEADER;
/* Generated by software containing ST-Developer
 * from STEP Tools, Inc. (www.steptools.com) 
 */
/* OPTION: using custom schema-name function */

FILE_DESCRIPTION(
/* description */ (''),
/* implementation_level */ '2;1');

FILE_NAME(
/* name */ 'T Clip Base x8',
/* time_stamp */ '2024-03-06T20:46:53-06:00',
/* author */ (''),
/* organization */ (''),
/* preprocessor_version */ 'ST-DEVELOPER v16.5',
/* originating_system */ 'Rhino 7.36',
/* authorisation */ '');

FILE_SCHEMA (('CONFIG_CONTROL_DESIGN'));
ENDSEC;

DATA;
#10=SHAPE_REPRESENTATION_RELATIONSHIP('','',#487,#12);
#11=MANIFOLD_SOLID_BREP('brep_1',#13);
#12=ADVANCED_BREP_SHAPE_REPRESENTATION('brep_rep_0',(#11,#511),#486);
#13=CLOSED_SHELL('',(#22,#23,#24,#25,#26,#27,#28,#29,#30,#31,#32,#33,#34,
#35,#36,#37,#38,#39,#40,#41,#42,#43));
#14=FACE_BOUND('',#77,.T.);
#15=FACE_BOUND('',#78,.T.);
#16=FACE_BOUND('',#79,.T.);
#17=FACE_BOUND('',#80,.T.);
#18=FACE_BOUND('',#82,.T.);
#19=FACE_BOUND('',#83,.T.);
#20=FACE_BOUND('',#84,.T.);
#21=FACE_BOUND('',#85,.T.);
#22=ADVANCED_FACE('',(#44),#384,.T.);
#23=ADVANCED_FACE('',(#45),#376,.T.);
#24=ADVANCED_FACE('',(#46),#385,.T.);
#25=ADVANCED_FACE('',(#47),#377,.T.);
#26=ADVANCED_FACE('',(#48),#386,.T.);
#27=ADVANCED_FACE('',(#49),#378,.T.);
#28=ADVANCED_FACE('',(#50),#387,.T.);
#29=ADVANCED_FACE('',(#51),#379,.T.);
#30=ADVANCED_FACE('',(#52),#380,.F.);
#31=ADVANCED_FACE('',(#53),#381,.F.);
#32=ADVANCED_FACE('',(#54,#14,#15,#16,#17),#388,.T.);
#33=ADVANCED_FACE('',(#55,#18,#19,#20,#21),#389,.T.);
#34=ADVANCED_FACE('',(#56),#390,.T.);
#35=ADVANCED_FACE('',(#57),#391,.T.);
#36=ADVANCED_FACE('',(#58),#392,.T.);
#37=ADVANCED_FACE('',(#59),#393,.T.);
#38=ADVANCED_FACE('',(#60),#394,.T.);
#39=ADVANCED_FACE('',(#61),#395,.T.);
#40=ADVANCED_FACE('',(#62),#396,.T.);
#41=ADVANCED_FACE('',(#63),#397,.T.);
#42=ADVANCED_FACE('',(#64),#382,.F.);
#43=ADVANCED_FACE('',(#65),#383,.F.);
#44=FACE_OUTER_BOUND('',#66,.T.);
#45=FACE_OUTER_BOUND('',#67,.T.);
#46=FACE_OUTER_BOUND('',#68,.T.);
#47=FACE_OUTER_BOUND('',#69,.T.);
#48=FACE_OUTER_BOUND('',#70,.T.);
#49=FACE_OUTER_BOUND('',#71,.T.);
#50=FACE_OUTER_BOUND('',#72,.T.);
#51=FACE_OUTER_BOUND('',#73,.T.);
#52=FACE_OUTER_BOUND('',#74,.T.);
#53=FACE_OUTER_BOUND('',#75,.T.);
#54=FACE_OUTER_BOUND('',#76,.T.);
#55=FACE_OUTER_BOUND('',#81,.T.);
#56=FACE_OUTER_BOUND('',#86,.T.);
#57=FACE_OUTER_BOUND('',#87,.T.);
#58=FACE_OUTER_BOUND('',#88,.T.);
#59=FACE_OUTER_BOUND('',#89,.T.);
#60=FACE_OUTER_BOUND('',#90,.T.);
#61=FACE_OUTER_BOUND('',#91,.T.);
#62=FACE_OUTER_BOUND('',#92,.T.);
#63=FACE_OUTER_BOUND('',#93,.T.);
#64=FACE_OUTER_BOUND('',#94,.T.);
#65=FACE_OUTER_BOUND('',#95,.T.);
#66=EDGE_LOOP('',(#96,#97,#98,#99));
#67=EDGE_LOOP('',(#100,#101,#102,#103));
#68=EDGE_LOOP('',(#104,#105,#106,#107));
#69=EDGE_LOOP('',(#108,#109,#110,#111));
#70=EDGE_LOOP('',(#112,#113,#114,#115));
#71=EDGE_LOOP('',(#116,#117,#118,#119));
#72=EDGE_LOOP('',(#120,#121,#122,#123));
#73=EDGE_LOOP('',(#124,#125,#126,#127));
#74=EDGE_LOOP('',(#128,#129,#130,#131));
#75=EDGE_LOOP('',(#132,#133,#134,#135));
#76=EDGE_LOOP('',(#136,#137,#138,#139,#140,#141,#142,#143));
#77=EDGE_LOOP('',(#144,#145,#146,#147));
#78=EDGE_LOOP('',(#148,#149));
#79=EDGE_LOOP('',(#150,#151));
#80=EDGE_LOOP('',(#152,#153,#154,#155));
#81=EDGE_LOOP('',(#156,#157,#158,#159,#160,#161,#162,#163));
#82=EDGE_LOOP('',(#164,#165,#166,#167));
#83=EDGE_LOOP('',(#168,#169,#170,#171));
#84=EDGE_LOOP('',(#172,#173));
#85=EDGE_LOOP('',(#174,#175));
#86=EDGE_LOOP('',(#176,#177,#178,#179));
#87=EDGE_LOOP('',(#180,#181,#182,#183));
#88=EDGE_LOOP('',(#184,#185,#186,#187));
#89=EDGE_LOOP('',(#188,#189,#190,#191));
#90=EDGE_LOOP('',(#192,#193,#194,#195));
#91=EDGE_LOOP('',(#196,#197,#198,#199));
#92=EDGE_LOOP('',(#200,#201,#202,#203));
#93=EDGE_LOOP('',(#204,#205,#206,#207));
#94=EDGE_LOOP('',(#208,#209,#210,#211));
#95=EDGE_LOOP('',(#212,#213,#214,#215));
#96=ORIENTED_EDGE('',*,*,#216,.T.);
#97=ORIENTED_EDGE('',*,*,#217,.T.);
#98=ORIENTED_EDGE('',*,*,#218,.F.);
#99=ORIENTED_EDGE('',*,*,#219,.F.);
#100=ORIENTED_EDGE('',*,*,#220,.T.);
#101=ORIENTED_EDGE('',*,*,#221,.T.);
#102=ORIENTED_EDGE('',*,*,#222,.F.);
#103=ORIENTED_EDGE('',*,*,#217,.F.);
#104=ORIENTED_EDGE('',*,*,#223,.T.);
#105=ORIENTED_EDGE('',*,*,#224,.T.);
#106=ORIENTED_EDGE('',*,*,#225,.F.);
#107=ORIENTED_EDGE('',*,*,#221,.F.);
#108=ORIENTED_EDGE('',*,*,#226,.T.);
#109=ORIENTED_EDGE('',*,*,#227,.T.);
#110=ORIENTED_EDGE('',*,*,#228,.F.);
#111=ORIENTED_EDGE('',*,*,#224,.F.);
#112=ORIENTED_EDGE('',*,*,#229,.T.);
#113=ORIENTED_EDGE('',*,*,#230,.T.);
#114=ORIENTED_EDGE('',*,*,#231,.F.);
#115=ORIENTED_EDGE('',*,*,#227,.F.);
#116=ORIENTED_EDGE('',*,*,#232,.T.);
#117=ORIENTED_EDGE('',*,*,#233,.T.);
#118=ORIENTED_EDGE('',*,*,#234,.F.);
#119=ORIENTED_EDGE('',*,*,#230,.F.);
#120=ORIENTED_EDGE('',*,*,#235,.T.);
#121=ORIENTED_EDGE('',*,*,#236,.T.);
#122=ORIENTED_EDGE('',*,*,#237,.F.);
#123=ORIENTED_EDGE('',*,*,#233,.F.);
#124=ORIENTED_EDGE('',*,*,#238,.T.);
#125=ORIENTED_EDGE('',*,*,#219,.T.);
#126=ORIENTED_EDGE('',*,*,#239,.F.);
#127=ORIENTED_EDGE('',*,*,#236,.F.);
#128=ORIENTED_EDGE('',*,*,#270,.T.);
#129=ORIENTED_EDGE('',*,*,#250,.F.);
#130=ORIENTED_EDGE('',*,*,#249,.F.);
#131=ORIENTED_EDGE('',*,*,#248,.T.);
#132=ORIENTED_EDGE('',*,*,#273,.T.);
#133=ORIENTED_EDGE('',*,*,#253,.F.);
#134=ORIENTED_EDGE('',*,*,#252,.F.);
#135=ORIENTED_EDGE('',*,*,#251,.T.);
#136=ORIENTED_EDGE('',*,*,#238,.F.);
#137=ORIENTED_EDGE('',*,*,#235,.F.);
#138=ORIENTED_EDGE('',*,*,#232,.F.);
#139=ORIENTED_EDGE('',*,*,#229,.F.);
#140=ORIENTED_EDGE('',*,*,#226,.F.);
#141=ORIENTED_EDGE('',*,*,#223,.F.);
#142=ORIENTED_EDGE('',*,*,#220,.F.);
#143=ORIENTED_EDGE('',*,*,#216,.F.);
#144=ORIENTED_EDGE('',*,*,#266,.F.);
#145=ORIENTED_EDGE('',*,*,#244,.F.);
#146=ORIENTED_EDGE('',*,*,#268,.F.);
#147=ORIENTED_EDGE('',*,*,#262,.F.);
#148=ORIENTED_EDGE('',*,*,#271,.F.);
#149=ORIENTED_EDGE('',*,*,#248,.F.);
#150=ORIENTED_EDGE('',*,*,#274,.F.);
#151=ORIENTED_EDGE('',*,*,#251,.F.);
#152=ORIENTED_EDGE('',*,*,#260,.F.);
#153=ORIENTED_EDGE('',*,*,#241,.F.);
#154=ORIENTED_EDGE('',*,*,#258,.F.);
#155=ORIENTED_EDGE('',*,*,#254,.F.);
#156=ORIENTED_EDGE('',*,*,#218,.T.);
#157=ORIENTED_EDGE('',*,*,#222,.T.);
#158=ORIENTED_EDGE('',*,*,#225,.T.);
#159=ORIENTED_EDGE('',*,*,#228,.T.);
#160=ORIENTED_EDGE('',*,*,#231,.T.);
#161=ORIENTED_EDGE('',*,*,#234,.T.);
#162=ORIENTED_EDGE('',*,*,#237,.T.);
#163=ORIENTED_EDGE('',*,*,#239,.T.);
#164=ORIENTED_EDGE('',*,*,#259,.T.);
#165=ORIENTED_EDGE('',*,*,#243,.T.);
#166=ORIENTED_EDGE('',*,*,#261,.T.);
#167=ORIENTED_EDGE('',*,*,#255,.T.);
#168=ORIENTED_EDGE('',*,*,#263,.T.);
#169=ORIENTED_EDGE('',*,*,#269,.T.);
#170=ORIENTED_EDGE('',*,*,#246,.T.);
#171=ORIENTED_EDGE('',*,*,#267,.T.);
#172=ORIENTED_EDGE('',*,*,#250,.T.);
#173=ORIENTED_EDGE('',*,*,#272,.T.);
#174=ORIENTED_EDGE('',*,*,#253,.T.);
#175=ORIENTED_EDGE('',*,*,#275,.T.);
#176=ORIENTED_EDGE('',*,*,#256,.T.);
#177=ORIENTED_EDGE('',*,*,#258,.T.);
#178=ORIENTED_EDGE('',*,*,#240,.F.);
#179=ORIENTED_EDGE('',*,*,#259,.F.);
#180=ORIENTED_EDGE('',*,*,#241,.T.);
#181=ORIENTED_EDGE('',*,*,#242,.F.);
#182=ORIENTED_EDGE('',*,*,#243,.F.);
#183=ORIENTED_EDGE('',*,*,#240,.T.);
#184=ORIENTED_EDGE('',*,*,#257,.F.);
#185=ORIENTED_EDGE('',*,*,#261,.F.);
#186=ORIENTED_EDGE('',*,*,#242,.T.);
#187=ORIENTED_EDGE('',*,*,#260,.T.);
#188=ORIENTED_EDGE('',*,*,#254,.T.);
#189=ORIENTED_EDGE('',*,*,#256,.F.);
#190=ORIENTED_EDGE('',*,*,#255,.F.);
#191=ORIENTED_EDGE('',*,*,#257,.T.);
#192=ORIENTED_EDGE('',*,*,#264,.F.);
#193=ORIENTED_EDGE('',*,*,#267,.F.);
#194=ORIENTED_EDGE('',*,*,#245,.T.);
#195=ORIENTED_EDGE('',*,*,#266,.T.);
#196=ORIENTED_EDGE('',*,*,#262,.T.);
#197=ORIENTED_EDGE('',*,*,#265,.F.);
#198=ORIENTED_EDGE('',*,*,#263,.F.);
#199=ORIENTED_EDGE('',*,*,#264,.T.);
#200=ORIENTED_EDGE('',*,*,#265,.T.);
#201=ORIENTED_EDGE('',*,*,#268,.T.);
#202=ORIENTED_EDGE('',*,*,#247,.F.);
#203=ORIENTED_EDGE('',*,*,#269,.F.);
#204=ORIENTED_EDGE('',*,*,#244,.T.);
#205=ORIENTED_EDGE('',*,*,#245,.F.);
#206=ORIENTED_EDGE('',*,*,#246,.F.);
#207=ORIENTED_EDGE('',*,*,#247,.T.);
#208=ORIENTED_EDGE('',*,*,#271,.T.);
#209=ORIENTED_EDGE('',*,*,#249,.T.);
#210=ORIENTED_EDGE('',*,*,#272,.F.);
#211=ORIENTED_EDGE('',*,*,#270,.F.);
#212=ORIENTED_EDGE('',*,*,#274,.T.);
#213=ORIENTED_EDGE('',*,*,#252,.T.);
#214=ORIENTED_EDGE('',*,*,#275,.F.);
#215=ORIENTED_EDGE('',*,*,#273,.F.);
#216=EDGE_CURVE('',#336,#337,#284,.T.);
#217=EDGE_CURVE('',#337,#338,#285,.T.);
#218=EDGE_CURVE('',#339,#338,#286,.T.);
#219=EDGE_CURVE('',#336,#339,#287,.T.);
#220=EDGE_CURVE('',#337,#340,#288,.T.);
#221=EDGE_CURVE('',#340,#341,#289,.T.);
#222=EDGE_CURVE('',#338,#341,#290,.T.);
#223=EDGE_CURVE('',#340,#342,#291,.T.);
#224=EDGE_CURVE('',#342,#343,#292,.T.);
#225=EDGE_CURVE('',#341,#343,#293,.T.);
#226=EDGE_CURVE('',#342,#344,#294,.T.);
#227=EDGE_CURVE('',#344,#345,#295,.T.);
#228=EDGE_CURVE('',#343,#345,#296,.T.);
#229=EDGE_CURVE('',#344,#346,#297,.T.);
#230=EDGE_CURVE('',#346,#347,#298,.T.);
#231=EDGE_CURVE('',#345,#347,#299,.T.);
#232=EDGE_CURVE('',#346,#348,#300,.T.);
#233=EDGE_CURVE('',#348,#349,#301,.T.);
#234=EDGE_CURVE('',#347,#349,#302,.T.);
#235=EDGE_CURVE('',#348,#350,#303,.T.);
#236=EDGE_CURVE('',#350,#351,#304,.T.);
#237=EDGE_CURVE('',#349,#351,#305,.T.);
#238=EDGE_CURVE('',#350,#336,#306,.T.);
#239=EDGE_CURVE('',#351,#339,#307,.T.);
#240=EDGE_CURVE('',#353,#352,#308,.T.);
#241=EDGE_CURVE('',#352,#354,#309,.T.);
#242=EDGE_CURVE('',#355,#354,#310,.T.);
#243=EDGE_CURVE('',#353,#355,#311,.T.);
#244=EDGE_CURVE('',#356,#357,#312,.T.);
#245=EDGE_CURVE('',#358,#357,#313,.T.);
#246=EDGE_CURVE('',#359,#358,#314,.T.);
#247=EDGE_CURVE('',#359,#356,#315,.T.);
#248=EDGE_CURVE('',#360,#372,#316,.T.);
#249=EDGE_CURVE('',#360,#361,#317,.T.);
#250=EDGE_CURVE('',#361,#373,#318,.T.);
#251=EDGE_CURVE('',#362,#374,#319,.T.);
#252=EDGE_CURVE('',#362,#363,#320,.T.);
#253=EDGE_CURVE('',#363,#375,#321,.T.);
#254=EDGE_CURVE('',#365,#364,#276,.T.);
#255=EDGE_CURVE('',#367,#366,#277,.T.);
#256=EDGE_CURVE('',#366,#364,#278,.T.);
#257=EDGE_CURVE('',#367,#365,#279,.T.);
#258=EDGE_CURVE('',#364,#352,#322,.T.);
#259=EDGE_CURVE('',#366,#353,#323,.T.);
#260=EDGE_CURVE('',#354,#365,#324,.T.);
#261=EDGE_CURVE('',#355,#367,#325,.T.);
#262=EDGE_CURVE('',#368,#369,#280,.T.);
#263=EDGE_CURVE('',#370,#371,#281,.T.);
#264=EDGE_CURVE('',#370,#368,#282,.T.);
#265=EDGE_CURVE('',#371,#369,#283,.T.);
#266=EDGE_CURVE('',#357,#368,#326,.T.);
#267=EDGE_CURVE('',#358,#370,#327,.T.);
#268=EDGE_CURVE('',#369,#356,#328,.T.);
#269=EDGE_CURVE('',#371,#359,#329,.T.);
#270=EDGE_CURVE('',#372,#373,#330,.T.);
#271=EDGE_CURVE('',#372,#360,#331,.T.);
#272=EDGE_CURVE('',#373,#361,#332,.T.);
#273=EDGE_CURVE('',#374,#375,#333,.T.);
#274=EDGE_CURVE('',#374,#362,#334,.T.);
#275=EDGE_CURVE('',#375,#363,#335,.T.);
#276=B_SPLINE_CURVE_WITH_KNOTS('',1,(#709,#710),.UNSPECIFIED.,.F.,.F.,(2,
2),(-6.18243922016836,-4.68243922016791),.UNSPECIFIED.);
#277=B_SPLINE_CURVE_WITH_KNOTS('',1,(#711,#712),.UNSPECIFIED.,.F.,.F.,(2,
2),(-6.18243922016836,-4.68243922016779),.UNSPECIFIED.);
#278=B_SPLINE_CURVE_WITH_KNOTS('',1,(#713,#714),.UNSPECIFIED.,.F.,.F.,(2,
2),(4.,4.1875),.UNSPECIFIED.);
#279=B_SPLINE_CURVE_WITH_KNOTS('',1,(#715,#716),.UNSPECIFIED.,.F.,.F.,(2,
2),(4.,4.1875),.UNSPECIFIED.);
#280=B_SPLINE_CURVE_WITH_KNOTS('',1,(#737,#738),.UNSPECIFIED.,.F.,.F.,(2,
2),(4.68243922016791,6.18243922019064),.UNSPECIFIED.);
#281=B_SPLINE_CURVE_WITH_KNOTS('',1,(#739,#740),.UNSPECIFIED.,.F.,.F.,(2,
2),(4.68243922016779,6.18243922019064),.UNSPECIFIED.);
#282=B_SPLINE_CURVE_WITH_KNOTS('',1,(#741,#742),.UNSPECIFIED.,.F.,.F.,(2,
2),(4.,4.1875),.UNSPECIFIED.);
#283=B_SPLINE_CURVE_WITH_KNOTS('',1,(#743,#744),.UNSPECIFIED.,.F.,.F.,(2,
2),(4.,4.1875),.UNSPECIFIED.);
#284=(
BOUNDED_CURVE()
B_SPLINE_CURVE(2,(#601,#602,#603),.UNSPECIFIED.,.F.,.F.)
B_SPLINE_CURVE_WITH_KNOTS((3,3),(41.9634954084936,43.7134954084936),
 .UNSPECIFIED.)
CURVE()
GEOMETRIC_REPRESENTATION_ITEM()
RATIONAL_B_SPLINE_CURVE((1.,1.,1.))
REPRESENTATION_ITEM('')
);
#285=(
BOUNDED_CURVE()
B_SPLINE_CURVE(1,(#604,#605),.UNSPECIFIED.,.F.,.F.)
B_SPLINE_CURVE_WITH_KNOTS((2,2),(0.,0.1875),.UNSPECIFIED.)
CURVE()
GEOMETRIC_REPRESENTATION_ITEM()
RATIONAL_B_SPLINE_CURVE((1.,1.))
REPRESENTATION_ITEM('')
);
#286=(
BOUNDED_CURVE()
B_SPLINE_CURVE(2,(#606,#607,#608),.UNSPECIFIED.,.F.,.F.)
B_SPLINE_CURVE_WITH_KNOTS((3,3),(41.9634954084936,43.7134954084936),
 .UNSPECIFIED.)
CURVE()
GEOMETRIC_REPRESENTATION_ITEM()
RATIONAL_B_SPLINE_CURVE((1.,1.,1.))
REPRESENTATION_ITEM('')
);
#287=(
BOUNDED_CURVE()
B_SPLINE_CURVE(1,(#609,#610),.UNSPECIFIED.,.F.,.F.)
B_SPLINE_CURVE_WITH_KNOTS((2,2),(0.,0.1875),.UNSPECIFIED.)
CURVE()
GEOMETRIC_REPRESENTATION_ITEM()
RATIONAL_B_SPLINE_CURVE((1.,1.))
REPRESENTATION_ITEM('')
);
#288=(
BOUNDED_CURVE()
B_SPLINE_CURVE(2,(#611,#612,#613),.UNSPECIFIED.,.F.,.F.)
B_SPLINE_CURVE_WITH_KNOTS((3,3),(43.7134954084936,43.909844949343),
 .UNSPECIFIED.)
CURVE()
GEOMETRIC_REPRESENTATION_ITEM()
RATIONAL_B_SPLINE_CURVE((1.,0.707106781186548,1.))
REPRESENTATION_ITEM('')
);
#289=(
BOUNDED_CURVE()
B_SPLINE_CURVE(1,(#614,#615),.UNSPECIFIED.,.F.,.F.)
B_SPLINE_CURVE_WITH_KNOTS((2,2),(0.,0.1875),.UNSPECIFIED.)
CURVE()
GEOMETRIC_REPRESENTATION_ITEM()
RATIONAL_B_SPLINE_CURVE((1.,1.))
REPRESENTATION_ITEM('')
);
#290=(
BOUNDED_CURVE()
B_SPLINE_CURVE(2,(#616,#617,#618),.UNSPECIFIED.,.F.,.F.)
B_SPLINE_CURVE_WITH_KNOTS((3,3),(43.7134954084936,43.909844949343),
 .UNSPECIFIED.)
CURVE()
GEOMETRIC_REPRESENTATION_ITEM()
RATIONAL_B_SPLINE_CURVE((1.,0.707106781186548,1.))
REPRESENTATION_ITEM('')
);
#291=(
BOUNDED_CURVE()
B_SPLINE_CURVE(2,(#619,#620,#621),.UNSPECIFIED.,.F.,.F.)
B_SPLINE_CURVE_WITH_KNOTS((3,3),(43.909844949343,50.159844949343),
 .UNSPECIFIED.)
CURVE()
GEOMETRIC_REPRESENTATION_ITEM()
RATIONAL_B_SPLINE_CURVE((1.,1.,1.))
REPRESENTATION_ITEM('')
);
#292=(
BOUNDED_CURVE()
B_SPLINE_CURVE(1,(#622,#623),.UNSPECIFIED.,.F.,.F.)
B_SPLINE_CURVE_WITH_KNOTS((2,2),(0.,0.1875),.UNSPECIFIED.)
CURVE()
GEOMETRIC_REPRESENTATION_ITEM()
RATIONAL_B_SPLINE_CURVE((1.,1.))
REPRESENTATION_ITEM('')
);
#293=(
BOUNDED_CURVE()
B_SPLINE_CURVE(2,(#624,#625,#626),.UNSPECIFIED.,.F.,.F.)
B_SPLINE_CURVE_WITH_KNOTS((3,3),(43.909844949343,50.159844949343),
 .UNSPECIFIED.)
CURVE()
GEOMETRIC_REPRESENTATION_ITEM()
RATIONAL_B_SPLINE_CURVE((1.,1.,1.))
REPRESENTATION_ITEM('')
);
#294=(
BOUNDED_CURVE()
B_SPLINE_CURVE(2,(#627,#628,#629),.UNSPECIFIED.,.F.,.F.)
B_SPLINE_CURVE_WITH_KNOTS((3,3),(50.159844949343,50.3561944901923),
 .UNSPECIFIED.)
CURVE()
GEOMETRIC_REPRESENTATION_ITEM()
RATIONAL_B_SPLINE_CURVE((1.,0.707106781186548,1.))
REPRESENTATION_ITEM('')
);
#295=(
BOUNDED_CURVE()
B_SPLINE_CURVE(1,(#630,#631),.UNSPECIFIED.,.F.,.F.)
B_SPLINE_CURVE_WITH_KNOTS((2,2),(0.,0.1875),.UNSPECIFIED.)
CURVE()
GEOMETRIC_REPRESENTATION_ITEM()
RATIONAL_B_SPLINE_CURVE((1.,1.))
REPRESENTATION_ITEM('')
);
#296=(
BOUNDED_CURVE()
B_SPLINE_CURVE(2,(#632,#633,#634),.UNSPECIFIED.,.F.,.F.)
B_SPLINE_CURVE_WITH_KNOTS((3,3),(50.159844949343,50.3561944901923),
 .UNSPECIFIED.)
CURVE()
GEOMETRIC_REPRESENTATION_ITEM()
RATIONAL_B_SPLINE_CURVE((1.,0.707106781186548,1.))
REPRESENTATION_ITEM('')
);
#297=(
BOUNDED_CURVE()
B_SPLINE_CURVE(2,(#635,#636,#637),.UNSPECIFIED.,.F.,.F.)
B_SPLINE_CURVE_WITH_KNOTS((3,3),(50.3561944901923,52.1061944901923),
 .UNSPECIFIED.)
CURVE()
GEOMETRIC_REPRESENTATION_ITEM()
RATIONAL_B_SPLINE_CURVE((1.,1.,1.))
REPRESENTATION_ITEM('')
);
#298=(
BOUNDED_CURVE()
B_SPLINE_CURVE(1,(#638,#639),.UNSPECIFIED.,.F.,.F.)
B_SPLINE_CURVE_WITH_KNOTS((2,2),(0.,0.1875),.UNSPECIFIED.)
CURVE()
GEOMETRIC_REPRESENTATION_ITEM()
RATIONAL_B_SPLINE_CURVE((1.,1.))
REPRESENTATION_ITEM('')
);
#299=(
BOUNDED_CURVE()
B_SPLINE_CURVE(2,(#640,#641,#642),.UNSPECIFIED.,.F.,.F.)
B_SPLINE_CURVE_WITH_KNOTS((3,3),(50.3561944901923,52.1061944901923),
 .UNSPECIFIED.)
CURVE()
GEOMETRIC_REPRESENTATION_ITEM()
RATIONAL_B_SPLINE_CURVE((1.,1.,1.))
REPRESENTATION_ITEM('')
);
#300=(
BOUNDED_CURVE()
B_SPLINE_CURVE(2,(#643,#644,#645),.UNSPECIFIED.,.F.,.F.)
B_SPLINE_CURVE_WITH_KNOTS((3,3),(52.1061944901923,52.3025440310417),
 .UNSPECIFIED.)
CURVE()
GEOMETRIC_REPRESENTATION_ITEM()
RATIONAL_B_SPLINE_CURVE((1.,0.707106781187191,1.))
REPRESENTATION_ITEM('')
);
#301=(
BOUNDED_CURVE()
B_SPLINE_CURVE(1,(#646,#647),.UNSPECIFIED.,.F.,.F.)
B_SPLINE_CURVE_WITH_KNOTS((2,2),(0.,0.1875),.UNSPECIFIED.)
CURVE()
GEOMETRIC_REPRESENTATION_ITEM()
RATIONAL_B_SPLINE_CURVE((1.,1.))
REPRESENTATION_ITEM('')
);
#302=(
BOUNDED_CURVE()
B_SPLINE_CURVE(2,(#648,#649,#650),.UNSPECIFIED.,.F.,.F.)
B_SPLINE_CURVE_WITH_KNOTS((3,3),(52.1061944901923,52.3025440310417),
 .UNSPECIFIED.)
CURVE()
GEOMETRIC_REPRESENTATION_ITEM()
RATIONAL_B_SPLINE_CURVE((1.,0.707106781187191,1.))
REPRESENTATION_ITEM('')
);
#303=(
BOUNDED_CURVE()
B_SPLINE_CURVE(2,(#651,#652,#653),.UNSPECIFIED.,.F.,.F.)
B_SPLINE_CURVE_WITH_KNOTS((3,3),(52.3025440310417,58.5525440310417),
 .UNSPECIFIED.)
CURVE()
GEOMETRIC_REPRESENTATION_ITEM()
RATIONAL_B_SPLINE_CURVE((1.,1.,1.))
REPRESENTATION_ITEM('')
);
#304=(
BOUNDED_CURVE()
B_SPLINE_CURVE(1,(#654,#655),.UNSPECIFIED.,.F.,.F.)
B_SPLINE_CURVE_WITH_KNOTS((2,2),(0.,0.1875),.UNSPECIFIED.)
CURVE()
GEOMETRIC_REPRESENTATION_ITEM()
RATIONAL_B_SPLINE_CURVE((1.,1.))
REPRESENTATION_ITEM('')
);
#305=(
BOUNDED_CURVE()
B_SPLINE_CURVE(2,(#656,#657,#658),.UNSPECIFIED.,.F.,.F.)
B_SPLINE_CURVE_WITH_KNOTS((3,3),(52.3025440310417,58.5525440310417),
 .UNSPECIFIED.)
CURVE()
GEOMETRIC_REPRESENTATION_ITEM()
RATIONAL_B_SPLINE_CURVE((1.,1.,1.))
REPRESENTATION_ITEM('')
);
#306=(
BOUNDED_CURVE()
B_SPLINE_CURVE(2,(#659,#660,#661),.UNSPECIFIED.,.F.,.F.)
B_SPLINE_CURVE_WITH_KNOTS((3,3),(58.5525440310417,58.7488935718911),
 .UNSPECIFIED.)
CURVE()
GEOMETRIC_REPRESENTATION_ITEM()
RATIONAL_B_SPLINE_CURVE((1.,0.707106781186548,1.))
REPRESENTATION_ITEM('')
);
#307=(
BOUNDED_CURVE()
B_SPLINE_CURVE(2,(#662,#663,#664),.UNSPECIFIED.,.F.,.F.)
B_SPLINE_CURVE_WITH_KNOTS((3,3),(58.5525440310417,58.7488935718911),
 .UNSPECIFIED.)
CURVE()
GEOMETRIC_REPRESENTATION_ITEM()
RATIONAL_B_SPLINE_CURVE((1.,0.707106781186548,1.))
REPRESENTATION_ITEM('')
);
#308=(
BOUNDED_CURVE()
B_SPLINE_CURVE(1,(#665,#666),.UNSPECIFIED.,.F.,.F.)
B_SPLINE_CURVE_WITH_KNOTS((2,2),(-0.1875,0.),.UNSPECIFIED.)
CURVE()
GEOMETRIC_REPRESENTATION_ITEM()
RATIONAL_B_SPLINE_CURVE((1.,1.))
REPRESENTATION_ITEM('')
);
#309=(
BOUNDED_CURVE()
B_SPLINE_CURVE(2,(#667,#668,#669),.UNSPECIFIED.,.F.,.F.)
B_SPLINE_CURVE_WITH_KNOTS((3,3),(58.9363935718911,60.4363935718915),
 .UNSPECIFIED.)
CURVE()
GEOMETRIC_REPRESENTATION_ITEM()
RATIONAL_B_SPLINE_CURVE((1.,1.,1.))
REPRESENTATION_ITEM('')
);
#310=(
BOUNDED_CURVE()
B_SPLINE_CURVE(1,(#670,#671),.UNSPECIFIED.,.F.,.F.)
B_SPLINE_CURVE_WITH_KNOTS((2,2),(-0.1875,0.),.UNSPECIFIED.)
CURVE()
GEOMETRIC_REPRESENTATION_ITEM()
RATIONAL_B_SPLINE_CURVE((1.,1.))
REPRESENTATION_ITEM('')
);
#311=(
BOUNDED_CURVE()
B_SPLINE_CURVE(2,(#672,#673,#674),.UNSPECIFIED.,.F.,.F.)
B_SPLINE_CURVE_WITH_KNOTS((3,3),(58.9363935718911,60.4363935718915),
 .UNSPECIFIED.)
CURVE()
GEOMETRIC_REPRESENTATION_ITEM()
RATIONAL_B_SPLINE_CURVE((1.,1.,1.))
REPRESENTATION_ITEM('')
);
#312=(
BOUNDED_CURVE()
B_SPLINE_CURVE(2,(#675,#676,#677),.UNSPECIFIED.,.F.,.F.)
B_SPLINE_CURVE_WITH_KNOTS((3,3),(62.123893571892,63.6238935718924),
 .UNSPECIFIED.)
CURVE()
GEOMETRIC_REPRESENTATION_ITEM()
RATIONAL_B_SPLINE_CURVE((1.,1.,1.))
REPRESENTATION_ITEM('')
);
#313=(
BOUNDED_CURVE()
B_SPLINE_CURVE(1,(#678,#679),.UNSPECIFIED.,.F.,.F.)
B_SPLINE_CURVE_WITH_KNOTS((2,2),(-0.1875,0.),.UNSPECIFIED.)
CURVE()
GEOMETRIC_REPRESENTATION_ITEM()
RATIONAL_B_SPLINE_CURVE((1.,1.))
REPRESENTATION_ITEM('')
);
#314=(
BOUNDED_CURVE()
B_SPLINE_CURVE(2,(#680,#681,#682),.UNSPECIFIED.,.F.,.F.)
B_SPLINE_CURVE_WITH_KNOTS((3,3),(62.123893571892,63.6238935718924),
 .UNSPECIFIED.)
CURVE()
GEOMETRIC_REPRESENTATION_ITEM()
RATIONAL_B_SPLINE_CURVE((1.,1.,1.))
REPRESENTATION_ITEM('')
);
#315=(
BOUNDED_CURVE()
B_SPLINE_CURVE(1,(#683,#684),.UNSPECIFIED.,.F.,.F.)
B_SPLINE_CURVE_WITH_KNOTS((2,2),(-0.1875,0.),.UNSPECIFIED.)
CURVE()
GEOMETRIC_REPRESENTATION_ITEM()
RATIONAL_B_SPLINE_CURVE((1.,1.))
REPRESENTATION_ITEM('')
);
#316=(
BOUNDED_CURVE()
B_SPLINE_CURVE(2,(#685,#686,#687,#688,#689),.UNSPECIFIED.,.F.,.F.)
B_SPLINE_CURVE_WITH_KNOTS((3,2,3),(65.4988935718929,65.7443304979546,65.9897674240163),
 .UNSPECIFIED.)
CURVE()
GEOMETRIC_REPRESENTATION_ITEM()
RATIONAL_B_SPLINE_CURVE((1.,0.707106781186548,1.,0.707106781186548,1.))
REPRESENTATION_ITEM('')
);
#317=(
BOUNDED_CURVE()
B_SPLINE_CURVE(1,(#690,#691),.UNSPECIFIED.,.F.,.F.)
B_SPLINE_CURVE_WITH_KNOTS((2,2),(0.,0.1875),.UNSPECIFIED.)
CURVE()
GEOMETRIC_REPRESENTATION_ITEM()
RATIONAL_B_SPLINE_CURVE((1.,1.))
REPRESENTATION_ITEM('')
);
#318=(
BOUNDED_CURVE()
B_SPLINE_CURVE(2,(#692,#693,#694,#695,#696),.UNSPECIFIED.,.F.,.F.)
B_SPLINE_CURVE_WITH_KNOTS((3,2,3),(65.4988935718929,65.7443304979546,65.9897674240163),
 .UNSPECIFIED.)
CURVE()
GEOMETRIC_REPRESENTATION_ITEM()
RATIONAL_B_SPLINE_CURVE((1.,0.707106781186548,1.,0.707106781186548,1.))
REPRESENTATION_ITEM('')
);
#319=(
BOUNDED_CURVE()
B_SPLINE_CURVE(2,(#697,#698,#699,#700,#701),.UNSPECIFIED.,.F.,.F.)
B_SPLINE_CURVE_WITH_KNOTS((3,2,3),(66.4806412761397,66.7260782022014,66.9715151282631),
 .UNSPECIFIED.)
CURVE()
GEOMETRIC_REPRESENTATION_ITEM()
RATIONAL_B_SPLINE_CURVE((1.,0.707106781186548,1.,0.707106781186548,1.))
REPRESENTATION_ITEM('')
);
#320=(
BOUNDED_CURVE()
B_SPLINE_CURVE(1,(#702,#703),.UNSPECIFIED.,.F.,.F.)
B_SPLINE_CURVE_WITH_KNOTS((2,2),(0.,0.1875),.UNSPECIFIED.)
CURVE()
GEOMETRIC_REPRESENTATION_ITEM()
RATIONAL_B_SPLINE_CURVE((1.,1.))
REPRESENTATION_ITEM('')
);
#321=(
BOUNDED_CURVE()
B_SPLINE_CURVE(2,(#704,#705,#706,#707,#708),.UNSPECIFIED.,.F.,.F.)
B_SPLINE_CURVE_WITH_KNOTS((3,2,3),(66.4806412761397,66.7260782022014,66.9715151282631),
 .UNSPECIFIED.)
CURVE()
GEOMETRIC_REPRESENTATION_ITEM()
RATIONAL_B_SPLINE_CURVE((1.,0.707106781186548,1.,0.707106781186548,1.))
REPRESENTATION_ITEM('')
);
#322=(
BOUNDED_CURVE()
B_SPLINE_CURVE(2,(#717,#718,#719,#720,#721),.UNSPECIFIED.,.F.,.F.)
B_SPLINE_CURVE_WITH_KNOTS((3,2,3),(0.,0.062500000178261,0.250000000178261),
 .UNSPECIFIED.)
CURVE()
GEOMETRIC_REPRESENTATION_ITEM()
RATIONAL_B_SPLINE_CURVE((1.,1.,1.,1.,1.))
REPRESENTATION_ITEM('')
);
#323=(
BOUNDED_CURVE()
B_SPLINE_CURVE(2,(#722,#723,#724,#725,#726),.UNSPECIFIED.,.F.,.F.)
B_SPLINE_CURVE_WITH_KNOTS((3,2,3),(0.,0.062500000178261,0.250000000178261),
 .UNSPECIFIED.)
CURVE()
GEOMETRIC_REPRESENTATION_ITEM()
RATIONAL_B_SPLINE_CURVE((1.,1.,1.,1.,1.))
REPRESENTATION_ITEM('')
);
#324=(
BOUNDED_CURVE()
B_SPLINE_CURVE(2,(#727,#728,#729,#730,#731),.UNSPECIFIED.,.F.,.F.)
B_SPLINE_CURVE_WITH_KNOTS((3,2,3),(60.4363935718915,60.6238935718915,60.6863935720698),
 .UNSPECIFIED.)
CURVE()
GEOMETRIC_REPRESENTATION_ITEM()
RATIONAL_B_SPLINE_CURVE((1.,1.,1.,1.,1.))
REPRESENTATION_ITEM('')
);
#325=(
BOUNDED_CURVE()
B_SPLINE_CURVE(2,(#732,#733,#734,#735,#736),.UNSPECIFIED.,.F.,.F.)
B_SPLINE_CURVE_WITH_KNOTS((3,2,3),(60.4363935718915,60.6238935718915,60.6863935720698),
 .UNSPECIFIED.)
CURVE()
GEOMETRIC_REPRESENTATION_ITEM()
RATIONAL_B_SPLINE_CURVE((1.,1.,1.,1.,1.))
REPRESENTATION_ITEM('')
);
#326=(
BOUNDED_CURVE()
B_SPLINE_CURVE(2,(#745,#746,#747,#748,#749),.UNSPECIFIED.,.F.,.F.)
B_SPLINE_CURVE_WITH_KNOTS((3,2,3),(63.6238935718924,63.8113935718924,63.8738935718924),
 .UNSPECIFIED.)
CURVE()
GEOMETRIC_REPRESENTATION_ITEM()
RATIONAL_B_SPLINE_CURVE((1.,1.,1.,1.,1.))
REPRESENTATION_ITEM('')
);
#327=(
BOUNDED_CURVE()
B_SPLINE_CURVE(2,(#750,#751,#752,#753,#754),.UNSPECIFIED.,.F.,.F.)
B_SPLINE_CURVE_WITH_KNOTS((3,2,3),(63.6238935718924,63.8113935718924,63.8738935718924),
 .UNSPECIFIED.)
CURVE()
GEOMETRIC_REPRESENTATION_ITEM()
RATIONAL_B_SPLINE_CURVE((1.,1.,1.,1.,1.))
REPRESENTATION_ITEM('')
);
#328=(
BOUNDED_CURVE()
B_SPLINE_CURVE(2,(#755,#756,#757,#758,#759),.UNSPECIFIED.,.F.,.F.)
B_SPLINE_CURVE_WITH_KNOTS((3,2,3),(1.75000000002274,1.812500000201,2.000000000201),
 .UNSPECIFIED.)
CURVE()
GEOMETRIC_REPRESENTATION_ITEM()
RATIONAL_B_SPLINE_CURVE((1.,1.,1.,1.,1.))
REPRESENTATION_ITEM('')
);
#329=(
BOUNDED_CURVE()
B_SPLINE_CURVE(2,(#760,#761,#762,#763,#764),.UNSPECIFIED.,.F.,.F.)
B_SPLINE_CURVE_WITH_KNOTS((3,2,3),(1.75000000002274,1.812500000201,2.000000000201),
 .UNSPECIFIED.)
CURVE()
GEOMETRIC_REPRESENTATION_ITEM()
RATIONAL_B_SPLINE_CURVE((1.,1.,1.,1.,1.))
REPRESENTATION_ITEM('')
);
#330=(
BOUNDED_CURVE()
B_SPLINE_CURVE(1,(#765,#766),.UNSPECIFIED.,.F.,.F.)
B_SPLINE_CURVE_WITH_KNOTS((2,2),(0.,0.1875),.UNSPECIFIED.)
CURVE()
GEOMETRIC_REPRESENTATION_ITEM()
RATIONAL_B_SPLINE_CURVE((1.,1.))
REPRESENTATION_ITEM('')
);
#331=(
BOUNDED_CURVE()
B_SPLINE_CURVE(2,(#767,#768,#769,#770,#771),.UNSPECIFIED.,.F.,.F.)
B_SPLINE_CURVE_WITH_KNOTS((3,2,3),(65.9897674240163,66.235204350078,66.4806412761397),
 .UNSPECIFIED.)
CURVE()
GEOMETRIC_REPRESENTATION_ITEM()
RATIONAL_B_SPLINE_CURVE((1.,0.707106781186548,1.,0.707106781186548,1.))
REPRESENTATION_ITEM('')
);
#332=(
BOUNDED_CURVE()
B_SPLINE_CURVE(2,(#772,#773,#774,#775,#776),.UNSPECIFIED.,.F.,.F.)
B_SPLINE_CURVE_WITH_KNOTS((3,2,3),(65.9897674240163,66.235204350078,66.4806412761397),
 .UNSPECIFIED.)
CURVE()
GEOMETRIC_REPRESENTATION_ITEM()
RATIONAL_B_SPLINE_CURVE((1.,0.707106781186548,1.,0.707106781186548,1.))
REPRESENTATION_ITEM('')
);
#333=(
BOUNDED_CURVE()
B_SPLINE_CURVE(1,(#777,#778),.UNSPECIFIED.,.F.,.F.)
B_SPLINE_CURVE_WITH_KNOTS((2,2),(0.,0.1875),.UNSPECIFIED.)
CURVE()
GEOMETRIC_REPRESENTATION_ITEM()
RATIONAL_B_SPLINE_CURVE((1.,1.))
REPRESENTATION_ITEM('')
);
#334=(
BOUNDED_CURVE()
B_SPLINE_CURVE(2,(#779,#780,#781,#782,#783),.UNSPECIFIED.,.F.,.F.)
B_SPLINE_CURVE_WITH_KNOTS((3,2,3),(66.9715151282631,67.2169520543248,67.4623889803865),
 .UNSPECIFIED.)
CURVE()
GEOMETRIC_REPRESENTATION_ITEM()
RATIONAL_B_SPLINE_CURVE((1.,0.707106781186548,1.,0.707106781186548,1.))
REPRESENTATION_ITEM('')
);
#335=(
BOUNDED_CURVE()
B_SPLINE_CURVE(2,(#784,#785,#786,#787,#788),.UNSPECIFIED.,.F.,.F.)
B_SPLINE_CURVE_WITH_KNOTS((3,2,3),(66.9715151282631,67.2169520543248,67.4623889803865),
 .UNSPECIFIED.)
CURVE()
GEOMETRIC_REPRESENTATION_ITEM()
RATIONAL_B_SPLINE_CURVE((1.,0.707106781186548,1.,0.707106781186548,1.))
REPRESENTATION_ITEM('')
);
#336=VERTEX_POINT('',#561);
#337=VERTEX_POINT('',#562);
#338=VERTEX_POINT('',#563);
#339=VERTEX_POINT('',#564);
#340=VERTEX_POINT('',#565);
#341=VERTEX_POINT('',#566);
#342=VERTEX_POINT('',#567);
#343=VERTEX_POINT('',#568);
#344=VERTEX_POINT('',#569);
#345=VERTEX_POINT('',#570);
#346=VERTEX_POINT('',#571);
#347=VERTEX_POINT('',#572);
#348=VERTEX_POINT('',#573);
#349=VERTEX_POINT('',#574);
#350=VERTEX_POINT('',#575);
#351=VERTEX_POINT('',#576);
#352=VERTEX_POINT('',#577);
#353=VERTEX_POINT('',#578);
#354=VERTEX_POINT('',#579);
#355=VERTEX_POINT('',#580);
#356=VERTEX_POINT('',#581);
#357=VERTEX_POINT('',#582);
#358=VERTEX_POINT('',#583);
#359=VERTEX_POINT('',#584);
#360=VERTEX_POINT('',#585);
#361=VERTEX_POINT('',#586);
#362=VERTEX_POINT('',#587);
#363=VERTEX_POINT('',#588);
#364=VERTEX_POINT('',#589);
#365=VERTEX_POINT('',#590);
#366=VERTEX_POINT('',#591);
#367=VERTEX_POINT('',#592);
#368=VERTEX_POINT('',#593);
#369=VERTEX_POINT('',#594);
#370=VERTEX_POINT('',#595);
#371=VERTEX_POINT('',#596);
#372=VERTEX_POINT('',#597);
#373=VERTEX_POINT('',#598);
#374=VERTEX_POINT('',#599);
#375=VERTEX_POINT('',#600);
#376=CYLINDRICAL_SURFACE('',#490,0.125000000000455);
#377=CYLINDRICAL_SURFACE('',#492,0.125000000000227);
#378=CYLINDRICAL_SURFACE('',#494,0.125000000000227);
#379=CYLINDRICAL_SURFACE('',#496,0.125);
#380=CYLINDRICAL_SURFACE('',#497,0.15625);
#381=CYLINDRICAL_SURFACE('',#498,0.15625);
#382=CYLINDRICAL_SURFACE('',#509,0.15625);
#383=CYLINDRICAL_SURFACE('',#510,0.15625);
#384=PLANE('',#489);
#385=PLANE('',#491);
#386=PLANE('',#493);
#387=PLANE('',#495);
#388=PLANE('',#499);
#389=PLANE('',#500);
#390=PLANE('',#501);
#391=PLANE('',#502);
#392=PLANE('',#503);
#393=PLANE('',#504);
#394=PLANE('',#505);
#395=PLANE('',#506);
#396=PLANE('',#507);
#397=PLANE('',#508);
#398=SHAPE_DEFINITION_REPRESENTATION(#399,#487);
#399=PRODUCT_DEFINITION_SHAPE('Document','',#401);
#400=PRODUCT_DEFINITION_CONTEXT('3D Mechanical Parts',#473,'design');
#401=PRODUCT_DEFINITION('A','First version',#443,#400);
#402=DATE_TIME_ROLE('classification_date');
#403=DATE_TIME_ROLE('creation_date');
#404=APPLIED_DATE_AND_TIME_ASSIGNMENT(#428,#402,(#407));
#405=APPLIED_DATE_AND_TIME_ASSIGNMENT(#430,#403,(#401));
#406=SECURITY_CLASSIFICATION_LEVEL('unclassified');
#407=SECURITY_CLASSIFICATION('A','Security for version',#406);
#408=APPLIED_SECURITY_CLASSIFICATION_ASSIGNMENT(#407,(#443));
#409=APPROVAL_ROLE('Version approval');
#410=APPROVAL_ROLE('Version Security approval');
#411=APPROVAL_ROLE('Definition approval');
#412=APPROVAL_PERSON_ORGANIZATION(#461,#437,#409);
#413=APPROVAL_PERSON_ORGANIZATION(#462,#438,#410);
#414=APPROVAL_PERSON_ORGANIZATION(#465,#439,#411);
#415=COORDINATED_UNIVERSAL_TIME_OFFSET(5,0,.BEHIND.);
#416=LOCAL_TIME(0,0,0.,#415);
#417=LOCAL_TIME(0,0,0.,#415);
#418=LOCAL_TIME(0,0,0.,#415);
#419=LOCAL_TIME(0,0,0.,#415);
#420=LOCAL_TIME(0,0,0.,#415);
#421=CALENDAR_DATE(1999,1,1);
#422=CALENDAR_DATE(1999,1,1);
#423=CALENDAR_DATE(1999,1,1);
#424=CALENDAR_DATE(1999,1,1);
#425=CALENDAR_DATE(1999,1,1);
#426=DATE_AND_TIME(#421,#416);
#427=DATE_AND_TIME(#422,#417);
#428=DATE_AND_TIME(#423,#418);
#429=DATE_AND_TIME(#424,#419);
#430=DATE_AND_TIME(#425,#420);
#431=APPROVAL_DATE_TIME(#426,#437);
#432=APPROVAL_DATE_TIME(#427,#438);
#433=APPROVAL_DATE_TIME(#429,#439);
#434=APPROVAL_STATUS('not_yet_approved');
#435=APPROVAL_STATUS('not_yet_approved');
#436=APPROVAL_STATUS('approved');
#437=APPROVAL(#434,'Version approval');
#438=APPROVAL(#435,'Version Security approval');
#439=APPROVAL(#436,'Definition approval');
#440=APPLIED_APPROVAL_ASSIGNMENT(#437,(#443));
#441=APPLIED_APPROVAL_ASSIGNMENT(#438,(#407));
#442=APPLIED_APPROVAL_ASSIGNMENT(#439,(#401));
#443=PRODUCT_DEFINITION_FORMATION_WITH_SPECIFIED_SOURCE('A',
'First version',#475,.MADE.);
#444=PERSON_AND_ORGANIZATION_ROLE('design_owner');
#445=PERSON_AND_ORGANIZATION_ROLE('creator');
#446=PERSON_AND_ORGANIZATION_ROLE('design_supplier');
#447=PERSON_AND_ORGANIZATION_ROLE('classification_officer');
#448=PERSON_AND_ORGANIZATION_ROLE('creator');
#449=ORGANIZATION('STI','lab','lab');
#450=ORGANIZATION('STI','unknown','unknown');
#451=ORGANIZATION('STI','unknown','unknown');
#452=ORGANIZATION('STI','unknown','unknown');
#453=ORGANIZATION('STI','unknown','unknown');
#454=ORGANIZATION('STI','unknown','unknown');
#455=ORGANIZATION('STI','unknown','unknown');
#456=PERSON('1','Box','vc60',$,$,$);
#457=PERSON('2','last','first',$,$,$);
#458=PERSON('3','President','Mr.',$,$,$);
#459=PERSON_AND_ORGANIZATION(#456,#449);
#460=PERSON_AND_ORGANIZATION(#457,#450);
#461=PERSON_AND_ORGANIZATION(#458,#451);
#462=PERSON_AND_ORGANIZATION(#458,#452);
#463=PERSON_AND_ORGANIZATION(#458,#453);
#464=PERSON_AND_ORGANIZATION(#457,#454);
#465=PERSON_AND_ORGANIZATION(#458,#455);
#466=APPLIED_PERSON_AND_ORGANIZATION_ASSIGNMENT(#459,#444,(#475));
#467=APPLIED_PERSON_AND_ORGANIZATION_ASSIGNMENT(#460,#445,(#443));
#468=APPLIED_PERSON_AND_ORGANIZATION_ASSIGNMENT(#460,#446,(#443));
#469=APPLIED_PERSON_AND_ORGANIZATION_ASSIGNMENT(#463,#447,(#407));
#470=APPLIED_PERSON_AND_ORGANIZATION_ASSIGNMENT(#464,#448,(#401));
#471=PRODUCT_RELATED_PRODUCT_CATEGORY('detail','detail',(#475));
#472=APPLICATION_PROTOCOL_DEFINITION('International Standard',
'config_control_design',1994,#473);
#473=APPLICATION_CONTEXT(
'configuration controlled 3d designs of mechanical parts and assemblie
s');
#474=PRODUCT_CONTEXT('3D Mechanical Parts',#473,'mechanical');
#475=PRODUCT('Document','Document','',(#474));
#476=(
LENGTH_UNIT()
NAMED_UNIT(*)
SI_UNIT(.CENTI.,.METRE.)
);
#477=LENGTH_MEASURE_WITH_UNIT(LENGTH_MEASURE(2.54),#476);
#478=(
CONVERSION_BASED_UNIT('INCH',#477)
LENGTH_UNIT()
NAMED_UNIT(#481)
);
#479=(
NAMED_UNIT(*)
PLANE_ANGLE_UNIT()
SI_UNIT($,.RADIAN.)
);
#480=DIMENSIONAL_EXPONENTS(0.,0.,0.,0.,0.,0.,0.);
#481=DIMENSIONAL_EXPONENTS(1.,0.,0.,0.,0.,0.,0.);
#482=PLANE_ANGLE_MEASURE_WITH_UNIT(PLANE_ANGLE_MEASURE(0.01745329252),#479);
#483=(
CONVERSION_BASED_UNIT('DEGREES',#482)
NAMED_UNIT(#480)
PLANE_ANGLE_UNIT()
);
#484=(
NAMED_UNIT(*)
SI_UNIT($,.STERADIAN.)
SOLID_ANGLE_UNIT()
);
#485=UNCERTAINTY_MEASURE_WITH_UNIT(LENGTH_MEASURE(0.000393700787401575),
#478,'DISTANCE_ACCURACY_VALUE',
'Maximum model space distance between geometric entities at asserted c
onnectivities');
#486=(
GEOMETRIC_REPRESENTATION_CONTEXT(3)
GLOBAL_UNCERTAINTY_ASSIGNED_CONTEXT((#485))
GLOBAL_UNIT_ASSIGNED_CONTEXT((#484,#483,#478))
REPRESENTATION_CONTEXT('ID1','3D')
);
#487=SHAPE_REPRESENTATION('Document',(#488,#511),#486);
#488=AXIS2_PLACEMENT_3D('',#538,#512,#513);
#489=AXIS2_PLACEMENT_3D('',#539,#514,$);
#490=AXIS2_PLACEMENT_3D('',#540,#515,$);
#491=AXIS2_PLACEMENT_3D('',#541,#516,$);
#492=AXIS2_PLACEMENT_3D('',#542,#517,$);
#493=AXIS2_PLACEMENT_3D('',#543,#518,$);
#494=AXIS2_PLACEMENT_3D('',#544,#519,$);
#495=AXIS2_PLACEMENT_3D('',#545,#520,$);
#496=AXIS2_PLACEMENT_3D('',#546,#521,$);
#497=AXIS2_PLACEMENT_3D('',#547,#522,$);
#498=AXIS2_PLACEMENT_3D('',#548,#523,$);
#499=AXIS2_PLACEMENT_3D('',#549,#524,$);
#500=AXIS2_PLACEMENT_3D('',#550,#525,$);
#501=AXIS2_PLACEMENT_3D('',#551,#526,$);
#502=AXIS2_PLACEMENT_3D('',#552,#527,$);
#503=AXIS2_PLACEMENT_3D('',#553,#528,$);
#504=AXIS2_PLACEMENT_3D('',#554,#529,$);
#505=AXIS2_PLACEMENT_3D('',#555,#530,$);
#506=AXIS2_PLACEMENT_3D('',#556,#531,$);
#507=AXIS2_PLACEMENT_3D('',#557,#532,$);
#508=AXIS2_PLACEMENT_3D('',#558,#533,$);
#509=AXIS2_PLACEMENT_3D('',#559,#534,$);
#510=AXIS2_PLACEMENT_3D('',#560,#535,$);
#511=AXIS2_PLACEMENT_3D('',#789,#536,#537);
#512=DIRECTION('',(0.,0.,1.));
#513=DIRECTION('',(1.,0.,0.));
#514=DIRECTION('',(1.,0.,0.));
#515=DIRECTION('',(0.,0.,1.));
#516=DIRECTION('',(0.,1.,0.));
#517=DIRECTION('',(0.,0.,1.));
#518=DIRECTION('',(-1.,0.,0.));
#519=DIRECTION('',(2.68031548330251E-16,2.68031548331226E-16,1.));
#520=DIRECTION('',(0.,-1.,0.));
#521=DIRECTION('',(0.,0.,1.));
#522=DIRECTION('',(0.,0.,-1.));
#523=DIRECTION('',(0.,0.,-1.));
#524=DIRECTION('',(0.,0.,-1.));
#525=DIRECTION('',(0.,0.,1.));
#526=DIRECTION('',(0.,-1.,0.));
#527=DIRECTION('',(-1.,0.,0.));
#528=DIRECTION('',(0.,1.,0.));
#529=DIRECTION('',(1.,0.,0.));
#530=DIRECTION('',(0.,-1.,0.));
#531=DIRECTION('',(-1.,0.,0.));
#532=DIRECTION('',(0.,1.,0.));
#533=DIRECTION('',(1.,0.,0.));
#534=DIRECTION('',(0.,0.,-1.));
#535=DIRECTION('',(0.,8.8817841969754E-17,-1.));
#536=DIRECTION('',(0.,0.,1.));
#537=DIRECTION('',(1.,0.,0.));
#538=CARTESIAN_POINT('',(0.,0.,0.));
#539=CARTESIAN_POINT('',(1157.51796230897,-1490.18028503936,-6.48370246381091E-14));
#540=CARTESIAN_POINT('',(1157.39296230897,-1488.43028503936,0.0937499999999352));
#541=CARTESIAN_POINT('',(1157.39296230897,-1488.30528503936,-6.48370246381091E-14));
#542=CARTESIAN_POINT('',(1151.14296230897,-1488.43028503936,0.0937499999999352));
#543=CARTESIAN_POINT('',(1151.01796230897,-1488.43028503936,-6.48370246381091E-14));
#544=CARTESIAN_POINT('',(1151.14296230897,-1490.18028503936,0.0937499999999351));
#545=CARTESIAN_POINT('',(1151.14296230897,-1490.30528503936,-6.48370246381091E-14));
#546=CARTESIAN_POINT('',(1157.39296230897,-1490.18028503936,0.0937499999999352));
#547=CARTESIAN_POINT('',(1151.76796230897,-1489.30528503936,0.0937499999999352));
#548=CARTESIAN_POINT('',(1156.76796230897,-1489.30528503936,0.0937499999999352));
#549=CARTESIAN_POINT('',(1150.20546230897,-1490.55528503936,-6.48370246381091E-14));
#550=CARTESIAN_POINT('',(1150.20546230897,-1490.55528503936,0.187499999999935));
#551=CARTESIAN_POINT('',(1154.37249441946,-1488.55528503934,4.18749999999994));
#552=CARTESIAN_POINT('',(1154.62249441946,-1488.55528503934,4.18749999999994));
#553=CARTESIAN_POINT('',(1154.62249441946,-1490.05528503937,4.18749999999994));
#554=CARTESIAN_POINT('',(1154.37249441928,-1490.05528503935,4.18749999999994));
#555=CARTESIAN_POINT('',(1153.91349441947,-1488.55528503934,4.18749999999994));
#556=CARTESIAN_POINT('',(1154.16349441947,-1488.55528503934,4.18749999999994));
#557=CARTESIAN_POINT('',(1154.16349441947,-1490.05528503937,4.18749999999994));
#558=CARTESIAN_POINT('',(1153.91349441929,-1490.05528503935,4.18749999999994));
#559=CARTESIAN_POINT('',(1151.76796230897,-1489.30528503936,0.0937499999999352));
#560=CARTESIAN_POINT('',(1156.76796230897,-1489.30528503936,0.0937499999999352));
#561=CARTESIAN_POINT('',(1157.51796230897,-1490.18028503936,-6.48370246381091E-14));
#562=CARTESIAN_POINT('',(1157.51796230897,-1488.43028503936,-6.48370246381091E-14));
#563=CARTESIAN_POINT('',(1157.51796230897,-1488.43028503936,0.187499999999935));
#564=CARTESIAN_POINT('',(1157.51796230897,-1490.18028503936,0.187499999999935));
#565=CARTESIAN_POINT('',(1157.39296230897,-1488.30528503936,-6.48370246381091E-14));
#566=CARTESIAN_POINT('',(1157.39296230897,-1488.30528503936,0.187499999999935));
#567=CARTESIAN_POINT('',(1151.14296230897,-1488.30528503936,-6.48370246381091E-14));
#568=CARTESIAN_POINT('',(1151.14296230897,-1488.30528503936,0.187499999999935));
#569=CARTESIAN_POINT('',(1151.01796230897,-1488.43028503936,-6.48370246381091E-14));
#570=CARTESIAN_POINT('',(1151.01796230897,-1488.43028503936,0.187499999999935));
#571=CARTESIAN_POINT('',(1151.01796230897,-1490.18028503936,-6.48370246381091E-14));
#572=CARTESIAN_POINT('',(1151.01796230897,-1490.18028503936,0.187499999999935));
#573=CARTESIAN_POINT('',(1151.14296230897,-1490.30528503936,-6.48370246381091E-14));
#574=CARTESIAN_POINT('',(1151.14296230897,-1490.30528503936,0.187499999999935));
#575=CARTESIAN_POINT('',(1157.39296230897,-1490.30528503936,-6.48370246381091E-14));
#576=CARTESIAN_POINT('',(1157.39296230897,-1490.30528503936,0.187499999999935));
#577=CARTESIAN_POINT('',(1154.62249441963,-1488.55528503937,-6.48370246381091E-14));
#578=CARTESIAN_POINT('',(1154.62249441963,-1488.55528503937,0.187499999999935));
#579=CARTESIAN_POINT('',(1154.62249441946,-1490.05528503937,-6.48370246381091E-14));
#580=CARTESIAN_POINT('',(1154.62249441946,-1490.05528503937,0.187499999999935));
#581=CARTESIAN_POINT('',(1153.91349441929,-1490.05528503935,-6.48370246381091E-14));
#582=CARTESIAN_POINT('',(1153.91349441947,-1488.55528503934,-6.48370246381091E-14));
#583=CARTESIAN_POINT('',(1153.91349441947,-1488.55528503934,0.187499999999935));
#584=CARTESIAN_POINT('',(1153.91349441929,-1490.05528503935,0.187499999999935));
#585=CARTESIAN_POINT('',(1151.92421230897,-1489.30528503936,-6.48370246381091E-14));
#586=CARTESIAN_POINT('',(1151.92421230897,-1489.30528503936,0.187499999999935));
#587=CARTESIAN_POINT('',(1156.92421230897,-1489.30528503936,-6.48370246381091E-14));
#588=CARTESIAN_POINT('',(1156.92421230897,-1489.30528503936,0.187499999999935));
#589=CARTESIAN_POINT('',(1154.37249441946,-1488.55528503934,-6.48370246381091E-14));
#590=CARTESIAN_POINT('',(1154.37249441928,-1490.05528503935,-6.48370246381091E-14));
#591=CARTESIAN_POINT('',(1154.37249441946,-1488.55528503934,0.187499999999935));
#592=CARTESIAN_POINT('',(1154.37249441928,-1490.05528503935,0.187499999999935));
#593=CARTESIAN_POINT('',(1154.16349441947,-1488.55528503934,-6.48370246381091E-14));
#594=CARTESIAN_POINT('',(1154.16349441947,-1490.05528503937,-6.48370246381091E-14));
#595=CARTESIAN_POINT('',(1154.16349441947,-1488.55528503934,0.187499999999935));
#596=CARTESIAN_POINT('',(1154.16349441947,-1490.05528503937,0.187499999999935));
#597=CARTESIAN_POINT('',(1151.61171230897,-1489.30528503936,-6.48370246381091E-14));
#598=CARTESIAN_POINT('',(1151.61171230897,-1489.30528503936,0.187499999999935));
#599=CARTESIAN_POINT('',(1156.61171230897,-1489.30528503936,-6.48370246381091E-14));
#600=CARTESIAN_POINT('',(1156.61171230897,-1489.30528503936,0.187499999999935));
#601=CARTESIAN_POINT('',(1157.51796230897,-1490.18028503936,-6.48370246381091E-14));
#602=CARTESIAN_POINT('',(1157.51796230897,-1489.30528503936,-6.48370246381091E-14));
#603=CARTESIAN_POINT('',(1157.51796230897,-1488.43028503936,-6.48370246381091E-14));
#604=CARTESIAN_POINT('',(1157.51796230897,-1488.43028503936,-6.48370246381091E-14));
#605=CARTESIAN_POINT('',(1157.51796230897,-1488.43028503936,0.187499999999935));
#606=CARTESIAN_POINT('',(1157.51796230897,-1490.18028503936,0.187499999999935));
#607=CARTESIAN_POINT('',(1157.51796230897,-1489.30528503936,0.187499999999935));
#608=CARTESIAN_POINT('',(1157.51796230897,-1488.43028503936,0.187499999999935));
#609=CARTESIAN_POINT('',(1157.51796230897,-1490.18028503936,-6.48370246381091E-14));
#610=CARTESIAN_POINT('',(1157.51796230897,-1490.18028503936,0.187499999999935));
#611=CARTESIAN_POINT('',(1157.51796230897,-1488.43028503936,-6.48370246381091E-14));
#612=CARTESIAN_POINT('',(1157.51796230897,-1488.30528503936,-6.48370246381091E-14));
#613=CARTESIAN_POINT('',(1157.39296230897,-1488.30528503936,-6.48370246381091E-14));
#614=CARTESIAN_POINT('',(1157.39296230897,-1488.30528503936,-6.48370246381091E-14));
#615=CARTESIAN_POINT('',(1157.39296230897,-1488.30528503936,0.187499999999935));
#616=CARTESIAN_POINT('',(1157.51796230897,-1488.43028503936,0.187499999999935));
#617=CARTESIAN_POINT('',(1157.51796230897,-1488.30528503936,0.187499999999935));
#618=CARTESIAN_POINT('',(1157.39296230897,-1488.30528503936,0.187499999999935));
#619=CARTESIAN_POINT('',(1157.39296230897,-1488.30528503936,-6.48370246381091E-14));
#620=CARTESIAN_POINT('',(1154.26796230897,-1488.30528503936,-6.48370246381091E-14));
#621=CARTESIAN_POINT('',(1151.14296230897,-1488.30528503936,-6.48370246381091E-14));
#622=CARTESIAN_POINT('',(1151.14296230897,-1488.30528503936,-6.48370246381091E-14));
#623=CARTESIAN_POINT('',(1151.14296230897,-1488.30528503936,0.187499999999935));
#624=CARTESIAN_POINT('',(1157.39296230897,-1488.30528503936,0.187499999999935));
#625=CARTESIAN_POINT('',(1154.26796230897,-1488.30528503936,0.187499999999935));
#626=CARTESIAN_POINT('',(1151.14296230897,-1488.30528503936,0.187499999999935));
#627=CARTESIAN_POINT('',(1151.14296230897,-1488.30528503936,-6.48370246381091E-14));
#628=CARTESIAN_POINT('',(1151.01796230897,-1488.30528503936,-6.48370246381091E-14));
#629=CARTESIAN_POINT('',(1151.01796230897,-1488.43028503936,-6.48370246381091E-14));
#630=CARTESIAN_POINT('',(1151.01796230897,-1488.43028503936,-6.48370246381091E-14));
#631=CARTESIAN_POINT('',(1151.01796230897,-1488.43028503936,0.187499999999935));
#632=CARTESIAN_POINT('',(1151.14296230897,-1488.30528503936,0.187499999999935));
#633=CARTESIAN_POINT('',(1151.01796230897,-1488.30528503936,0.187499999999935));
#634=CARTESIAN_POINT('',(1151.01796230897,-1488.43028503936,0.187499999999935));
#635=CARTESIAN_POINT('',(1151.01796230897,-1488.43028503936,-6.48370246381091E-14));
#636=CARTESIAN_POINT('',(1151.01796230897,-1489.30528503936,-6.48370246381091E-14));
#637=CARTESIAN_POINT('',(1151.01796230897,-1490.18028503936,-6.48370246381091E-14));
#638=CARTESIAN_POINT('',(1151.01796230897,-1490.18028503936,-6.48370246381091E-14));
#639=CARTESIAN_POINT('',(1151.01796230897,-1490.18028503936,0.187499999999935));
#640=CARTESIAN_POINT('',(1151.01796230897,-1488.43028503936,0.187499999999935));
#641=CARTESIAN_POINT('',(1151.01796230897,-1489.30528503936,0.187499999999935));
#642=CARTESIAN_POINT('',(1151.01796230897,-1490.18028503936,0.187499999999935));
#643=CARTESIAN_POINT('',(1151.01796230897,-1490.18028503936,-6.48370246381091E-14));
#644=CARTESIAN_POINT('',(1151.01796230897,-1490.30528503936,-6.48370246381091E-14));
#645=CARTESIAN_POINT('',(1151.14296230897,-1490.30528503936,-6.48370246381091E-14));
#646=CARTESIAN_POINT('',(1151.14296230897,-1490.30528503936,-6.48370246381091E-14));
#647=CARTESIAN_POINT('',(1151.14296230897,-1490.30528503936,0.187499999999935));
#648=CARTESIAN_POINT('',(1151.01796230897,-1490.18028503936,0.187499999999935));
#649=CARTESIAN_POINT('',(1151.01796230897,-1490.30528503936,0.187499999999935));
#650=CARTESIAN_POINT('',(1151.14296230897,-1490.30528503936,0.187499999999935));
#651=CARTESIAN_POINT('',(1151.14296230897,-1490.30528503936,-6.48370246381091E-14));
#652=CARTESIAN_POINT('',(1154.26796230897,-1490.30528503936,-6.48370246381091E-14));
#653=CARTESIAN_POINT('',(1157.39296230897,-1490.30528503936,-6.48370246381091E-14));
#654=CARTESIAN_POINT('',(1157.39296230897,-1490.30528503936,-6.48370246381091E-14));
#655=CARTESIAN_POINT('',(1157.39296230897,-1490.30528503936,0.187499999999935));
#656=CARTESIAN_POINT('',(1151.14296230897,-1490.30528503936,0.187499999999935));
#657=CARTESIAN_POINT('',(1154.26796230897,-1490.30528503936,0.187499999999935));
#658=CARTESIAN_POINT('',(1157.39296230897,-1490.30528503936,0.187499999999935));
#659=CARTESIAN_POINT('',(1157.39296230897,-1490.30528503936,-6.48370246381091E-14));
#660=CARTESIAN_POINT('',(1157.51796230897,-1490.30528503936,-6.48370246381091E-14));
#661=CARTESIAN_POINT('',(1157.51796230897,-1490.18028503936,-6.48370246381091E-14));
#662=CARTESIAN_POINT('',(1157.39296230897,-1490.30528503936,0.187499999999935));
#663=CARTESIAN_POINT('',(1157.51796230897,-1490.30528503936,0.187499999999935));
#664=CARTESIAN_POINT('',(1157.51796230897,-1490.18028503936,0.187499999999935));
#665=CARTESIAN_POINT('',(1154.62249441963,-1488.55528503937,0.187499999999935));
#666=CARTESIAN_POINT('',(1154.62249441963,-1488.55528503937,-6.48370246381091E-14));
#667=CARTESIAN_POINT('',(1154.62249441963,-1488.55528503937,-6.48370246381091E-14));
#668=CARTESIAN_POINT('',(1154.62249441954,-1489.30528503937,-6.48370246381091E-14));
#669=CARTESIAN_POINT('',(1154.62249441946,-1490.05528503937,-6.48370246381091E-14));
#670=CARTESIAN_POINT('',(1154.62249441946,-1490.05528503937,0.187499999999935));
#671=CARTESIAN_POINT('',(1154.62249441946,-1490.05528503937,-6.48370246381091E-14));
#672=CARTESIAN_POINT('',(1154.62249441963,-1488.55528503937,0.187499999999935));
#673=CARTESIAN_POINT('',(1154.62249441954,-1489.30528503937,0.187499999999935));
#674=CARTESIAN_POINT('',(1154.62249441946,-1490.05528503937,0.187499999999935));
#675=CARTESIAN_POINT('',(1153.91349441929,-1490.05528503935,-6.48370246381091E-14));
#676=CARTESIAN_POINT('',(1153.91349441938,-1489.30528503935,-6.48370246381091E-14));
#677=CARTESIAN_POINT('',(1153.91349441947,-1488.55528503934,-6.48370246381091E-14));
#678=CARTESIAN_POINT('',(1153.91349441947,-1488.55528503934,0.187499999999935));
#679=CARTESIAN_POINT('',(1153.91349441947,-1488.55528503934,-6.48370246381091E-14));
#680=CARTESIAN_POINT('',(1153.91349441929,-1490.05528503935,0.187499999999935));
#681=CARTESIAN_POINT('',(1153.91349441938,-1489.30528503935,0.187499999999935));
#682=CARTESIAN_POINT('',(1153.91349441947,-1488.55528503934,0.187499999999935));
#683=CARTESIAN_POINT('',(1153.91349441929,-1490.05528503935,0.187499999999935));
#684=CARTESIAN_POINT('',(1153.91349441929,-1490.05528503935,-6.48370246381091E-14));
#685=CARTESIAN_POINT('',(1151.92421230897,-1489.30528503936,-6.48370246381091E-14));
#686=CARTESIAN_POINT('',(1151.92421230897,-1489.46153503936,-6.48370246381091E-14));
#687=CARTESIAN_POINT('',(1151.76796230897,-1489.46153503936,-6.48370246381091E-14));
#688=CARTESIAN_POINT('',(1151.61171230897,-1489.46153503936,-6.48370246381091E-14));
#689=CARTESIAN_POINT('',(1151.61171230897,-1489.30528503936,-6.48370246381091E-14));
#690=CARTESIAN_POINT('',(1151.92421230897,-1489.30528503936,-6.48370246381091E-14));
#691=CARTESIAN_POINT('',(1151.92421230897,-1489.30528503936,0.187499999999935));
#692=CARTESIAN_POINT('',(1151.92421230897,-1489.30528503936,0.187499999999935));
#693=CARTESIAN_POINT('',(1151.92421230897,-1489.46153503936,0.187499999999935));
#694=CARTESIAN_POINT('',(1151.76796230897,-1489.46153503936,0.187499999999935));
#695=CARTESIAN_POINT('',(1151.61171230897,-1489.46153503936,0.187499999999935));
#696=CARTESIAN_POINT('',(1151.61171230897,-1489.30528503936,0.187499999999935));
#697=CARTESIAN_POINT('',(1156.92421230897,-1489.30528503936,-6.48370246381091E-14));
#698=CARTESIAN_POINT('',(1156.92421230897,-1489.46153503936,-6.48370246381091E-14));
#699=CARTESIAN_POINT('',(1156.76796230897,-1489.46153503936,-6.48370246381091E-14));
#700=CARTESIAN_POINT('',(1156.61171230897,-1489.46153503936,-6.48370246381091E-14));
#701=CARTESIAN_POINT('',(1156.61171230897,-1489.30528503936,-6.48370246381091E-14));
#702=CARTESIAN_POINT('',(1156.92421230897,-1489.30528503936,-6.48370246381091E-14));
#703=CARTESIAN_POINT('',(1156.92421230897,-1489.30528503936,0.187499999999935));
#704=CARTESIAN_POINT('',(1156.92421230897,-1489.30528503936,0.187499999999935));
#705=CARTESIAN_POINT('',(1156.92421230897,-1489.46153503936,0.187499999999935));
#706=CARTESIAN_POINT('',(1156.76796230897,-1489.46153503936,0.187499999999935));
#707=CARTESIAN_POINT('',(1156.61171230897,-1489.46153503936,0.187499999999935));
#708=CARTESIAN_POINT('',(1156.61171230897,-1489.30528503936,0.187499999999935));
#709=CARTESIAN_POINT('',(1154.37249441928,-1490.05528503935,-6.48370246381091E-14));
#710=CARTESIAN_POINT('',(1154.37249441946,-1488.55528503934,-6.48370246381091E-14));
#711=CARTESIAN_POINT('',(1154.37249441928,-1490.05528503935,0.187499999999935));
#712=CARTESIAN_POINT('',(1154.37249441946,-1488.55528503934,0.187499999999935));
#713=CARTESIAN_POINT('',(1154.37249441946,-1488.55528503934,0.187499999999935));
#714=CARTESIAN_POINT('',(1154.37249441946,-1488.55528503934,-6.48370246381091E-14));
#715=CARTESIAN_POINT('',(1154.37249441928,-1490.05528503935,0.187499999999935));
#716=CARTESIAN_POINT('',(1154.37249441928,-1490.05528503935,-6.48370246381091E-14));
#717=CARTESIAN_POINT('',(1154.37249441946,-1488.55528503934,-6.48370246381091E-14));
#718=CARTESIAN_POINT('',(1154.40374441954,-1488.55528503934,-6.48370246381091E-14));
#719=CARTESIAN_POINT('',(1154.43499441963,-1488.55528503934,-6.48370246381091E-14));
#720=CARTESIAN_POINT('',(1154.52874441963,-1488.55528503936,-6.48370246381091E-14));
#721=CARTESIAN_POINT('',(1154.62249441963,-1488.55528503937,-6.48370246381091E-14));
#722=CARTESIAN_POINT('',(1154.37249441946,-1488.55528503934,0.187499999999935));
#723=CARTESIAN_POINT('',(1154.40374441954,-1488.55528503934,0.187499999999935));
#724=CARTESIAN_POINT('',(1154.43499441963,-1488.55528503934,0.187499999999935));
#725=CARTESIAN_POINT('',(1154.52874441963,-1488.55528503936,0.187499999999935));
#726=CARTESIAN_POINT('',(1154.62249441963,-1488.55528503937,0.187499999999935));
#727=CARTESIAN_POINT('',(1154.62249441946,-1490.05528503937,-6.48370246381091E-14));
#728=CARTESIAN_POINT('',(1154.52874441946,-1490.05528503936,-6.48370246381091E-14));
#729=CARTESIAN_POINT('',(1154.43499441946,-1490.05528503935,-6.48370246381091E-14));
#730=CARTESIAN_POINT('',(1154.40374441937,-1490.05528503935,-6.48370246381091E-14));
#731=CARTESIAN_POINT('',(1154.37249441928,-1490.05528503935,-6.48370246381091E-14));
#732=CARTESIAN_POINT('',(1154.62249441946,-1490.05528503937,0.187499999999935));
#733=CARTESIAN_POINT('',(1154.52874441946,-1490.05528503936,0.187499999999935));
#734=CARTESIAN_POINT('',(1154.43499441946,-1490.05528503935,0.187499999999935));
#735=CARTESIAN_POINT('',(1154.40374441937,-1490.05528503935,0.187499999999935));
#736=CARTESIAN_POINT('',(1154.37249441928,-1490.05528503935,0.187499999999935));
#737=CARTESIAN_POINT('',(1154.16349441947,-1488.55528503934,-6.48370246381091E-14));
#738=CARTESIAN_POINT('',(1154.16349441947,-1490.05528503937,-6.48370246381091E-14));
#739=CARTESIAN_POINT('',(1154.16349441947,-1488.55528503934,0.187499999999935));
#740=CARTESIAN_POINT('',(1154.16349441947,-1490.05528503937,0.187499999999935));
#741=CARTESIAN_POINT('',(1154.16349441947,-1488.55528503934,0.187499999999935));
#742=CARTESIAN_POINT('',(1154.16349441947,-1488.55528503934,-6.48370246381091E-14));
#743=CARTESIAN_POINT('',(1154.16349441947,-1490.05528503937,0.187499999999935));
#744=CARTESIAN_POINT('',(1154.16349441947,-1490.05528503937,-6.48370246381091E-14));
#745=CARTESIAN_POINT('',(1153.91349441947,-1488.55528503934,-6.48370246381091E-14));
#746=CARTESIAN_POINT('',(1154.00724441947,-1488.55528503936,-6.48370246381091E-14));
#747=CARTESIAN_POINT('',(1154.10099441947,-1488.55528503937,-6.48370246381091E-14));
#748=CARTESIAN_POINT('',(1154.13224441947,-1488.55528503936,-6.48370246381091E-14));
#749=CARTESIAN_POINT('',(1154.16349441947,-1488.55528503934,-6.48370246381091E-14));
#750=CARTESIAN_POINT('',(1153.91349441947,-1488.55528503934,0.187499999999935));
#751=CARTESIAN_POINT('',(1154.00724441947,-1488.55528503936,0.187499999999935));
#752=CARTESIAN_POINT('',(1154.10099441947,-1488.55528503937,0.187499999999935));
#753=CARTESIAN_POINT('',(1154.13224441947,-1488.55528503936,0.187499999999935));
#754=CARTESIAN_POINT('',(1154.16349441947,-1488.55528503934,0.187499999999935));
#755=CARTESIAN_POINT('',(1154.16349441947,-1490.05528503937,-6.48370246381091E-14));
#756=CARTESIAN_POINT('',(1154.13224441938,-1490.05528503937,-6.48370246381091E-14));
#757=CARTESIAN_POINT('',(1154.10099441929,-1490.05528503937,-6.48370246381091E-14));
#758=CARTESIAN_POINT('',(1154.00724441929,-1490.05528503936,-6.48370246381091E-14));
#759=CARTESIAN_POINT('',(1153.91349441929,-1490.05528503935,-6.48370246381091E-14));
#760=CARTESIAN_POINT('',(1154.16349441947,-1490.05528503937,0.187499999999935));
#761=CARTESIAN_POINT('',(1154.13224441938,-1490.05528503937,0.187499999999935));
#762=CARTESIAN_POINT('',(1154.10099441929,-1490.05528503937,0.187499999999935));
#763=CARTESIAN_POINT('',(1154.00724441929,-1490.05528503936,0.187499999999935));
#764=CARTESIAN_POINT('',(1153.91349441929,-1490.05528503935,0.187499999999935));
#765=CARTESIAN_POINT('',(1151.61171230897,-1489.30528503936,-6.48370246381091E-14));
#766=CARTESIAN_POINT('',(1151.61171230897,-1489.30528503936,0.187499999999935));
#767=CARTESIAN_POINT('',(1151.61171230897,-1489.30528503936,-6.48370246381091E-14));
#768=CARTESIAN_POINT('',(1151.61171230897,-1489.14903503936,-6.48370246381091E-14));
#769=CARTESIAN_POINT('',(1151.76796230897,-1489.14903503936,-6.48370246381091E-14));
#770=CARTESIAN_POINT('',(1151.92421230897,-1489.14903503936,-6.48370246381091E-14));
#771=CARTESIAN_POINT('',(1151.92421230897,-1489.30528503936,-6.48370246381091E-14));
#772=CARTESIAN_POINT('',(1151.61171230897,-1489.30528503936,0.187499999999935));
#773=CARTESIAN_POINT('',(1151.61171230897,-1489.14903503936,0.187499999999935));
#774=CARTESIAN_POINT('',(1151.76796230897,-1489.14903503936,0.187499999999935));
#775=CARTESIAN_POINT('',(1151.92421230897,-1489.14903503936,0.187499999999935));
#776=CARTESIAN_POINT('',(1151.92421230897,-1489.30528503936,0.187499999999935));
#777=CARTESIAN_POINT('',(1156.61171230897,-1489.30528503936,-6.48370246381091E-14));
#778=CARTESIAN_POINT('',(1156.61171230897,-1489.30528503936,0.187499999999935));
#779=CARTESIAN_POINT('',(1156.61171230897,-1489.30528503936,-6.48370246381091E-14));
#780=CARTESIAN_POINT('',(1156.61171230897,-1489.14903503936,-6.48370246381091E-14));
#781=CARTESIAN_POINT('',(1156.76796230897,-1489.14903503936,-6.48370246381091E-14));
#782=CARTESIAN_POINT('',(1156.92421230897,-1489.14903503936,-6.48370246381091E-14));
#783=CARTESIAN_POINT('',(1156.92421230897,-1489.30528503936,-6.48370246381091E-14));
#784=CARTESIAN_POINT('',(1156.61171230897,-1489.30528503936,0.187499999999935));
#785=CARTESIAN_POINT('',(1156.61171230897,-1489.14903503936,0.187499999999935));
#786=CARTESIAN_POINT('',(1156.76796230897,-1489.14903503936,0.187499999999935));
#787=CARTESIAN_POINT('',(1156.92421230897,-1489.14903503936,0.187499999999935));
#788=CARTESIAN_POINT('',(1156.92421230897,-1489.30528503936,0.187499999999935));
#789=CARTESIAN_POINT('',(0.,0.,0.));
ENDSEC;
END-ISO-10303-21;
